solid RotorHazard Antenna Holder 50mm
facet normal 0.0 0.0 -1.0
  outer loop
    vertex -1.7499999999999993 3.031088913245535 0.0
    vertex -1.7999999999999998 2.2043642384652356e-16 0.0
    vertex -2.4748737341529163 2.4748737341529163 0.0
  endloop
endfacet
facet normal 0.0 0.0 -1.0
  outer loop
    vertex -1.7999999999999998 2.2043642384652356e-16 0.0
    vertex -1.7499999999999993 3.031088913245535 0.0
    vertex -1.7386664873203226 0.4658742811845378 0.0
  endloop
endfacet
facet normal 0.0 0.0 -1.0
  outer loop
    vertex -1.7386664873203226 0.4658742811845378 0.0
    vertex -1.7499999999999993 3.031088913245535 0.0
    vertex -0.9058666578588221 3.380740392011739 0.0
  endloop
endfacet
facet normal 0.0 0.0 -1.0
  outer loop
    vertex -1.7386664873203226 0.4658742811845378 0.0
    vertex -0.9058666578588221 3.380740392011739 0.0
    vertex -1.5588457268119893 0.9000000000000005 0.0
  endloop
endfacet
facet normal 0.0 0.0 -1.0
  outer loop
    vertex -1.5588457268119893 0.9000000000000005 0.0
    vertex -0.9058666578588221 3.380740392011739 0.0
    vertex -1.2727922061357853 1.2727922061357857 0.0
  endloop
endfacet
facet normal 0.0 0.0 -1.0
  outer loop
    vertex -1.2727922061357853 1.2727922061357857 0.0
    vertex -0.9058666578588221 3.380740392011739 0.0
    vertex -0.8999999999999996 1.5588457268119895 0.0
  endloop
endfacet
facet normal 0.0 0.0 -1.0
  outer loop
    vertex -0.8999999999999996 1.5588457268119895 0.0
    vertex -0.9058666578588221 3.380740392011739 0.0
    vertex 2.143131898507868e-16 3.5 0.0
  endloop
endfacet
facet normal 0.0 0.0 -1.0
  outer loop
    vertex -0.8999999999999996 1.5588457268119895 0.0
    vertex 2.143131898507868e-16 3.5 0.0
    vertex -0.46587428118453716 1.738666487320323 0.0
  endloop
endfacet
facet normal 0.0 0.0 -1.0
  outer loop
    vertex -0.46587428118453716 1.738666487320323 0.0
    vertex 2.143131898507868e-16 3.5 0.0
    vertex 1.1021821192326178e-16 1.7999999999999998 0.0
  endloop
endfacet
facet normal 0.0 0.0 -1.0
  outer loop
    vertex 1.1021821192326178e-16 1.7999999999999998 0.0
    vertex 2.143131898507868e-16 3.5 0.0
    vertex 0.46587428118453766 1.7386664873203226 0.0
  endloop
endfacet
facet normal 0.0 0.0 -1.0
  outer loop
    vertex 0.46587428118453766 1.7386664873203226 0.0
    vertex 2.143131898507868e-16 3.5 0.0
    vertex 0.9058666578588234 3.380740392011739 0.0
  endloop
endfacet
facet normal 0.0 0.0 -1.0
  outer loop
    vertex 0.46587428118453766 1.7386664873203226 0.0
    vertex 0.9058666578588234 3.380740392011739 0.0
    vertex 0.9000000000000001 1.5588457268119895 0.0
  endloop
endfacet
facet normal 0.0 0.0 -1.0
  outer loop
    vertex 0.9000000000000001 1.5588457268119895 0.0
    vertex 0.9058666578588234 3.380740392011739 0.0
    vertex 1.2727922061357857 1.2727922061357857 0.0
  endloop
endfacet
facet normal 0.0 0.0 -1.0
  outer loop
    vertex 1.2727922061357857 1.2727922061357857 0.0
    vertex 0.9058666578588234 3.380740392011739 0.0
    vertex 1.7500000000000002 3.031088913245535 0.0
  endloop
endfacet
facet normal 0.0 0.0 -1.0
  outer loop
    vertex 1.2727922061357857 1.2727922061357857 0.0
    vertex 1.7500000000000002 3.031088913245535 0.0
    vertex 1.5588457268119895 0.8999999999999998 0.0
  endloop
endfacet
facet normal 0.0 0.0 -1.0
  outer loop
    vertex 1.5588457268119895 0.8999999999999998 0.0
    vertex 1.7500000000000002 3.031088913245535 0.0
    vertex 1.738666487320323 0.46587428118453733 0.0
  endloop
endfacet
facet normal 0.0 0.0 -1.0
  outer loop
    vertex 1.738666487320323 0.46587428118453733 0.0
    vertex 1.7500000000000002 3.031088913245535 0.0
    vertex 1.7999999999999998 0.0 0.0
  endloop
endfacet
facet normal 0.0 0.0 -1.0
  outer loop
    vertex 1.7999999999999998 0.0 0.0
    vertex 1.7500000000000002 3.031088913245535 0.0
    vertex 2.4748737341529163 2.4748737341529163 0.0
  endloop
endfacet
facet normal 0.0 0.0 -1.0
  outer loop
    vertex 1.7999999999999998 0.0 0.0
    vertex 2.4748737341529163 2.4748737341529163 0.0
    vertex 2.474873734152916 -2.474873734152917 0.0
  endloop
endfacet
facet normal 0.0 0.0 -1.0
  outer loop
    vertex 2.474873734152916 -2.474873734152917 0.0
    vertex 2.4748737341529163 2.4748737341529163 0.0
    vertex 2.839257166250795 -1.9999999999999996 0.0
  endloop
endfacet
facet normal 0.0 0.0 -1.0
  outer loop
    vertex 2.839257166250795 -1.9999999999999996 0.0
    vertex 2.4748737341529163 2.4748737341529163 0.0
    vertex 2.8392571662507944 1.9999999999999998 0.0
  endloop
endfacet
facet normal 0.0 0.0 -1.0
  outer loop
    vertex 2.839257166250795 -1.9999999999999996 0.0
    vertex 2.8392571662507944 1.9999999999999998 0.0
    vertex 50.0 1.9999999999999996 0.0
  endloop
endfacet
facet normal 0.0 0.0 -1.0
  outer loop
    vertex 2.839257166250795 -1.9999999999999996 0.0
    vertex 50.0 1.9999999999999996 0.0
    vertex 50.0 -1.9999999999999996 0.0
  endloop
endfacet
facet normal 0.0 0.0 -1.0
  outer loop
    vertex -3.380740392011739 0.9058666578588235 0.0
    vertex -3.3807403920117394 -0.9058666578588213 0.0
    vertex -3.5 4.286263797015736e-16 0.0
  endloop
endfacet
facet normal 0.0 0.0 -1.0
  outer loop
    vertex -3.3807403920117394 -0.9058666578588213 0.0
    vertex -3.380740392011739 0.9058666578588235 0.0
    vertex -3.0310889132455356 -1.749999999999999 0.0
  endloop
endfacet
facet normal 0.0 0.0 -1.0
  outer loop
    vertex -3.0310889132455356 -1.749999999999999 0.0
    vertex -3.380740392011739 0.9058666578588235 0.0
    vertex -3.0310889132455348 1.750000000000001 0.0
  endloop
endfacet
facet normal 0.0 0.0 -1.0
  outer loop
    vertex -3.0310889132455356 -1.749999999999999 0.0
    vertex -3.0310889132455348 1.750000000000001 0.0
    vertex -2.4748737341529177 -2.4748737341529146 0.0
  endloop
endfacet
facet normal 0.0 0.0 -1.0
  outer loop
    vertex -2.4748737341529177 -2.4748737341529146 0.0
    vertex -3.0310889132455348 1.750000000000001 0.0
    vertex -2.4748737341529163 2.4748737341529163 0.0
  endloop
endfacet
facet normal 0.0 0.0 -1.0
  outer loop
    vertex -2.4748737341529177 -2.4748737341529146 0.0
    vertex -2.4748737341529163 2.4748737341529163 0.0
    vertex -1.7500000000000013 -3.0310889132455348 0.0
  endloop
endfacet
facet normal 0.0 0.0 -1.0
  outer loop
    vertex -1.7500000000000013 -3.0310889132455348 0.0
    vertex -2.4748737341529163 2.4748737341529163 0.0
    vertex -1.7999999999999998 2.2043642384652356e-16 0.0
  endloop
endfacet
facet normal 0.0 0.0 -1.0
  outer loop
    vertex -1.7500000000000013 -3.0310889132455348 0.0
    vertex -1.7999999999999998 2.2043642384652356e-16 0.0
    vertex -1.738666487320323 -0.4658742811845366 0.0
  endloop
endfacet
facet normal 0.0 0.0 -1.0
  outer loop
    vertex -1.7500000000000013 -3.0310889132455348 0.0
    vertex -1.738666487320323 -0.4658742811845366 0.0
    vertex -0.9058666578588253 -3.380740392011738 0.0
  endloop
endfacet
facet normal 0.0 0.0 -1.0
  outer loop
    vertex -0.9058666578588253 -3.380740392011738 0.0
    vertex -1.738666487320323 -0.4658742811845366 0.0
    vertex -1.5588457268119897 -0.8999999999999994 0.0
  endloop
endfacet
facet normal 0.0 0.0 -1.0
  outer loop
    vertex -0.9058666578588253 -3.380740392011738 0.0
    vertex -1.5588457268119897 -0.8999999999999994 0.0
    vertex -1.2727922061357861 -1.2727922061357848 0.0
  endloop
endfacet
facet normal 0.0 0.0 -1.0
  outer loop
    vertex -0.9058666578588253 -3.380740392011738 0.0
    vertex -1.2727922061357861 -1.2727922061357848 0.0
    vertex -0.9000000000000008 -1.5588457268119893 0.0
  endloop
endfacet
facet normal 0.0 0.0 -1.0
  outer loop
    vertex -0.9058666578588253 -3.380740392011738 0.0
    vertex -0.9000000000000008 -1.5588457268119893 0.0
    vertex -6.429395695523604e-16 -3.5 0.0
  endloop
endfacet
facet normal 0.0 0.0 -1.0
  outer loop
    vertex -6.429395695523604e-16 -3.5 0.0
    vertex -0.9000000000000008 -1.5588457268119893 0.0
    vertex -0.4658742811845387 -1.7386664873203226 0.0
  endloop
endfacet
facet normal 0.0 0.0 -1.0
  outer loop
    vertex -6.429395695523604e-16 -3.5 0.0
    vertex -0.4658742811845387 -1.7386664873203226 0.0
    vertex -3.306546357697853e-16 -1.7999999999999998 0.0
  endloop
endfacet
facet normal 0.0 0.0 -1.0
  outer loop
    vertex -6.429395695523604e-16 -3.5 0.0
    vertex -3.306546357697853e-16 -1.7999999999999998 0.0
    vertex 0.905866657858821 -3.3807403920117394 0.0
  endloop
endfacet
facet normal 0.0 0.0 -1.0
  outer loop
    vertex 0.905866657858821 -3.3807403920117394 0.0
    vertex -3.306546357697853e-16 -1.7999999999999998 0.0
    vertex 0.4658742811845365 -1.738666487320323 0.0
  endloop
endfacet
facet normal 0.0 0.0 -1.0
  outer loop
    vertex 0.905866657858821 -3.3807403920117394 0.0
    vertex 0.4658742811845365 -1.738666487320323 0.0
    vertex 0.8999999999999987 -1.5588457268119902 0.0
  endloop
endfacet
facet normal 0.0 0.0 -1.0
  outer loop
    vertex 0.905866657858821 -3.3807403920117394 0.0
    vertex 0.8999999999999987 -1.5588457268119902 0.0
    vertex 1.272792206135785 -1.2727922061357857 0.0
  endloop
endfacet
facet normal 0.0 0.0 -1.0
  outer loop
    vertex 0.905866657858821 -3.3807403920117394 0.0
    vertex 1.272792206135785 -1.2727922061357857 0.0
    vertex 1.7499999999999976 -3.0310889132455365 0.0
  endloop
endfacet
facet normal 0.0 0.0 -1.0
  outer loop
    vertex 1.7499999999999976 -3.0310889132455365 0.0
    vertex 1.272792206135785 -1.2727922061357857 0.0
    vertex 1.5588457268119889 -0.9000000000000008 0.0
  endloop
endfacet
facet normal 0.0 0.0 -1.0
  outer loop
    vertex 1.7499999999999976 -3.0310889132455365 0.0
    vertex 1.5588457268119889 -0.9000000000000008 0.0
    vertex 1.7386664873203226 -0.46587428118453883 0.0
  endloop
endfacet
facet normal 0.0 0.0 -1.0
  outer loop
    vertex 1.7499999999999976 -3.0310889132455365 0.0
    vertex 1.7386664873203226 -0.46587428118453883 0.0
    vertex 1.7999999999999998 0.0 0.0
  endloop
endfacet
facet normal 0.0 0.0 -1.0
  outer loop
    vertex 1.7499999999999976 -3.0310889132455365 0.0
    vertex 1.7999999999999998 0.0 0.0
    vertex 2.474873734152916 -2.474873734152917 0.0
  endloop
endfacet
facet normal 0.0 0.0 1.0
  outer loop
    vertex -3.3807403920117394 -0.9058666578588213 3.0
    vertex -3.380740392011739 0.9058666578588235 3.0
    vertex -3.5 4.286263797015736e-16 3.0
  endloop
endfacet
facet normal 0.0 0.0 1.0
  outer loop
    vertex -3.380740392011739 0.9058666578588235 3.0
    vertex -3.3807403920117394 -0.9058666578588213 3.0
    vertex -3.0310889132455356 -1.749999999999999 3.0
  endloop
endfacet
facet normal 0.0 0.0 1.0
  outer loop
    vertex -3.380740392011739 0.9058666578588235 3.0
    vertex -3.0310889132455356 -1.749999999999999 3.0
    vertex -3.0310889132455348 1.750000000000001 3.0
  endloop
endfacet
facet normal 0.0 0.0 1.0
  outer loop
    vertex -3.0310889132455348 1.750000000000001 3.0
    vertex -3.0310889132455356 -1.749999999999999 3.0
    vertex -2.4748737341529177 -2.4748737341529146 3.0
  endloop
endfacet
facet normal 0.0 0.0 1.0
  outer loop
    vertex -3.0310889132455348 1.750000000000001 3.0
    vertex -2.4748737341529177 -2.4748737341529146 3.0
    vertex -2.4748737341529163 2.4748737341529163 3.0
  endloop
endfacet
facet normal 0.0 0.0 1.0
  outer loop
    vertex -2.4748737341529163 2.4748737341529163 3.0
    vertex -2.4748737341529177 -2.4748737341529146 3.0
    vertex -1.7500000000000013 -3.0310889132455348 3.0
  endloop
endfacet
facet normal 0.0 0.0 1.0
  outer loop
    vertex -2.4748737341529163 2.4748737341529163 3.0
    vertex -1.7500000000000013 -3.0310889132455348 3.0
    vertex -1.7999999999999998 2.2043642384652356e-16 3.0
  endloop
endfacet
facet normal 0.0 0.0 1.0
  outer loop
    vertex -1.7999999999999998 2.2043642384652356e-16 3.0
    vertex -1.7500000000000013 -3.0310889132455348 3.0
    vertex -1.738666487320323 -0.4658742811845366 3.0
  endloop
endfacet
facet normal 0.0 0.0 1.0
  outer loop
    vertex -1.738666487320323 -0.4658742811845366 3.0
    vertex -1.7500000000000013 -3.0310889132455348 3.0
    vertex -0.9058666578588253 -3.380740392011738 3.0
  endloop
endfacet
facet normal 0.0 0.0 1.0
  outer loop
    vertex -1.738666487320323 -0.4658742811845366 3.0
    vertex -0.9058666578588253 -3.380740392011738 3.0
    vertex -1.5588457268119897 -0.8999999999999994 3.0
  endloop
endfacet
facet normal 0.0 0.0 1.0
  outer loop
    vertex -1.5588457268119897 -0.8999999999999994 3.0
    vertex -0.9058666578588253 -3.380740392011738 3.0
    vertex -1.2727922061357861 -1.2727922061357848 3.0
  endloop
endfacet
facet normal 0.0 0.0 1.0
  outer loop
    vertex -1.2727922061357861 -1.2727922061357848 3.0
    vertex -0.9058666578588253 -3.380740392011738 3.0
    vertex -0.9000000000000008 -1.5588457268119893 3.0
  endloop
endfacet
facet normal 0.0 0.0 1.0
  outer loop
    vertex -0.9000000000000008 -1.5588457268119893 3.0
    vertex -0.9058666578588253 -3.380740392011738 3.0
    vertex -6.429395695523604e-16 -3.5 3.0
  endloop
endfacet
facet normal 0.0 0.0 1.0
  outer loop
    vertex -0.9000000000000008 -1.5588457268119893 3.0
    vertex -6.429395695523604e-16 -3.5 3.0
    vertex -0.4658742811845387 -1.7386664873203226 3.0
  endloop
endfacet
facet normal 0.0 0.0 1.0
  outer loop
    vertex -0.4658742811845387 -1.7386664873203226 3.0
    vertex -6.429395695523604e-16 -3.5 3.0
    vertex -3.306546357697853e-16 -1.7999999999999998 3.0
  endloop
endfacet
facet normal 0.0 0.0 1.0
  outer loop
    vertex -3.306546357697853e-16 -1.7999999999999998 3.0
    vertex -6.429395695523604e-16 -3.5 3.0
    vertex 0.905866657858821 -3.3807403920117394 3.0
  endloop
endfacet
facet normal 0.0 0.0 1.0
  outer loop
    vertex -3.306546357697853e-16 -1.7999999999999998 3.0
    vertex 0.905866657858821 -3.3807403920117394 3.0
    vertex 0.4658742811845365 -1.738666487320323 3.0
  endloop
endfacet
facet normal 0.0 0.0 1.0
  outer loop
    vertex 0.4658742811845365 -1.738666487320323 3.0
    vertex 0.905866657858821 -3.3807403920117394 3.0
    vertex 0.8999999999999987 -1.5588457268119902 3.0
  endloop
endfacet
facet normal 0.0 0.0 1.0
  outer loop
    vertex 0.8999999999999987 -1.5588457268119902 3.0
    vertex 0.905866657858821 -3.3807403920117394 3.0
    vertex 1.272792206135785 -1.2727922061357857 3.0
  endloop
endfacet
facet normal 0.0 0.0 1.0
  outer loop
    vertex 1.272792206135785 -1.2727922061357857 3.0
    vertex 0.905866657858821 -3.3807403920117394 3.0
    vertex 1.7499999999999976 -3.0310889132455365 3.0
  endloop
endfacet
facet normal 0.0 0.0 1.0
  outer loop
    vertex 1.272792206135785 -1.2727922061357857 3.0
    vertex 1.7499999999999976 -3.0310889132455365 3.0
    vertex 1.5588457268119889 -0.9000000000000008 3.0
  endloop
endfacet
facet normal 0.0 0.0 1.0
  outer loop
    vertex 1.5588457268119889 -0.9000000000000008 3.0
    vertex 1.7499999999999976 -3.0310889132455365 3.0
    vertex 1.7386664873203226 -0.46587428118453883 3.0
  endloop
endfacet
facet normal 0.0 0.0 1.0
  outer loop
    vertex 1.7386664873203226 -0.46587428118453883 3.0
    vertex 1.7499999999999976 -3.0310889132455365 3.0
    vertex 1.7999999999999998 0.0 3.0
  endloop
endfacet
facet normal 0.0 0.0 1.0
  outer loop
    vertex 1.7999999999999998 0.0 3.0
    vertex 1.7499999999999976 -3.0310889132455365 3.0
    vertex 2.474873734152916 -2.474873734152917 3.0
  endloop
endfacet
facet normal 0.0 0.0 1.0
  outer loop
    vertex -1.7999999999999998 2.2043642384652356e-16 3.0
    vertex -1.7499999999999993 3.031088913245535 3.0
    vertex -2.4748737341529163 2.4748737341529163 3.0
  endloop
endfacet
facet normal 0.0 0.0 1.0
  outer loop
    vertex -1.7499999999999993 3.031088913245535 3.0
    vertex -1.7999999999999998 2.2043642384652356e-16 3.0
    vertex -1.7386664873203226 0.4658742811845378 3.0
  endloop
endfacet
facet normal 0.0 0.0 1.0
  outer loop
    vertex -1.7499999999999993 3.031088913245535 3.0
    vertex -1.7386664873203226 0.4658742811845378 3.0
    vertex -0.9058666578588221 3.380740392011739 3.0
  endloop
endfacet
facet normal 0.0 0.0 1.0
  outer loop
    vertex -0.9058666578588221 3.380740392011739 3.0
    vertex -1.7386664873203226 0.4658742811845378 3.0
    vertex -1.5588457268119893 0.9000000000000005 3.0
  endloop
endfacet
facet normal 0.0 0.0 1.0
  outer loop
    vertex -0.9058666578588221 3.380740392011739 3.0
    vertex -1.5588457268119893 0.9000000000000005 3.0
    vertex -1.2727922061357853 1.2727922061357857 3.0
  endloop
endfacet
facet normal 0.0 0.0 1.0
  outer loop
    vertex -0.9058666578588221 3.380740392011739 3.0
    vertex -1.2727922061357853 1.2727922061357857 3.0
    vertex -0.8999999999999996 1.5588457268119895 3.0
  endloop
endfacet
facet normal 0.0 0.0 1.0
  outer loop
    vertex -0.9058666578588221 3.380740392011739 3.0
    vertex -0.8999999999999996 1.5588457268119895 3.0
    vertex 2.143131898507868e-16 3.5 3.0
  endloop
endfacet
facet normal 0.0 0.0 1.0
  outer loop
    vertex 2.143131898507868e-16 3.5 3.0
    vertex -0.8999999999999996 1.5588457268119895 3.0
    vertex -0.46587428118453716 1.738666487320323 3.0
  endloop
endfacet
facet normal 0.0 0.0 1.0
  outer loop
    vertex 2.143131898507868e-16 3.5 3.0
    vertex -0.46587428118453716 1.738666487320323 3.0
    vertex 1.1021821192326178e-16 1.7999999999999998 3.0
  endloop
endfacet
facet normal 0.0 0.0 1.0
  outer loop
    vertex 2.143131898507868e-16 3.5 3.0
    vertex 1.1021821192326178e-16 1.7999999999999998 3.0
    vertex 0.46587428118453766 1.7386664873203226 3.0
  endloop
endfacet
facet normal 0.0 0.0 1.0
  outer loop
    vertex 2.143131898507868e-16 3.5 3.0
    vertex 0.46587428118453766 1.7386664873203226 3.0
    vertex 0.9058666578588234 3.380740392011739 3.0
  endloop
endfacet
facet normal 0.0 0.0 1.0
  outer loop
    vertex 0.9058666578588234 3.380740392011739 3.0
    vertex 0.46587428118453766 1.7386664873203226 3.0
    vertex 0.9000000000000001 1.5588457268119895 3.0
  endloop
endfacet
facet normal 0.0 0.0 1.0
  outer loop
    vertex 0.9058666578588234 3.380740392011739 3.0
    vertex 0.9000000000000001 1.5588457268119895 3.0
    vertex 1.2727922061357857 1.2727922061357857 3.0
  endloop
endfacet
facet normal 0.0 0.0 1.0
  outer loop
    vertex 0.9058666578588234 3.380740392011739 3.0
    vertex 1.2727922061357857 1.2727922061357857 3.0
    vertex 1.7500000000000002 3.031088913245535 3.0
  endloop
endfacet
facet normal 0.0 0.0 1.0
  outer loop
    vertex 1.7500000000000002 3.031088913245535 3.0
    vertex 1.2727922061357857 1.2727922061357857 3.0
    vertex 1.5588457268119895 0.8999999999999998 3.0
  endloop
endfacet
facet normal 0.0 0.0 1.0
  outer loop
    vertex 1.7500000000000002 3.031088913245535 3.0
    vertex 1.5588457268119895 0.8999999999999998 3.0
    vertex 1.738666487320323 0.46587428118453733 3.0
  endloop
endfacet
facet normal 0.0 0.0 1.0
  outer loop
    vertex 1.7500000000000002 3.031088913245535 3.0
    vertex 1.738666487320323 0.46587428118453733 3.0
    vertex 1.7999999999999998 0.0 3.0
  endloop
endfacet
facet normal 0.0 0.0 1.0
  outer loop
    vertex 1.7500000000000002 3.031088913245535 3.0
    vertex 1.7999999999999998 0.0 3.0
    vertex 2.4748737341529163 2.4748737341529163 3.0
  endloop
endfacet
facet normal 0.0 0.0 1.0
  outer loop
    vertex 2.4748737341529163 2.4748737341529163 3.0
    vertex 1.7999999999999998 0.0 3.0
    vertex 2.474873734152916 -2.474873734152917 3.0
  endloop
endfacet
facet normal 0.0 0.0 1.0
  outer loop
    vertex 2.4748737341529163 2.4748737341529163 3.0
    vertex 2.474873734152916 -2.474873734152917 3.0
    vertex 2.839257166250795 -1.9999999999999996 3.0
  endloop
endfacet
facet normal 0.0 0.0 1.0
  outer loop
    vertex 2.4748737341529163 2.4748737341529163 3.0
    vertex 2.839257166250795 -1.9999999999999996 3.0
    vertex 2.8392571662507944 1.9999999999999998 3.0
  endloop
endfacet
facet normal 0.0 0.0 1.0
  outer loop
    vertex 2.8392571662507944 1.9999999999999998 3.0
    vertex 2.839257166250795 -1.9999999999999996 3.0
    vertex 50.0 1.9999999999999996 3.0
  endloop
endfacet
facet normal 0.0 0.0 1.0
  outer loop
    vertex 50.0 1.9999999999999996 3.0
    vertex 2.839257166250795 -1.9999999999999996 3.0
    vertex 50.0 -1.9999999999999996 3.0
  endloop
endfacet
facet normal 0.6087614290087203 -0.7933533402912356 0.0
  outer loop
    vertex 2.474873734152916 -2.474873734152917 3.0
    vertex 1.7499999999999976 -3.0310889132455365 0.0
    vertex 2.474873734152916 -2.474873734152917 0.0
  endloop
endfacet
facet normal 0.6087614290087203 -0.7933533402912356 0.0
  outer loop
    vertex 1.7499999999999976 -3.0310889132455365 0.0
    vertex 2.474873734152916 -2.474873734152917 3.0
    vertex 1.7499999999999976 -3.0310889132455365 3.0
  endloop
endfacet
facet normal 0.38268343236508917 -0.923879532511287 0.0
  outer loop
    vertex 1.7499999999999976 -3.0310889132455365 3.0
    vertex 0.905866657858821 -3.3807403920117394 0.0
    vertex 1.7499999999999976 -3.0310889132455365 0.0
  endloop
endfacet
facet normal 0.38268343236508917 -0.923879532511287 0.0
  outer loop
    vertex 0.905866657858821 -3.3807403920117394 0.0
    vertex 1.7499999999999976 -3.0310889132455365 3.0
    vertex 0.905866657858821 -3.3807403920117394 3.0
  endloop
endfacet
facet normal 0.13052619222005113 -0.9914448613738106 0.0
  outer loop
    vertex 0.905866657858821 -3.3807403920117394 3.0
    vertex -6.429395695523604e-16 -3.5 0.0
    vertex 0.905866657858821 -3.3807403920117394 0.0
  endloop
endfacet
facet normal 0.13052619222005113 -0.9914448613738106 0.0
  outer loop
    vertex -6.429395695523604e-16 -3.5 0.0
    vertex 0.905866657858821 -3.3807403920117394 3.0
    vertex -6.429395695523604e-16 -3.5 3.0
  endloop
endfacet
facet normal -0.13052619222005224 -0.9914448613738104 -0.0
  outer loop
    vertex -6.429395695523604e-16 -3.5 3.0
    vertex -0.9058666578588253 -3.380740392011738 0.0
    vertex -6.429395695523604e-16 -3.5 0.0
  endloop
endfacet
facet normal -0.13052619222005224 -0.9914448613738104 -0.0
  outer loop
    vertex -0.9058666578588253 -3.380740392011738 0.0
    vertex -6.429395695523604e-16 -3.5 3.0
    vertex -0.9058666578588253 -3.380740392011738 3.0
  endloop
endfacet
facet normal -0.38268343236509 -0.9238795325112867 -0.0
  outer loop
    vertex -0.9058666578588253 -3.380740392011738 3.0
    vertex -1.7500000000000013 -3.0310889132455348 0.0
    vertex -0.9058666578588253 -3.380740392011738 0.0
  endloop
endfacet
facet normal -0.38268343236509 -0.9238795325112867 -0.0
  outer loop
    vertex -1.7500000000000013 -3.0310889132455348 0.0
    vertex -0.9058666578588253 -3.380740392011738 3.0
    vertex -1.7500000000000013 -3.0310889132455348 3.0
  endloop
endfacet
facet normal -0.6087614290087213 -0.7933533402912346 -0.0
  outer loop
    vertex -1.7500000000000013 -3.0310889132455348 3.0
    vertex -2.4748737341529177 -2.4748737341529146 0.0
    vertex -1.7500000000000013 -3.0310889132455348 0.0
  endloop
endfacet
facet normal -0.6087614290087213 -0.7933533402912346 -0.0
  outer loop
    vertex -2.4748737341529177 -2.4748737341529146 0.0
    vertex -1.7500000000000013 -3.0310889132455348 3.0
    vertex -2.4748737341529177 -2.4748737341529146 3.0
  endloop
endfacet
facet normal -0.7933533402912354 -0.6087614290087203 -0.0
  outer loop
    vertex -3.0310889132455356 -1.749999999999999 3.0
    vertex -2.4748737341529177 -2.4748737341529146 0.0
    vertex -2.4748737341529177 -2.4748737341529146 3.0
  endloop
endfacet
facet normal -0.7933533402912354 -0.6087614290087203 -0.0
  outer loop
    vertex -2.4748737341529177 -2.4748737341529146 0.0
    vertex -3.0310889132455356 -1.749999999999999 3.0
    vertex -3.0310889132455356 -1.749999999999999 0.0
  endloop
endfacet
facet normal -0.9238795325112868 -0.3826834323650898 -0.0
  outer loop
    vertex -3.3807403920117394 -0.9058666578588213 3.0
    vertex -3.0310889132455356 -1.749999999999999 0.0
    vertex -3.0310889132455356 -1.749999999999999 3.0
  endloop
endfacet
facet normal -0.9238795325112868 -0.3826834323650898 -0.0
  outer loop
    vertex -3.0310889132455356 -1.749999999999999 0.0
    vertex -3.3807403920117394 -0.9058666578588213 3.0
    vertex -3.3807403920117394 -0.9058666578588213 0.0
  endloop
endfacet
facet normal -0.9914448613738105 -0.13052619222005113 -0.0
  outer loop
    vertex -3.5 4.286263797015736e-16 3.0
    vertex -3.3807403920117394 -0.9058666578588213 0.0
    vertex -3.3807403920117394 -0.9058666578588213 3.0
  endloop
endfacet
facet normal -0.9914448613738105 -0.13052619222005113 -0.0
  outer loop
    vertex -3.3807403920117394 -0.9058666578588213 0.0
    vertex -3.5 4.286263797015736e-16 3.0
    vertex -3.5 4.286263797015736e-16 0.0
  endloop
endfacet
facet normal -0.9914448613738104 0.13052619222005168 0.0
  outer loop
    vertex -3.380740392011739 0.9058666578588235 3.0
    vertex -3.5 4.286263797015736e-16 0.0
    vertex -3.5 4.286263797015736e-16 3.0
  endloop
endfacet
facet normal -0.9914448613738104 0.13052619222005168 0.0
  outer loop
    vertex -3.5 4.286263797015736e-16 0.0
    vertex -3.380740392011739 0.9058666578588235 3.0
    vertex -3.380740392011739 0.9058666578588235 0.0
  endloop
endfacet
facet normal -0.9238795325112867 0.3826834323650901 0.0
  outer loop
    vertex -3.0310889132455348 1.750000000000001 3.0
    vertex -3.380740392011739 0.9058666578588235 0.0
    vertex -3.380740392011739 0.9058666578588235 3.0
  endloop
endfacet
facet normal -0.9238795325112867 0.3826834323650901 0.0
  outer loop
    vertex -3.380740392011739 0.9058666578588235 0.0
    vertex -3.0310889132455348 1.750000000000001 3.0
    vertex -3.0310889132455348 1.750000000000001 0.0
  endloop
endfacet
facet normal -0.793353340291235 0.6087614290087208 0.0
  outer loop
    vertex -2.4748737341529163 2.4748737341529163 3.0
    vertex -3.0310889132455348 1.750000000000001 0.0
    vertex -3.0310889132455348 1.750000000000001 3.0
  endloop
endfacet
facet normal -0.793353340291235 0.6087614290087208 0.0
  outer loop
    vertex -3.0310889132455348 1.750000000000001 0.0
    vertex -2.4748737341529163 2.4748737341529163 3.0
    vertex -2.4748737341529163 2.4748737341529163 0.0
  endloop
endfacet
facet normal -0.6087614290087203 0.7933533402912356 0.0
  outer loop
    vertex -2.4748737341529163 2.4748737341529163 3.0
    vertex -1.7499999999999993 3.031088913245535 0.0
    vertex -2.4748737341529163 2.4748737341529163 0.0
  endloop
endfacet
facet normal -0.6087614290087203 0.7933533402912356 0.0
  outer loop
    vertex -1.7499999999999993 3.031088913245535 0.0
    vertex -2.4748737341529163 2.4748737341529163 3.0
    vertex -1.7499999999999993 3.031088913245535 3.0
  endloop
endfacet
facet normal -0.38268343236508956 0.9238795325112867 0.0
  outer loop
    vertex -1.7499999999999993 3.031088913245535 3.0
    vertex -0.9058666578588221 3.380740392011739 0.0
    vertex -1.7499999999999993 3.031088913245535 0.0
  endloop
endfacet
facet normal -0.38268343236508956 0.9238795325112867 0.0
  outer loop
    vertex -0.9058666578588221 3.380740392011739 0.0
    vertex -1.7499999999999993 3.031088913245535 3.0
    vertex -0.9058666578588221 3.380740392011739 3.0
  endloop
endfacet
facet normal -0.1305261922200518 0.9914448613738105 0.0
  outer loop
    vertex -0.9058666578588221 3.380740392011739 3.0
    vertex 2.143131898507868e-16 3.5 0.0
    vertex -0.9058666578588221 3.380740392011739 0.0
  endloop
endfacet
facet normal -0.1305261922200518 0.9914448613738105 0.0
  outer loop
    vertex 2.143131898507868e-16 3.5 0.0
    vertex -0.9058666578588221 3.380740392011739 3.0
    vertex 2.143131898507868e-16 3.5 3.0
  endloop
endfacet
facet normal 0.13052619222005168 0.9914448613738104 0.0
  outer loop
    vertex 2.143131898507868e-16 3.5 3.0
    vertex 0.9058666578588234 3.380740392011739 0.0
    vertex 2.143131898507868e-16 3.5 0.0
  endloop
endfacet
facet normal 0.13052619222005168 0.9914448613738104 0.0
  outer loop
    vertex 0.9058666578588234 3.380740392011739 0.0
    vertex 2.143131898507868e-16 3.5 3.0
    vertex 0.9058666578588234 3.380740392011739 3.0
  endloop
endfacet
facet normal 0.38268343236508995 0.9238795325112866 0.0
  outer loop
    vertex 0.9058666578588234 3.380740392011739 3.0
    vertex 1.7500000000000002 3.031088913245535 0.0
    vertex 0.9058666578588234 3.380740392011739 0.0
  endloop
endfacet
facet normal 0.38268343236508995 0.9238795325112866 0.0
  outer loop
    vertex 1.7500000000000002 3.031088913245535 0.0
    vertex 0.9058666578588234 3.380740392011739 3.0
    vertex 1.7500000000000002 3.031088913245535 3.0
  endloop
endfacet
facet normal 0.6087614290087204 0.7933533402912354 0.0
  outer loop
    vertex 1.7500000000000002 3.031088913245535 3.0
    vertex 2.4748737341529163 2.4748737341529163 0.0
    vertex 1.7500000000000002 3.031088913245535 0.0
  endloop
endfacet
facet normal 0.6087614290087204 0.7933533402912354 0.0
  outer loop
    vertex 2.4748737341529163 2.4748737341529163 0.0
    vertex 1.7500000000000002 3.031088913245535 3.0
    vertex 2.4748737341529163 2.4748737341529163 3.0
  endloop
endfacet
facet normal 0.7933533402912359 0.6087614290087195 -0.0
  outer loop
    vertex 2.4748737341529163 2.4748737341529163 0.0
    vertex 2.8392571662507944 1.9999999999999998 3.0
    vertex 2.8392571662507944 1.9999999999999998 0.0
  endloop
endfacet
facet normal 0.7933533402912359 0.6087614290087195 -0.0
  outer loop
    vertex 2.8392571662507944 1.9999999999999998 3.0
    vertex 2.4748737341529163 2.4748737341529163 0.0
    vertex 2.4748737341529163 2.4748737341529163 3.0
  endloop
endfacet
facet normal 0.7933533402912357 -0.6087614290087202 -0.0
  outer loop
    vertex 2.839257166250795 -1.9999999999999996 0.0
    vertex 2.474873734152916 -2.474873734152917 3.0
    vertex 2.474873734152916 -2.474873734152917 0.0
  endloop
endfacet
facet normal 0.7933533402912357 -0.6087614290087202 -0.0
  outer loop
    vertex 2.474873734152916 -2.474873734152917 3.0
    vertex 2.839257166250795 -1.9999999999999996 0.0
    vertex 2.839257166250795 -1.9999999999999996 3.0
  endloop
endfacet
facet normal 1.0025266302967364e-17 1.0 -0.0
  outer loop
    vertex 2.8392571662507944 1.9999999999999998 3.0
    vertex 50.0 1.9999999999999996 0.0
    vertex 2.8392571662507944 1.9999999999999998 0.0
  endloop
endfacet
facet normal 1.0025266302967364e-17 1.0 -0.0
  outer loop
    vertex 50.0 1.9999999999999996 0.0
    vertex 2.8392571662507944 1.9999999999999998 3.0
    vertex 50.0 1.9999999999999996 3.0
  endloop
endfacet
facet normal 0.0 -1.0 0.0
  outer loop
    vertex 50.0 -1.9999999999999996 3.0
    vertex 2.839257166250795 -1.9999999999999996 0.0
    vertex 50.0 -1.9999999999999996 0.0
  endloop
endfacet
facet normal 0.0 -1.0 0.0
  outer loop
    vertex 2.839257166250795 -1.9999999999999996 0.0
    vertex 50.0 -1.9999999999999996 3.0
    vertex 2.839257166250795 -1.9999999999999996 3.0
  endloop
endfacet
facet normal 1.0 0.0 0.0
  outer loop
    vertex 50.0 1.9999999999999996 0.0
    vertex 50.0 -1.9999999999999996 3.0
    vertex 50.0 -1.9999999999999996 0.0
  endloop
endfacet
facet normal 1.0 0.0 0.0
  outer loop
    vertex 50.0 -1.9999999999999996 3.0
    vertex 50.0 1.9999999999999996 0.0
    vertex 50.0 1.9999999999999996 3.0
  endloop
endfacet
facet normal 0.3826834323650899 -0.9238795325112867 -0.0
  outer loop
    vertex -0.46587428118453716 1.738666487320323 3.0
    vertex -0.8999999999999996 1.5588457268119895 0.0
    vertex -0.46587428118453716 1.738666487320323 0.0
  endloop
endfacet
facet normal 0.3826834323650899 -0.9238795325112867 -0.0
  outer loop
    vertex -0.8999999999999996 1.5588457268119895 0.0
    vertex -0.46587428118453716 1.738666487320323 3.0
    vertex -0.8999999999999996 1.5588457268119895 3.0
  endloop
endfacet
facet normal 0.13052619222005135 -0.9914448613738105 -0.0
  outer loop
    vertex 1.1021821192326178e-16 1.7999999999999998 3.0
    vertex -0.46587428118453716 1.738666487320323 0.0
    vertex 1.1021821192326178e-16 1.7999999999999998 0.0
  endloop
endfacet
facet normal 0.13052619222005135 -0.9914448613738105 -0.0
  outer loop
    vertex -0.46587428118453716 1.738666487320323 0.0
    vertex 1.1021821192326178e-16 1.7999999999999998 3.0
    vertex -0.46587428118453716 1.738666487320323 3.0
  endloop
endfacet
facet normal -0.13052619222005196 -0.9914448613738104 -0.0
  outer loop
    vertex 0.46587428118453766 1.7386664873203226 3.0
    vertex 1.1021821192326178e-16 1.7999999999999998 0.0
    vertex 0.46587428118453766 1.7386664873203226 0.0
  endloop
endfacet
facet normal -0.13052619222005196 -0.9914448613738104 -0.0
  outer loop
    vertex 1.1021821192326178e-16 1.7999999999999998 0.0
    vertex 0.46587428118453766 1.7386664873203226 3.0
    vertex 1.1021821192326178e-16 1.7999999999999998 3.0
  endloop
endfacet
facet normal -0.3826834323650896 -0.923879532511287 -0.0
  outer loop
    vertex 0.9000000000000001 1.5588457268119895 3.0
    vertex 0.46587428118453766 1.7386664873203226 0.0
    vertex 0.9000000000000001 1.5588457268119895 0.0
  endloop
endfacet
facet normal -0.3826834323650896 -0.923879532511287 -0.0
  outer loop
    vertex 0.46587428118453766 1.7386664873203226 0.0
    vertex 0.9000000000000001 1.5588457268119895 3.0
    vertex 0.46587428118453766 1.7386664873203226 3.0
  endloop
endfacet
facet normal -0.6087614290087204 -0.7933533402912354 -0.0
  outer loop
    vertex 1.2727922061357857 1.2727922061357857 3.0
    vertex 0.9000000000000001 1.5588457268119895 0.0
    vertex 1.2727922061357857 1.2727922061357857 0.0
  endloop
endfacet
facet normal -0.6087614290087204 -0.7933533402912354 -0.0
  outer loop
    vertex 0.9000000000000001 1.5588457268119895 0.0
    vertex 1.2727922061357857 1.2727922061357857 3.0
    vertex 0.9000000000000001 1.5588457268119895 3.0
  endloop
endfacet
facet normal -0.7933533402912356 -0.6087614290087203 -0.0
  outer loop
    vertex 1.2727922061357857 1.2727922061357857 3.0
    vertex 1.5588457268119895 0.8999999999999998 0.0
    vertex 1.5588457268119895 0.8999999999999998 3.0
  endloop
endfacet
facet normal -0.7933533402912356 -0.6087614290087203 -0.0
  outer loop
    vertex 1.5588457268119895 0.8999999999999998 0.0
    vertex 1.2727922061357857 1.2727922061357857 3.0
    vertex 1.2727922061357857 1.2727922061357857 0.0
  endloop
endfacet
facet normal -0.9238795325112867 -0.3826834323650899 -0.0
  outer loop
    vertex 1.5588457268119895 0.8999999999999998 3.0
    vertex 1.738666487320323 0.46587428118453733 0.0
    vertex 1.738666487320323 0.46587428118453733 3.0
  endloop
endfacet
facet normal -0.9238795325112867 -0.3826834323650899 -0.0
  outer loop
    vertex 1.738666487320323 0.46587428118453733 0.0
    vertex 1.5588457268119895 0.8999999999999998 3.0
    vertex 1.5588457268119895 0.8999999999999998 0.0
  endloop
endfacet
facet normal -0.9914448613738105 -0.13052619222005132 -0.0
  outer loop
    vertex 1.738666487320323 0.46587428118453733 3.0
    vertex 1.7999999999999998 0.0 0.0
    vertex 1.7999999999999998 0.0 3.0
  endloop
endfacet
facet normal -0.9914448613738105 -0.13052619222005132 -0.0
  outer loop
    vertex 1.7999999999999998 0.0 0.0
    vertex 1.738666487320323 0.46587428118453733 3.0
    vertex 1.738666487320323 0.46587428118453733 0.0
  endloop
endfacet
facet normal -0.9914448613738104 0.13052619222005163 -0.0
  outer loop
    vertex 1.7999999999999998 0.0 3.0
    vertex 1.7386664873203226 -0.46587428118453883 0.0
    vertex 1.7386664873203226 -0.46587428118453883 3.0
  endloop
endfacet
facet normal -0.9914448613738104 0.13052619222005163 -0.0
  outer loop
    vertex 1.7386664873203226 -0.46587428118453883 0.0
    vertex 1.7999999999999998 0.0 3.0
    vertex 1.7999999999999998 0.0 0.0
  endloop
endfacet
facet normal -0.9238795325112863 0.38268343236509084 -0.0
  outer loop
    vertex 1.7386664873203226 -0.46587428118453883 3.0
    vertex 1.5588457268119889 -0.9000000000000008 0.0
    vertex 1.5588457268119889 -0.9000000000000008 3.0
  endloop
endfacet
facet normal -0.9238795325112863 0.38268343236509084 -0.0
  outer loop
    vertex 1.5588457268119889 -0.9000000000000008 0.0
    vertex 1.7386664873203226 -0.46587428118453883 3.0
    vertex 1.7386664873203226 -0.46587428118453883 0.0
  endloop
endfacet
facet normal -0.7933533402912349 0.608761429008721 -0.0
  outer loop
    vertex 1.5588457268119889 -0.9000000000000008 3.0
    vertex 1.272792206135785 -1.2727922061357857 0.0
    vertex 1.272792206135785 -1.2727922061357857 3.0
  endloop
endfacet
facet normal -0.7933533402912349 0.608761429008721 -0.0
  outer loop
    vertex 1.272792206135785 -1.2727922061357857 0.0
    vertex 1.5588457268119889 -0.9000000000000008 3.0
    vertex 1.5588457268119889 -0.9000000000000008 0.0
  endloop
endfacet
facet normal -0.6087614290087202 0.7933533402912357 -0.0
  outer loop
    vertex 0.8999999999999987 -1.5588457268119902 3.0
    vertex 1.272792206135785 -1.2727922061357857 0.0
    vertex 0.8999999999999987 -1.5588457268119902 0.0
  endloop
endfacet
facet normal -0.6087614290087202 0.7933533402912357 -0.0
  outer loop
    vertex 1.272792206135785 -1.2727922061357857 0.0
    vertex 0.8999999999999987 -1.5588457268119902 3.0
    vertex 1.272792206135785 -1.2727922061357857 3.0
  endloop
endfacet
facet normal -0.3826834323650892 0.9238795325112872 -0.0
  outer loop
    vertex 0.4658742811845365 -1.738666487320323 3.0
    vertex 0.8999999999999987 -1.5588457268119902 0.0
    vertex 0.4658742811845365 -1.738666487320323 0.0
  endloop
endfacet
facet normal -0.3826834323650892 0.9238795325112872 -0.0
  outer loop
    vertex 0.8999999999999987 -1.5588457268119902 0.0
    vertex 0.4658742811845365 -1.738666487320323 3.0
    vertex 0.8999999999999987 -1.5588457268119902 3.0
  endloop
endfacet
facet normal -0.13052619222005143 0.9914448613738105 -0.0
  outer loop
    vertex -3.306546357697853e-16 -1.7999999999999998 3.0
    vertex 0.4658742811845365 -1.738666487320323 0.0
    vertex -3.306546357697853e-16 -1.7999999999999998 0.0
  endloop
endfacet
facet normal -0.13052619222005143 0.9914448613738105 -0.0
  outer loop
    vertex 0.4658742811845365 -1.738666487320323 0.0
    vertex -3.306546357697853e-16 -1.7999999999999998 3.0
    vertex 0.4658742811845365 -1.738666487320323 3.0
  endloop
endfacet
facet normal 0.13052619222005177 0.9914448613738105 0.0
  outer loop
    vertex -0.4658742811845387 -1.7386664873203226 3.0
    vertex -3.306546357697853e-16 -1.7999999999999998 0.0
    vertex -0.4658742811845387 -1.7386664873203226 0.0
  endloop
endfacet
facet normal 0.13052619222005177 0.9914448613738105 0.0
  outer loop
    vertex -3.306546357697853e-16 -1.7999999999999998 0.0
    vertex -0.4658742811845387 -1.7386664873203226 3.0
    vertex -3.306546357697853e-16 -1.7999999999999998 3.0
  endloop
endfacet
facet normal 0.38268343236509017 0.9238795325112866 0.0
  outer loop
    vertex -0.9000000000000008 -1.5588457268119893 3.0
    vertex -0.4658742811845387 -1.7386664873203226 0.0
    vertex -0.9000000000000008 -1.5588457268119893 0.0
  endloop
endfacet
facet normal 0.38268343236509017 0.9238795325112866 0.0
  outer loop
    vertex -0.4658742811845387 -1.7386664873203226 0.0
    vertex -0.9000000000000008 -1.5588457268119893 3.0
    vertex -0.4658742811845387 -1.7386664873203226 3.0
  endloop
endfacet
facet normal 0.6087614290087214 0.7933533402912345 0.0
  outer loop
    vertex -1.2727922061357861 -1.2727922061357848 3.0
    vertex -0.9000000000000008 -1.5588457268119893 0.0
    vertex -1.2727922061357861 -1.2727922061357848 0.0
  endloop
endfacet
facet normal 0.6087614290087214 0.7933533402912345 0.0
  outer loop
    vertex -0.9000000000000008 -1.5588457268119893 0.0
    vertex -1.2727922061357861 -1.2727922061357848 3.0
    vertex -0.9000000000000008 -1.5588457268119893 3.0
  endloop
endfacet
facet normal 0.7933533402912355 0.6087614290087203 0.0
  outer loop
    vertex -1.5588457268119897 -0.8999999999999994 0.0
    vertex -1.2727922061357861 -1.2727922061357848 3.0
    vertex -1.2727922061357861 -1.2727922061357848 0.0
  endloop
endfacet
facet normal 0.7933533402912355 0.6087614290087203 0.0
  outer loop
    vertex -1.2727922061357861 -1.2727922061357848 3.0
    vertex -1.5588457268119897 -0.8999999999999994 0.0
    vertex -1.5588457268119897 -0.8999999999999994 3.0
  endloop
endfacet
facet normal 0.923879532511287 0.3826834323650893 0.0
  outer loop
    vertex -1.738666487320323 -0.4658742811845366 0.0
    vertex -1.5588457268119897 -0.8999999999999994 3.0
    vertex -1.5588457268119897 -0.8999999999999994 0.0
  endloop
endfacet
facet normal 0.923879532511287 0.3826834323650893 0.0
  outer loop
    vertex -1.5588457268119897 -0.8999999999999994 3.0
    vertex -1.738666487320323 -0.4658742811845366 0.0
    vertex -1.738666487320323 -0.4658742811845366 3.0
  endloop
endfacet
facet normal 0.9914448613738105 0.13052619222005143 0.0
  outer loop
    vertex -1.7999999999999998 2.2043642384652356e-16 0.0
    vertex -1.738666487320323 -0.4658742811845366 3.0
    vertex -1.738666487320323 -0.4658742811845366 0.0
  endloop
endfacet
facet normal 0.9914448613738105 0.13052619222005143 0.0
  outer loop
    vertex -1.738666487320323 -0.4658742811845366 3.0
    vertex -1.7999999999999998 2.2043642384652356e-16 0.0
    vertex -1.7999999999999998 2.2043642384652356e-16 3.0
  endloop
endfacet
facet normal 0.9914448613738104 -0.130526192220052 -0.0
  outer loop
    vertex -1.7386664873203226 0.4658742811845378 0.0
    vertex -1.7999999999999998 2.2043642384652356e-16 3.0
    vertex -1.7999999999999998 2.2043642384652356e-16 0.0
  endloop
endfacet
facet normal 0.9914448613738104 -0.130526192220052 -0.0
  outer loop
    vertex -1.7999999999999998 2.2043642384652356e-16 3.0
    vertex -1.7386664873203226 0.4658742811845378 0.0
    vertex -1.7386664873203226 0.4658742811845378 3.0
  endloop
endfacet
facet normal 0.923879532511287 -0.3826834323650898 -0.0
  outer loop
    vertex -1.5588457268119893 0.9000000000000005 0.0
    vertex -1.7386664873203226 0.4658742811845378 3.0
    vertex -1.7386664873203226 0.4658742811845378 0.0
  endloop
endfacet
facet normal 0.923879532511287 -0.3826834323650898 -0.0
  outer loop
    vertex -1.7386664873203226 0.4658742811845378 3.0
    vertex -1.5588457268119893 0.9000000000000005 0.0
    vertex -1.5588457268119893 0.9000000000000005 3.0
  endloop
endfacet
facet normal 0.7933533402912349 -0.608761429008721 -0.0
  outer loop
    vertex -1.2727922061357853 1.2727922061357857 0.0
    vertex -1.5588457268119893 0.9000000000000005 3.0
    vertex -1.5588457268119893 0.9000000000000005 0.0
  endloop
endfacet
facet normal 0.7933533402912349 -0.608761429008721 -0.0
  outer loop
    vertex -1.5588457268119893 0.9000000000000005 3.0
    vertex -1.2727922061357853 1.2727922061357857 0.0
    vertex -1.2727922061357853 1.2727922061357857 3.0
  endloop
endfacet
facet normal 0.6087614290087204 -0.7933533402912353 -0.0
  outer loop
    vertex -0.8999999999999996 1.5588457268119895 3.0
    vertex -1.2727922061357853 1.2727922061357857 0.0
    vertex -0.8999999999999996 1.5588457268119895 0.0
  endloop
endfacet
facet normal 0.6087614290087204 -0.7933533402912353 -0.0
  outer loop
    vertex -1.2727922061357853 1.2727922061357857 0.0
    vertex -0.8999999999999996 1.5588457268119895 3.0
    vertex -1.2727922061357853 1.2727922061357857 3.0
  endloop
endfacet
endsolid RotorHazard Antenna Holder 50mm
