solid RotorHazard_Standoff_M3_13.1mm
facet normal 0.0 0.0 -1.0
  outer loop
    vertex -2.9491802016200612 0.549851014705124 0.0
    vertex -2.9910012376998507 -0.23218870790363486 0.0
    vertex -2.995719515399379 0.16020170116234037 0.0
  endloop
endfacet
facet normal 0.0 0.0 -1.0
  outer loop
    vertex -2.9910012376998507 -0.23218870790363486 0.0
    vertex -2.9491802016200612 0.549851014705124 0.0
    vertex -2.9351060995610694 -0.6206063038025061 0.0
  endloop
endfacet
facet normal 0.0 0.0 -1.0
  outer loop
    vertex -2.9351060995610694 -0.6206063038025061 0.0
    vertex -2.9491802016200612 0.549851014705124 0.0
    vertex -2.8521795969237966 0.9300922249388008 0.0
  endloop
endfacet
facet normal 0.0 0.0 -1.0
  outer loop
    vertex -2.9351060995610694 -0.6206063038025061 0.0
    vertex -2.8521795969237966 0.9300922249388008 0.0
    vertex -2.8289904822936482 -0.9984051537787422 0.0
  endloop
endfacet
facet normal 0.0 0.0 -1.0
  outer loop
    vertex -2.8289904822936482 -0.9984051537787422 0.0
    vertex -2.8521795969237966 0.9300922249388008 0.0
    vertex -2.706377408550587 1.2944192993334929 0.0
  endloop
endfacet
facet normal 0.0 0.0 -1.0
  outer loop
    vertex -2.8289904822936482 -0.9984051537787422 0.0
    vertex -2.706377408550587 1.2944192993334929 0.0
    vertex -2.6744700535298405 -1.3591210147636208 0.0
  endloop
endfacet
facet normal 0.0 0.0 -1.0
  outer loop
    vertex -2.6744700535298405 -1.3591210147636208 0.0
    vertex -2.706377408550587 1.2944192993334929 0.0
    vertex -2.5142683523675005 1.6365985006357593 0.0
  endloop
endfacet
facet normal 0.0 0.0 -1.0
  outer loop
    vertex -2.6744700535298405 -1.3591210147636208 0.0
    vertex -2.5142683523675005 1.6365985006357593 0.0
    vertex -2.4741887006469527 -1.6965819383663583 0.0
  endloop
endfacet
facet normal 0.0 0.0 -1.0
  outer loop
    vertex -2.4741887006469527 -1.6965819383663583 0.0
    vertex -2.5142683523675005 1.6365985006357593 0.0
    vertex -2.279139467588524 1.9507750478413188 0.0
  endloop
endfacet
facet normal 0.0 0.0 -1.0
  outer loop
    vertex -2.4741887006469527 -1.6965819383663583 0.0
    vertex -2.279139467588524 1.9507750478413188 0.0
    vertex -2.2315732931212913 -2.0050138746222683 0.0
  endloop
endfacet
facet normal 0.0 0.0 -1.0
  outer loop
    vertex -2.2315732931212913 -2.0050138746222683 0.0
    vertex -2.279139467588524 1.9507750478413188 0.0
    vertex -2.0050138746222683 2.2315732931212904 0.0
  endloop
endfacet
facet normal 0.0 0.0 -1.0
  outer loop
    vertex -2.2315732931212913 -2.0050138746222683 0.0
    vertex -2.0050138746222683 2.2315732931212904 0.0
    vertex -1.9507750478413204 -2.2791394675885237 0.0
  endloop
endfacet
facet normal 0.0 0.0 -1.0
  outer loop
    vertex -1.9507750478413204 -2.2791394675885237 0.0
    vertex -2.0050138746222683 2.2315732931212904 0.0
    vertex -1.6965819383663576 2.4741887006469527 0.0
  endloop
endfacet
facet normal 0.0 0.0 -1.0
  outer loop
    vertex -1.9507750478413204 -2.2791394675885237 0.0
    vertex -1.6965819383663576 2.4741887006469527 0.0
    vertex -1.6365985006357606 -2.5142683523675 0.0
  endloop
endfacet
facet normal 0.0 0.0 -1.0
  outer loop
    vertex -1.6365985006357606 -2.5142683523675 0.0
    vertex -1.6965819383663576 2.4741887006469527 0.0
    vertex -1.3591210147636206 2.6744700535298405 0.0
  endloop
endfacet
facet normal 0.0 0.0 -1.0
  outer loop
    vertex -1.6365985006357606 -2.5142683523675 0.0
    vertex -1.3591210147636206 2.6744700535298405 0.0
    vertex -1.3973117765715326 0.08671677493142492 0.0
  endloop
endfacet
facet normal 0.0 0.0 -1.0
  outer loop
    vertex -1.3973117765715326 0.08671677493142492 0.0
    vertex -1.3591210147636206 2.6744700535298405 0.0
    vertex -1.327255579486182 0.4454128722015103 0.0
  endloop
endfacet
facet normal 0.0 0.0 -1.0
  outer loop
    vertex -1.327255579486182 0.4454128722015103 0.0
    vertex -1.3591210147636206 2.6744700535298405 0.0
    vertex -0.9984051537787431 2.828990482293648 0.0
  endloop
endfacet
facet normal 0.0 0.0 -1.0
  outer loop
    vertex -1.327255579486182 0.4454128722015103 0.0
    vertex -0.9984051537787431 2.828990482293648 0.0
    vertex -1.1667491080524002 0.7737548183106376 0.0
  endloop
endfacet
facet normal 0.0 0.0 -1.0
  outer loop
    vertex -1.1667491080524002 0.7737548183106376 0.0
    vertex -0.9984051537787431 2.828990482293648 0.0
    vertex -0.9267306130489144 1.049366652242191 0.0
  endloop
endfacet
facet normal 0.0 0.0 -1.0
  outer loop
    vertex -0.9267306130489144 1.049366652242191 0.0
    vertex -0.9984051537787431 2.828990482293648 0.0
    vertex -0.6206063038025056 2.9351060995610694 0.0
  endloop
endfacet
facet normal 0.0 0.0 -1.0
  outer loop
    vertex -0.9267306130489144 1.049366652242191 0.0
    vertex -0.6206063038025056 2.9351060995610694 0.0
    vertex -0.623556958260895 1.253465882983825 0.0
  endloop
endfacet
facet normal 0.0 0.0 -1.0
  outer loop
    vertex -0.623556958260895 1.253465882983825 0.0
    vertex -0.6206063038025056 2.9351060995610694 0.0
    vertex -0.2778889272439912 1.372143485250425 0.0
  endloop
endfacet
facet normal 0.0 0.0 -1.0
  outer loop
    vertex -0.2778889272439912 1.372143485250425 0.0
    vertex -0.6206063038025056 2.9351060995610694 0.0
    vertex -0.2321887079036347 2.991001237699851 0.0
  endloop
endfacet
facet normal 0.0 0.0 -1.0
  outer loop
    vertex -0.2778889272439912 1.372143485250425 0.0
    vertex -0.2321887079036347 2.991001237699851 0.0
    vertex 0.08671677493142461 1.3973117765715328 0.0
  endloop
endfacet
facet normal 0.0 0.0 -1.0
  outer loop
    vertex 0.08671677493142461 1.3973117765715328 0.0
    vertex -0.2321887079036347 2.991001237699851 0.0
    vertex 0.16020170116234003 2.99571951539938 0.0
  endloop
endfacet
facet normal 0.0 0.0 -1.0
  outer loop
    vertex 0.08671677493142461 1.3973117765715328 0.0
    vertex 0.16020170116234003 2.99571951539938 0.0
    vertex 0.4454128722015103 1.3272555794861822 0.0
  endloop
endfacet
facet normal 0.0 0.0 -1.0
  outer loop
    vertex 0.4454128722015103 1.3272555794861822 0.0
    vertex 0.16020170116234003 2.99571951539938 0.0
    vertex 0.5498510147051235 2.949180201620062 0.0
  endloop
endfacet
facet normal 0.0 0.0 -1.0
  outer loop
    vertex 0.4454128722015103 1.3272555794861822 0.0
    vertex 0.5498510147051235 2.949180201620062 0.0
    vertex 0.7737548183106376 1.1667491080524006 0.0
  endloop
endfacet
facet normal 0.0 0.0 -1.0
  outer loop
    vertex 0.7737548183106376 1.1667491080524006 0.0
    vertex 0.5498510147051235 2.949180201620062 0.0
    vertex 0.9300922249388011 2.8521795969237975 0.0
  endloop
endfacet
facet normal 0.0 0.0 -1.0
  outer loop
    vertex 0.7737548183106376 1.1667491080524006 0.0
    vertex 0.9300922249388011 2.8521795969237975 0.0
    vertex 1.0493666522421905 0.9267306130489149 0.0
  endloop
endfacet
facet normal 0.0 0.0 -1.0
  outer loop
    vertex 1.0493666522421905 0.9267306130489149 0.0
    vertex 0.9300922249388011 2.8521795969237975 0.0
    vertex 1.2944192993334929 2.706377408550588 0.0
  endloop
endfacet
facet normal 0.0 0.0 -1.0
  outer loop
    vertex 1.0493666522421905 0.9267306130489149 0.0
    vertex 1.2944192993334929 2.706377408550588 0.0
    vertex 1.253465882983825 0.6235569582608953 0.0
  endloop
endfacet
facet normal 0.0 0.0 -1.0
  outer loop
    vertex 1.253465882983825 0.6235569582608953 0.0
    vertex 1.2944192993334929 2.706377408550588 0.0
    vertex 1.3721434852504248 0.2778889272439916 0.0
  endloop
endfacet
facet normal 0.0 0.0 -1.0
  outer loop
    vertex 1.3721434852504248 0.2778889272439916 0.0
    vertex 1.2944192993334929 2.706377408550588 0.0
    vertex 1.6365985006357586 2.5142683523675013 0.0
  endloop
endfacet
facet normal 0.0 0.0 -1.0
  outer loop
    vertex 1.3721434852504248 0.2778889272439916 0.0
    vertex 1.6365985006357586 2.5142683523675013 0.0
    vertex 1.3973117765715326 -0.08671677493142431 0.0
  endloop
endfacet
facet normal 0.0 0.0 -1.0
  outer loop
    vertex -1.3973117765715326 0.08671677493142492 0.0
    vertex -1.2944192993334933 -2.7063774085505874 0.0
    vertex -1.6365985006357606 -2.5142683523675 0.0
  endloop
endfacet
facet normal 0.0 0.0 -1.0
  outer loop
    vertex -1.2944192993334933 -2.7063774085505874 0.0
    vertex -1.3973117765715326 0.08671677493142492 0.0
    vertex -1.372143485250425 -0.2778889272439914 0.0
  endloop
endfacet
facet normal 0.0 0.0 -1.0
  outer loop
    vertex -1.2944192993334933 -2.7063774085505874 0.0
    vertex -1.372143485250425 -0.2778889272439914 0.0
    vertex -1.253465882983825 -0.6235569582608945 0.0
  endloop
endfacet
facet normal 0.0 0.0 -1.0
  outer loop
    vertex -1.2944192993334933 -2.7063774085505874 0.0
    vertex -1.253465882983825 -0.6235569582608945 0.0
    vertex -0.9300922249388014 -2.8521795969237975 0.0
  endloop
endfacet
facet normal 0.0 0.0 -1.0
  outer loop
    vertex -0.9300922249388014 -2.8521795969237975 0.0
    vertex -1.253465882983825 -0.6235569582608945 0.0
    vertex -1.049366652242191 -0.9267306130489148 0.0
  endloop
endfacet
facet normal 0.0 0.0 -1.0
  outer loop
    vertex -0.9300922249388014 -2.8521795969237975 0.0
    vertex -1.049366652242191 -0.9267306130489148 0.0
    vertex -0.7737548183106383 -1.1667491080524002 0.0
  endloop
endfacet
facet normal 0.0 0.0 -1.0
  outer loop
    vertex -0.9300922249388014 -2.8521795969237975 0.0
    vertex -0.7737548183106383 -1.1667491080524002 0.0
    vertex -0.5498510147051244 -2.9491802016200617 0.0
  endloop
endfacet
facet normal 0.0 0.0 -1.0
  outer loop
    vertex -0.5498510147051244 -2.9491802016200617 0.0
    vertex -0.7737548183106383 -1.1667491080524002 0.0
    vertex -0.4454128722015105 -1.3272555794861822 0.0
  endloop
endfacet
facet normal 0.0 0.0 -1.0
  outer loop
    vertex -0.5498510147051244 -2.9491802016200617 0.0
    vertex -0.4454128722015105 -1.3272555794861822 0.0
    vertex -0.1602017011623411 -2.99571951539938 0.0
  endloop
endfacet
facet normal 0.0 0.0 -1.0
  outer loop
    vertex -0.1602017011623411 -2.99571951539938 0.0
    vertex -0.4454128722015105 -1.3272555794861822 0.0
    vertex -0.0867167749314252 -1.3973117765715328 0.0
  endloop
endfacet
facet normal 0.0 0.0 -1.0
  outer loop
    vertex -0.1602017011623411 -2.99571951539938 0.0
    vertex -0.0867167749314252 -1.3973117765715328 0.0
    vertex 0.2321887079036331 -2.9910012376998516 0.0
  endloop
endfacet
facet normal 0.0 0.0 -1.0
  outer loop
    vertex 0.2321887079036331 -2.9910012376998516 0.0
    vertex -0.0867167749314252 -1.3973117765715328 0.0
    vertex 0.27788892724399045 -1.3721434852504253 0.0
  endloop
endfacet
facet normal 0.0 0.0 -1.0
  outer loop
    vertex 0.2321887079036331 -2.9910012376998516 0.0
    vertex 0.27788892724399045 -1.3721434852504253 0.0
    vertex 0.620606303802504 -2.9351060995610703 0.0
  endloop
endfacet
facet normal 0.0 0.0 -1.0
  outer loop
    vertex 0.620606303802504 -2.9351060995610703 0.0
    vertex 0.27788892724399045 -1.3721434852504253 0.0
    vertex 0.6235569582608947 -1.2534658829838252 0.0
  endloop
endfacet
facet normal 0.0 0.0 -1.0
  outer loop
    vertex 0.620606303802504 -2.9351060995610703 0.0
    vertex 0.6235569582608947 -1.2534658829838252 0.0
    vertex 0.9984051537787427 -2.8289904822936482 0.0
  endloop
endfacet
facet normal 0.0 0.0 -1.0
  outer loop
    vertex 0.9984051537787427 -2.8289904822936482 0.0
    vertex 0.6235569582608947 -1.2534658829838252 0.0
    vertex 0.9267306130489142 -1.049366652242191 0.0
  endloop
endfacet
facet normal 0.0 0.0 -1.0
  outer loop
    vertex 0.9984051537787427 -2.8289904822936482 0.0
    vertex 0.9267306130489142 -1.049366652242191 0.0
    vertex 1.1667491080523997 -0.7737548183106383 0.0
  endloop
endfacet
facet normal 0.0 0.0 -1.0
  outer loop
    vertex 0.9984051537787427 -2.8289904822936482 0.0
    vertex 1.1667491080523997 -0.7737548183106383 0.0
    vertex 1.35912101476362 -2.674470053529841 0.0
  endloop
endfacet
facet normal 0.0 0.0 -1.0
  outer loop
    vertex 1.35912101476362 -2.674470053529841 0.0
    vertex 1.1667491080523997 -0.7737548183106383 0.0
    vertex 1.327255579486182 -0.44541287220151016 0.0
  endloop
endfacet
facet normal 0.0 0.0 -1.0
  outer loop
    vertex 1.35912101476362 -2.674470053529841 0.0
    vertex 1.327255579486182 -0.44541287220151016 0.0
    vertex 1.3973117765715326 -0.08671677493142431 0.0
  endloop
endfacet
facet normal 0.0 0.0 -1.0
  outer loop
    vertex 1.35912101476362 -2.674470053529841 0.0
    vertex 1.3973117765715326 -0.08671677493142431 0.0
    vertex 1.6965819383663572 -2.4741887006469527 0.0
  endloop
endfacet
facet normal 0.0 0.0 -1.0
  outer loop
    vertex 1.6965819383663572 -2.4741887006469527 0.0
    vertex 1.3973117765715326 -0.08671677493142431 0.0
    vertex 1.6365985006357586 2.5142683523675013 0.0
  endloop
endfacet
facet normal 0.0 0.0 -1.0
  outer loop
    vertex 1.6965819383663572 -2.4741887006469527 0.0
    vertex 1.6365985006357586 2.5142683523675013 0.0
    vertex 1.9507750478413188 2.2791394675885246 0.0
  endloop
endfacet
facet normal 0.0 0.0 -1.0
  outer loop
    vertex 1.6965819383663572 -2.4741887006469527 0.0
    vertex 1.9507750478413188 2.2791394675885246 0.0
    vertex 2.005013874622267 -2.2315732931212913 0.0
  endloop
endfacet
facet normal 0.0 0.0 -1.0
  outer loop
    vertex 2.005013874622267 -2.2315732931212913 0.0
    vertex 1.9507750478413188 2.2791394675885246 0.0
    vertex 2.2315732931212904 2.0050138746222688 0.0
  endloop
endfacet
facet normal 0.0 0.0 -1.0
  outer loop
    vertex 2.005013874622267 -2.2315732931212913 0.0
    vertex 2.2315732931212904 2.0050138746222688 0.0
    vertex 2.279139467588523 -1.9507750478413204 0.0
  endloop
endfacet
facet normal 0.0 0.0 -1.0
  outer loop
    vertex 2.279139467588523 -1.9507750478413204 0.0
    vertex 2.2315732931212904 2.0050138746222688 0.0
    vertex 2.474188700646952 1.6965819383663587 0.0
  endloop
endfacet
facet normal 0.0 0.0 -1.0
  outer loop
    vertex 2.279139467588523 -1.9507750478413204 0.0
    vertex 2.474188700646952 1.6965819383663587 0.0
    vertex 2.5142683523674996 -1.6365985006357606 0.0
  endloop
endfacet
facet normal 0.0 0.0 -1.0
  outer loop
    vertex 2.5142683523674996 -1.6365985006357606 0.0
    vertex 2.474188700646952 1.6965819383663587 0.0
    vertex 2.6744700535298405 1.3591210147636217 0.0
  endloop
endfacet
facet normal 0.0 0.0 -1.0
  outer loop
    vertex 2.5142683523674996 -1.6365985006357606 0.0
    vertex 2.6744700535298405 1.3591210147636217 0.0
    vertex 2.706377408550587 -1.2944192993334924 0.0
  endloop
endfacet
facet normal 0.0 0.0 -1.0
  outer loop
    vertex 2.706377408550587 -1.2944192993334924 0.0
    vertex 2.6744700535298405 1.3591210147636217 0.0
    vertex 2.8289904822936482 0.9984051537787442 0.0
  endloop
endfacet
facet normal 0.0 0.0 -1.0
  outer loop
    vertex 2.706377408550587 -1.2944192993334924 0.0
    vertex 2.8289904822936482 0.9984051537787442 0.0
    vertex 2.8521795969237966 -0.9300922249387998 0.0
  endloop
endfacet
facet normal 0.0 0.0 -1.0
  outer loop
    vertex 2.8521795969237966 -0.9300922249387998 0.0
    vertex 2.8289904822936482 0.9984051537787442 0.0
    vertex 2.9351060995610694 0.620606303802507 0.0
  endloop
endfacet
facet normal 0.0 0.0 -1.0
  outer loop
    vertex 2.8521795969237966 -0.9300922249387998 0.0
    vertex 2.9351060995610694 0.620606303802507 0.0
    vertex 2.9491802016200617 -0.5498510147051229 0.0
  endloop
endfacet
facet normal 0.0 0.0 -1.0
  outer loop
    vertex 2.9491802016200617 -0.5498510147051229 0.0
    vertex 2.9351060995610694 0.620606303802507 0.0
    vertex 2.991001237699851 0.23218870790363574 0.0
  endloop
endfacet
facet normal 0.0 0.0 -1.0
  outer loop
    vertex 2.9491802016200617 -0.5498510147051229 0.0
    vertex 2.991001237699851 0.23218870790363574 0.0
    vertex 2.9957195153993794 -0.16020170116233842 0.0
  endloop
endfacet
facet normal 0.0 0.0 1.0
  outer loop
    vertex -1.2944192993334933 -2.7063774085505874 13.099999999999998
    vertex -1.3973117765715326 0.08671677493142492 13.099999999999998
    vertex -1.6365985006357606 -2.5142683523675 13.099999999999998
  endloop
endfacet
facet normal 0.0 0.0 1.0
  outer loop
    vertex -1.3973117765715326 0.08671677493142492 13.099999999999998
    vertex -1.2944192993334933 -2.7063774085505874 13.099999999999998
    vertex -1.372143485250425 -0.2778889272439914 13.099999999999998
  endloop
endfacet
facet normal 0.0 0.0 1.0
  outer loop
    vertex -1.372143485250425 -0.2778889272439914 13.099999999999998
    vertex -1.2944192993334933 -2.7063774085505874 13.099999999999998
    vertex -1.253465882983825 -0.6235569582608945 13.099999999999998
  endloop
endfacet
facet normal 0.0 0.0 1.0
  outer loop
    vertex -1.253465882983825 -0.6235569582608945 13.099999999999998
    vertex -1.2944192993334933 -2.7063774085505874 13.099999999999998
    vertex -0.9300922249388014 -2.8521795969237975 13.099999999999998
  endloop
endfacet
facet normal 0.0 0.0 1.0
  outer loop
    vertex -1.253465882983825 -0.6235569582608945 13.099999999999998
    vertex -0.9300922249388014 -2.8521795969237975 13.099999999999998
    vertex -1.049366652242191 -0.9267306130489148 13.099999999999998
  endloop
endfacet
facet normal 0.0 0.0 1.0
  outer loop
    vertex -1.049366652242191 -0.9267306130489148 13.099999999999998
    vertex -0.9300922249388014 -2.8521795969237975 13.099999999999998
    vertex -0.7737548183106383 -1.1667491080524002 13.099999999999998
  endloop
endfacet
facet normal 0.0 0.0 1.0
  outer loop
    vertex -0.7737548183106383 -1.1667491080524002 13.099999999999998
    vertex -0.9300922249388014 -2.8521795969237975 13.099999999999998
    vertex -0.5498510147051244 -2.9491802016200617 13.099999999999998
  endloop
endfacet
facet normal 0.0 0.0 1.0
  outer loop
    vertex -0.7737548183106383 -1.1667491080524002 13.099999999999998
    vertex -0.5498510147051244 -2.9491802016200617 13.099999999999998
    vertex -0.4454128722015105 -1.3272555794861822 13.099999999999998
  endloop
endfacet
facet normal 0.0 0.0 1.0
  outer loop
    vertex -0.4454128722015105 -1.3272555794861822 13.099999999999998
    vertex -0.5498510147051244 -2.9491802016200617 13.099999999999998
    vertex -0.1602017011623411 -2.99571951539938 13.099999999999998
  endloop
endfacet
facet normal 0.0 0.0 1.0
  outer loop
    vertex -0.4454128722015105 -1.3272555794861822 13.099999999999998
    vertex -0.1602017011623411 -2.99571951539938 13.099999999999998
    vertex -0.0867167749314252 -1.3973117765715328 13.099999999999998
  endloop
endfacet
facet normal 0.0 0.0 1.0
  outer loop
    vertex -0.0867167749314252 -1.3973117765715328 13.099999999999998
    vertex -0.1602017011623411 -2.99571951539938 13.099999999999998
    vertex 0.2321887079036331 -2.9910012376998516 13.099999999999998
  endloop
endfacet
facet normal 0.0 0.0 1.0
  outer loop
    vertex -0.0867167749314252 -1.3973117765715328 13.099999999999998
    vertex 0.2321887079036331 -2.9910012376998516 13.099999999999998
    vertex 0.27788892724399045 -1.3721434852504253 13.099999999999998
  endloop
endfacet
facet normal 0.0 0.0 1.0
  outer loop
    vertex 0.27788892724399045 -1.3721434852504253 13.099999999999998
    vertex 0.2321887079036331 -2.9910012376998516 13.099999999999998
    vertex 0.620606303802504 -2.9351060995610703 13.099999999999998
  endloop
endfacet
facet normal 0.0 0.0 1.0
  outer loop
    vertex 0.27788892724399045 -1.3721434852504253 13.099999999999998
    vertex 0.620606303802504 -2.9351060995610703 13.099999999999998
    vertex 0.6235569582608947 -1.2534658829838252 13.099999999999998
  endloop
endfacet
facet normal 0.0 0.0 1.0
  outer loop
    vertex 0.6235569582608947 -1.2534658829838252 13.099999999999998
    vertex 0.620606303802504 -2.9351060995610703 13.099999999999998
    vertex 0.9984051537787427 -2.8289904822936482 13.099999999999998
  endloop
endfacet
facet normal 0.0 0.0 1.0
  outer loop
    vertex 0.6235569582608947 -1.2534658829838252 13.099999999999998
    vertex 0.9984051537787427 -2.8289904822936482 13.099999999999998
    vertex 0.9267306130489142 -1.049366652242191 13.099999999999998
  endloop
endfacet
facet normal 0.0 0.0 1.0
  outer loop
    vertex 0.9267306130489142 -1.049366652242191 13.099999999999998
    vertex 0.9984051537787427 -2.8289904822936482 13.099999999999998
    vertex 1.1667491080523997 -0.7737548183106383 13.099999999999998
  endloop
endfacet
facet normal 0.0 0.0 1.0
  outer loop
    vertex 1.1667491080523997 -0.7737548183106383 13.099999999999998
    vertex 0.9984051537787427 -2.8289904822936482 13.099999999999998
    vertex 1.35912101476362 -2.674470053529841 13.099999999999998
  endloop
endfacet
facet normal 0.0 0.0 1.0
  outer loop
    vertex 1.1667491080523997 -0.7737548183106383 13.099999999999998
    vertex 1.35912101476362 -2.674470053529841 13.099999999999998
    vertex 1.327255579486182 -0.44541287220151016 13.099999999999998
  endloop
endfacet
facet normal 0.0 0.0 1.0
  outer loop
    vertex 1.327255579486182 -0.44541287220151016 13.099999999999998
    vertex 1.35912101476362 -2.674470053529841 13.099999999999998
    vertex 1.3973117765715326 -0.08671677493142431 13.099999999999998
  endloop
endfacet
facet normal 0.0 0.0 1.0
  outer loop
    vertex 1.3973117765715326 -0.08671677493142431 13.099999999999998
    vertex 1.35912101476362 -2.674470053529841 13.099999999999998
    vertex 1.6965819383663572 -2.4741887006469527 13.099999999999998
  endloop
endfacet
facet normal 0.0 0.0 1.0
  outer loop
    vertex 1.3973117765715326 -0.08671677493142431 13.099999999999998
    vertex 1.6965819383663572 -2.4741887006469527 13.099999999999998
    vertex 1.6365985006357586 2.5142683523675013 13.099999999999998
  endloop
endfacet
facet normal 0.0 0.0 1.0
  outer loop
    vertex 1.6365985006357586 2.5142683523675013 13.099999999999998
    vertex 1.6965819383663572 -2.4741887006469527 13.099999999999998
    vertex 1.9507750478413188 2.2791394675885246 13.099999999999998
  endloop
endfacet
facet normal 0.0 0.0 1.0
  outer loop
    vertex 1.9507750478413188 2.2791394675885246 13.099999999999998
    vertex 1.6965819383663572 -2.4741887006469527 13.099999999999998
    vertex 2.005013874622267 -2.2315732931212913 13.099999999999998
  endloop
endfacet
facet normal 0.0 0.0 1.0
  outer loop
    vertex 1.9507750478413188 2.2791394675885246 13.099999999999998
    vertex 2.005013874622267 -2.2315732931212913 13.099999999999998
    vertex 2.2315732931212904 2.0050138746222688 13.099999999999998
  endloop
endfacet
facet normal 0.0 0.0 1.0
  outer loop
    vertex 2.2315732931212904 2.0050138746222688 13.099999999999998
    vertex 2.005013874622267 -2.2315732931212913 13.099999999999998
    vertex 2.279139467588523 -1.9507750478413204 13.099999999999998
  endloop
endfacet
facet normal 0.0 0.0 1.0
  outer loop
    vertex 2.2315732931212904 2.0050138746222688 13.099999999999998
    vertex 2.279139467588523 -1.9507750478413204 13.099999999999998
    vertex 2.474188700646952 1.6965819383663587 13.099999999999998
  endloop
endfacet
facet normal 0.0 0.0 1.0
  outer loop
    vertex 2.474188700646952 1.6965819383663587 13.099999999999998
    vertex 2.279139467588523 -1.9507750478413204 13.099999999999998
    vertex 2.5142683523674996 -1.6365985006357606 13.099999999999998
  endloop
endfacet
facet normal 0.0 0.0 1.0
  outer loop
    vertex 2.474188700646952 1.6965819383663587 13.099999999999998
    vertex 2.5142683523674996 -1.6365985006357606 13.099999999999998
    vertex 2.6744700535298405 1.3591210147636217 13.099999999999998
  endloop
endfacet
facet normal 0.0 0.0 1.0
  outer loop
    vertex 2.6744700535298405 1.3591210147636217 13.099999999999998
    vertex 2.5142683523674996 -1.6365985006357606 13.099999999999998
    vertex 2.706377408550587 -1.2944192993334924 13.099999999999998
  endloop
endfacet
facet normal 0.0 0.0 1.0
  outer loop
    vertex 2.6744700535298405 1.3591210147636217 13.099999999999998
    vertex 2.706377408550587 -1.2944192993334924 13.099999999999998
    vertex 2.8289904822936482 0.9984051537787442 13.099999999999998
  endloop
endfacet
facet normal 0.0 0.0 1.0
  outer loop
    vertex 2.8289904822936482 0.9984051537787442 13.099999999999998
    vertex 2.706377408550587 -1.2944192993334924 13.099999999999998
    vertex 2.8521795969237966 -0.9300922249387998 13.099999999999998
  endloop
endfacet
facet normal 0.0 0.0 1.0
  outer loop
    vertex 2.8289904822936482 0.9984051537787442 13.099999999999998
    vertex 2.8521795969237966 -0.9300922249387998 13.099999999999998
    vertex 2.9351060995610694 0.620606303802507 13.099999999999998
  endloop
endfacet
facet normal 0.0 0.0 1.0
  outer loop
    vertex 2.9351060995610694 0.620606303802507 13.099999999999998
    vertex 2.8521795969237966 -0.9300922249387998 13.099999999999998
    vertex 2.9491802016200617 -0.5498510147051229 13.099999999999998
  endloop
endfacet
facet normal 0.0 0.0 1.0
  outer loop
    vertex 2.9351060995610694 0.620606303802507 13.099999999999998
    vertex 2.9491802016200617 -0.5498510147051229 13.099999999999998
    vertex 2.991001237699851 0.23218870790363574 13.099999999999998
  endloop
endfacet
facet normal 0.0 0.0 1.0
  outer loop
    vertex 2.991001237699851 0.23218870790363574 13.099999999999998
    vertex 2.9491802016200617 -0.5498510147051229 13.099999999999998
    vertex 2.9957195153993794 -0.16020170116233842 13.099999999999998
  endloop
endfacet
facet normal 0.0 0.0 1.0
  outer loop
    vertex -2.9910012376998507 -0.23218870790363486 13.099999999999998
    vertex -2.9491802016200612 0.549851014705124 13.099999999999998
    vertex -2.995719515399379 0.16020170116234037 13.099999999999998
  endloop
endfacet
facet normal 0.0 0.0 1.0
  outer loop
    vertex -2.9491802016200612 0.549851014705124 13.099999999999998
    vertex -2.9910012376998507 -0.23218870790363486 13.099999999999998
    vertex -2.9351060995610694 -0.6206063038025061 13.099999999999998
  endloop
endfacet
facet normal 0.0 0.0 1.0
  outer loop
    vertex -2.9491802016200612 0.549851014705124 13.099999999999998
    vertex -2.9351060995610694 -0.6206063038025061 13.099999999999998
    vertex -2.8521795969237966 0.9300922249388008 13.099999999999998
  endloop
endfacet
facet normal 0.0 0.0 1.0
  outer loop
    vertex -2.8521795969237966 0.9300922249388008 13.099999999999998
    vertex -2.9351060995610694 -0.6206063038025061 13.099999999999998
    vertex -2.8289904822936482 -0.9984051537787422 13.099999999999998
  endloop
endfacet
facet normal 0.0 0.0 1.0
  outer loop
    vertex -2.8521795969237966 0.9300922249388008 13.099999999999998
    vertex -2.8289904822936482 -0.9984051537787422 13.099999999999998
    vertex -2.706377408550587 1.2944192993334929 13.099999999999998
  endloop
endfacet
facet normal 0.0 0.0 1.0
  outer loop
    vertex -2.706377408550587 1.2944192993334929 13.099999999999998
    vertex -2.8289904822936482 -0.9984051537787422 13.099999999999998
    vertex -2.6744700535298405 -1.3591210147636208 13.099999999999998
  endloop
endfacet
facet normal 0.0 0.0 1.0
  outer loop
    vertex -2.706377408550587 1.2944192993334929 13.099999999999998
    vertex -2.6744700535298405 -1.3591210147636208 13.099999999999998
    vertex -2.5142683523675005 1.6365985006357593 13.099999999999998
  endloop
endfacet
facet normal 0.0 0.0 1.0
  outer loop
    vertex -2.5142683523675005 1.6365985006357593 13.099999999999998
    vertex -2.6744700535298405 -1.3591210147636208 13.099999999999998
    vertex -2.4741887006469527 -1.6965819383663583 13.099999999999998
  endloop
endfacet
facet normal 0.0 0.0 1.0
  outer loop
    vertex -2.5142683523675005 1.6365985006357593 13.099999999999998
    vertex -2.4741887006469527 -1.6965819383663583 13.099999999999998
    vertex -2.279139467588524 1.9507750478413188 13.099999999999998
  endloop
endfacet
facet normal 0.0 0.0 1.0
  outer loop
    vertex -2.279139467588524 1.9507750478413188 13.099999999999998
    vertex -2.4741887006469527 -1.6965819383663583 13.099999999999998
    vertex -2.2315732931212913 -2.0050138746222683 13.099999999999998
  endloop
endfacet
facet normal 0.0 0.0 1.0
  outer loop
    vertex -2.279139467588524 1.9507750478413188 13.099999999999998
    vertex -2.2315732931212913 -2.0050138746222683 13.099999999999998
    vertex -2.0050138746222683 2.2315732931212904 13.099999999999998
  endloop
endfacet
facet normal 0.0 0.0 1.0
  outer loop
    vertex -2.0050138746222683 2.2315732931212904 13.099999999999998
    vertex -2.2315732931212913 -2.0050138746222683 13.099999999999998
    vertex -1.9507750478413204 -2.2791394675885237 13.099999999999998
  endloop
endfacet
facet normal 0.0 0.0 1.0
  outer loop
    vertex -2.0050138746222683 2.2315732931212904 13.099999999999998
    vertex -1.9507750478413204 -2.2791394675885237 13.099999999999998
    vertex -1.6965819383663576 2.4741887006469527 13.099999999999998
  endloop
endfacet
facet normal 0.0 0.0 1.0
  outer loop
    vertex -1.6965819383663576 2.4741887006469527 13.099999999999998
    vertex -1.9507750478413204 -2.2791394675885237 13.099999999999998
    vertex -1.6365985006357606 -2.5142683523675 13.099999999999998
  endloop
endfacet
facet normal 0.0 0.0 1.0
  outer loop
    vertex -1.6965819383663576 2.4741887006469527 13.099999999999998
    vertex -1.6365985006357606 -2.5142683523675 13.099999999999998
    vertex -1.3591210147636206 2.6744700535298405 13.099999999999998
  endloop
endfacet
facet normal 0.0 0.0 1.0
  outer loop
    vertex -1.3591210147636206 2.6744700535298405 13.099999999999998
    vertex -1.6365985006357606 -2.5142683523675 13.099999999999998
    vertex -1.3973117765715326 0.08671677493142492 13.099999999999998
  endloop
endfacet
facet normal 0.0 0.0 1.0
  outer loop
    vertex -1.3591210147636206 2.6744700535298405 13.099999999999998
    vertex -1.3973117765715326 0.08671677493142492 13.099999999999998
    vertex -1.327255579486182 0.4454128722015103 13.099999999999998
  endloop
endfacet
facet normal 0.0 0.0 1.0
  outer loop
    vertex -1.3591210147636206 2.6744700535298405 13.099999999999998
    vertex -1.327255579486182 0.4454128722015103 13.099999999999998
    vertex -0.9984051537787431 2.828990482293648 13.099999999999998
  endloop
endfacet
facet normal 0.0 0.0 1.0
  outer loop
    vertex -0.9984051537787431 2.828990482293648 13.099999999999998
    vertex -1.327255579486182 0.4454128722015103 13.099999999999998
    vertex -1.1667491080524002 0.7737548183106376 13.099999999999998
  endloop
endfacet
facet normal 0.0 0.0 1.0
  outer loop
    vertex -0.9984051537787431 2.828990482293648 13.099999999999998
    vertex -1.1667491080524002 0.7737548183106376 13.099999999999998
    vertex -0.9267306130489144 1.049366652242191 13.099999999999998
  endloop
endfacet
facet normal 0.0 0.0 1.0
  outer loop
    vertex -0.9984051537787431 2.828990482293648 13.099999999999998
    vertex -0.9267306130489144 1.049366652242191 13.099999999999998
    vertex -0.6206063038025056 2.9351060995610694 13.099999999999998
  endloop
endfacet
facet normal 0.0 0.0 1.0
  outer loop
    vertex -0.6206063038025056 2.9351060995610694 13.099999999999998
    vertex -0.9267306130489144 1.049366652242191 13.099999999999998
    vertex -0.623556958260895 1.253465882983825 13.099999999999998
  endloop
endfacet
facet normal 0.0 0.0 1.0
  outer loop
    vertex -0.6206063038025056 2.9351060995610694 13.099999999999998
    vertex -0.623556958260895 1.253465882983825 13.099999999999998
    vertex -0.2778889272439912 1.372143485250425 13.099999999999998
  endloop
endfacet
facet normal 0.0 0.0 1.0
  outer loop
    vertex -0.6206063038025056 2.9351060995610694 13.099999999999998
    vertex -0.2778889272439912 1.372143485250425 13.099999999999998
    vertex -0.2321887079036347 2.991001237699851 13.099999999999998
  endloop
endfacet
facet normal 0.0 0.0 1.0
  outer loop
    vertex -0.2321887079036347 2.991001237699851 13.099999999999998
    vertex -0.2778889272439912 1.372143485250425 13.099999999999998
    vertex 0.08671677493142461 1.3973117765715328 13.099999999999998
  endloop
endfacet
facet normal 0.0 0.0 1.0
  outer loop
    vertex -0.2321887079036347 2.991001237699851 13.099999999999998
    vertex 0.08671677493142461 1.3973117765715328 13.099999999999998
    vertex 0.16020170116234003 2.99571951539938 13.099999999999998
  endloop
endfacet
facet normal 0.0 0.0 1.0
  outer loop
    vertex 0.16020170116234003 2.99571951539938 13.099999999999998
    vertex 0.08671677493142461 1.3973117765715328 13.099999999999998
    vertex 0.4454128722015103 1.3272555794861822 13.099999999999998
  endloop
endfacet
facet normal 0.0 0.0 1.0
  outer loop
    vertex 0.16020170116234003 2.99571951539938 13.099999999999998
    vertex 0.4454128722015103 1.3272555794861822 13.099999999999998
    vertex 0.5498510147051235 2.949180201620062 13.099999999999998
  endloop
endfacet
facet normal 0.0 0.0 1.0
  outer loop
    vertex 0.5498510147051235 2.949180201620062 13.099999999999998
    vertex 0.4454128722015103 1.3272555794861822 13.099999999999998
    vertex 0.7737548183106376 1.1667491080524006 13.099999999999998
  endloop
endfacet
facet normal 0.0 0.0 1.0
  outer loop
    vertex 0.5498510147051235 2.949180201620062 13.099999999999998
    vertex 0.7737548183106376 1.1667491080524006 13.099999999999998
    vertex 0.9300922249388011 2.8521795969237975 13.099999999999998
  endloop
endfacet
facet normal 0.0 0.0 1.0
  outer loop
    vertex 0.9300922249388011 2.8521795969237975 13.099999999999998
    vertex 0.7737548183106376 1.1667491080524006 13.099999999999998
    vertex 1.0493666522421905 0.9267306130489149 13.099999999999998
  endloop
endfacet
facet normal 0.0 0.0 1.0
  outer loop
    vertex 0.9300922249388011 2.8521795969237975 13.099999999999998
    vertex 1.0493666522421905 0.9267306130489149 13.099999999999998
    vertex 1.2944192993334929 2.706377408550588 13.099999999999998
  endloop
endfacet
facet normal 0.0 0.0 1.0
  outer loop
    vertex 1.2944192993334929 2.706377408550588 13.099999999999998
    vertex 1.0493666522421905 0.9267306130489149 13.099999999999998
    vertex 1.253465882983825 0.6235569582608953 13.099999999999998
  endloop
endfacet
facet normal 0.0 0.0 1.0
  outer loop
    vertex 1.2944192993334929 2.706377408550588 13.099999999999998
    vertex 1.253465882983825 0.6235569582608953 13.099999999999998
    vertex 1.3721434852504248 0.2778889272439916 13.099999999999998
  endloop
endfacet
facet normal 0.0 0.0 1.0
  outer loop
    vertex 1.2944192993334929 2.706377408550588 13.099999999999998
    vertex 1.3721434852504248 0.2778889272439916 13.099999999999998
    vertex 1.6365985006357586 2.5142683523675013 13.099999999999998
  endloop
endfacet
facet normal 0.0 0.0 1.0
  outer loop
    vertex 1.6365985006357586 2.5142683523675013 13.099999999999998
    vertex 1.3721434852504248 0.2778889272439916 13.099999999999998
    vertex 1.3973117765715326 -0.08671677493142431 13.099999999999998
  endloop
endfacet
facet normal 0.4895511332163876 0.8719745913537567 0.0
  outer loop
    vertex 1.2944192993334929 2.706377408550588 13.099999999999998
    vertex 1.6365985006357586 2.5142683523675013 0.0
    vertex 1.2944192993334929 2.706377408550588 0.0
  endloop
endfacet
facet normal 0.4895511332163876 0.8719745913537567 0.0
  outer loop
    vertex 1.6365985006357586 2.5142683523675013 0.0
    vertex 1.2944192993334929 2.706377408550588 13.099999999999998
    vertex 1.6365985006357586 2.5142683523675013 13.099999999999998
  endloop
endfacet
facet normal 0.5991784785291535 0.8006154825304646 0.0
  outer loop
    vertex 1.6365985006357586 2.5142683523675013 13.099999999999998
    vertex 1.9507750478413188 2.2791394675885246 0.0
    vertex 1.6365985006357586 2.5142683523675013 0.0
  endloop
endfacet
facet normal 0.5991784785291535 0.8006154825304646 0.0
  outer loop
    vertex 1.9507750478413188 2.2791394675885246 0.0
    vertex 1.6365985006357586 2.5142683523675013 13.099999999999998
    vertex 1.9507750478413188 2.2791394675885246 13.099999999999998
  endloop
endfacet
facet normal 0.6985537139506287 0.715557620828528 0.0
  outer loop
    vertex 1.9507750478413188 2.2791394675885246 13.099999999999998
    vertex 2.2315732931212904 2.0050138746222688 0.0
    vertex 1.9507750478413188 2.2791394675885246 0.0
  endloop
endfacet
facet normal 0.6985537139506287 0.715557620828528 0.0
  outer loop
    vertex 2.2315732931212904 2.0050138746222688 0.0
    vertex 1.9507750478413188 2.2791394675885246 13.099999999999998
    vertex 2.2315732931212904 2.0050138746222688 13.099999999999998
  endloop
endfacet
facet normal 0.7859765016507285 0.6182563698441631 0.0
  outer loop
    vertex 2.2315732931212904 2.0050138746222688 0.0
    vertex 2.474188700646952 1.6965819383663587 13.099999999999998
    vertex 2.474188700646952 1.6965819383663587 0.0
  endloop
endfacet
facet normal 0.7859765016507285 0.6182563698441631 0.0
  outer loop
    vertex 2.474188700646952 1.6965819383663587 13.099999999999998
    vertex 2.2315732931212904 2.0050138746222688 0.0
    vertex 2.2315732931212904 2.0050138746222688 13.099999999999998
  endloop
endfacet
facet normal 0.8599510134937292 0.5103765809587154 0.0
  outer loop
    vertex 2.474188700646952 1.6965819383663587 0.0
    vertex 2.6744700535298405 1.3591210147636217 13.099999999999998
    vertex 2.6744700535298405 1.3591210147636217 0.0
  endloop
endfacet
facet normal 0.8599510134937292 0.5103765809587154 0.0
  outer loop
    vertex 2.6744700535298405 1.3591210147636217 13.099999999999998
    vertex 2.474188700646952 1.6965819383663587 0.0
    vertex 2.474188700646952 1.6965819383663587 13.099999999999998
  endloop
endfacet
facet normal 0.9192115250723879 0.3937641072699428 0.0
  outer loop
    vertex 2.6744700535298405 1.3591210147636217 0.0
    vertex 2.8289904822936482 0.9984051537787442 13.099999999999998
    vertex 2.8289904822936482 0.9984051537787442 0.0
  endloop
endfacet
facet normal 0.9192115250723879 0.3937641072699428 0.0
  outer loop
    vertex 2.8289904822936482 0.9984051537787442 13.099999999999998
    vertex 2.6744700535298405 1.3591210147636217 0.0
    vertex 2.6744700535298405 1.3591210147636217 13.099999999999998
  endloop
endfacet
facet normal 0.9627440726034765 0.27041422053374353 0.0
  outer loop
    vertex 2.8289904822936482 0.9984051537787442 0.0
    vertex 2.9351060995610694 0.620606303802507 13.099999999999998
    vertex 2.9351060995610694 0.620606303802507 0.0
  endloop
endfacet
facet normal 0.9627440726034765 0.27041422053374353 0.0
  outer loop
    vertex 2.9351060995610694 0.620606303802507 13.099999999999998
    vertex 2.8289904822936482 0.9984051537787442 0.0
    vertex 2.8289904822936482 0.9984051537787442 13.099999999999998
  endloop
endfacet
facet normal 0.9898038021292342 0.14243747151122785 0.0
  outer loop
    vertex 2.9351060995610694 0.620606303802507 0.0
    vertex 2.991001237699851 0.23218870790363574 13.099999999999998
    vertex 2.991001237699851 0.23218870790363574 0.0
  endloop
endfacet
facet normal 0.9898038021292342 0.14243747151122785 0.0
  outer loop
    vertex 2.991001237699851 0.23218870790363574 13.099999999999998
    vertex 2.9351060995610694 0.620606303802507 0.0
    vertex 2.9351060995610694 0.620606303802507 13.099999999999998
  endloop
endfacet
facet normal 0.9999277141751018 0.012023577860026868 0.0
  outer loop
    vertex 2.991001237699851 0.23218870790363574 0.0
    vertex 2.9957195153993794 -0.16020170116233842 13.099999999999998
    vertex 2.9957195153993794 -0.16020170116233842 0.0
  endloop
endfacet
facet normal 0.9999277141751018 0.012023577860026868 0.0
  outer loop
    vertex 2.9957195153993794 -0.16020170116233842 13.099999999999998
    vertex 2.991001237699851 0.23218870790363574 0.0
    vertex 2.991001237699851 0.23218870790363574 13.099999999999998
  endloop
endfacet
facet normal 0.9929425857990957 -0.11859604254192335 0.0
  outer loop
    vertex 2.9957195153993794 -0.16020170116233842 0.0
    vertex 2.9491802016200617 -0.5498510147051229 13.099999999999998
    vertex 2.9491802016200617 -0.5498510147051229 0.0
  endloop
endfacet
facet normal 0.9929425857990957 -0.11859604254192335 0.0
  outer loop
    vertex 2.9491802016200617 -0.5498510147051229 13.099999999999998
    vertex 2.9957195153993794 -0.16020170116233842 0.0
    vertex 2.9957195153993794 -0.16020170116233842 13.099999999999998
  endloop
endfacet
facet normal 0.9689679344843726 -0.2471864517749485 0.0
  outer loop
    vertex 2.9491802016200617 -0.5498510147051229 0.0
    vertex 2.8521795969237966 -0.9300922249387998 13.099999999999998
    vertex 2.8521795969237966 -0.9300922249387998 0.0
  endloop
endfacet
facet normal 0.9689679344843726 -0.2471864517749485 0.0
  outer loop
    vertex 2.8521795969237966 -0.9300922249387998 13.099999999999998
    vertex 2.9491802016200617 -0.5498510147051229 0.0
    vertex 2.9491802016200617 -0.5498510147051229 13.099999999999998
  endloop
endfacet
facet normal 0.9284139731619573 -0.3715474322850702 0.0
  outer loop
    vertex 2.8521795969237966 -0.9300922249387998 0.0
    vertex 2.706377408550587 -1.2944192993334924 13.099999999999998
    vertex 2.706377408550587 -1.2944192993334924 0.0
  endloop
endfacet
facet normal 0.9284139731619573 -0.3715474322850702 0.0
  outer loop
    vertex 2.706377408550587 -1.2944192993334924 13.099999999999998
    vertex 2.8521795969237966 -0.9300922249387998 0.0
    vertex 2.8521795969237966 -0.9300922249387998 13.099999999999998
  endloop
endfacet
facet normal 0.8719745913537567 -0.48955113321638744 0.0
  outer loop
    vertex 2.706377408550587 -1.2944192993334924 0.0
    vertex 2.5142683523674996 -1.6365985006357606 13.099999999999998
    vertex 2.5142683523674996 -1.6365985006357606 0.0
  endloop
endfacet
facet normal 0.8719745913537567 -0.48955113321638744 0.0
  outer loop
    vertex 2.5142683523674996 -1.6365985006357606 13.099999999999998
    vertex 2.706377408550587 -1.2944192993334924 0.0
    vertex 2.706377408550587 -1.2944192993334924 13.099999999999998
  endloop
endfacet
facet normal 0.800615482530464 -0.5991784785291544 0.0
  outer loop
    vertex 2.5142683523674996 -1.6365985006357606 0.0
    vertex 2.279139467588523 -1.9507750478413204 13.099999999999998
    vertex 2.279139467588523 -1.9507750478413204 0.0
  endloop
endfacet
facet normal 0.800615482530464 -0.5991784785291544 0.0
  outer loop
    vertex 2.279139467588523 -1.9507750478413204 13.099999999999998
    vertex 2.5142683523674996 -1.6365985006357606 0.0
    vertex 2.5142683523674996 -1.6365985006357606 13.099999999999998
  endloop
endfacet
facet normal 0.715557620828528 -0.6985537139506286 0.0
  outer loop
    vertex 2.279139467588523 -1.9507750478413204 0.0
    vertex 2.005013874622267 -2.2315732931212913 13.099999999999998
    vertex 2.005013874622267 -2.2315732931212913 0.0
  endloop
endfacet
facet normal 0.715557620828528 -0.6985537139506286 0.0
  outer loop
    vertex 2.005013874622267 -2.2315732931212913 13.099999999999998
    vertex 2.279139467588523 -1.9507750478413204 0.0
    vertex 2.279139467588523 -1.9507750478413204 13.099999999999998
  endloop
endfacet
facet normal 0.6182563698441629 -0.7859765016507285 0.0
  outer loop
    vertex 2.005013874622267 -2.2315732931212913 13.099999999999998
    vertex 1.6965819383663572 -2.4741887006469527 0.0
    vertex 2.005013874622267 -2.2315732931212913 0.0
  endloop
endfacet
facet normal 0.6182563698441629 -0.7859765016507285 0.0
  outer loop
    vertex 1.6965819383663572 -2.4741887006469527 0.0
    vertex 2.005013874622267 -2.2315732931212913 13.099999999999998
    vertex 1.6965819383663572 -2.4741887006469527 13.099999999999998
  endloop
endfacet
facet normal 0.510376580958715 -0.8599510134937294 0.0
  outer loop
    vertex 1.6965819383663572 -2.4741887006469527 13.099999999999998
    vertex 1.35912101476362 -2.674470053529841 0.0
    vertex 1.6965819383663572 -2.4741887006469527 0.0
  endloop
endfacet
facet normal 0.510376580958715 -0.8599510134937294 0.0
  outer loop
    vertex 1.35912101476362 -2.674470053529841 0.0
    vertex 1.6965819383663572 -2.4741887006469527 13.099999999999998
    vertex 1.35912101476362 -2.674470053529841 13.099999999999998
  endloop
endfacet
facet normal 0.39376410726994165 -0.9192115250723885 0.0
  outer loop
    vertex 1.35912101476362 -2.674470053529841 13.099999999999998
    vertex 0.9984051537787427 -2.8289904822936482 0.0
    vertex 1.35912101476362 -2.674470053529841 0.0
  endloop
endfacet
facet normal 0.39376410726994165 -0.9192115250723885 0.0
  outer loop
    vertex 0.9984051537787427 -2.8289904822936482 0.0
    vertex 1.35912101476362 -2.674470053529841 13.099999999999998
    vertex 0.9984051537787427 -2.8289904822936482 13.099999999999998
  endloop
endfacet
facet normal 0.27041422053374414 -0.9627440726034763 0.0
  outer loop
    vertex 0.9984051537787427 -2.8289904822936482 13.099999999999998
    vertex 0.620606303802504 -2.9351060995610703 0.0
    vertex 0.9984051537787427 -2.8289904822936482 0.0
  endloop
endfacet
facet normal 0.27041422053374414 -0.9627440726034763 0.0
  outer loop
    vertex 0.620606303802504 -2.9351060995610703 0.0
    vertex 0.9984051537787427 -2.8289904822936482 13.099999999999998
    vertex 0.620606303802504 -2.9351060995610703 13.099999999999998
  endloop
endfacet
facet normal 0.14243747151122707 -0.9898038021292342 0.0
  outer loop
    vertex 0.620606303802504 -2.9351060995610703 13.099999999999998
    vertex 0.2321887079036331 -2.9910012376998516 0.0
    vertex 0.620606303802504 -2.9351060995610703 0.0
  endloop
endfacet
facet normal 0.14243747151122707 -0.9898038021292342 0.0
  outer loop
    vertex 0.2321887079036331 -2.9910012376998516 0.0
    vertex 0.620606303802504 -2.9351060995610703 13.099999999999998
    vertex 0.2321887079036331 -2.9910012376998516 13.099999999999998
  endloop
endfacet
facet normal 0.012023577860026868 -0.9999277141751018 0.0
  outer loop
    vertex 0.2321887079036331 -2.9910012376998516 13.099999999999998
    vertex -0.1602017011623411 -2.99571951539938 0.0
    vertex 0.2321887079036331 -2.9910012376998516 0.0
  endloop
endfacet
facet normal 0.012023577860026868 -0.9999277141751018 0.0
  outer loop
    vertex -0.1602017011623411 -2.99571951539938 0.0
    vertex 0.2321887079036331 -2.9910012376998516 13.099999999999998
    vertex -0.1602017011623411 -2.99571951539938 13.099999999999998
  endloop
endfacet
facet normal -0.11859604254192455 -0.9929425857990954 -0.0
  outer loop
    vertex -0.1602017011623411 -2.99571951539938 13.099999999999998
    vertex -0.5498510147051244 -2.9491802016200617 0.0
    vertex -0.1602017011623411 -2.99571951539938 0.0
  endloop
endfacet
facet normal -0.11859604254192455 -0.9929425857990954 -0.0
  outer loop
    vertex -0.5498510147051244 -2.9491802016200617 0.0
    vertex -0.1602017011623411 -2.99571951539938 13.099999999999998
    vertex -0.5498510147051244 -2.9491802016200617 13.099999999999998
  endloop
endfacet
facet normal -0.24718645177494683 -0.968967934484373 -0.0
  outer loop
    vertex -0.5498510147051244 -2.9491802016200617 13.099999999999998
    vertex -0.9300922249388014 -2.8521795969237975 0.0
    vertex -0.5498510147051244 -2.9491802016200617 0.0
  endloop
endfacet
facet normal -0.24718645177494683 -0.968967934484373 -0.0
  outer loop
    vertex -0.9300922249388014 -2.8521795969237975 0.0
    vertex -0.5498510147051244 -2.9491802016200617 13.099999999999998
    vertex -0.9300922249388014 -2.8521795969237975 13.099999999999998
  endloop
endfacet
facet normal -0.3715474322850716 -0.9284139731619566 -0.0
  outer loop
    vertex -0.9300922249388014 -2.8521795969237975 13.099999999999998
    vertex -1.2944192993334933 -2.7063774085505874 0.0
    vertex -0.9300922249388014 -2.8521795969237975 0.0
  endloop
endfacet
facet normal -0.3715474322850716 -0.9284139731619566 -0.0
  outer loop
    vertex -1.2944192993334933 -2.7063774085505874 0.0
    vertex -0.9300922249388014 -2.8521795969237975 13.099999999999998
    vertex -1.2944192993334933 -2.7063774085505874 13.099999999999998
  endloop
endfacet
facet normal -0.4895511332163877 -0.8719745913537565 -0.0
  outer loop
    vertex -1.2944192993334933 -2.7063774085505874 13.099999999999998
    vertex -1.6365985006357606 -2.5142683523675 0.0
    vertex -1.2944192993334933 -2.7063774085505874 0.0
  endloop
endfacet
facet normal -0.4895511332163877 -0.8719745913537565 -0.0
  outer loop
    vertex -1.6365985006357606 -2.5142683523675 0.0
    vertex -1.2944192993334933 -2.7063774085505874 13.099999999999998
    vertex -1.6365985006357606 -2.5142683523675 13.099999999999998
  endloop
endfacet
facet normal -0.599178478529154 -0.8006154825304644 -0.0
  outer loop
    vertex -1.6365985006357606 -2.5142683523675 13.099999999999998
    vertex -1.9507750478413204 -2.2791394675885237 0.0
    vertex -1.6365985006357606 -2.5142683523675 0.0
  endloop
endfacet
facet normal -0.599178478529154 -0.8006154825304644 -0.0
  outer loop
    vertex -1.9507750478413204 -2.2791394675885237 0.0
    vertex -1.6365985006357606 -2.5142683523675 13.099999999999998
    vertex -1.9507750478413204 -2.2791394675885237 13.099999999999998
  endloop
endfacet
facet normal -0.6985537139506286 -0.715557620828528 -0.0
  outer loop
    vertex -1.9507750478413204 -2.2791394675885237 13.099999999999998
    vertex -2.2315732931212913 -2.0050138746222683 0.0
    vertex -1.9507750478413204 -2.2791394675885237 0.0
  endloop
endfacet
facet normal -0.6985537139506286 -0.715557620828528 -0.0
  outer loop
    vertex -2.2315732931212913 -2.0050138746222683 0.0
    vertex -1.9507750478413204 -2.2791394675885237 13.099999999999998
    vertex -2.2315732931212913 -2.0050138746222683 13.099999999999998
  endloop
endfacet
facet normal -0.7859765016507285 -0.6182563698441629 -0.0
  outer loop
    vertex -2.4741887006469527 -1.6965819383663583 13.099999999999998
    vertex -2.2315732931212913 -2.0050138746222683 0.0
    vertex -2.2315732931212913 -2.0050138746222683 13.099999999999998
  endloop
endfacet
facet normal -0.7859765016507285 -0.6182563698441629 -0.0
  outer loop
    vertex -2.2315732931212913 -2.0050138746222683 0.0
    vertex -2.4741887006469527 -1.6965819383663583 13.099999999999998
    vertex -2.4741887006469527 -1.6965819383663583 0.0
  endloop
endfacet
facet normal -0.85995101349373 -0.510376580958714 -0.0
  outer loop
    vertex -2.6744700535298405 -1.3591210147636208 13.099999999999998
    vertex -2.4741887006469527 -1.6965819383663583 0.0
    vertex -2.4741887006469527 -1.6965819383663583 13.099999999999998
  endloop
endfacet
facet normal -0.85995101349373 -0.510376580958714 -0.0
  outer loop
    vertex -2.4741887006469527 -1.6965819383663583 0.0
    vertex -2.6744700535298405 -1.3591210147636208 13.099999999999998
    vertex -2.6744700535298405 -1.3591210147636208 0.0
  endloop
endfacet
facet normal -0.9192115250723886 -0.39376410726994127 -0.0
  outer loop
    vertex -2.8289904822936482 -0.9984051537787422 13.099999999999998
    vertex -2.6744700535298405 -1.3591210147636208 0.0
    vertex -2.6744700535298405 -1.3591210147636208 13.099999999999998
  endloop
endfacet
facet normal -0.9192115250723886 -0.39376410726994127 -0.0
  outer loop
    vertex -2.6744700535298405 -1.3591210147636208 0.0
    vertex -2.8289904822936482 -0.9984051537787422 13.099999999999998
    vertex -2.8289904822936482 -0.9984051537787422 0.0
  endloop
endfacet
facet normal -0.9627440726034763 -0.2704142205337442 -0.0
  outer loop
    vertex -2.9351060995610694 -0.6206063038025061 13.099999999999998
    vertex -2.8289904822936482 -0.9984051537787422 0.0
    vertex -2.8289904822936482 -0.9984051537787422 13.099999999999998
  endloop
endfacet
facet normal -0.9627440726034763 -0.2704142205337442 -0.0
  outer loop
    vertex -2.8289904822936482 -0.9984051537787422 0.0
    vertex -2.9351060995610694 -0.6206063038025061 13.099999999999998
    vertex -2.9351060995610694 -0.6206063038025061 0.0
  endloop
endfacet
facet normal -0.9898038021292345 -0.142437471511227 -0.0
  outer loop
    vertex -2.9910012376998507 -0.23218870790363486 13.099999999999998
    vertex -2.9351060995610694 -0.6206063038025061 0.0
    vertex -2.9351060995610694 -0.6206063038025061 13.099999999999998
  endloop
endfacet
facet normal -0.9898038021292345 -0.142437471511227 -0.0
  outer loop
    vertex -2.9351060995610694 -0.6206063038025061 0.0
    vertex -2.9910012376998507 -0.23218870790363486 13.099999999999998
    vertex -2.9910012376998507 -0.23218870790363486 0.0
  endloop
endfacet
facet normal -0.9999277141751017 -0.012023577860026833 -0.0
  outer loop
    vertex -2.995719515399379 0.16020170116234037 13.099999999999998
    vertex -2.9910012376998507 -0.23218870790363486 0.0
    vertex -2.9910012376998507 -0.23218870790363486 13.099999999999998
  endloop
endfacet
facet normal -0.9999277141751017 -0.012023577860026833 -0.0
  outer loop
    vertex -2.9910012376998507 -0.23218870790363486 0.0
    vertex -2.995719515399379 0.16020170116234037 13.099999999999998
    vertex -2.995719515399379 0.16020170116234037 0.0
  endloop
endfacet
facet normal -0.9929425857990957 0.11859604254192362 0.0
  outer loop
    vertex -2.9491802016200612 0.549851014705124 13.099999999999998
    vertex -2.995719515399379 0.16020170116234037 0.0
    vertex -2.995719515399379 0.16020170116234037 13.099999999999998
  endloop
endfacet
facet normal -0.9929425857990957 0.11859604254192362 0.0
  outer loop
    vertex -2.995719515399379 0.16020170116234037 0.0
    vertex -2.9491802016200612 0.549851014705124 13.099999999999998
    vertex -2.9491802016200612 0.549851014705124 0.0
  endloop
endfacet
facet normal -0.9689679344843728 0.24718645177494766 0.0
  outer loop
    vertex -2.8521795969237966 0.9300922249388008 13.099999999999998
    vertex -2.9491802016200612 0.549851014705124 0.0
    vertex -2.9491802016200612 0.549851014705124 13.099999999999998
  endloop
endfacet
facet normal -0.9689679344843728 0.24718645177494766 0.0
  outer loop
    vertex -2.9491802016200612 0.549851014705124 0.0
    vertex -2.8521795969237966 0.9300922249388008 13.099999999999998
    vertex -2.8521795969237966 0.9300922249388008 0.0
  endloop
endfacet
facet normal -0.9284139731619571 0.3715474322850708 0.0
  outer loop
    vertex -2.706377408550587 1.2944192993334929 13.099999999999998
    vertex -2.8521795969237966 0.9300922249388008 0.0
    vertex -2.8521795969237966 0.9300922249388008 13.099999999999998
  endloop
endfacet
facet normal -0.9284139731619571 0.3715474322850708 0.0
  outer loop
    vertex -2.8521795969237966 0.9300922249388008 0.0
    vertex -2.706377408550587 1.2944192993334929 13.099999999999998
    vertex -2.706377408550587 1.2944192993334929 0.0
  endloop
endfacet
facet normal -0.8719745913537568 0.4895511332163873 0.0
  outer loop
    vertex -2.5142683523675005 1.6365985006357593 13.099999999999998
    vertex -2.706377408550587 1.2944192993334929 0.0
    vertex -2.706377408550587 1.2944192993334929 13.099999999999998
  endloop
endfacet
facet normal -0.8719745913537568 0.4895511332163873 0.0
  outer loop
    vertex -2.706377408550587 1.2944192993334929 0.0
    vertex -2.5142683523675005 1.6365985006357593 13.099999999999998
    vertex -2.5142683523675005 1.6365985006357593 0.0
  endloop
endfacet
facet normal -0.8006154825304644 0.599178478529154 0.0
  outer loop
    vertex -2.279139467588524 1.9507750478413188 13.099999999999998
    vertex -2.5142683523675005 1.6365985006357593 0.0
    vertex -2.5142683523675005 1.6365985006357593 13.099999999999998
  endloop
endfacet
facet normal -0.8006154825304644 0.599178478529154 0.0
  outer loop
    vertex -2.5142683523675005 1.6365985006357593 0.0
    vertex -2.279139467588524 1.9507750478413188 13.099999999999998
    vertex -2.279139467588524 1.9507750478413188 0.0
  endloop
endfacet
facet normal -0.7155576208285285 0.6985537139506282 0.0
  outer loop
    vertex -2.0050138746222683 2.2315732931212904 13.099999999999998
    vertex -2.279139467588524 1.9507750478413188 0.0
    vertex -2.279139467588524 1.9507750478413188 13.099999999999998
  endloop
endfacet
facet normal -0.7155576208285285 0.6985537139506282 0.0
  outer loop
    vertex -2.279139467588524 1.9507750478413188 0.0
    vertex -2.0050138746222683 2.2315732931212904 13.099999999999998
    vertex -2.0050138746222683 2.2315732931212904 0.0
  endloop
endfacet
facet normal -0.6182563698441632 0.7859765016507283 0.0
  outer loop
    vertex -2.0050138746222683 2.2315732931212904 13.099999999999998
    vertex -1.6965819383663576 2.4741887006469527 0.0
    vertex -2.0050138746222683 2.2315732931212904 0.0
  endloop
endfacet
facet normal -0.6182563698441632 0.7859765016507283 0.0
  outer loop
    vertex -1.6965819383663576 2.4741887006469527 0.0
    vertex -2.0050138746222683 2.2315732931212904 13.099999999999998
    vertex -1.6965819383663576 2.4741887006469527 13.099999999999998
  endloop
endfacet
facet normal -0.5103765809587145 0.8599510134937296 0.0
  outer loop
    vertex -1.6965819383663576 2.4741887006469527 13.099999999999998
    vertex -1.3591210147636206 2.6744700535298405 0.0
    vertex -1.6965819383663576 2.4741887006469527 0.0
  endloop
endfacet
facet normal -0.5103765809587145 0.8599510134937296 0.0
  outer loop
    vertex -1.3591210147636206 2.6744700535298405 0.0
    vertex -1.6965819383663576 2.4741887006469527 13.099999999999998
    vertex -1.3591210147636206 2.6744700535298405 13.099999999999998
  endloop
endfacet
facet normal -0.39376410726994143 0.9192115250723885 0.0
  outer loop
    vertex -1.3591210147636206 2.6744700535298405 13.099999999999998
    vertex -0.9984051537787431 2.828990482293648 0.0
    vertex -1.3591210147636206 2.6744700535298405 0.0
  endloop
endfacet
facet normal -0.39376410726994143 0.9192115250723885 0.0
  outer loop
    vertex -0.9984051537787431 2.828990482293648 0.0
    vertex -1.3591210147636206 2.6744700535298405 13.099999999999998
    vertex -0.9984051537787431 2.828990482293648 13.099999999999998
  endloop
endfacet
facet normal -0.2704142205337441 0.9627440726034763 0.0
  outer loop
    vertex -0.9984051537787431 2.828990482293648 13.099999999999998
    vertex -0.6206063038025056 2.9351060995610694 0.0
    vertex -0.9984051537787431 2.828990482293648 0.0
  endloop
endfacet
facet normal -0.2704142205337441 0.9627440726034763 0.0
  outer loop
    vertex -0.6206063038025056 2.9351060995610694 0.0
    vertex -0.9984051537787431 2.828990482293648 13.099999999999998
    vertex -0.6206063038025056 2.9351060995610694 13.099999999999998
  endloop
endfacet
facet normal -0.142437471511228 0.9898038021292342 0.0
  outer loop
    vertex -0.6206063038025056 2.9351060995610694 13.099999999999998
    vertex -0.2321887079036347 2.991001237699851 0.0
    vertex -0.6206063038025056 2.9351060995610694 0.0
  endloop
endfacet
facet normal -0.142437471511228 0.9898038021292342 0.0
  outer loop
    vertex -0.2321887079036347 2.991001237699851 0.0
    vertex -0.6206063038025056 2.9351060995610694 13.099999999999998
    vertex -0.2321887079036347 2.991001237699851 13.099999999999998
  endloop
endfacet
facet normal -0.012023577860027751 0.9999277141751018 0.0
  outer loop
    vertex -0.2321887079036347 2.991001237699851 13.099999999999998
    vertex 0.16020170116234003 2.99571951539938 0.0
    vertex -0.2321887079036347 2.991001237699851 0.0
  endloop
endfacet
facet normal -0.012023577860027751 0.9999277141751018 0.0
  outer loop
    vertex 0.16020170116234003 2.99571951539938 0.0
    vertex -0.2321887079036347 2.991001237699851 13.099999999999998
    vertex 0.16020170116234003 2.99571951539938 13.099999999999998
  endloop
endfacet
facet normal 0.11859604254192274 0.9929425857990957 0.0
  outer loop
    vertex 0.16020170116234003 2.99571951539938 13.099999999999998
    vertex 0.5498510147051235 2.949180201620062 0.0
    vertex 0.16020170116234003 2.99571951539938 0.0
  endloop
endfacet
facet normal 0.11859604254192274 0.9929425857990957 0.0
  outer loop
    vertex 0.5498510147051235 2.949180201620062 0.0
    vertex 0.16020170116234003 2.99571951539938 13.099999999999998
    vertex 0.5498510147051235 2.949180201620062 13.099999999999998
  endloop
endfacet
facet normal 0.24718645177494813 0.9689679344843727 0.0
  outer loop
    vertex 0.5498510147051235 2.949180201620062 13.099999999999998
    vertex 0.9300922249388011 2.8521795969237975 0.0
    vertex 0.5498510147051235 2.949180201620062 0.0
  endloop
endfacet
facet normal 0.24718645177494813 0.9689679344843727 0.0
  outer loop
    vertex 0.9300922249388011 2.8521795969237975 0.0
    vertex 0.5498510147051235 2.949180201620062 13.099999999999998
    vertex 0.9300922249388011 2.8521795969237975 13.099999999999998
  endloop
endfacet
facet normal 0.3715474322850708 0.9284139731619571 0.0
  outer loop
    vertex 0.9300922249388011 2.8521795969237975 13.099999999999998
    vertex 1.2944192993334929 2.706377408550588 0.0
    vertex 0.9300922249388011 2.8521795969237975 0.0
  endloop
endfacet
facet normal 0.3715474322850708 0.9284139731619571 0.0
  outer loop
    vertex 1.2944192993334929 2.706377408550588 0.0
    vertex 0.9300922249388011 2.8521795969237975 13.099999999999998
    vertex 1.2944192993334929 2.706377408550588 13.099999999999998
  endloop
endfacet
facet normal -0.7541229553893024 0.6567332549482355 -0.0
  outer loop
    vertex 1.1667491080523997 -0.7737548183106383 13.099999999999998
    vertex 0.9267306130489142 -1.049366652242191 0.0
    vertex 0.9267306130489142 -1.049366652242191 13.099999999999998
  endloop
endfacet
facet normal -0.7541229553893024 0.6567332549482355 -0.0
  outer loop
    vertex 0.9267306130489142 -1.049366652242191 0.0
    vertex 1.1667491080523997 -0.7737548183106383 13.099999999999998
    vertex 1.1667491080523997 -0.7737548183106383 0.0
  endloop
endfacet
facet normal -0.5584517648751939 0.8295369951411337 -0.0
  outer loop
    vertex 0.6235569582608947 -1.2534658829838252 13.099999999999998
    vertex 0.9267306130489142 -1.049366652242191 0.0
    vertex 0.6235569582608947 -1.2534658829838252 0.0
  endloop
endfacet
facet normal -0.5584517648751939 0.8295369951411337 -0.0
  outer loop
    vertex 0.9267306130489142 -1.049366652242191 0.0
    vertex 0.6235569582608947 -1.2534658829838252 13.099999999999998
    vertex 0.9267306130489142 -1.049366652242191 13.099999999999998
  endloop
endfacet
facet normal -0.32472300947001714 0.9458091599898658 -0.0
  outer loop
    vertex 0.27788892724399045 -1.3721434852504253 13.099999999999998
    vertex 0.6235569582608947 -1.2534658829838252 0.0
    vertex 0.27788892724399045 -1.3721434852504253 0.0
  endloop
endfacet
facet normal -0.32472300947001714 0.9458091599898658 -0.0
  outer loop
    vertex 0.6235569582608947 -1.2534658829838252 0.0
    vertex 0.27788892724399045 -1.3721434852504253 13.099999999999998
    vertex 0.6235569582608947 -1.2534658829838252 13.099999999999998
  endloop
endfacet
facet normal -0.06886491759960556 0.9976259936088272 -0.0
  outer loop
    vertex -0.0867167749314252 -1.3973117765715328 13.099999999999998
    vertex 0.27788892724399045 -1.3721434852504253 0.0
    vertex -0.0867167749314252 -1.3973117765715328 0.0
  endloop
endfacet
facet normal -0.06886491759960556 0.9976259936088272 -0.0
  outer loop
    vertex 0.27788892724399045 -1.3721434852504253 0.0
    vertex -0.0867167749314252 -1.3973117765715328 13.099999999999998
    vertex 0.27788892724399045 -1.3721434852504253 13.099999999999998
  endloop
endfacet
facet normal 0.1916862046005633 0.9814562644182526 0.0
  outer loop
    vertex -0.4454128722015105 -1.3272555794861822 13.099999999999998
    vertex -0.0867167749314252 -1.3973117765715328 0.0
    vertex -0.4454128722015105 -1.3272555794861822 0.0
  endloop
endfacet
facet normal 0.1916862046005633 0.9814562644182526 0.0
  outer loop
    vertex -0.0867167749314252 -1.3973117765715328 0.0
    vertex -0.4454128722015105 -1.3272555794861822 13.099999999999998
    vertex -0.0867167749314252 -1.3973117765715328 13.099999999999998
  endloop
endfacet
facet normal 0.4391742287336337 0.8984019127407388 0.0
  outer loop
    vertex -0.7737548183106383 -1.1667491080524002 13.099999999999998
    vertex -0.4454128722015105 -1.3272555794861822 0.0
    vertex -0.7737548183106383 -1.1667491080524002 0.0
  endloop
endfacet
facet normal 0.4391742287336337 0.8984019127407388 0.0
  outer loop
    vertex -0.4454128722015105 -1.3272555794861822 0.0
    vertex -0.7737548183106383 -1.1667491080524002 13.099999999999998
    vertex -0.4454128722015105 -1.3272555794861822 13.099999999999998
  endloop
endfacet
facet normal 0.6567332549482353 0.7541229553893027 0.0
  outer loop
    vertex -1.049366652242191 -0.9267306130489148 13.099999999999998
    vertex -0.7737548183106383 -1.1667491080524002 0.0
    vertex -1.049366652242191 -0.9267306130489148 0.0
  endloop
endfacet
facet normal 0.6567332549482353 0.7541229553893027 0.0
  outer loop
    vertex -0.7737548183106383 -1.1667491080524002 0.0
    vertex -1.049366652242191 -0.9267306130489148 13.099999999999998
    vertex -0.7737548183106383 -1.1667491080524002 13.099999999999998
  endloop
endfacet
facet normal 0.8295369951411347 0.5584517648751927 0.0
  outer loop
    vertex -1.253465882983825 -0.6235569582608945 0.0
    vertex -1.049366652242191 -0.9267306130489148 13.099999999999998
    vertex -1.049366652242191 -0.9267306130489148 0.0
  endloop
endfacet
facet normal 0.8295369951411347 0.5584517648751927 0.0
  outer loop
    vertex -1.049366652242191 -0.9267306130489148 13.099999999999998
    vertex -1.253465882983825 -0.6235569582608945 0.0
    vertex -1.253465882983825 -0.6235569582608945 13.099999999999998
  endloop
endfacet
facet normal 0.9458091599898656 0.32472300947001764 0.0
  outer loop
    vertex -1.372143485250425 -0.2778889272439914 0.0
    vertex -1.253465882983825 -0.6235569582608945 13.099999999999998
    vertex -1.253465882983825 -0.6235569582608945 0.0
  endloop
endfacet
facet normal 0.9458091599898656 0.32472300947001764 0.0
  outer loop
    vertex -1.253465882983825 -0.6235569582608945 13.099999999999998
    vertex -1.372143485250425 -0.2778889272439914 0.0
    vertex -1.372143485250425 -0.2778889272439914 13.099999999999998
  endloop
endfacet
facet normal 0.9976259936088273 0.06886491759960543 0.0
  outer loop
    vertex -1.3973117765715326 0.08671677493142492 0.0
    vertex -1.372143485250425 -0.2778889272439914 13.099999999999998
    vertex -1.372143485250425 -0.2778889272439914 0.0
  endloop
endfacet
facet normal 0.9976259936088273 0.06886491759960543 0.0
  outer loop
    vertex -1.372143485250425 -0.2778889272439914 13.099999999999998
    vertex -1.3973117765715326 0.08671677493142492 0.0
    vertex -1.3973117765715326 0.08671677493142492 13.099999999999998
  endloop
endfacet
facet normal 0.9814562644182528 -0.19168620460056282 -0.0
  outer loop
    vertex -1.327255579486182 0.4454128722015103 0.0
    vertex -1.3973117765715326 0.08671677493142492 13.099999999999998
    vertex -1.3973117765715326 0.08671677493142492 0.0
  endloop
endfacet
facet normal 0.9814562644182528 -0.19168620460056282 -0.0
  outer loop
    vertex -1.3973117765715326 0.08671677493142492 13.099999999999998
    vertex -1.327255579486182 0.4454128722015103 0.0
    vertex -1.327255579486182 0.4454128722015103 13.099999999999998
  endloop
endfacet
facet normal 0.8984019127407389 -0.4391742287336339 -0.0
  outer loop
    vertex -1.1667491080524002 0.7737548183106376 0.0
    vertex -1.327255579486182 0.4454128722015103 13.099999999999998
    vertex -1.327255579486182 0.4454128722015103 0.0
  endloop
endfacet
facet normal 0.8984019127407389 -0.4391742287336339 -0.0
  outer loop
    vertex -1.327255579486182 0.4454128722015103 13.099999999999998
    vertex -1.1667491080524002 0.7737548183106376 0.0
    vertex -1.1667491080524002 0.7737548183106376 13.099999999999998
  endloop
endfacet
facet normal 0.7541229553893031 -0.656733254948235 -0.0
  outer loop
    vertex -0.9267306130489144 1.049366652242191 0.0
    vertex -1.1667491080524002 0.7737548183106376 13.099999999999998
    vertex -1.1667491080524002 0.7737548183106376 0.0
  endloop
endfacet
facet normal 0.7541229553893031 -0.656733254948235 -0.0
  outer loop
    vertex -1.1667491080524002 0.7737548183106376 13.099999999999998
    vertex -0.9267306130489144 1.049366652242191 0.0
    vertex -0.9267306130489144 1.049366652242191 13.099999999999998
  endloop
endfacet
facet normal 0.5584517648751937 -0.829536995141134 -0.0
  outer loop
    vertex -0.623556958260895 1.253465882983825 13.099999999999998
    vertex -0.9267306130489144 1.049366652242191 0.0
    vertex -0.623556958260895 1.253465882983825 0.0
  endloop
endfacet
facet normal 0.5584517648751937 -0.829536995141134 -0.0
  outer loop
    vertex -0.9267306130489144 1.049366652242191 0.0
    vertex -0.623556958260895 1.253465882983825 13.099999999999998
    vertex -0.9267306130489144 1.049366652242191 13.099999999999998
  endloop
endfacet
facet normal 0.3247230094700172 -0.9458091599898657 -0.0
  outer loop
    vertex -0.2778889272439912 1.372143485250425 13.099999999999998
    vertex -0.623556958260895 1.253465882983825 0.0
    vertex -0.2778889272439912 1.372143485250425 0.0
  endloop
endfacet
facet normal 0.3247230094700172 -0.9458091599898657 -0.0
  outer loop
    vertex -0.623556958260895 1.253465882983825 0.0
    vertex -0.2778889272439912 1.372143485250425 13.099999999999998
    vertex -0.623556958260895 1.253465882983825 13.099999999999998
  endloop
endfacet
facet normal 0.06886491759960649 -0.9976259936088272 -0.0
  outer loop
    vertex 0.08671677493142461 1.3973117765715328 13.099999999999998
    vertex -0.2778889272439912 1.372143485250425 0.0
    vertex 0.08671677493142461 1.3973117765715328 0.0
  endloop
endfacet
facet normal 0.06886491759960649 -0.9976259936088272 -0.0
  outer loop
    vertex -0.2778889272439912 1.372143485250425 0.0
    vertex 0.08671677493142461 1.3973117765715328 13.099999999999998
    vertex -0.2778889272439912 1.372143485250425 13.099999999999998
  endloop
endfacet
facet normal -0.1916862046005631 -0.9814562644182526 -0.0
  outer loop
    vertex 0.4454128722015103 1.3272555794861822 13.099999999999998
    vertex 0.08671677493142461 1.3973117765715328 0.0
    vertex 0.4454128722015103 1.3272555794861822 0.0
  endloop
endfacet
facet normal -0.1916862046005631 -0.9814562644182526 -0.0
  outer loop
    vertex 0.08671677493142461 1.3973117765715328 0.0
    vertex 0.4454128722015103 1.3272555794861822 13.099999999999998
    vertex 0.08671677493142461 1.3973117765715328 13.099999999999998
  endloop
endfacet
facet normal -0.43917422873363315 -0.8984019127407392 -0.0
  outer loop
    vertex 0.7737548183106376 1.1667491080524006 13.099999999999998
    vertex 0.4454128722015103 1.3272555794861822 0.0
    vertex 0.7737548183106376 1.1667491080524006 0.0
  endloop
endfacet
facet normal -0.43917422873363315 -0.8984019127407392 -0.0
  outer loop
    vertex 0.4454128722015103 1.3272555794861822 0.0
    vertex 0.7737548183106376 1.1667491080524006 13.099999999999998
    vertex 0.4454128722015103 1.3272555794861822 13.099999999999998
  endloop
endfacet
facet normal -0.6567332549482353 -0.7541229553893026 -0.0
  outer loop
    vertex 1.0493666522421905 0.9267306130489149 13.099999999999998
    vertex 0.7737548183106376 1.1667491080524006 0.0
    vertex 1.0493666522421905 0.9267306130489149 0.0
  endloop
endfacet
facet normal -0.6567332549482353 -0.7541229553893026 -0.0
  outer loop
    vertex 0.7737548183106376 1.1667491080524006 0.0
    vertex 1.0493666522421905 0.9267306130489149 13.099999999999998
    vertex 0.7737548183106376 1.1667491080524006 13.099999999999998
  endloop
endfacet
facet normal -0.8295369951411335 -0.5584517648751941 -0.0
  outer loop
    vertex 1.0493666522421905 0.9267306130489149 13.099999999999998
    vertex 1.253465882983825 0.6235569582608953 0.0
    vertex 1.253465882983825 0.6235569582608953 13.099999999999998
  endloop
endfacet
facet normal -0.8295369951411335 -0.5584517648751941 -0.0
  outer loop
    vertex 1.253465882983825 0.6235569582608953 0.0
    vertex 1.0493666522421905 0.9267306130489149 13.099999999999998
    vertex 1.0493666522421905 0.9267306130489149 0.0
  endloop
endfacet
facet normal -0.9458091599898658 -0.3247230094700167 -0.0
  outer loop
    vertex 1.253465882983825 0.6235569582608953 13.099999999999998
    vertex 1.3721434852504248 0.2778889272439916 0.0
    vertex 1.3721434852504248 0.2778889272439916 13.099999999999998
  endloop
endfacet
facet normal -0.9458091599898658 -0.3247230094700167 -0.0
  outer loop
    vertex 1.3721434852504248 0.2778889272439916 0.0
    vertex 1.253465882983825 0.6235569582608953 13.099999999999998
    vertex 1.253465882983825 0.6235569582608953 0.0
  endloop
endfacet
facet normal -0.9976259936088272 -0.06886491759960599 -0.0
  outer loop
    vertex 1.3721434852504248 0.2778889272439916 13.099999999999998
    vertex 1.3973117765715326 -0.08671677493142431 0.0
    vertex 1.3973117765715326 -0.08671677493142431 13.099999999999998
  endloop
endfacet
facet normal -0.9976259936088272 -0.06886491759960599 -0.0
  outer loop
    vertex 1.3973117765715326 -0.08671677493142431 0.0
    vertex 1.3721434852504248 0.2778889272439916 13.099999999999998
    vertex 1.3721434852504248 0.2778889272439916 0.0
  endloop
endfacet
facet normal -0.9814562644182528 0.1916862046005626 -0.0
  outer loop
    vertex 1.3973117765715326 -0.08671677493142431 13.099999999999998
    vertex 1.327255579486182 -0.44541287220151016 0.0
    vertex 1.327255579486182 -0.44541287220151016 13.099999999999998
  endloop
endfacet
facet normal -0.9814562644182528 0.1916862046005626 -0.0
  outer loop
    vertex 1.327255579486182 -0.44541287220151016 0.0
    vertex 1.3973117765715326 -0.08671677493142431 13.099999999999998
    vertex 1.3973117765715326 -0.08671677493142431 0.0
  endloop
endfacet
facet normal -0.8984019127407388 0.4391742287336337 -0.0
  outer loop
    vertex 1.327255579486182 -0.44541287220151016 13.099999999999998
    vertex 1.1667491080523997 -0.7737548183106383 0.0
    vertex 1.1667491080523997 -0.7737548183106383 13.099999999999998
  endloop
endfacet
facet normal -0.8984019127407388 0.4391742287336337 -0.0
  outer loop
    vertex 1.1667491080523997 -0.7737548183106383 0.0
    vertex 1.327255579486182 -0.44541287220151016 13.099999999999998
    vertex 1.327255579486182 -0.44541287220151016 0.0
  endloop
endfacet
endsolid RotorHazard_Standoff_M3_13.1mm
