solid RotorHazard LED Panel V2
facet normal -1.0 4.122899842040856e-18 -4.464728029839054e-17
  outer loop
    vertex -7.138755720856963e-16 42.75000000000001 12.999999999999998
    vertex -7.138755720856963e-16 36.25000000000001 7.5
    vertex -7.138755720856963e-16 36.25000000000001 12.999999999999998
  endloop
endfacet
facet normal -1.0 4.122899842040856e-18 -4.464728029839054e-17
  outer loop
    vertex -7.138755720856963e-16 36.25000000000001 7.5
    vertex -3.524958103184872e-16 -3.0000000000000013 1.0000000000000009
    vertex -3.524958103184872e-16 -3.0000000000000013 7.5
  endloop
endfacet
facet normal -1.0 4.122899842040856e-18 -4.464728029839054e-17
  outer loop
    vertex -3.524958103184872e-16 -3.0000000000000013 1.0000000000000009
    vertex -7.138755720856963e-16 36.25000000000001 7.5
    vertex 0.0 82.0 1.0000000000000009
  endloop
endfacet
facet normal -1.0 4.122899842040856e-18 -4.464728029839054e-17
  outer loop
    vertex 0.0 82.0 1.0000000000000009
    vertex -7.138755720856963e-16 36.25000000000001 7.5
    vertex -7.138755720856963e-16 42.75000000000001 7.5
  endloop
endfacet
facet normal -1.0 4.122899842040856e-18 -4.464728029839054e-17
  outer loop
    vertex -7.138755720856963e-16 42.75000000000001 7.5
    vertex -7.138755720856963e-16 36.25000000000001 7.5
    vertex -7.138755720856963e-16 42.75000000000001 12.999999999999998
  endloop
endfacet
facet normal -1.0 4.122899842040856e-18 -4.464728029839054e-17
  outer loop
    vertex 0.0 82.0 1.0000000000000009
    vertex -7.138755720856963e-16 42.75000000000001 7.5
    vertex 0.0 82.0 7.5
  endloop
endfacet
facet normal 1.4099832412739486e-16 1.0 -0.0
  outer loop
    vertex 1.9999999999999991 84.0 7.5
    vertex 82.00000000000001 83.99999999999999 1.0000000000000009
    vertex 1.9999999999999991 84.0 1.0000000000000009
  endloop
endfacet
facet normal 1.4099832412739486e-16 1.0 -0.0
  outer loop
    vertex 82.00000000000001 83.99999999999999 1.0000000000000009
    vertex 1.9999999999999991 84.0 7.5
    vertex 82.00000000000001 83.99999999999999 7.5
  endloop
endfacet
facet normal 1.0 -0.0 -0.0
  outer loop
    vertex 84.0 82.0 1.0000000000000009
    vertex 84.0 -3.000000000000001 7.5
    vertex 84.0 -3.000000000000001 1.0000000000000009
  endloop
endfacet
facet normal 1.0 -0.0 -0.0
  outer loop
    vertex 84.0 -3.000000000000001 7.5
    vertex 84.0 82.0 1.0000000000000009
    vertex 84.0 36.25000000000001 7.5
  endloop
endfacet
facet normal 1.0 -0.0 -0.0
  outer loop
    vertex 84.0 36.25000000000001 7.5
    vertex 84.0 82.0 1.0000000000000009
    vertex 84.0 42.75000000000001 7.5
  endloop
endfacet
facet normal 1.0 -0.0 -0.0
  outer loop
    vertex 84.0 36.25000000000001 7.5
    vertex 84.0 42.75000000000001 7.5
    vertex 84.0 36.25000000000001 12.999999999999998
  endloop
endfacet
facet normal 1.0 -0.0 -0.0
  outer loop
    vertex 84.0 42.75000000000001 7.5
    vertex 84.0 82.0 1.0000000000000009
    vertex 84.0 82.0 7.5
  endloop
endfacet
facet normal 1.0 -0.0 -0.0
  outer loop
    vertex 84.0 42.75000000000001 12.999999999999998
    vertex 84.0 36.25000000000001 12.999999999999998
    vertex 84.0 42.75000000000001 7.5
  endloop
endfacet
facet normal -1.0 0.0 0.0
  outer loop
    vertex 82.00000000000001 42.75000000000001 12.999999999999998
    vertex 82.00000000000001 36.25000000000001 7.5
    vertex 82.00000000000001 36.25000000000001 12.999999999999998
  endloop
endfacet
facet normal -1.0 0.0 0.0
  outer loop
    vertex 82.00000000000001 36.25000000000001 7.5
    vertex 82.00000000000001 1.9999999999999998 4.499999999999999
    vertex 82.00000000000001 1.9999999999999998 7.5
  endloop
endfacet
facet normal -1.0 0.0 0.0
  outer loop
    vertex 82.00000000000001 1.9999999999999998 4.499999999999999
    vertex 82.00000000000001 36.25000000000001 7.5
    vertex 82.00000000000001 82.0 4.499999999999999
  endloop
endfacet
facet normal -1.0 0.0 0.0
  outer loop
    vertex 82.00000000000001 82.0 4.499999999999999
    vertex 82.00000000000001 36.25000000000001 7.5
    vertex 82.00000000000001 42.75000000000001 7.5
  endloop
endfacet
facet normal -1.0 0.0 0.0
  outer loop
    vertex 82.00000000000001 42.75000000000001 7.5
    vertex 82.00000000000001 36.25000000000001 7.5
    vertex 82.00000000000001 42.75000000000001 12.999999999999998
  endloop
endfacet
facet normal -1.0 0.0 0.0
  outer loop
    vertex 82.00000000000001 82.0 4.499999999999999
    vertex 82.00000000000001 42.75000000000001 7.5
    vertex 82.00000000000001 82.0 7.5
  endloop
endfacet
facet normal 1.0 -3.2905733085605204e-18 1.4086121690620482e-15
  outer loop
    vertex 2.0000000000000075 82.0 4.499999999999999
    vertex 2.0000000000000075 1.9999999999999998 7.5
    vertex 2.0000000000000075 1.9999999999999998 4.499999999999999
  endloop
endfacet
facet normal 1.0 -3.2905733085605204e-18 1.4086121690620482e-15
  outer loop
    vertex 2.0000000000000075 1.9999999999999998 7.5
    vertex 2.0000000000000075 82.0 4.499999999999999
    vertex 1.9999999999999991 36.25000000000001 7.5
  endloop
endfacet
facet normal 1.0 -3.2905733085605204e-18 1.4086121690620482e-15
  outer loop
    vertex 1.9999999999999991 36.25000000000001 7.5
    vertex 2.0000000000000075 82.0 4.499999999999999
    vertex 1.9999999999999991 42.75000000000001 7.5
  endloop
endfacet
facet normal 1.0 -3.2905733085605204e-18 1.4086121690620482e-15
  outer loop
    vertex 1.9999999999999991 36.25000000000001 7.5
    vertex 1.9999999999999991 42.75000000000001 7.5
    vertex 1.9999999999999991 36.25000000000001 12.999999999999998
  endloop
endfacet
facet normal 1.0 -3.2905733085605204e-18 1.4086121690620482e-15
  outer loop
    vertex 1.9999999999999991 42.75000000000001 7.5
    vertex 2.0000000000000075 82.0 4.499999999999999
    vertex 2.0000000000000075 82.0 7.5
  endloop
endfacet
facet normal 1.0 -3.2905733085605204e-18 1.4086121690620482e-15
  outer loop
    vertex 1.9999999999999991 42.75000000000001 12.999999999999998
    vertex 1.9999999999999991 36.25000000000001 12.999999999999998
    vertex 1.9999999999999991 42.75000000000001 7.5
  endloop
endfacet
facet normal 0.0 -1.0 0.0
  outer loop
    vertex 82.00000000000001 82.0 7.5
    vertex 2.0000000000000075 82.0 4.499999999999999
    vertex 82.00000000000001 82.0 4.499999999999999
  endloop
endfacet
facet normal 0.0 -1.0 0.0
  outer loop
    vertex 2.0000000000000075 82.0 4.499999999999999
    vertex 82.00000000000001 82.0 7.5
    vertex 2.0000000000000075 82.0 7.5
  endloop
endfacet
facet normal -0.0 -1.0 -0.0
  outer loop
    vertex 32.00000000000001 27.0 4.499999999999999
    vertex 12.000000000000007 27.0 1.5000000000000053
    vertex 32.00000000000001 27.0 1.5000000000000053
  endloop
endfacet
facet normal -0.0 -1.0 -0.0
  outer loop
    vertex 12.000000000000007 27.0 1.5000000000000053
    vertex 32.00000000000001 27.0 4.499999999999999
    vertex 12.000000000000007 27.0 4.499999999999999
  endloop
endfacet
facet normal 1.0 -0.0 -0.0
  outer loop
    vertex 12.000000000000007 27.0 1.5000000000000053
    vertex 12.000000000000007 7.999999999999999 4.499999999999999
    vertex 12.000000000000007 7.999999999999999 1.5000000000000053
  endloop
endfacet
facet normal 1.0 -0.0 -0.0
  outer loop
    vertex 12.000000000000007 7.999999999999999 4.499999999999999
    vertex 12.000000000000007 27.0 1.5000000000000053
    vertex 12.000000000000007 27.0 4.499999999999999
  endloop
endfacet
facet normal 1.172776651238071e-17 1.0 6.589658108319534e-16
  outer loop
    vertex 2.0000000000000075 1.9999999999999998 7.5
    vertex 33.0 2.000000000000007 4.499999999999999
    vertex 2.0000000000000075 1.9999999999999998 4.499999999999999
  endloop
endfacet
facet normal 1.172776651238071e-17 1.0 6.589658108319534e-16
  outer loop
    vertex 33.0 2.000000000000007 4.499999999999999
    vertex 2.0000000000000075 1.9999999999999998 7.5
    vertex 33.0 2.000000000000007 4.55
  endloop
endfacet
facet normal 1.172776651238071e-17 1.0 6.589658108319534e-16
  outer loop
    vertex 42.00000000000001 2.000000000000014 4.549999999999986
    vertex 82.00000000000001 1.9999999999999998 4.499999999999999
    vertex 42.00000000000001 2.000000000000014 4.499999999999986
  endloop
endfacet
facet normal 1.172776651238071e-17 1.0 6.589658108319534e-16
  outer loop
    vertex 82.00000000000001 1.9999999999999998 4.499999999999999
    vertex 42.00000000000001 2.000000000000014 4.549999999999986
    vertex 82.00000000000001 1.9999999999999998 7.5
  endloop
endfacet
facet normal 1.172776651238071e-17 1.0 6.589658108319534e-16
  outer loop
    vertex 82.00000000000001 1.9999999999999998 7.5
    vertex 42.00000000000001 2.000000000000014 4.549999999999986
    vertex 33.0 2.000000000000007 4.55
  endloop
endfacet
facet normal 1.172776651238071e-17 1.0 6.589658108319534e-16
  outer loop
    vertex 82.00000000000001 1.9999999999999998 7.5
    vertex 33.0 2.000000000000007 4.55
    vertex 2.0000000000000075 1.9999999999999998 7.5
  endloop
endfacet
facet normal 8.812395257962179e-18 -1.0 0.0
  outer loop
    vertex 42.00000000000001 -4.999999999999998 1.4999999999999976
    vertex 42.49999999999999 -5.000000000000001 3.9999999999999996
    vertex 42.00000000000001 -4.999999999999998 4.55
  endloop
endfacet
facet normal 8.812395257962179e-18 -1.0 0.0
  outer loop
    vertex 42.49999999999999 -5.000000000000001 3.9999999999999996
    vertex 42.00000000000001 -4.999999999999998 1.4999999999999976
    vertex 51.0 -5.000000000000001 3.9999999999999996
  endloop
endfacet
facet normal 8.812395257962179e-18 -1.0 0.0
  outer loop
    vertex 42.00000000000001 -4.999999999999998 4.55
    vertex 42.49999999999999 -5.000000000000001 3.9999999999999996
    vertex 42.49999999999999 -5.0 7.0
  endloop
endfacet
facet normal 8.812395257962179e-18 -1.0 0.0
  outer loop
    vertex 42.00000000000001 -4.999999999999998 4.55
    vertex 42.49999999999999 -5.0 7.0
    vertex 33.00000000000001 -4.999999999999998 4.55
  endloop
endfacet
facet normal 8.812395257962179e-18 -1.0 0.0
  outer loop
    vertex 82.00000000000001 -4.999999999999999 1.0000000000000009
    vertex 42.00000000000001 -4.999999999999998 1.4999999999999976
    vertex 1.9999999999999991 -5.0 1.0000000000000009
  endloop
endfacet
facet normal 8.812395257962179e-18 -1.0 0.0
  outer loop
    vertex 42.00000000000001 -4.999999999999998 1.4999999999999976
    vertex 82.00000000000001 -4.999999999999999 1.0000000000000009
    vertex 82.00000000000001 -4.999999999999999 7.5
  endloop
endfacet
facet normal 8.812395257962179e-18 -1.0 0.0
  outer loop
    vertex 42.00000000000001 -4.999999999999998 1.4999999999999976
    vertex 82.00000000000001 -4.999999999999999 7.5
    vertex 51.0 -5.000000000000001 3.9999999999999996
  endloop
endfacet
facet normal 8.812395257962179e-18 -1.0 0.0
  outer loop
    vertex 51.0 -5.000000000000001 3.9999999999999996
    vertex 82.00000000000001 -4.999999999999999 7.5
    vertex 51.0 -5.0 7.0
  endloop
endfacet
facet normal 8.812395257962179e-18 -1.0 0.0
  outer loop
    vertex 51.0 -5.0 7.0
    vertex 82.00000000000001 -4.999999999999999 7.5
    vertex 42.49999999999999 -5.0 7.0
  endloop
endfacet
facet normal 8.812395257962179e-18 -1.0 0.0
  outer loop
    vertex 1.9999999999999991 -5.0 1.0000000000000009
    vertex 33.0 -4.999999999999998 1.4999999999999976
    vertex 1.9999999999999991 -5.0 7.5
  endloop
endfacet
facet normal 8.812395257962179e-18 -1.0 0.0
  outer loop
    vertex 33.0 -4.999999999999998 1.4999999999999976
    vertex 1.9999999999999991 -5.0 1.0000000000000009
    vertex 42.00000000000001 -4.999999999999998 1.4999999999999976
  endloop
endfacet
facet normal 8.812395257962179e-18 -1.0 0.0
  outer loop
    vertex 1.9999999999999991 -5.0 7.5
    vertex 33.0 -4.999999999999998 1.4999999999999976
    vertex 33.00000000000001 -4.999999999999998 4.55
  endloop
endfacet
facet normal 8.812395257962179e-18 -1.0 0.0
  outer loop
    vertex 1.9999999999999991 -5.0 7.5
    vertex 33.00000000000001 -4.999999999999998 4.55
    vertex 42.49999999999999 -5.0 7.0
  endloop
endfacet
facet normal 8.812395257962179e-18 -1.0 0.0
  outer loop
    vertex 1.9999999999999991 -5.0 7.5
    vertex 42.49999999999999 -5.0 7.0
    vertex 82.00000000000001 -4.999999999999999 7.5
  endloop
endfacet
facet normal 0.0 0.0 -1.0
  outer loop
    vertex 0.0 82.0 1.0000000000000009
    vertex 0.06814834742186315 -3.5176380902050424 1.0000000000000009
    vertex -3.524958103184872e-16 -3.0000000000000013 1.0000000000000009
  endloop
endfacet
facet normal 0.0 0.0 -1.0
  outer loop
    vertex 0.06814834742186315 -3.5176380902050424 1.0000000000000009
    vertex 0.0 82.0 1.0000000000000009
    vertex 0.06814834742186315 82.51763809020504 1.0000000000000009
  endloop
endfacet
facet normal 0.0 0.0 -1.0
  outer loop
    vertex 0.06814834742186315 -3.5176380902050424 1.0000000000000009
    vertex 0.06814834742186315 82.51763809020504 1.0000000000000009
    vertex 0.26794919243112225 83.0 1.0000000000000009
  endloop
endfacet
facet normal 0.0 0.0 -1.0
  outer loop
    vertex 0.06814834742186315 -3.5176380902050424 1.0000000000000009
    vertex 0.26794919243112225 83.0 1.0000000000000009
    vertex 0.26794919243112225 -4.0 1.0000000000000009
  endloop
endfacet
facet normal 0.0 0.0 -1.0
  outer loop
    vertex 0.26794919243112225 -4.0 1.0000000000000009
    vertex 0.26794919243112225 83.0 1.0000000000000009
    vertex 0.585786437626904 83.41421356237309 1.0000000000000009
  endloop
endfacet
facet normal 0.0 0.0 -1.0
  outer loop
    vertex 0.26794919243112225 -4.0 1.0000000000000009
    vertex 0.585786437626904 83.41421356237309 1.0000000000000009
    vertex 0.5857864376269043 -4.414213562373095 1.0000000000000009
  endloop
endfacet
facet normal 0.0 0.0 -1.0
  outer loop
    vertex 0.5857864376269043 -4.414213562373095 1.0000000000000009
    vertex 0.585786437626904 83.41421356237309 1.0000000000000009
    vertex 0.9999999999999989 83.73205080756887 1.0000000000000009
  endloop
endfacet
facet normal 0.0 0.0 -1.0
  outer loop
    vertex 0.5857864376269043 -4.414213562373095 1.0000000000000009
    vertex 0.9999999999999989 83.73205080756887 1.0000000000000009
    vertex 0.9999999999999996 -4.732050807568877 1.0000000000000009
  endloop
endfacet
facet normal 0.0 0.0 -1.0
  outer loop
    vertex 0.9999999999999996 -4.732050807568877 1.0000000000000009
    vertex 0.9999999999999989 83.73205080756887 1.0000000000000009
    vertex 1.4823619097949574 83.93185165257815 1.0000000000000009
  endloop
endfacet
facet normal 0.0 0.0 -1.0
  outer loop
    vertex 0.9999999999999996 -4.732050807568877 1.0000000000000009
    vertex 1.4823619097949574 83.93185165257815 1.0000000000000009
    vertex 1.4823619097949579 -4.931851652578136 1.0000000000000009
  endloop
endfacet
facet normal 0.0 0.0 -1.0
  outer loop
    vertex 1.4823619097949579 -4.931851652578136 1.0000000000000009
    vertex 1.4823619097949574 83.93185165257815 1.0000000000000009
    vertex 1.9999999999999991 84.0 1.0000000000000009
  endloop
endfacet
facet normal 0.0 0.0 -1.0
  outer loop
    vertex 1.4823619097949579 -4.931851652578136 1.0000000000000009
    vertex 1.9999999999999991 84.0 1.0000000000000009
    vertex 1.9999999999999991 -5.0 1.0000000000000009
  endloop
endfacet
facet normal 0.0 0.0 -1.0
  outer loop
    vertex 1.9999999999999991 -5.0 1.0000000000000009
    vertex 1.9999999999999991 84.0 1.0000000000000009
    vertex 82.00000000000001 83.99999999999999 1.0000000000000009
  endloop
endfacet
facet normal 0.0 0.0 -1.0
  outer loop
    vertex 1.9999999999999991 -5.0 1.0000000000000009
    vertex 82.00000000000001 83.99999999999999 1.0000000000000009
    vertex 82.00000000000001 -4.999999999999999 1.0000000000000009
  endloop
endfacet
facet normal 0.0 0.0 -1.0
  outer loop
    vertex 82.00000000000001 -4.999999999999999 1.0000000000000009
    vertex 82.00000000000001 83.99999999999999 1.0000000000000009
    vertex 82.51763809020505 83.93185165257813 1.0000000000000009
  endloop
endfacet
facet normal 0.0 0.0 -1.0
  outer loop
    vertex 82.00000000000001 -4.999999999999999 1.0000000000000009
    vertex 82.51763809020505 83.93185165257813 1.0000000000000009
    vertex 82.51763809020505 -4.9318516525781355 1.0000000000000009
  endloop
endfacet
facet normal 0.0 0.0 -1.0
  outer loop
    vertex 82.51763809020505 -4.9318516525781355 1.0000000000000009
    vertex 82.51763809020505 83.93185165257813 1.0000000000000009
    vertex 83.0 83.73205080756887 1.0000000000000009
  endloop
endfacet
facet normal 0.0 0.0 -1.0
  outer loop
    vertex 82.51763809020505 -4.9318516525781355 1.0000000000000009
    vertex 83.0 83.73205080756887 1.0000000000000009
    vertex 83.0 -4.732050807568877 1.0000000000000009
  endloop
endfacet
facet normal 0.0 0.0 -1.0
  outer loop
    vertex 83.0 -4.732050807568877 1.0000000000000009
    vertex 83.0 83.73205080756887 1.0000000000000009
    vertex 83.41421356237309 83.41421356237308 1.0000000000000009
  endloop
endfacet
facet normal 0.0 0.0 -1.0
  outer loop
    vertex 83.0 -4.732050807568877 1.0000000000000009
    vertex 83.41421356237309 83.41421356237308 1.0000000000000009
    vertex 83.4142135623731 -4.414213562373095 1.0000000000000009
  endloop
endfacet
facet normal 0.0 0.0 -1.0
  outer loop
    vertex 83.4142135623731 -4.414213562373095 1.0000000000000009
    vertex 83.41421356237309 83.41421356237308 1.0000000000000009
    vertex 83.73205080756888 83.0 1.0000000000000009
  endloop
endfacet
facet normal 0.0 0.0 -1.0
  outer loop
    vertex 83.4142135623731 -4.414213562373095 1.0000000000000009
    vertex 83.73205080756888 83.0 1.0000000000000009
    vertex 83.73205080756888 -3.9999999999999996 1.0000000000000009
  endloop
endfacet
facet normal 0.0 0.0 -1.0
  outer loop
    vertex 83.73205080756888 -3.9999999999999996 1.0000000000000009
    vertex 83.73205080756888 83.0 1.0000000000000009
    vertex 83.93185165257815 82.51763809020504 1.0000000000000009
  endloop
endfacet
facet normal 0.0 0.0 -1.0
  outer loop
    vertex 83.73205080756888 -3.9999999999999996 1.0000000000000009
    vertex 83.93185165257815 82.51763809020504 1.0000000000000009
    vertex 83.93185165257815 -3.5176380902050424 1.0000000000000009
  endloop
endfacet
facet normal 0.0 0.0 -1.0
  outer loop
    vertex 83.93185165257815 -3.5176380902050424 1.0000000000000009
    vertex 83.93185165257815 82.51763809020504 1.0000000000000009
    vertex 84.0 82.0 1.0000000000000009
  endloop
endfacet
facet normal 0.0 0.0 -1.0
  outer loop
    vertex 83.93185165257815 -3.5176380902050424 1.0000000000000009
    vertex 84.0 82.0 1.0000000000000009
    vertex 84.0 -3.000000000000001 1.0000000000000009
  endloop
endfacet
facet normal 1.0 1.6241707602867646e-16 8.120853801433815e-17
  outer loop
    vertex 33.0 8.000000000000007 1.5000000000000273
    vertex 33.00000000000001 -4.999999999999998 4.55
    vertex 33.0 -4.999999999999998 1.4999999999999976
  endloop
endfacet
facet normal 1.0 1.6241707602867646e-16 8.120853801433815e-17
  outer loop
    vertex 33.00000000000001 -4.999999999999998 4.55
    vertex 33.0 8.000000000000007 1.5000000000000273
    vertex 33.0 2.000000000000007 4.499999999999999
  endloop
endfacet
facet normal 1.0 1.6241707602867646e-16 8.120853801433815e-17
  outer loop
    vertex 33.0 2.000000000000007 4.499999999999999
    vertex 33.0 8.000000000000007 1.5000000000000273
    vertex 33.0 7.999999999999999 4.500000000000013
  endloop
endfacet
facet normal 1.0 1.6241707602867646e-16 8.120853801433815e-17
  outer loop
    vertex 33.0 2.000000000000007 4.55
    vertex 33.00000000000001 -4.999999999999998 4.55
    vertex 33.0 2.000000000000007 4.499999999999999
  endloop
endfacet
facet normal 1.49779024215396e-17 -7.068416327219624e-18 1.0
  outer loop
    vertex 2.0000000000000075 1.9999999999999998 4.499999999999999
    vertex 12.000000000000007 7.999999999999999 4.499999999999999
    vertex 2.0000000000000075 82.0 4.499999999999999
  endloop
endfacet
facet normal 1.49779024215396e-17 -7.068416327219624e-18 1.0
  outer loop
    vertex 12.000000000000007 7.999999999999999 4.499999999999999
    vertex 2.0000000000000075 1.9999999999999998 4.499999999999999
    vertex 33.0 2.000000000000007 4.499999999999999
  endloop
endfacet
facet normal 1.49779024215396e-17 -7.068416327219624e-18 1.0
  outer loop
    vertex 12.000000000000007 7.999999999999999 4.499999999999999
    vertex 33.0 2.000000000000007 4.499999999999999
    vertex 33.0 7.999999999999999 4.500000000000013
  endloop
endfacet
facet normal 1.49779024215396e-17 -7.068416327219624e-18 1.0
  outer loop
    vertex 42.00000000000001 14.000000000000009 4.500000000000001
    vertex 32.00000000000001 27.0 4.499999999999999
    vertex 32.00000000000001 14.000000000000009 4.500000000000001
  endloop
endfacet
facet normal 1.49779024215396e-17 -7.068416327219624e-18 1.0
  outer loop
    vertex 82.00000000000001 1.9999999999999998 4.499999999999999
    vertex 42.00000000000001 14.000000000000009 4.500000000000001
    vertex 42.00000000000001 2.000000000000014 4.499999999999986
  endloop
endfacet
facet normal 1.49779024215396e-17 -7.068416327219624e-18 1.0
  outer loop
    vertex 2.0000000000000075 82.0 4.499999999999999
    vertex 12.000000000000007 27.0 4.499999999999999
    vertex 82.00000000000001 82.0 4.499999999999999
  endloop
endfacet
facet normal 1.49779024215396e-17 -7.068416327219624e-18 1.0
  outer loop
    vertex 12.000000000000007 27.0 4.499999999999999
    vertex 2.0000000000000075 82.0 4.499999999999999
    vertex 12.000000000000007 7.999999999999999 4.499999999999999
  endloop
endfacet
facet normal 1.49779024215396e-17 -7.068416327219624e-18 1.0
  outer loop
    vertex 82.00000000000001 82.0 4.499999999999999
    vertex 12.000000000000007 27.0 4.499999999999999
    vertex 32.00000000000001 27.0 4.499999999999999
  endloop
endfacet
facet normal 1.49779024215396e-17 -7.068416327219624e-18 1.0
  outer loop
    vertex 82.00000000000001 82.0 4.499999999999999
    vertex 32.00000000000001 27.0 4.499999999999999
    vertex 42.00000000000001 14.000000000000009 4.500000000000001
  endloop
endfacet
facet normal 1.49779024215396e-17 -7.068416327219624e-18 1.0
  outer loop
    vertex 82.00000000000001 82.0 4.499999999999999
    vertex 42.00000000000001 14.000000000000009 4.500000000000001
    vertex 82.00000000000001 1.9999999999999998 4.499999999999999
  endloop
endfacet
facet normal -1.0 0.0 0.0
  outer loop
    vertex 32.00000000000001 27.0 4.499999999999999
    vertex 32.00000000000001 14.000000000000009 1.5000000000000384
    vertex 32.00000000000001 14.000000000000009 4.500000000000001
  endloop
endfacet
facet normal -1.0 0.0 0.0
  outer loop
    vertex 32.00000000000001 14.000000000000009 1.5000000000000384
    vertex 32.00000000000001 27.0 4.499999999999999
    vertex 32.00000000000001 27.0 1.5000000000000053
  endloop
endfacet
facet normal -2.014261773248511e-16 1.0 1.4099832412739515e-15
  outer loop
    vertex 12.000000000000007 7.999999999999999 4.499999999999999
    vertex 33.0 8.000000000000007 1.5000000000000273
    vertex 12.000000000000007 7.999999999999999 1.5000000000000053
  endloop
endfacet
facet normal -2.014261773248511e-16 1.0 1.4099832412739515e-15
  outer loop
    vertex 33.0 8.000000000000007 1.5000000000000273
    vertex 12.000000000000007 7.999999999999999 4.499999999999999
    vertex 33.0 7.999999999999999 4.500000000000013
  endloop
endfacet
facet normal -7.162978884699978e-16 -6.619222165266475e-16 1.0
  outer loop
    vertex 42.00000000000001 -4.999999999999998 1.4999999999999976
    vertex 33.0 8.000000000000007 1.5000000000000273
    vertex 33.0 -4.999999999999998 1.4999999999999976
  endloop
endfacet
facet normal -7.162978884699978e-16 -6.619222165266475e-16 1.0
  outer loop
    vertex 33.0 8.000000000000007 1.5000000000000273
    vertex 12.000000000000007 27.0 1.5000000000000053
    vertex 12.000000000000007 7.999999999999999 1.5000000000000053
  endloop
endfacet
facet normal -7.162978884699978e-16 -6.619222165266475e-16 1.0
  outer loop
    vertex 12.000000000000007 27.0 1.5000000000000053
    vertex 33.0 8.000000000000007 1.5000000000000273
    vertex 32.00000000000001 14.000000000000009 1.5000000000000384
  endloop
endfacet
facet normal -7.162978884699978e-16 -6.619222165266475e-16 1.0
  outer loop
    vertex 32.00000000000001 14.000000000000009 1.5000000000000384
    vertex 33.0 8.000000000000007 1.5000000000000273
    vertex 42.00000000000001 14.000000000000009 1.5000000000000338
  endloop
endfacet
facet normal -7.162978884699978e-16 -6.619222165266475e-16 1.0
  outer loop
    vertex 42.00000000000001 14.000000000000009 1.5000000000000338
    vertex 33.0 8.000000000000007 1.5000000000000273
    vertex 42.00000000000001 -4.999999999999998 1.4999999999999976
  endloop
endfacet
facet normal -7.162978884699978e-16 -6.619222165266475e-16 1.0
  outer loop
    vertex 32.00000000000001 27.0 1.5000000000000053
    vertex 12.000000000000007 27.0 1.5000000000000053
    vertex 32.00000000000001 14.000000000000009 1.5000000000000384
  endloop
endfacet
facet normal 0.0 -1.0 0.0
  outer loop
    vertex 42.00000000000001 14.000000000000009 4.500000000000001
    vertex 32.00000000000001 14.000000000000009 1.5000000000000384
    vertex 42.00000000000001 14.000000000000009 1.5000000000000338
  endloop
endfacet
facet normal 0.0 -1.0 0.0
  outer loop
    vertex 32.00000000000001 14.000000000000009 1.5000000000000384
    vertex 42.00000000000001 14.000000000000009 4.500000000000001
    vertex 32.00000000000001 14.000000000000009 4.500000000000001
  endloop
endfacet
facet normal 0.0 0.0 1.0
  outer loop
    vertex 1.9999999999999991 36.25000000000001 12.999999999999998
    vertex -7.138755720856963e-16 42.75000000000001 12.999999999999998
    vertex -7.138755720856963e-16 36.25000000000001 12.999999999999998
  endloop
endfacet
facet normal 0.0 0.0 1.0
  outer loop
    vertex -7.138755720856963e-16 42.75000000000001 12.999999999999998
    vertex 1.9999999999999991 36.25000000000001 12.999999999999998
    vertex 1.9999999999999991 42.75000000000001 12.999999999999998
  endloop
endfacet
facet normal 0.0 1.0 0.0
  outer loop
    vertex -7.138755720856963e-16 42.75000000000001 12.999999999999998
    vertex 1.9999999999999991 42.75000000000001 7.5
    vertex -7.138755720856963e-16 42.75000000000001 7.5
  endloop
endfacet
facet normal 0.0 1.0 0.0
  outer loop
    vertex 1.9999999999999991 42.75000000000001 7.5
    vertex -7.138755720856963e-16 42.75000000000001 12.999999999999998
    vertex 1.9999999999999991 42.75000000000001 12.999999999999998
  endloop
endfacet
facet normal 0.0 -1.0 0.0
  outer loop
    vertex 1.9999999999999991 36.25000000000001 12.999999999999998
    vertex -7.138755720856963e-16 36.25000000000001 7.5
    vertex 1.9999999999999991 36.25000000000001 7.5
  endloop
endfacet
facet normal 0.0 -1.0 0.0
  outer loop
    vertex -7.138755720856963e-16 36.25000000000001 7.5
    vertex 1.9999999999999991 36.25000000000001 12.999999999999998
    vertex -7.138755720856963e-16 36.25000000000001 12.999999999999998
  endloop
endfacet
facet normal -0.0 -0.0 1.0
  outer loop
    vertex 84.0 42.75000000000001 7.5
    vertex 82.00000000000001 82.0 7.5
    vertex 82.00000000000001 42.75000000000001 7.5
  endloop
endfacet
facet normal -0.0 -0.0 1.0
  outer loop
    vertex 82.00000000000001 82.0 7.5
    vertex 84.0 42.75000000000001 7.5
    vertex 82.00000000000001 83.99999999999999 7.5
  endloop
endfacet
facet normal -0.0 -0.0 1.0
  outer loop
    vertex 82.00000000000001 83.99999999999999 7.5
    vertex 84.0 42.75000000000001 7.5
    vertex 82.51763809020505 83.93185165257813 7.5
  endloop
endfacet
facet normal -0.0 -0.0 1.0
  outer loop
    vertex 82.51763809020505 83.93185165257813 7.5
    vertex 84.0 42.75000000000001 7.5
    vertex 83.0 83.73205080756887 7.5
  endloop
endfacet
facet normal -0.0 -0.0 1.0
  outer loop
    vertex 83.0 83.73205080756887 7.5
    vertex 84.0 42.75000000000001 7.5
    vertex 83.41421356237309 83.41421356237308 7.5
  endloop
endfacet
facet normal -0.0 -0.0 1.0
  outer loop
    vertex 83.41421356237309 83.41421356237308 7.5
    vertex 84.0 42.75000000000001 7.5
    vertex 83.73205080756888 83.0 7.5
  endloop
endfacet
facet normal -0.0 -0.0 1.0
  outer loop
    vertex 83.73205080756888 83.0 7.5
    vertex 84.0 42.75000000000001 7.5
    vertex 83.93185165257815 82.51763809020504 7.5
  endloop
endfacet
facet normal -0.0 -0.0 1.0
  outer loop
    vertex 83.93185165257815 82.51763809020504 7.5
    vertex 84.0 42.75000000000001 7.5
    vertex 84.0 82.0 7.5
  endloop
endfacet
facet normal -0.0 -0.0 1.0
  outer loop
    vertex 1.9999999999999991 42.75000000000001 7.5
    vertex 0.0 82.0 7.5
    vertex -7.138755720856963e-16 42.75000000000001 7.5
  endloop
endfacet
facet normal -0.0 -0.0 1.0
  outer loop
    vertex 0.0 82.0 7.5
    vertex 1.9999999999999991 42.75000000000001 7.5
    vertex 0.06814834742186315 82.51763809020504 7.5
  endloop
endfacet
facet normal -0.0 -0.0 1.0
  outer loop
    vertex 0.06814834742186315 82.51763809020504 7.5
    vertex 1.9999999999999991 42.75000000000001 7.5
    vertex 0.26794919243112225 83.0 7.5
  endloop
endfacet
facet normal -0.0 -0.0 1.0
  outer loop
    vertex 0.26794919243112225 83.0 7.5
    vertex 1.9999999999999991 42.75000000000001 7.5
    vertex 0.585786437626904 83.41421356237309 7.5
  endloop
endfacet
facet normal -0.0 -0.0 1.0
  outer loop
    vertex 0.585786437626904 83.41421356237309 7.5
    vertex 1.9999999999999991 42.75000000000001 7.5
    vertex 0.9999999999999989 83.73205080756887 7.5
  endloop
endfacet
facet normal -0.0 -0.0 1.0
  outer loop
    vertex 0.9999999999999989 83.73205080756887 7.5
    vertex 1.9999999999999991 42.75000000000001 7.5
    vertex 1.4823619097949574 83.93185165257815 7.5
  endloop
endfacet
facet normal -0.0 -0.0 1.0
  outer loop
    vertex 1.4823619097949574 83.93185165257815 7.5
    vertex 1.9999999999999991 42.75000000000001 7.5
    vertex 1.9999999999999991 84.0 7.5
  endloop
endfacet
facet normal -0.0 -0.0 1.0
  outer loop
    vertex 1.9999999999999991 84.0 7.5
    vertex 1.9999999999999991 42.75000000000001 7.5
    vertex 2.0000000000000075 82.0 7.5
  endloop
endfacet
facet normal -0.0 -0.0 1.0
  outer loop
    vertex 1.9999999999999991 84.0 7.5
    vertex 2.0000000000000075 82.0 7.5
    vertex 82.00000000000001 83.99999999999999 7.5
  endloop
endfacet
facet normal -0.0 -0.0 1.0
  outer loop
    vertex 82.00000000000001 83.99999999999999 7.5
    vertex 2.0000000000000075 82.0 7.5
    vertex 82.00000000000001 82.0 7.5
  endloop
endfacet
facet normal 0.0 0.0 1.0
  outer loop
    vertex 84.0 36.25000000000001 12.999999999999998
    vertex 82.00000000000001 42.75000000000001 12.999999999999998
    vertex 82.00000000000001 36.25000000000001 12.999999999999998
  endloop
endfacet
facet normal 0.0 0.0 1.0
  outer loop
    vertex 82.00000000000001 42.75000000000001 12.999999999999998
    vertex 84.0 36.25000000000001 12.999999999999998
    vertex 84.0 42.75000000000001 12.999999999999998
  endloop
endfacet
facet normal 0.0 1.0 0.0
  outer loop
    vertex 82.00000000000001 42.75000000000001 12.999999999999998
    vertex 84.0 42.75000000000001 7.5
    vertex 82.00000000000001 42.75000000000001 7.5
  endloop
endfacet
facet normal 0.0 1.0 0.0
  outer loop
    vertex 84.0 42.75000000000001 7.5
    vertex 82.00000000000001 42.75000000000001 12.999999999999998
    vertex 84.0 42.75000000000001 12.999999999999998
  endloop
endfacet
facet normal 0.0 -1.0 0.0
  outer loop
    vertex 84.0 36.25000000000001 12.999999999999998
    vertex 82.00000000000001 36.25000000000001 7.5
    vertex 84.0 36.25000000000001 7.5
  endloop
endfacet
facet normal 0.0 -1.0 0.0
  outer loop
    vertex 82.00000000000001 36.25000000000001 7.5
    vertex 84.0 36.25000000000001 12.999999999999998
    vertex 82.00000000000001 36.25000000000001 12.999999999999998
  endloop
endfacet
facet normal -1.0 0.0 0.0
  outer loop
    vertex 42.00000000000001 2.000000000000014 4.549999999999986
    vertex 42.00000000000001 -4.999999999999998 1.4999999999999976
    vertex 42.00000000000001 -4.999999999999998 4.55
  endloop
endfacet
facet normal -1.0 0.0 0.0
  outer loop
    vertex 42.00000000000001 -4.999999999999998 1.4999999999999976
    vertex 42.00000000000001 2.000000000000014 4.549999999999986
    vertex 42.00000000000001 2.000000000000014 4.499999999999986
  endloop
endfacet
facet normal -1.0 0.0 0.0
  outer loop
    vertex 42.00000000000001 -4.999999999999998 1.4999999999999976
    vertex 42.00000000000001 2.000000000000014 4.499999999999986
    vertex 42.00000000000001 14.000000000000009 1.5000000000000338
  endloop
endfacet
facet normal -1.0 0.0 0.0
  outer loop
    vertex 42.00000000000001 14.000000000000009 1.5000000000000338
    vertex 42.00000000000001 2.000000000000014 4.499999999999986
    vertex 42.00000000000001 14.000000000000009 4.500000000000001
  endloop
endfacet
facet normal -7.441578217834725e-16 -8.560612536306115e-16 -1.0
  outer loop
    vertex 42.00000000000001 2.000000000000014 4.549999999999986
    vertex 33.00000000000001 -4.999999999999998 4.55
    vertex 33.0 2.000000000000007 4.55
  endloop
endfacet
facet normal -7.441578217834725e-16 -8.560612536306115e-16 -1.0
  outer loop
    vertex 33.00000000000001 -4.999999999999998 4.55
    vertex 42.00000000000001 2.000000000000014 4.549999999999986
    vertex 42.00000000000001 -4.999999999999998 4.55
  endloop
endfacet
facet normal 0.0 -1.0 2.349972068789914e-16
  outer loop
    vertex 51.0 1.0000000000000002 6.999999999999998
    vertex 42.49999999999999 0.9999999999999996 3.9999999999999982
    vertex 51.0 0.9999999999999996 3.9999999999999982
  endloop
endfacet
facet normal 0.0 -1.0 2.349972068789914e-16
  outer loop
    vertex 42.49999999999999 0.9999999999999996 3.9999999999999982
    vertex 51.0 1.0000000000000002 6.999999999999998
    vertex 42.49999999999999 1.0000000000000002 6.999999999999998
  endloop
endfacet
facet normal -0.0 2.3499720687899147e-16 1.0
  outer loop
    vertex 51.0 -5.000000000000001 3.9999999999999996
    vertex 42.49999999999999 0.9999999999999996 3.9999999999999982
    vertex 42.49999999999999 -5.000000000000001 3.9999999999999996
  endloop
endfacet
facet normal -0.0 2.3499720687899147e-16 1.0
  outer loop
    vertex 42.49999999999999 0.9999999999999996 3.9999999999999982
    vertex 51.0 -5.000000000000001 3.9999999999999996
    vertex 51.0 0.9999999999999996 3.9999999999999982
  endloop
endfacet
facet normal -1.0 -0.0 0.0
  outer loop
    vertex 51.0 -5.0 7.0
    vertex 51.0 0.9999999999999996 3.9999999999999982
    vertex 51.0 -5.000000000000001 3.9999999999999996
  endloop
endfacet
facet normal -1.0 -0.0 0.0
  outer loop
    vertex 51.0 0.9999999999999996 3.9999999999999982
    vertex 51.0 -5.0 7.0
    vertex 51.0 1.0000000000000002 6.999999999999998
  endloop
endfacet
facet normal -0.0 -2.3499720687899147e-16 -1.0
  outer loop
    vertex 51.0 1.0000000000000002 6.999999999999998
    vertex 42.49999999999999 -5.0 7.0
    vertex 42.49999999999999 1.0000000000000002 6.999999999999998
  endloop
endfacet
facet normal -0.0 -2.3499720687899147e-16 -1.0
  outer loop
    vertex 42.49999999999999 -5.0 7.0
    vertex 51.0 1.0000000000000002 6.999999999999998
    vertex 51.0 -5.0 7.0
  endloop
endfacet
facet normal 1.0 0.0 -0.0
  outer loop
    vertex 42.49999999999999 0.9999999999999996 3.9999999999999982
    vertex 42.49999999999999 -5.0 7.0
    vertex 42.49999999999999 -5.000000000000001 3.9999999999999996
  endloop
endfacet
facet normal 1.0 0.0 -0.0
  outer loop
    vertex 42.49999999999999 -5.0 7.0
    vertex 42.49999999999999 0.9999999999999996 3.9999999999999982
    vertex 42.49999999999999 1.0000000000000002 6.999999999999998
  endloop
endfacet
facet normal -0.0 -0.0 1.0
  outer loop
    vertex -3.524958103184872e-16 -3.0000000000000013 7.5
    vertex 1.9999999999999991 36.25000000000001 7.5
    vertex -7.138755720856963e-16 36.25000000000001 7.5
  endloop
endfacet
facet normal -0.0 -0.0 1.0
  outer loop
    vertex 1.9999999999999991 36.25000000000001 7.5
    vertex -3.524958103184872e-16 -3.0000000000000013 7.5
    vertex 0.06814834742186315 -3.5176380902050424 7.5
  endloop
endfacet
facet normal -0.0 -0.0 1.0
  outer loop
    vertex 1.9999999999999991 36.25000000000001 7.5
    vertex 0.06814834742186315 -3.5176380902050424 7.5
    vertex 0.26794919243112225 -4.0 7.5
  endloop
endfacet
facet normal -0.0 -0.0 1.0
  outer loop
    vertex 1.9999999999999991 36.25000000000001 7.5
    vertex 0.26794919243112225 -4.0 7.5
    vertex 0.5857864376269043 -4.414213562373095 7.5
  endloop
endfacet
facet normal -0.0 -0.0 1.0
  outer loop
    vertex 1.9999999999999991 36.25000000000001 7.5
    vertex 0.5857864376269043 -4.414213562373095 7.5
    vertex 0.9999999999999996 -4.732050807568877 7.5
  endloop
endfacet
facet normal -0.0 -0.0 1.0
  outer loop
    vertex 1.9999999999999991 36.25000000000001 7.5
    vertex 0.9999999999999996 -4.732050807568877 7.5
    vertex 1.4823619097949579 -4.931851652578136 7.5
  endloop
endfacet
facet normal -0.0 -0.0 1.0
  outer loop
    vertex 1.9999999999999991 36.25000000000001 7.5
    vertex 1.4823619097949579 -4.931851652578136 7.5
    vertex 1.9999999999999991 -5.0 7.5
  endloop
endfacet
facet normal -0.0 -0.0 1.0
  outer loop
    vertex 1.9999999999999991 36.25000000000001 7.5
    vertex 1.9999999999999991 -5.0 7.5
    vertex 2.0000000000000075 1.9999999999999998 7.5
  endloop
endfacet
facet normal -0.0 -0.0 1.0
  outer loop
    vertex 2.0000000000000075 1.9999999999999998 7.5
    vertex 1.9999999999999991 -5.0 7.5
    vertex 82.00000000000001 -4.999999999999999 7.5
  endloop
endfacet
facet normal -0.0 -0.0 1.0
  outer loop
    vertex 2.0000000000000075 1.9999999999999998 7.5
    vertex 82.00000000000001 -4.999999999999999 7.5
    vertex 82.00000000000001 1.9999999999999998 7.5
  endloop
endfacet
facet normal -0.0 -0.0 1.0
  outer loop
    vertex 82.00000000000001 1.9999999999999998 7.5
    vertex 82.00000000000001 -4.999999999999999 7.5
    vertex 82.51763809020505 -4.9318516525781355 7.5
  endloop
endfacet
facet normal -0.0 -0.0 1.0
  outer loop
    vertex 82.00000000000001 1.9999999999999998 7.5
    vertex 82.51763809020505 -4.9318516525781355 7.5
    vertex 82.00000000000001 36.25000000000001 7.5
  endloop
endfacet
facet normal -0.0 -0.0 1.0
  outer loop
    vertex 82.00000000000001 36.25000000000001 7.5
    vertex 82.51763809020505 -4.9318516525781355 7.5
    vertex 84.0 36.25000000000001 7.5
  endloop
endfacet
facet normal -0.0 -0.0 1.0
  outer loop
    vertex 84.0 36.25000000000001 7.5
    vertex 82.51763809020505 -4.9318516525781355 7.5
    vertex 83.0 -4.732050807568877 7.5
  endloop
endfacet
facet normal -0.0 -0.0 1.0
  outer loop
    vertex 84.0 36.25000000000001 7.5
    vertex 83.0 -4.732050807568877 7.5
    vertex 83.4142135623731 -4.414213562373095 7.5
  endloop
endfacet
facet normal -0.0 -0.0 1.0
  outer loop
    vertex 84.0 36.25000000000001 7.5
    vertex 83.4142135623731 -4.414213562373095 7.5
    vertex 83.73205080756888 -3.9999999999999996 7.5
  endloop
endfacet
facet normal -0.0 -0.0 1.0
  outer loop
    vertex 84.0 36.25000000000001 7.5
    vertex 83.73205080756888 -3.9999999999999996 7.5
    vertex 83.93185165257815 -3.5176380902050424 7.5
  endloop
endfacet
facet normal -0.0 -0.0 1.0
  outer loop
    vertex 84.0 36.25000000000001 7.5
    vertex 83.93185165257815 -3.5176380902050424 7.5
    vertex 84.0 -3.000000000000001 7.5
  endloop
endfacet
facet normal -0.13052619222005182 -0.9914448613738105 0.0
  outer loop
    vertex 1.9999999999999991 -5.0 7.5
    vertex 1.4823619097949579 -4.931851652578136 1.0000000000000009
    vertex 1.9999999999999991 -5.0 1.0000000000000009
  endloop
endfacet
facet normal -0.13052619222005182 -0.9914448613738105 0.0
  outer loop
    vertex 1.4823619097949579 -4.931851652578136 1.0000000000000009
    vertex 1.9999999999999991 -5.0 7.5
    vertex 1.4823619097949579 -4.931851652578136 7.5
  endloop
endfacet
facet normal -0.3826834323650902 -0.9238795325112867 -0.0
  outer loop
    vertex 1.4823619097949579 -4.931851652578136 7.5
    vertex 0.9999999999999996 -4.732050807568877 1.0000000000000009
    vertex 1.4823619097949579 -4.931851652578136 1.0000000000000009
  endloop
endfacet
facet normal -0.3826834323650902 -0.9238795325112867 -0.0
  outer loop
    vertex 0.9999999999999996 -4.732050807568877 1.0000000000000009
    vertex 1.4823619097949579 -4.931851652578136 7.5
    vertex 0.9999999999999996 -4.732050807568877 7.5
  endloop
endfacet
facet normal -0.60876142900872 -0.7933533402912357 -0.0
  outer loop
    vertex 0.9999999999999996 -4.732050807568877 7.5
    vertex 0.5857864376269043 -4.414213562373095 1.0000000000000009
    vertex 0.9999999999999996 -4.732050807568877 1.0000000000000009
  endloop
endfacet
facet normal -0.60876142900872 -0.7933533402912357 -0.0
  outer loop
    vertex 0.5857864376269043 -4.414213562373095 1.0000000000000009
    vertex 0.9999999999999996 -4.732050807568877 7.5
    vertex 0.5857864376269043 -4.414213562373095 7.5
  endloop
endfacet
facet normal -0.7933533402912352 -0.6087614290087207 -0.0
  outer loop
    vertex 0.26794919243112225 -4.0 7.5
    vertex 0.5857864376269043 -4.414213562373095 1.0000000000000009
    vertex 0.5857864376269043 -4.414213562373095 7.5
  endloop
endfacet
facet normal -0.7933533402912352 -0.6087614290087207 -0.0
  outer loop
    vertex 0.5857864376269043 -4.414213562373095 1.0000000000000009
    vertex 0.26794919243112225 -4.0 7.5
    vertex 0.26794919243112225 -4.0 1.0000000000000009
  endloop
endfacet
facet normal -0.9238795325112868 -0.38268343236508956 -0.0
  outer loop
    vertex 0.06814834742186315 -3.5176380902050424 7.5
    vertex 0.26794919243112225 -4.0 1.0000000000000009
    vertex 0.26794919243112225 -4.0 7.5
  endloop
endfacet
facet normal -0.9238795325112868 -0.38268343236508956 -0.0
  outer loop
    vertex 0.26794919243112225 -4.0 1.0000000000000009
    vertex 0.06814834742186315 -3.5176380902050424 7.5
    vertex 0.06814834742186315 -3.5176380902050424 1.0000000000000009
  endloop
endfacet
facet normal -0.9914448613738105 -0.13052619222005188 0.0
  outer loop
    vertex -3.524958103184872e-16 -3.0000000000000013 7.5
    vertex 0.06814834742186315 -3.5176380902050424 1.0000000000000009
    vertex 0.06814834742186315 -3.5176380902050424 7.5
  endloop
endfacet
facet normal -0.9914448613738105 -0.13052619222005188 0.0
  outer loop
    vertex 0.06814834742186315 -3.5176380902050424 1.0000000000000009
    vertex -3.524958103184872e-16 -3.0000000000000013 7.5
    vertex -3.524958103184872e-16 -3.0000000000000013 1.0000000000000009
  endloop
endfacet
facet normal 0.13052619222005077 0.9914448613738105 -0.0
  outer loop
    vertex 82.00000000000001 83.99999999999999 7.5
    vertex 82.51763809020505 83.93185165257813 1.0000000000000009
    vertex 82.00000000000001 83.99999999999999 1.0000000000000009
  endloop
endfacet
facet normal 0.13052619222005077 0.9914448613738105 -0.0
  outer loop
    vertex 82.51763809020505 83.93185165257813 1.0000000000000009
    vertex 82.00000000000001 83.99999999999999 7.5
    vertex 82.51763809020505 83.93185165257813 7.5
  endloop
endfacet
facet normal 0.38268343236508595 0.9238795325112884 0.0
  outer loop
    vertex 82.51763809020505 83.93185165257813 7.5
    vertex 83.0 83.73205080756887 1.0000000000000009
    vertex 82.51763809020505 83.93185165257813 1.0000000000000009
  endloop
endfacet
facet normal 0.38268343236508595 0.9238795325112884 0.0
  outer loop
    vertex 83.0 83.73205080756887 1.0000000000000009
    vertex 82.51763809020505 83.93185165257813 7.5
    vertex 83.0 83.73205080756887 7.5
  endloop
endfacet
facet normal 0.6087614290087368 0.7933533402912228 0.0
  outer loop
    vertex 83.0 83.73205080756887 7.5
    vertex 83.41421356237309 83.41421356237308 1.0000000000000009
    vertex 83.0 83.73205080756887 1.0000000000000009
  endloop
endfacet
facet normal 0.6087614290087368 0.7933533402912228 0.0
  outer loop
    vertex 83.41421356237309 83.41421356237308 1.0000000000000009
    vertex 83.0 83.73205080756887 7.5
    vertex 83.41421356237309 83.41421356237308 7.5
  endloop
endfacet
facet normal 0.7933533402912228 0.6087614290087368 0.0
  outer loop
    vertex 83.41421356237309 83.41421356237308 1.0000000000000009
    vertex 83.73205080756888 83.0 7.5
    vertex 83.73205080756888 83.0 1.0000000000000009
  endloop
endfacet
facet normal 0.7933533402912228 0.6087614290087368 0.0
  outer loop
    vertex 83.73205080756888 83.0 7.5
    vertex 83.41421356237309 83.41421356237308 1.0000000000000009
    vertex 83.41421356237309 83.41421356237308 7.5
  endloop
endfacet
facet normal 0.9238795325112884 0.38268343236508595 0.0
  outer loop
    vertex 83.73205080756888 83.0 1.0000000000000009
    vertex 83.93185165257815 82.51763809020504 7.5
    vertex 83.93185165257815 82.51763809020504 1.0000000000000009
  endloop
endfacet
facet normal 0.9238795325112884 0.38268343236508595 0.0
  outer loop
    vertex 83.93185165257815 82.51763809020504 7.5
    vertex 83.73205080756888 83.0 1.0000000000000009
    vertex 83.73205080756888 83.0 7.5
  endloop
endfacet
facet normal 0.9914448613738105 0.13052619222005074 -0.0
  outer loop
    vertex 83.93185165257815 82.51763809020504 1.0000000000000009
    vertex 84.0 82.0 7.5
    vertex 84.0 82.0 1.0000000000000009
  endloop
endfacet
facet normal 0.9914448613738105 0.13052619222005074 -0.0
  outer loop
    vertex 84.0 82.0 7.5
    vertex 83.93185165257815 82.51763809020504 1.0000000000000009
    vertex 83.93185165257815 82.51763809020504 7.5
  endloop
endfacet
facet normal -0.9914448613738107 0.1305261922200501 0.0
  outer loop
    vertex 0.06814834742186315 82.51763809020504 7.5
    vertex 0.0 82.0 1.0000000000000009
    vertex 0.0 82.0 7.5
  endloop
endfacet
facet normal -0.9914448613738107 0.1305261922200501 0.0
  outer loop
    vertex 0.0 82.0 1.0000000000000009
    vertex 0.06814834742186315 82.51763809020504 7.5
    vertex 0.06814834742186315 82.51763809020504 1.0000000000000009
  endloop
endfacet
facet normal -0.9238795325112854 0.3826834323650935 -0.0
  outer loop
    vertex 0.26794919243112225 83.0 7.5
    vertex 0.06814834742186315 82.51763809020504 1.0000000000000009
    vertex 0.06814834742186315 82.51763809020504 7.5
  endloop
endfacet
facet normal -0.9238795325112854 0.3826834323650935 -0.0
  outer loop
    vertex 0.06814834742186315 82.51763809020504 1.0000000000000009
    vertex 0.26794919243112225 83.0 7.5
    vertex 0.26794919243112225 83.0 1.0000000000000009
  endloop
endfacet
facet normal -0.7933533402912395 0.608761429008715 -0.0
  outer loop
    vertex 0.585786437626904 83.41421356237309 7.5
    vertex 0.26794919243112225 83.0 1.0000000000000009
    vertex 0.26794919243112225 83.0 7.5
  endloop
endfacet
facet normal -0.7933533402912395 0.608761429008715 -0.0
  outer loop
    vertex 0.26794919243112225 83.0 1.0000000000000009
    vertex 0.585786437626904 83.41421356237309 7.5
    vertex 0.585786437626904 83.41421356237309 1.0000000000000009
  endloop
endfacet
facet normal -0.6087614290087178 0.7933533402912375 -0.0
  outer loop
    vertex 0.585786437626904 83.41421356237309 7.5
    vertex 0.9999999999999989 83.73205080756887 1.0000000000000009
    vertex 0.585786437626904 83.41421356237309 1.0000000000000009
  endloop
endfacet
facet normal -0.6087614290087178 0.7933533402912375 -0.0
  outer loop
    vertex 0.9999999999999989 83.73205080756887 1.0000000000000009
    vertex 0.585786437626904 83.41421356237309 7.5
    vertex 0.9999999999999989 83.73205080756887 7.5
  endloop
endfacet
facet normal -0.3826834323651005 0.9238795325112825 -0.0
  outer loop
    vertex 0.9999999999999989 83.73205080756887 7.5
    vertex 1.4823619097949574 83.93185165257815 1.0000000000000009
    vertex 0.9999999999999989 83.73205080756887 1.0000000000000009
  endloop
endfacet
facet normal -0.3826834323651005 0.9238795325112825 -0.0
  outer loop
    vertex 1.4823619097949574 83.93185165257815 1.0000000000000009
    vertex 0.9999999999999989 83.73205080756887 7.5
    vertex 1.4823619097949574 83.93185165257815 7.5
  endloop
endfacet
facet normal -0.13052619222005166 0.9914448613738105 -0.0
  outer loop
    vertex 1.4823619097949574 83.93185165257815 7.5
    vertex 1.9999999999999991 84.0 1.0000000000000009
    vertex 1.4823619097949574 83.93185165257815 1.0000000000000009
  endloop
endfacet
facet normal -0.13052619222005166 0.9914448613738105 -0.0
  outer loop
    vertex 1.9999999999999991 84.0 1.0000000000000009
    vertex 1.4823619097949574 83.93185165257815 7.5
    vertex 1.9999999999999991 84.0 7.5
  endloop
endfacet
facet normal 0.9914448613738105 -0.13052619222005182 -0.0
  outer loop
    vertex 84.0 -3.000000000000001 1.0000000000000009
    vertex 83.93185165257815 -3.5176380902050424 7.5
    vertex 83.93185165257815 -3.5176380902050424 1.0000000000000009
  endloop
endfacet
facet normal 0.9914448613738105 -0.13052619222005182 -0.0
  outer loop
    vertex 83.93185165257815 -3.5176380902050424 7.5
    vertex 84.0 -3.000000000000001 1.0000000000000009
    vertex 84.0 -3.000000000000001 7.5
  endloop
endfacet
facet normal 0.9238795325112898 -0.3826834323650826 -0.0
  outer loop
    vertex 83.93185165257815 -3.5176380902050424 1.0000000000000009
    vertex 83.73205080756888 -3.9999999999999996 7.5
    vertex 83.73205080756888 -3.9999999999999996 1.0000000000000009
  endloop
endfacet
facet normal 0.9238795325112898 -0.3826834323650826 -0.0
  outer loop
    vertex 83.73205080756888 -3.9999999999999996 7.5
    vertex 83.93185165257815 -3.5176380902050424 1.0000000000000009
    vertex 83.93185165257815 -3.5176380902050424 7.5
  endloop
endfacet
facet normal 0.7933533402912377 -0.6087614290087173 -0.0
  outer loop
    vertex 83.73205080756888 -3.9999999999999996 1.0000000000000009
    vertex 83.4142135623731 -4.414213562373095 7.5
    vertex 83.4142135623731 -4.414213562373095 1.0000000000000009
  endloop
endfacet
facet normal 0.7933533402912377 -0.6087614290087173 -0.0
  outer loop
    vertex 83.4142135623731 -4.414213562373095 7.5
    vertex 83.73205080756888 -3.9999999999999996 1.0000000000000009
    vertex 83.73205080756888 -3.9999999999999996 7.5
  endloop
endfacet
facet normal 0.6087614290087153 -0.7933533402912394 -0.0
  outer loop
    vertex 83.4142135623731 -4.414213562373095 7.5
    vertex 83.0 -4.732050807568877 1.0000000000000009
    vertex 83.4142135623731 -4.414213562373095 1.0000000000000009
  endloop
endfacet
facet normal 0.6087614290087153 -0.7933533402912394 -0.0
  outer loop
    vertex 83.0 -4.732050807568877 1.0000000000000009
    vertex 83.4142135623731 -4.414213562373095 7.5
    vertex 83.0 -4.732050807568877 7.5
  endloop
endfacet
facet normal 0.38268343236509283 -0.9238795325112855 -0.0
  outer loop
    vertex 83.0 -4.732050807568877 7.5
    vertex 82.51763809020505 -4.9318516525781355 1.0000000000000009
    vertex 83.0 -4.732050807568877 1.0000000000000009
  endloop
endfacet
facet normal 0.38268343236509283 -0.9238795325112855 -0.0
  outer loop
    vertex 82.51763809020505 -4.9318516525781355 1.0000000000000009
    vertex 83.0 -4.732050807568877 7.5
    vertex 82.51763809020505 -4.9318516525781355 7.5
  endloop
endfacet
facet normal 0.13052619222005077 -0.9914448613738105 0.0
  outer loop
    vertex 82.51763809020505 -4.9318516525781355 7.5
    vertex 82.00000000000001 -4.999999999999999 1.0000000000000009
    vertex 82.51763809020505 -4.9318516525781355 1.0000000000000009
  endloop
endfacet
facet normal 0.13052619222005077 -0.9914448613738105 0.0
  outer loop
    vertex 82.00000000000001 -4.999999999999999 1.0000000000000009
    vertex 82.51763809020505 -4.9318516525781355 7.5
    vertex 82.00000000000001 -4.999999999999999 7.5
  endloop
endfacet
endsolid RotorHazard LED Panel V2
