solid RotorHazard Leg 60mm
facet normal 0.0 0.0 -1.0
  outer loop
    vertex -3.4379196977810915 0.6562835908422276 0.0
    vertex -3.4906341170929043 -0.25587782355461425 0.0
    vertex -3.4941700163100053 0.20193042643480094 0.0
  endloop
endfacet
facet normal 0.0 0.0 -1.0
  outer loop
    vertex -3.4906341170929043 -0.25587782355461425 0.0
    vertex -3.4379196977810915 0.6562835908422276 0.0
    vertex -3.427372500345729 -0.7093079330402748 0.0
  endloop
endfacet
facet normal 0.0 0.0 -1.0
  outer loop
    vertex -3.427372500345729 -0.7093079330402748 0.0
    vertex -3.4379196977810915 0.6562835908422276 0.0
    vertex -3.322845620051729 1.0994075610541545 0.0
  endloop
endfacet
facet normal 0.0 0.0 -1.0
  outer loop
    vertex -3.427372500345729 -0.7093079330402748 0.0
    vertex -3.322845620051729 1.0994075610541545 0.0
    vertex -3.3054675898704593 -1.1506015871343056 0.0
  endloop
endfacet
facet normal 0.0 0.0 -1.0
  outer loop
    vertex -3.3054675898704593 -1.1506015871343056 0.0
    vertex -3.322845620051729 1.0994075610541545 0.0
    vertex -3.1509167324964267 1.5237203630830842 0.0
  endloop
endfacet
facet normal 0.0 0.0 -1.0
  outer loop
    vertex -3.3054675898704593 -1.1506015871343056 0.0
    vertex -3.1509167324964267 1.5237203630830842 0.0
    vertex -3.1270052124837515 -1.5722081290654395 0.0
  endloop
endfacet
facet normal 0.0 0.0 -1.0
  outer loop
    vertex -3.1270052124837515 -1.5722081290654395 0.0
    vertex -3.1509167324964267 1.5237203630830842 0.0
    vertex -2.92507478604895 1.9219618872445652 0.0
  endloop
endfacet
facet normal 0.0 0.0 -1.0
  outer loop
    vertex -3.1270052124837515 -1.5722081290654395 0.0
    vertex -2.92507478604895 1.9219618872445652 0.0
    vertex -2.895038908941813 -1.9669137540098196 0.0
  endloop
endfacet
facet normal 0.0 0.0 -1.0
  outer loop
    vertex -2.895038908941813 -1.9669137540098196 0.0
    vertex -2.92507478604895 1.9219618872445652 0.0
    vertex -2.6491839990282324 2.287318110646787 0.0
  endloop
endfacet
facet normal 0.0 0.0 -1.0
  outer loop
    vertex -2.895038908941813 -1.9669137540098196 0.0
    vertex -2.6491839990282324 2.287318110646787 0.0
    vertex -2.613537687011453 -2.327964939291575 0.0
  endloop
endfacet
facet normal 0.0 0.0 -1.0
  outer loop
    vertex -2.613537687011453 -2.327964939291575 0.0
    vertex -2.6491839990282324 2.287318110646787 0.0
    vertex -2.3279649392915753 2.613537687011453 0.0
  endloop
endfacet
facet normal 0.0 0.0 -1.0
  outer loop
    vertex -2.613537687011453 -2.327964939291575 0.0
    vertex -2.3279649392915753 2.613537687011453 0.0
    vertex -2.287318110646787 -2.649183999028232 0.0
  endloop
endfacet
facet normal 0.0 0.0 -1.0
  outer loop
    vertex -2.287318110646787 -2.649183999028232 0.0
    vertex -2.3279649392915753 2.613537687011453 0.0
    vertex -1.9669137540098207 2.8950389089418125 0.0
  endloop
endfacet
facet normal 0.0 0.0 -1.0
  outer loop
    vertex -2.287318110646787 -2.649183999028232 0.0
    vertex -1.9669137540098207 2.8950389089418125 0.0
    vertex -1.9219618872445656 -2.9250747860489494 0.0
  endloop
endfacet
facet normal 0.0 0.0 -1.0
  outer loop
    vertex -1.9219618872445656 -2.9250747860489494 0.0
    vertex -1.9669137540098207 2.8950389089418125 0.0
    vertex -1.7999999999999998 3.306546357697853e-16 0.0
  endloop
endfacet
facet normal 0.0 0.0 -1.0
  outer loop
    vertex -1.7999999999999998 3.306546357697853e-16 0.0
    vertex -1.9669137540098207 2.8950389089418125 0.0
    vertex -1.5722081290654402 3.1270052124837515 0.0
  endloop
endfacet
facet normal 0.0 0.0 -1.0
  outer loop
    vertex -1.7999999999999998 3.306546357697853e-16 0.0
    vertex -1.5722081290654402 3.1270052124837515 0.0
    vertex -1.7386664873203226 0.4658742811845387 0.0
  endloop
endfacet
facet normal 0.0 0.0 -1.0
  outer loop
    vertex -1.7386664873203226 0.4658742811845387 0.0
    vertex -1.5722081290654402 3.1270052124837515 0.0
    vertex -1.5588457268119893 0.9000000000000008 0.0
  endloop
endfacet
facet normal 0.0 0.0 -1.0
  outer loop
    vertex -1.5588457268119893 0.9000000000000008 0.0
    vertex -1.5722081290654402 3.1270052124837515 0.0
    vertex -1.1506015871343063 3.3054675898704593 0.0
  endloop
endfacet
facet normal 0.0 0.0 -1.0
  outer loop
    vertex -1.5588457268119893 0.9000000000000008 0.0
    vertex -1.1506015871343063 3.3054675898704593 0.0
    vertex -1.2727922061357848 1.2727922061357861 0.0
  endloop
endfacet
facet normal 0.0 0.0 -1.0
  outer loop
    vertex -1.2727922061357848 1.2727922061357861 0.0
    vertex -1.1506015871343063 3.3054675898704593 0.0
    vertex -0.8999999999999994 1.5588457268119897 0.0
  endloop
endfacet
facet normal 0.0 0.0 -1.0
  outer loop
    vertex -0.8999999999999994 1.5588457268119897 0.0
    vertex -1.1506015871343063 3.3054675898704593 0.0
    vertex -0.7093079330402762 3.427372500345729 0.0
  endloop
endfacet
facet normal 0.0 0.0 -1.0
  outer loop
    vertex -0.8999999999999994 1.5588457268119897 0.0
    vertex -0.7093079330402762 3.427372500345729 0.0
    vertex -0.4658742811845366 1.738666487320323 0.0
  endloop
endfacet
facet normal 0.0 0.0 -1.0
  outer loop
    vertex -0.4658742811845366 1.738666487320323 0.0
    vertex -0.7093079330402762 3.427372500345729 0.0
    vertex -0.2558778235546153 3.4906341170929043 0.0
  endloop
endfacet
facet normal 0.0 0.0 -1.0
  outer loop
    vertex -0.4658742811845366 1.738666487320323 0.0
    vertex -0.2558778235546153 3.4906341170929043 0.0
    vertex 2.2043642384652356e-16 1.7999999999999998 0.0
  endloop
endfacet
facet normal 0.0 0.0 -1.0
  outer loop
    vertex 2.2043642384652356e-16 1.7999999999999998 0.0
    vertex -0.2558778235546153 3.4906341170929043 0.0
    vertex 0.20193042643480025 3.4941700163100053 0.0
  endloop
endfacet
facet normal 0.0 0.0 -1.0
  outer loop
    vertex 2.2043642384652356e-16 1.7999999999999998 0.0
    vertex 0.20193042643480025 3.4941700163100053 0.0
    vertex 0.4658742811845378 1.7386664873203226 0.0
  endloop
endfacet
facet normal 0.0 0.0 -1.0
  outer loop
    vertex 0.4658742811845378 1.7386664873203226 0.0
    vertex 0.20193042643480025 3.4941700163100053 0.0
    vertex 0.6562835908422261 3.4379196977810924 0.0
  endloop
endfacet
facet normal 0.0 0.0 -1.0
  outer loop
    vertex 0.4658742811845378 1.7386664873203226 0.0
    vertex 0.6562835908422261 3.4379196977810924 0.0
    vertex 0.9000000000000005 1.5588457268119893 0.0
  endloop
endfacet
facet normal 0.0 0.0 -1.0
  outer loop
    vertex 0.9000000000000005 1.5588457268119893 0.0
    vertex 0.6562835908422261 3.4379196977810924 0.0
    vertex 1.0994075610541536 3.322845620051729 0.0
  endloop
endfacet
facet normal 0.0 0.0 -1.0
  outer loop
    vertex 0.9000000000000005 1.5588457268119893 0.0
    vertex 1.0994075610541536 3.322845620051729 0.0
    vertex 1.2727922061357857 1.2727922061357853 0.0
  endloop
endfacet
facet normal 0.0 0.0 -1.0
  outer loop
    vertex 1.2727922061357857 1.2727922061357853 0.0
    vertex 1.0994075610541536 3.322845620051729 0.0
    vertex 1.523720363083083 3.150916732496427 0.0
  endloop
endfacet
facet normal 0.0 0.0 -1.0
  outer loop
    vertex 1.2727922061357857 1.2727922061357853 0.0
    vertex 1.523720363083083 3.150916732496427 0.0
    vertex 1.5588457268119895 0.8999999999999996 0.0
  endloop
endfacet
facet normal 0.0 0.0 -1.0
  outer loop
    vertex 1.5588457268119895 0.8999999999999996 0.0
    vertex 1.523720363083083 3.150916732496427 0.0
    vertex 1.9219618872445645 2.9250747860489503 0.0
  endloop
endfacet
facet normal 0.0 0.0 -1.0
  outer loop
    vertex 1.5588457268119895 0.8999999999999996 0.0
    vertex 1.9219618872445645 2.9250747860489503 0.0
    vertex 1.738666487320323 0.46587428118453716 0.0
  endloop
endfacet
facet normal 0.0 0.0 -1.0
  outer loop
    vertex 1.738666487320323 0.46587428118453716 0.0
    vertex 1.9219618872445645 2.9250747860489503 0.0
    vertex 1.7999999999999998 -1.1021821192326178e-16 0.0
  endloop
endfacet
facet normal 0.0 0.0 -1.0
  outer loop
    vertex -1.7999999999999998 3.306546357697853e-16 0.0
    vertex -1.5237203630830845 -3.1509167324964262 0.0
    vertex -1.9219618872445656 -2.9250747860489494 0.0
  endloop
endfacet
facet normal 0.0 0.0 -1.0
  outer loop
    vertex -1.5237203630830845 -3.1509167324964262 0.0
    vertex -1.7999999999999998 3.306546357697853e-16 0.0
    vertex -1.738666487320323 -0.4658742811845365 0.0
  endloop
endfacet
facet normal 0.0 0.0 -1.0
  outer loop
    vertex -1.5237203630830845 -3.1509167324964262 0.0
    vertex -1.738666487320323 -0.4658742811845365 0.0
    vertex -1.5588457268119902 -0.8999999999999987 0.0
  endloop
endfacet
facet normal 0.0 0.0 -1.0
  outer loop
    vertex -1.5237203630830845 -3.1509167324964262 0.0
    vertex -1.5588457268119902 -0.8999999999999987 0.0
    vertex -1.2727922061357857 -1.272792206135785 0.0
  endloop
endfacet
facet normal 0.0 0.0 -1.0
  outer loop
    vertex -1.5237203630830845 -3.1509167324964262 0.0
    vertex -1.2727922061357857 -1.272792206135785 0.0
    vertex -1.0994075610541545 -3.3228456200517282 0.0
  endloop
endfacet
facet normal 0.0 0.0 -1.0
  outer loop
    vertex -1.0994075610541545 -3.3228456200517282 0.0
    vertex -1.2727922061357857 -1.272792206135785 0.0
    vertex -0.9000000000000008 -1.5588457268119889 0.0
  endloop
endfacet
facet normal 0.0 0.0 -1.0
  outer loop
    vertex -1.0994075610541545 -3.3228456200517282 0.0
    vertex -0.9000000000000008 -1.5588457268119889 0.0
    vertex -0.6562835908422271 -3.4379196977810915 0.0
  endloop
endfacet
facet normal 0.0 0.0 -1.0
  outer loop
    vertex -0.6562835908422271 -3.4379196977810915 0.0
    vertex -0.9000000000000008 -1.5588457268119889 0.0
    vertex -0.46587428118453883 -1.7386664873203226 0.0
  endloop
endfacet
facet normal 0.0 0.0 -1.0
  outer loop
    vertex -0.6562835908422271 -3.4379196977810915 0.0
    vertex -0.46587428118453883 -1.7386664873203226 0.0
    vertex -0.20193042643480236 -3.4941700163100053 0.0
  endloop
endfacet
facet normal 0.0 0.0 -1.0
  outer loop
    vertex -0.20193042643480236 -3.4941700163100053 0.0
    vertex -0.46587428118453883 -1.7386664873203226 0.0
    vertex 0.0 -1.7999999999999998 0.0
  endloop
endfacet
facet normal 0.0 0.0 -1.0
  outer loop
    vertex -0.20193042643480236 -3.4941700163100053 0.0
    vertex 0.0 -1.7999999999999998 0.0
    vertex 0.2558778235546146 -3.4906341170929043 0.0
  endloop
endfacet
facet normal 0.0 0.0 -1.0
  outer loop
    vertex 0.2558778235546146 -3.4906341170929043 0.0
    vertex 0.0 -1.7999999999999998 0.0
    vertex 0.46587428118453733 -1.738666487320323 0.0
  endloop
endfacet
facet normal 0.0 0.0 -1.0
  outer loop
    vertex 0.2558778235546146 -3.4906341170929043 0.0
    vertex 0.46587428118453733 -1.738666487320323 0.0
    vertex 0.709307933040275 -3.4273725003457294 0.0
  endloop
endfacet
facet normal 0.0 0.0 -1.0
  outer loop
    vertex 0.709307933040275 -3.4273725003457294 0.0
    vertex 0.46587428118453733 -1.738666487320323 0.0
    vertex 0.8999999999999998 -1.5588457268119895 0.0
  endloop
endfacet
facet normal 0.0 0.0 -1.0
  outer loop
    vertex 0.709307933040275 -3.4273725003457294 0.0
    vertex 0.8999999999999998 -1.5588457268119895 0.0
    vertex 1.1506015871343038 -3.3054675898704593 0.0
  endloop
endfacet
facet normal 0.0 0.0 -1.0
  outer loop
    vertex 1.1506015871343038 -3.3054675898704593 0.0
    vertex 0.8999999999999998 -1.5588457268119895 0.0
    vertex 1.2727922061357857 -1.2727922061357857 0.0
  endloop
endfacet
facet normal 0.0 0.0 -1.0
  outer loop
    vertex 1.1506015871343038 -3.3054675898704593 0.0
    vertex 1.2727922061357857 -1.2727922061357857 0.0
    vertex 1.5722081290654384 -3.1270052124837524 0.0
  endloop
endfacet
facet normal 0.0 0.0 -1.0
  outer loop
    vertex 1.5722081290654384 -3.1270052124837524 0.0
    vertex 1.2727922061357857 -1.2727922061357857 0.0
    vertex 1.5588457268119895 -0.9000000000000001 0.0
  endloop
endfacet
facet normal 0.0 0.0 -1.0
  outer loop
    vertex 1.5722081290654384 -3.1270052124837524 0.0
    vertex 1.5588457268119895 -0.9000000000000001 0.0
    vertex 1.7386664873203226 -0.46587428118453766 0.0
  endloop
endfacet
facet normal 0.0 0.0 -1.0
  outer loop
    vertex 1.5722081290654384 -3.1270052124837524 0.0
    vertex 1.7386664873203226 -0.46587428118453766 0.0
    vertex 1.9669137540098183 -2.895038908941814 0.0
  endloop
endfacet
facet normal 0.0 0.0 -1.0
  outer loop
    vertex 1.9669137540098183 -2.895038908941814 0.0
    vertex 1.7386664873203226 -0.46587428118453766 0.0
    vertex 1.7999999999999998 -1.1021821192326178e-16 0.0
  endloop
endfacet
facet normal 0.0 0.0 -1.0
  outer loop
    vertex 1.9669137540098183 -2.895038908941814 0.0
    vertex 1.7999999999999998 -1.1021821192326178e-16 0.0
    vertex 1.9219618872445645 2.9250747860489503 0.0
  endloop
endfacet
facet normal 0.0 0.0 -1.0
  outer loop
    vertex 1.9669137540098183 -2.895038908941814 0.0
    vertex 1.9219618872445645 2.9250747860489503 0.0
    vertex 2.2873181106467864 2.649183999028233 0.0
  endloop
endfacet
facet normal 0.0 0.0 -1.0
  outer loop
    vertex 1.9669137540098183 -2.895038908941814 0.0
    vertex 2.2873181106467864 2.649183999028233 0.0
    vertex 2.327964939291575 -2.6135376870114535 0.0
  endloop
endfacet
facet normal 0.0 0.0 -1.0
  outer loop
    vertex 2.327964939291575 -2.6135376870114535 0.0
    vertex 2.2873181106467864 2.649183999028233 0.0
    vertex 2.4388245032104043 2.5 0.0
  endloop
endfacet
facet normal 0.0 0.0 -1.0
  outer loop
    vertex 2.327964939291575 -2.6135376870114535 0.0
    vertex 2.4388245032104043 2.5 0.0
    vertex 2.4397622430368453 -2.5 0.0
  endloop
endfacet
facet normal 0.0 0.0 -1.0
  outer loop
    vertex 2.4397622430368453 -2.5 0.0
    vertex 2.4388245032104043 2.5 0.0
    vertex 57.499999999999986 2.5 0.0
  endloop
endfacet
facet normal 0.0 0.0 -1.0
  outer loop
    vertex 2.4397622430368453 -2.5 0.0
    vertex 57.499999999999986 2.5 0.0
    vertex 57.499999999999986 -2.5 0.0
  endloop
endfacet
facet normal 0.0 0.0 -1.0
  outer loop
    vertex 57.499999999999986 -2.5 0.0
    vertex 57.499999999999986 2.5 0.0
    vertex 57.89108616260056 2.469220851487844 0.0
  endloop
endfacet
facet normal 0.0 0.0 -1.0
  outer loop
    vertex 57.499999999999986 -2.5 0.0
    vertex 57.89108616260056 2.469220851487844 0.0
    vertex 57.89108616260056 -2.469220851487844 0.0
  endloop
endfacet
facet normal 0.0 0.0 -1.0
  outer loop
    vertex 57.89108616260056 -2.469220851487844 0.0
    vertex 57.89108616260056 2.469220851487844 0.0
    vertex 58.27254248593736 2.3776412907378837 0.0
  endloop
endfacet
facet normal 0.0 0.0 -1.0
  outer loop
    vertex 57.89108616260056 -2.469220851487844 0.0
    vertex 58.27254248593736 2.3776412907378837 0.0
    vertex 58.27254248593736 -2.3776412907378837 0.0
  endloop
endfacet
facet normal 0.0 0.0 -1.0
  outer loop
    vertex 58.27254248593736 -2.3776412907378837 0.0
    vertex 58.27254248593736 2.3776412907378837 0.0
    vertex 58.63497624934885 2.2275163104709192 0.0
  endloop
endfacet
facet normal 0.0 0.0 -1.0
  outer loop
    vertex 58.27254248593736 -2.3776412907378837 0.0
    vertex 58.63497624934885 2.2275163104709192 0.0
    vertex 58.63497624934885 -2.2275163104709197 0.0
  endloop
endfacet
facet normal 0.0 0.0 -1.0
  outer loop
    vertex 58.63497624934885 -2.2275163104709197 0.0
    vertex 58.63497624934885 2.2275163104709192 0.0
    vertex 58.969463130731164 2.0225424859373686 0.0
  endloop
endfacet
facet normal 0.0 0.0 -1.0
  outer loop
    vertex 58.63497624934885 -2.2275163104709197 0.0
    vertex 58.969463130731164 2.0225424859373686 0.0
    vertex 58.969463130731164 -2.0225424859373686 0.0
  endloop
endfacet
facet normal 0.0 0.0 -1.0
  outer loop
    vertex 58.969463130731164 -2.0225424859373686 0.0
    vertex 58.969463130731164 2.0225424859373686 0.0
    vertex 59.267766952966355 1.7677669529663687 0.0
  endloop
endfacet
facet normal 0.0 0.0 -1.0
  outer loop
    vertex 58.969463130731164 -2.0225424859373686 0.0
    vertex 59.267766952966355 1.7677669529663687 0.0
    vertex 59.267766952966355 -1.767766952966369 0.0
  endloop
endfacet
facet normal 0.0 0.0 -1.0
  outer loop
    vertex 59.267766952966355 -1.767766952966369 0.0
    vertex 59.267766952966355 1.7677669529663687 0.0
    vertex 59.52254248593735 1.4694631307311825 0.0
  endloop
endfacet
facet normal 0.0 0.0 -1.0
  outer loop
    vertex 59.267766952966355 -1.767766952966369 0.0
    vertex 59.52254248593735 1.4694631307311825 0.0
    vertex 59.52254248593735 -1.469463130731183 0.0
  endloop
endfacet
facet normal 0.0 0.0 -1.0
  outer loop
    vertex 59.52254248593735 -1.469463130731183 0.0
    vertex 59.52254248593735 1.4694631307311825 0.0
    vertex 59.727516310470904 1.1349762493488669 0.0
  endloop
endfacet
facet normal 0.0 0.0 -1.0
  outer loop
    vertex 59.52254248593735 -1.469463130731183 0.0
    vertex 59.727516310470904 1.1349762493488669 0.0
    vertex 59.727516310470904 -1.1349762493488669 0.0
  endloop
endfacet
facet normal 0.0 0.0 -1.0
  outer loop
    vertex 59.727516310470904 -1.1349762493488669 0.0
    vertex 59.727516310470904 1.1349762493488669 0.0
    vertex 59.87764129073787 0.7725424859373683 0.0
  endloop
endfacet
facet normal 0.0 0.0 -1.0
  outer loop
    vertex 59.727516310470904 -1.1349762493488669 0.0
    vertex 59.87764129073787 0.7725424859373683 0.0
    vertex 59.87764129073787 -0.7725424859373686 0.0
  endloop
endfacet
facet normal 0.0 0.0 -1.0
  outer loop
    vertex 59.87764129073787 -0.7725424859373686 0.0
    vertex 59.87764129073787 0.7725424859373683 0.0
    vertex 59.96922085148783 0.39108616260057705 0.0
  endloop
endfacet
facet normal 0.0 0.0 -1.0
  outer loop
    vertex 59.87764129073787 -0.7725424859373686 0.0
    vertex 59.96922085148783 0.39108616260057705 0.0
    vertex 59.96922085148783 -0.3910861626005773 0.0
  endloop
endfacet
facet normal 0.0 0.0 -1.0
  outer loop
    vertex 59.96922085148783 -0.3910861626005773 0.0
    vertex 59.96922085148783 0.39108616260057705 0.0
    vertex 59.99999999999998 -1.5308084989341916e-16 0.0
  endloop
endfacet
facet normal -0.0 -0.0 1.0
  outer loop
    vertex -1.5237203630830845 -3.1509167324964262 5.0
    vertex -1.7999999999999998 3.306546357697853e-16 5.0
    vertex -1.9219618872445656 -2.9250747860489494 5.0
  endloop
endfacet
facet normal -0.0 -0.0 1.0
  outer loop
    vertex -1.7999999999999998 3.306546357697853e-16 5.0
    vertex -1.5237203630830845 -3.1509167324964262 5.0
    vertex -1.738666487320323 -0.4658742811845365 5.0
  endloop
endfacet
facet normal -0.0 -0.0 1.0
  outer loop
    vertex -1.738666487320323 -0.4658742811845365 5.0
    vertex -1.5237203630830845 -3.1509167324964262 5.0
    vertex -1.5588457268119902 -0.8999999999999987 5.0
  endloop
endfacet
facet normal -0.0 -0.0 1.0
  outer loop
    vertex -1.5588457268119902 -0.8999999999999987 5.0
    vertex -1.5237203630830845 -3.1509167324964262 5.0
    vertex -1.2727922061357857 -1.272792206135785 5.0
  endloop
endfacet
facet normal -0.0 -0.0 1.0
  outer loop
    vertex -1.2727922061357857 -1.272792206135785 5.0
    vertex -1.5237203630830845 -3.1509167324964262 5.0
    vertex -1.0994075610541545 -3.3228456200517282 5.0
  endloop
endfacet
facet normal -0.0 -0.0 1.0
  outer loop
    vertex -1.2727922061357857 -1.272792206135785 5.0
    vertex -1.0994075610541545 -3.3228456200517282 5.0
    vertex -0.9000000000000008 -1.5588457268119889 5.0
  endloop
endfacet
facet normal -0.0 -0.0 1.0
  outer loop
    vertex -0.9000000000000008 -1.5588457268119889 5.0
    vertex -1.0994075610541545 -3.3228456200517282 5.0
    vertex -0.6562835908422271 -3.4379196977810915 5.0
  endloop
endfacet
facet normal -0.0 -0.0 1.0
  outer loop
    vertex -0.9000000000000008 -1.5588457268119889 5.0
    vertex -0.6562835908422271 -3.4379196977810915 5.0
    vertex -0.46587428118453883 -1.7386664873203226 5.0
  endloop
endfacet
facet normal -0.0 -0.0 1.0
  outer loop
    vertex -0.46587428118453883 -1.7386664873203226 5.0
    vertex -0.6562835908422271 -3.4379196977810915 5.0
    vertex -0.20193042643480236 -3.4941700163100053 5.0
  endloop
endfacet
facet normal -0.0 -0.0 1.0
  outer loop
    vertex -0.46587428118453883 -1.7386664873203226 5.0
    vertex -0.20193042643480236 -3.4941700163100053 5.0
    vertex 0.0 -1.7999999999999998 5.0
  endloop
endfacet
facet normal -0.0 -0.0 1.0
  outer loop
    vertex 0.0 -1.7999999999999998 5.0
    vertex -0.20193042643480236 -3.4941700163100053 5.0
    vertex 0.2558778235546146 -3.4906341170929043 5.0
  endloop
endfacet
facet normal -0.0 -0.0 1.0
  outer loop
    vertex 0.0 -1.7999999999999998 5.0
    vertex 0.2558778235546146 -3.4906341170929043 5.0
    vertex 0.46587428118453733 -1.738666487320323 5.0
  endloop
endfacet
facet normal -0.0 -0.0 1.0
  outer loop
    vertex 0.46587428118453733 -1.738666487320323 5.0
    vertex 0.2558778235546146 -3.4906341170929043 5.0
    vertex 0.709307933040275 -3.4273725003457294 5.0
  endloop
endfacet
facet normal -0.0 -0.0 1.0
  outer loop
    vertex 0.46587428118453733 -1.738666487320323 5.0
    vertex 0.709307933040275 -3.4273725003457294 5.0
    vertex 0.8999999999999998 -1.5588457268119895 5.0
  endloop
endfacet
facet normal -0.0 -0.0 1.0
  outer loop
    vertex 0.8999999999999998 -1.5588457268119895 5.0
    vertex 0.709307933040275 -3.4273725003457294 5.0
    vertex 1.1506015871343038 -3.3054675898704593 5.0
  endloop
endfacet
facet normal -0.0 -0.0 1.0
  outer loop
    vertex 0.8999999999999998 -1.5588457268119895 5.0
    vertex 1.1506015871343038 -3.3054675898704593 5.0
    vertex 1.2727922061357857 -1.2727922061357857 5.0
  endloop
endfacet
facet normal -0.0 -0.0 1.0
  outer loop
    vertex 1.2727922061357857 -1.2727922061357857 5.0
    vertex 1.1506015871343038 -3.3054675898704593 5.0
    vertex 1.5722081290654384 -3.1270052124837524 5.0
  endloop
endfacet
facet normal -0.0 -0.0 1.0
  outer loop
    vertex 1.2727922061357857 -1.2727922061357857 5.0
    vertex 1.5722081290654384 -3.1270052124837524 5.0
    vertex 1.5588457268119895 -0.9000000000000001 5.0
  endloop
endfacet
facet normal -0.0 -0.0 1.0
  outer loop
    vertex 1.5588457268119895 -0.9000000000000001 5.0
    vertex 1.5722081290654384 -3.1270052124837524 5.0
    vertex 1.7386664873203226 -0.46587428118453766 5.0
  endloop
endfacet
facet normal -0.0 -0.0 1.0
  outer loop
    vertex 1.7386664873203226 -0.46587428118453766 5.0
    vertex 1.5722081290654384 -3.1270052124837524 5.0
    vertex 1.9669137540098183 -2.895038908941814 5.0
  endloop
endfacet
facet normal -0.0 -0.0 1.0
  outer loop
    vertex 1.7386664873203226 -0.46587428118453766 5.0
    vertex 1.9669137540098183 -2.895038908941814 5.0
    vertex 1.7999999999999998 -1.1021821192326178e-16 5.0
  endloop
endfacet
facet normal -0.0 -0.0 1.0
  outer loop
    vertex 1.7999999999999998 -1.1021821192326178e-16 5.0
    vertex 1.9669137540098183 -2.895038908941814 5.0
    vertex 1.9219618872445645 2.9250747860489503 5.0
  endloop
endfacet
facet normal -0.0 -0.0 1.0
  outer loop
    vertex 1.9219618872445645 2.9250747860489503 5.0
    vertex 1.9669137540098183 -2.895038908941814 5.0
    vertex 2.2873181106467864 2.649183999028233 5.0
  endloop
endfacet
facet normal -0.0 -0.0 1.0
  outer loop
    vertex 2.2873181106467864 2.649183999028233 5.0
    vertex 1.9669137540098183 -2.895038908941814 5.0
    vertex 2.327964939291575 -2.6135376870114535 5.0
  endloop
endfacet
facet normal -0.0 -0.0 1.0
  outer loop
    vertex 2.2873181106467864 2.649183999028233 5.0
    vertex 2.327964939291575 -2.6135376870114535 5.0
    vertex 2.4388245032104043 2.5 5.0
  endloop
endfacet
facet normal -0.0 -0.0 1.0
  outer loop
    vertex 2.4388245032104043 2.5 5.0
    vertex 2.327964939291575 -2.6135376870114535 5.0
    vertex 2.4397622430368453 -2.5 5.0
  endloop
endfacet
facet normal -0.0 -0.0 1.0
  outer loop
    vertex 2.4388245032104043 2.5 5.0
    vertex 2.4397622430368453 -2.5 5.0
    vertex 57.499999999999986 2.5 5.0
  endloop
endfacet
facet normal -0.0 -0.0 1.0
  outer loop
    vertex 57.499999999999986 2.5 5.0
    vertex 2.4397622430368453 -2.5 5.0
    vertex 57.499999999999986 -2.5 5.0
  endloop
endfacet
facet normal -0.0 -0.0 1.0
  outer loop
    vertex 57.499999999999986 2.5 5.0
    vertex 57.499999999999986 -2.5 5.0
    vertex 57.89108616260056 -2.469220851487844 5.0
  endloop
endfacet
facet normal -0.0 -0.0 1.0
  outer loop
    vertex 57.499999999999986 2.5 5.0
    vertex 57.89108616260056 -2.469220851487844 5.0
    vertex 57.89108616260056 2.469220851487844 5.0
  endloop
endfacet
facet normal -0.0 -0.0 1.0
  outer loop
    vertex 57.89108616260056 2.469220851487844 5.0
    vertex 57.89108616260056 -2.469220851487844 5.0
    vertex 58.27254248593736 -2.3776412907378837 5.0
  endloop
endfacet
facet normal -0.0 -0.0 1.0
  outer loop
    vertex 57.89108616260056 2.469220851487844 5.0
    vertex 58.27254248593736 -2.3776412907378837 5.0
    vertex 58.27254248593736 2.3776412907378837 5.0
  endloop
endfacet
facet normal -0.0 -0.0 1.0
  outer loop
    vertex 58.27254248593736 2.3776412907378837 5.0
    vertex 58.27254248593736 -2.3776412907378837 5.0
    vertex 58.63497624934885 -2.2275163104709197 5.0
  endloop
endfacet
facet normal -0.0 -0.0 1.0
  outer loop
    vertex 58.27254248593736 2.3776412907378837 5.0
    vertex 58.63497624934885 -2.2275163104709197 5.0
    vertex 58.63497624934885 2.2275163104709192 5.0
  endloop
endfacet
facet normal -0.0 -0.0 1.0
  outer loop
    vertex 58.63497624934885 2.2275163104709192 5.0
    vertex 58.63497624934885 -2.2275163104709197 5.0
    vertex 58.969463130731164 -2.0225424859373686 5.0
  endloop
endfacet
facet normal -0.0 -0.0 1.0
  outer loop
    vertex 58.63497624934885 2.2275163104709192 5.0
    vertex 58.969463130731164 -2.0225424859373686 5.0
    vertex 58.969463130731164 2.0225424859373686 5.0
  endloop
endfacet
facet normal -0.0 -0.0 1.0
  outer loop
    vertex 58.969463130731164 2.0225424859373686 5.0
    vertex 58.969463130731164 -2.0225424859373686 5.0
    vertex 59.267766952966355 -1.767766952966369 5.0
  endloop
endfacet
facet normal -0.0 -0.0 1.0
  outer loop
    vertex 58.969463130731164 2.0225424859373686 5.0
    vertex 59.267766952966355 -1.767766952966369 5.0
    vertex 59.267766952966355 1.7677669529663687 5.0
  endloop
endfacet
facet normal -0.0 -0.0 1.0
  outer loop
    vertex 59.267766952966355 1.7677669529663687 5.0
    vertex 59.267766952966355 -1.767766952966369 5.0
    vertex 59.52254248593735 -1.469463130731183 5.0
  endloop
endfacet
facet normal -0.0 -0.0 1.0
  outer loop
    vertex 59.267766952966355 1.7677669529663687 5.0
    vertex 59.52254248593735 -1.469463130731183 5.0
    vertex 59.52254248593735 1.4694631307311825 5.0
  endloop
endfacet
facet normal -0.0 -0.0 1.0
  outer loop
    vertex 59.52254248593735 1.4694631307311825 5.0
    vertex 59.52254248593735 -1.469463130731183 5.0
    vertex 59.727516310470904 -1.1349762493488669 5.0
  endloop
endfacet
facet normal -0.0 -0.0 1.0
  outer loop
    vertex 59.52254248593735 1.4694631307311825 5.0
    vertex 59.727516310470904 -1.1349762493488669 5.0
    vertex 59.727516310470904 1.1349762493488669 5.0
  endloop
endfacet
facet normal -0.0 -0.0 1.0
  outer loop
    vertex 59.727516310470904 1.1349762493488669 5.0
    vertex 59.727516310470904 -1.1349762493488669 5.0
    vertex 59.87764129073787 -0.7725424859373686 5.0
  endloop
endfacet
facet normal -0.0 -0.0 1.0
  outer loop
    vertex 59.727516310470904 1.1349762493488669 5.0
    vertex 59.87764129073787 -0.7725424859373686 5.0
    vertex 59.87764129073787 0.7725424859373683 5.0
  endloop
endfacet
facet normal -0.0 -0.0 1.0
  outer loop
    vertex 59.87764129073787 0.7725424859373683 5.0
    vertex 59.87764129073787 -0.7725424859373686 5.0
    vertex 59.96922085148783 -0.3910861626005773 5.0
  endloop
endfacet
facet normal -0.0 -0.0 1.0
  outer loop
    vertex 59.87764129073787 0.7725424859373683 5.0
    vertex 59.96922085148783 -0.3910861626005773 5.0
    vertex 59.96922085148783 0.39108616260057705 5.0
  endloop
endfacet
facet normal -0.0 -0.0 1.0
  outer loop
    vertex 59.96922085148783 0.39108616260057705 5.0
    vertex 59.96922085148783 -0.3910861626005773 5.0
    vertex 59.99999999999998 -1.5308084989341916e-16 5.0
  endloop
endfacet
facet normal -0.0 -0.0 1.0
  outer loop
    vertex -3.4906341170929043 -0.25587782355461425 5.0
    vertex -3.4379196977810915 0.6562835908422276 5.0
    vertex -3.4941700163100053 0.20193042643480094 5.0
  endloop
endfacet
facet normal -0.0 -0.0 1.0
  outer loop
    vertex -3.4379196977810915 0.6562835908422276 5.0
    vertex -3.4906341170929043 -0.25587782355461425 5.0
    vertex -3.427372500345729 -0.7093079330402748 5.0
  endloop
endfacet
facet normal -0.0 -0.0 1.0
  outer loop
    vertex -3.4379196977810915 0.6562835908422276 5.0
    vertex -3.427372500345729 -0.7093079330402748 5.0
    vertex -3.322845620051729 1.0994075610541545 5.0
  endloop
endfacet
facet normal -0.0 -0.0 1.0
  outer loop
    vertex -3.322845620051729 1.0994075610541545 5.0
    vertex -3.427372500345729 -0.7093079330402748 5.0
    vertex -3.3054675898704593 -1.1506015871343056 5.0
  endloop
endfacet
facet normal -0.0 -0.0 1.0
  outer loop
    vertex -3.322845620051729 1.0994075610541545 5.0
    vertex -3.3054675898704593 -1.1506015871343056 5.0
    vertex -3.1509167324964267 1.5237203630830842 5.0
  endloop
endfacet
facet normal -0.0 -0.0 1.0
  outer loop
    vertex -3.1509167324964267 1.5237203630830842 5.0
    vertex -3.3054675898704593 -1.1506015871343056 5.0
    vertex -3.1270052124837515 -1.5722081290654395 5.0
  endloop
endfacet
facet normal -0.0 -0.0 1.0
  outer loop
    vertex -3.1509167324964267 1.5237203630830842 5.0
    vertex -3.1270052124837515 -1.5722081290654395 5.0
    vertex -2.92507478604895 1.9219618872445652 5.0
  endloop
endfacet
facet normal -0.0 -0.0 1.0
  outer loop
    vertex -2.92507478604895 1.9219618872445652 5.0
    vertex -3.1270052124837515 -1.5722081290654395 5.0
    vertex -2.895038908941813 -1.9669137540098196 5.0
  endloop
endfacet
facet normal -0.0 -0.0 1.0
  outer loop
    vertex -2.92507478604895 1.9219618872445652 5.0
    vertex -2.895038908941813 -1.9669137540098196 5.0
    vertex -2.6491839990282324 2.287318110646787 5.0
  endloop
endfacet
facet normal -0.0 -0.0 1.0
  outer loop
    vertex -2.6491839990282324 2.287318110646787 5.0
    vertex -2.895038908941813 -1.9669137540098196 5.0
    vertex -2.613537687011453 -2.327964939291575 5.0
  endloop
endfacet
facet normal -0.0 -0.0 1.0
  outer loop
    vertex -2.6491839990282324 2.287318110646787 5.0
    vertex -2.613537687011453 -2.327964939291575 5.0
    vertex -2.3279649392915753 2.613537687011453 5.0
  endloop
endfacet
facet normal -0.0 -0.0 1.0
  outer loop
    vertex -2.3279649392915753 2.613537687011453 5.0
    vertex -2.613537687011453 -2.327964939291575 5.0
    vertex -2.287318110646787 -2.649183999028232 5.0
  endloop
endfacet
facet normal -0.0 -0.0 1.0
  outer loop
    vertex -2.3279649392915753 2.613537687011453 5.0
    vertex -2.287318110646787 -2.649183999028232 5.0
    vertex -1.9669137540098207 2.8950389089418125 5.0
  endloop
endfacet
facet normal -0.0 -0.0 1.0
  outer loop
    vertex -1.9669137540098207 2.8950389089418125 5.0
    vertex -2.287318110646787 -2.649183999028232 5.0
    vertex -1.9219618872445656 -2.9250747860489494 5.0
  endloop
endfacet
facet normal -0.0 -0.0 1.0
  outer loop
    vertex -1.9669137540098207 2.8950389089418125 5.0
    vertex -1.9219618872445656 -2.9250747860489494 5.0
    vertex -1.7999999999999998 3.306546357697853e-16 5.0
  endloop
endfacet
facet normal -0.0 -0.0 1.0
  outer loop
    vertex -1.9669137540098207 2.8950389089418125 5.0
    vertex -1.7999999999999998 3.306546357697853e-16 5.0
    vertex -1.5722081290654402 3.1270052124837515 5.0
  endloop
endfacet
facet normal -0.0 -0.0 1.0
  outer loop
    vertex -1.5722081290654402 3.1270052124837515 5.0
    vertex -1.7999999999999998 3.306546357697853e-16 5.0
    vertex -1.7386664873203226 0.4658742811845387 5.0
  endloop
endfacet
facet normal -0.0 -0.0 1.0
  outer loop
    vertex -1.5722081290654402 3.1270052124837515 5.0
    vertex -1.7386664873203226 0.4658742811845387 5.0
    vertex -1.5588457268119893 0.9000000000000008 5.0
  endloop
endfacet
facet normal -0.0 -0.0 1.0
  outer loop
    vertex -1.5722081290654402 3.1270052124837515 5.0
    vertex -1.5588457268119893 0.9000000000000008 5.0
    vertex -1.1506015871343063 3.3054675898704593 5.0
  endloop
endfacet
facet normal -0.0 -0.0 1.0
  outer loop
    vertex -1.1506015871343063 3.3054675898704593 5.0
    vertex -1.5588457268119893 0.9000000000000008 5.0
    vertex -1.2727922061357848 1.2727922061357861 5.0
  endloop
endfacet
facet normal -0.0 -0.0 1.0
  outer loop
    vertex -1.1506015871343063 3.3054675898704593 5.0
    vertex -1.2727922061357848 1.2727922061357861 5.0
    vertex -0.8999999999999994 1.5588457268119897 5.0
  endloop
endfacet
facet normal -0.0 -0.0 1.0
  outer loop
    vertex -1.1506015871343063 3.3054675898704593 5.0
    vertex -0.8999999999999994 1.5588457268119897 5.0
    vertex -0.7093079330402762 3.427372500345729 5.0
  endloop
endfacet
facet normal -0.0 -0.0 1.0
  outer loop
    vertex -0.7093079330402762 3.427372500345729 5.0
    vertex -0.8999999999999994 1.5588457268119897 5.0
    vertex -0.4658742811845366 1.738666487320323 5.0
  endloop
endfacet
facet normal -0.0 -0.0 1.0
  outer loop
    vertex -0.7093079330402762 3.427372500345729 5.0
    vertex -0.4658742811845366 1.738666487320323 5.0
    vertex -0.2558778235546153 3.4906341170929043 5.0
  endloop
endfacet
facet normal -0.0 -0.0 1.0
  outer loop
    vertex -0.2558778235546153 3.4906341170929043 5.0
    vertex -0.4658742811845366 1.738666487320323 5.0
    vertex 2.2043642384652356e-16 1.7999999999999998 5.0
  endloop
endfacet
facet normal -0.0 -0.0 1.0
  outer loop
    vertex -0.2558778235546153 3.4906341170929043 5.0
    vertex 2.2043642384652356e-16 1.7999999999999998 5.0
    vertex 0.20193042643480025 3.4941700163100053 5.0
  endloop
endfacet
facet normal -0.0 -0.0 1.0
  outer loop
    vertex 0.20193042643480025 3.4941700163100053 5.0
    vertex 2.2043642384652356e-16 1.7999999999999998 5.0
    vertex 0.4658742811845378 1.7386664873203226 5.0
  endloop
endfacet
facet normal -0.0 -0.0 1.0
  outer loop
    vertex 0.20193042643480025 3.4941700163100053 5.0
    vertex 0.4658742811845378 1.7386664873203226 5.0
    vertex 0.6562835908422261 3.4379196977810924 5.0
  endloop
endfacet
facet normal -0.0 -0.0 1.0
  outer loop
    vertex 0.6562835908422261 3.4379196977810924 5.0
    vertex 0.4658742811845378 1.7386664873203226 5.0
    vertex 0.9000000000000005 1.5588457268119893 5.0
  endloop
endfacet
facet normal -0.0 -0.0 1.0
  outer loop
    vertex 0.6562835908422261 3.4379196977810924 5.0
    vertex 0.9000000000000005 1.5588457268119893 5.0
    vertex 1.0994075610541536 3.322845620051729 5.0
  endloop
endfacet
facet normal -0.0 -0.0 1.0
  outer loop
    vertex 1.0994075610541536 3.322845620051729 5.0
    vertex 0.9000000000000005 1.5588457268119893 5.0
    vertex 1.2727922061357857 1.2727922061357853 5.0
  endloop
endfacet
facet normal -0.0 -0.0 1.0
  outer loop
    vertex 1.0994075610541536 3.322845620051729 5.0
    vertex 1.2727922061357857 1.2727922061357853 5.0
    vertex 1.523720363083083 3.150916732496427 5.0
  endloop
endfacet
facet normal -0.0 -0.0 1.0
  outer loop
    vertex 1.523720363083083 3.150916732496427 5.0
    vertex 1.2727922061357857 1.2727922061357853 5.0
    vertex 1.5588457268119895 0.8999999999999996 5.0
  endloop
endfacet
facet normal -0.0 -0.0 1.0
  outer loop
    vertex 1.523720363083083 3.150916732496427 5.0
    vertex 1.5588457268119895 0.8999999999999996 5.0
    vertex 1.9219618872445645 2.9250747860489503 5.0
  endloop
endfacet
facet normal -0.0 -0.0 1.0
  outer loop
    vertex 1.9219618872445645 2.9250747860489503 5.0
    vertex 1.5588457268119895 0.8999999999999996 5.0
    vertex 1.738666487320323 0.46587428118453716 5.0
  endloop
endfacet
facet normal -0.0 -0.0 1.0
  outer loop
    vertex 1.9219618872445645 2.9250747860489503 5.0
    vertex 1.738666487320323 0.46587428118453716 5.0
    vertex 1.7999999999999998 -1.1021821192326178e-16 5.0
  endloop
endfacet
facet normal 0.0 -1.0 0.0
  outer loop
    vertex 57.499999999999986 -2.5 5.0
    vertex 2.4397622430368453 -2.5 0.0
    vertex 57.499999999999986 -2.5 0.0
  endloop
endfacet
facet normal 0.0 -1.0 0.0
  outer loop
    vertex 2.4397622430368453 -2.5 0.0
    vertex 57.499999999999986 -2.5 5.0
    vertex 2.4397622430368453 -2.5 5.0
  endloop
endfacet
facet normal 0.7125468945000489 -0.7016244886962942 0.0
  outer loop
    vertex 2.4397622430368453 -2.5 0.0
    vertex 2.327964939291575 -2.6135376870114535 5.0
    vertex 2.327964939291575 -2.6135376870114535 0.0
  endloop
endfacet
facet normal 0.7125468945000489 -0.7016244886962942 0.0
  outer loop
    vertex 2.327964939291575 -2.6135376870114535 5.0
    vertex 2.4397622430368453 -2.5 0.0
    vertex 2.4397622430368453 -2.5 5.0
  endloop
endfacet
facet normal 0.6148705841620714 -0.7886280268492828 0.0
  outer loop
    vertex 2.327964939291575 -2.6135376870114535 5.0
    vertex 1.9669137540098183 -2.895038908941814 0.0
    vertex 2.327964939291575 -2.6135376870114535 0.0
  endloop
endfacet
facet normal 0.6148705841620714 -0.7886280268492828 0.0
  outer loop
    vertex 1.9669137540098183 -2.895038908941814 0.0
    vertex 2.327964939291575 -2.6135376870114535 5.0
    vertex 1.9669137540098183 -2.895038908941814 5.0
  endloop
endfacet
facet normal 0.5066736676547495 -0.8621379208138826 0.0
  outer loop
    vertex 1.9669137540098183 -2.895038908941814 5.0
    vertex 1.5722081290654384 -3.1270052124837524 0.0
    vertex 1.9669137540098183 -2.895038908941814 0.0
  endloop
endfacet
facet normal 0.5066736676547495 -0.8621379208138826 0.0
  outer loop
    vertex 1.5722081290654384 -3.1270052124837524 0.0
    vertex 1.9669137540098183 -2.895038908941814 5.0
    vertex 1.5722081290654384 -3.1270052124837524 5.0
  endloop
endfacet
facet normal 0.38980742421737474 -0.9208963959235674 0.0
  outer loop
    vertex 1.5722081290654384 -3.1270052124837524 5.0
    vertex 1.1506015871343038 -3.3054675898704593 0.0
    vertex 1.5722081290654384 -3.1270052124837524 0.0
  endloop
endfacet
facet normal 0.38980742421737474 -0.9208963959235674 0.0
  outer loop
    vertex 1.1506015871343038 -3.3054675898704593 0.0
    vertex 1.5722081290654384 -3.1270052124837524 5.0
    vertex 1.1506015871343038 -3.3054675898704593 5.0
  endloop
endfacet
facet normal 0.26627146767660576 -0.963898078378283 0.0
  outer loop
    vertex 1.1506015871343038 -3.3054675898704593 5.0
    vertex 0.709307933040275 -3.4273725003457294 0.0
    vertex 1.1506015871343038 -3.3054675898704593 0.0
  endloop
endfacet
facet normal 0.26627146767660576 -0.963898078378283 0.0
  outer loop
    vertex 0.709307933040275 -3.4273725003457294 0.0
    vertex 1.1506015871343038 -3.3054675898704593 5.0
    vertex 0.709307933040275 -3.4273725003457294 5.0
  endloop
endfacet
facet normal 0.1381795324994912 -0.9904071974689109 0.0
  outer loop
    vertex 0.709307933040275 -3.4273725003457294 5.0
    vertex 0.2558778235546146 -3.4906341170929043 0.0
    vertex 0.709307933040275 -3.4273725003457294 0.0
  endloop
endfacet
facet normal 0.1381795324994912 -0.9904071974689109 0.0
  outer loop
    vertex 0.2558778235546146 -3.4906341170929043 0.0
    vertex 0.709307933040275 -3.4273725003457294 5.0
    vertex 0.2558778235546146 -3.4906341170929043 5.0
  endloop
endfacet
facet normal 0.007723307210705059 -0.9999701748180939 0.0
  outer loop
    vertex 0.2558778235546146 -3.4906341170929043 5.0
    vertex -0.20193042643480236 -3.4941700163100053 0.0
    vertex 0.2558778235546146 -3.4906341170929043 0.0
  endloop
endfacet
facet normal 0.007723307210705059 -0.9999701748180939 0.0
  outer loop
    vertex -0.20193042643480236 -3.4941700163100053 0.0
    vertex 0.2558778235546146 -3.4906341170929043 5.0
    vertex -0.20193042643480236 -3.4941700163100053 5.0
  endloop
endfacet
facet normal -0.12286506600576022 -0.9924233852320291 -0.0
  outer loop
    vertex -0.20193042643480236 -3.4941700163100053 5.0
    vertex -0.6562835908422271 -3.4379196977810915 0.0
    vertex -0.20193042643480236 -3.4941700163100053 0.0
  endloop
endfacet
facet normal -0.12286506600576022 -0.9924233852320291 -0.0
  outer loop
    vertex -0.6562835908422271 -3.4379196977810915 0.0
    vertex -0.20193042643480236 -3.4941700163100053 5.0
    vertex -0.6562835908422271 -3.4379196977810915 5.0
  endloop
endfacet
facet normal -0.25135118387823474 -0.9678959563728996 -0.0
  outer loop
    vertex -0.6562835908422271 -3.4379196977810915 5.0
    vertex -1.0994075610541545 -3.3228456200517282 0.0
    vertex -0.6562835908422271 -3.4379196977810915 0.0
  endloop
endfacet
facet normal -0.25135118387823474 -0.9678959563728996 -0.0
  outer loop
    vertex -1.0994075610541545 -3.3228456200517282 0.0
    vertex -0.6562835908422271 -3.4379196977810915 5.0
    vertex -1.0994075610541545 -3.3228456200517282 5.0
  endloop
endfacet
facet normal -0.37553661330683813 -0.9268075593487736 -0.0
  outer loop
    vertex -1.0994075610541545 -3.3228456200517282 5.0
    vertex -1.5237203630830845 -3.1509167324964262 0.0
    vertex -1.0994075610541545 -3.3228456200517282 0.0
  endloop
endfacet
facet normal -0.37553661330683813 -0.9268075593487736 -0.0
  outer loop
    vertex -1.5237203630830845 -3.1509167324964262 0.0
    vertex -1.0994075610541545 -3.3228456200517282 5.0
    vertex -1.5237203630830845 -3.1509167324964262 5.0
  endloop
endfacet
facet normal -0.4932965071633444 -0.8698612280245881 -0.0
  outer loop
    vertex -1.5237203630830845 -3.1509167324964262 5.0
    vertex -1.9219618872445656 -2.9250747860489494 0.0
    vertex -1.5237203630830845 -3.1509167324964262 0.0
  endloop
endfacet
facet normal -0.4932965071633444 -0.8698612280245881 -0.0
  outer loop
    vertex -1.9219618872445656 -2.9250747860489494 0.0
    vertex -1.5237203630830845 -3.1509167324964262 5.0
    vertex -1.9219618872445656 -2.9250747860489494 5.0
  endloop
endfacet
facet normal -0.6026159610146539 -0.798031329917808 -0.0
  outer loop
    vertex -1.9219618872445656 -2.9250747860489494 5.0
    vertex -2.287318110646787 -2.649183999028232 0.0
    vertex -1.9219618872445656 -2.9250747860489494 0.0
  endloop
endfacet
facet normal -0.6026159610146539 -0.798031329917808 -0.0
  outer loop
    vertex -2.287318110646787 -2.649183999028232 0.0
    vertex -1.9219618872445656 -2.9250747860489494 5.0
    vertex -2.287318110646787 -2.649183999028232 5.0
  endloop
endfacet
facet normal -0.7016244886962942 -0.7125468945000488 -0.0
  outer loop
    vertex -2.287318110646787 -2.649183999028232 5.0
    vertex -2.613537687011453 -2.327964939291575 0.0
    vertex -2.287318110646787 -2.649183999028232 0.0
  endloop
endfacet
facet normal -0.7016244886962942 -0.7125468945000488 -0.0
  outer loop
    vertex -2.613537687011453 -2.327964939291575 0.0
    vertex -2.287318110646787 -2.649183999028232 5.0
    vertex -2.613537687011453 -2.327964939291575 5.0
  endloop
endfacet
facet normal -0.7886280268492817 -0.6148705841620727 -0.0
  outer loop
    vertex -2.895038908941813 -1.9669137540098196 5.0
    vertex -2.613537687011453 -2.327964939291575 0.0
    vertex -2.613537687011453 -2.327964939291575 5.0
  endloop
endfacet
facet normal -0.7886280268492817 -0.6148705841620727 -0.0
  outer loop
    vertex -2.613537687011453 -2.327964939291575 0.0
    vertex -2.895038908941813 -1.9669137540098196 5.0
    vertex -2.895038908941813 -1.9669137540098196 0.0
  endloop
endfacet
facet normal -0.8621379208138827 -0.5066736676547491 -0.0
  outer loop
    vertex -3.1270052124837515 -1.5722081290654395 5.0
    vertex -2.895038908941813 -1.9669137540098196 0.0
    vertex -2.895038908941813 -1.9669137540098196 5.0
  endloop
endfacet
facet normal -0.8621379208138827 -0.5066736676547491 -0.0
  outer loop
    vertex -2.895038908941813 -1.9669137540098196 0.0
    vertex -3.1270052124837515 -1.5722081290654395 5.0
    vertex -3.1270052124837515 -1.5722081290654395 0.0
  endloop
endfacet
facet normal -0.9208963959235666 -0.38980742421737663 -0.0
  outer loop
    vertex -3.3054675898704593 -1.1506015871343056 5.0
    vertex -3.1270052124837515 -1.5722081290654395 0.0
    vertex -3.1270052124837515 -1.5722081290654395 5.0
  endloop
endfacet
facet normal -0.9208963959235666 -0.38980742421737663 -0.0
  outer loop
    vertex -3.1270052124837515 -1.5722081290654395 0.0
    vertex -3.3054675898704593 -1.1506015871343056 5.0
    vertex -3.3054675898704593 -1.1506015871343056 0.0
  endloop
endfacet
facet normal -0.9638980783782836 -0.2662714676766032 -0.0
  outer loop
    vertex -3.427372500345729 -0.7093079330402748 5.0
    vertex -3.3054675898704593 -1.1506015871343056 0.0
    vertex -3.3054675898704593 -1.1506015871343056 5.0
  endloop
endfacet
facet normal -0.9638980783782836 -0.2662714676766032 -0.0
  outer loop
    vertex -3.3054675898704593 -1.1506015871343056 0.0
    vertex -3.427372500345729 -0.7093079330402748 5.0
    vertex -3.427372500345729 -0.7093079330402748 0.0
  endloop
endfacet
facet normal -0.9904071974689106 -0.13817953249949264 -0.0
  outer loop
    vertex -3.4906341170929043 -0.25587782355461425 5.0
    vertex -3.427372500345729 -0.7093079330402748 0.0
    vertex -3.427372500345729 -0.7093079330402748 5.0
  endloop
endfacet
facet normal -0.9904071974689106 -0.13817953249949264 -0.0
  outer loop
    vertex -3.427372500345729 -0.7093079330402748 0.0
    vertex -3.4906341170929043 -0.25587782355461425 5.0
    vertex -3.4906341170929043 -0.25587782355461425 0.0
  endloop
endfacet
facet normal -0.9999701748180939 -0.007723307210705088 -0.0
  outer loop
    vertex -3.4941700163100053 0.20193042643480094 5.0
    vertex -3.4906341170929043 -0.25587782355461425 0.0
    vertex -3.4906341170929043 -0.25587782355461425 5.0
  endloop
endfacet
facet normal -0.9999701748180939 -0.007723307210705088 -0.0
  outer loop
    vertex -3.4906341170929043 -0.25587782355461425 0.0
    vertex -3.4941700163100053 0.20193042643480094 5.0
    vertex -3.4941700163100053 0.20193042643480094 0.0
  endloop
endfacet
facet normal -0.992423385232029 0.12286506600575968 0.0
  outer loop
    vertex -3.4379196977810915 0.6562835908422276 5.0
    vertex -3.4941700163100053 0.20193042643480094 0.0
    vertex -3.4941700163100053 0.20193042643480094 5.0
  endloop
endfacet
facet normal -0.992423385232029 0.12286506600575968 0.0
  outer loop
    vertex -3.4941700163100053 0.20193042643480094 0.0
    vertex -3.4379196977810915 0.6562835908422276 5.0
    vertex -3.4379196977810915 0.6562835908422276 0.0
  endloop
endfacet
facet normal -0.9678959563728999 0.2513511838782336 0.0
  outer loop
    vertex -3.322845620051729 1.0994075610541545 5.0
    vertex -3.4379196977810915 0.6562835908422276 0.0
    vertex -3.4379196977810915 0.6562835908422276 5.0
  endloop
endfacet
facet normal -0.9678959563728999 0.2513511838782336 0.0
  outer loop
    vertex -3.4379196977810915 0.6562835908422276 0.0
    vertex -3.322845620051729 1.0994075610541545 5.0
    vertex -3.322845620051729 1.0994075610541545 0.0
  endloop
endfacet
facet normal -0.9268075593487735 0.3755366133068384 0.0
  outer loop
    vertex -3.1509167324964267 1.5237203630830842 5.0
    vertex -3.322845620051729 1.0994075610541545 0.0
    vertex -3.322845620051729 1.0994075610541545 5.0
  endloop
endfacet
facet normal -0.9268075593487735 0.3755366133068384 0.0
  outer loop
    vertex -3.322845620051729 1.0994075610541545 0.0
    vertex -3.1509167324964267 1.5237203630830842 5.0
    vertex -3.1509167324964267 1.5237203630830842 0.0
  endloop
endfacet
facet normal -0.8698612280245878 0.493296507163345 0.0
  outer loop
    vertex -2.92507478604895 1.9219618872445652 5.0
    vertex -3.1509167324964267 1.5237203630830842 0.0
    vertex -3.1509167324964267 1.5237203630830842 5.0
  endloop
endfacet
facet normal -0.8698612280245878 0.493296507163345 0.0
  outer loop
    vertex -3.1509167324964267 1.5237203630830842 0.0
    vertex -2.92507478604895 1.9219618872445652 5.0
    vertex -2.92507478604895 1.9219618872445652 0.0
  endloop
endfacet
facet normal -0.7980313299178086 0.6026159610146531 0.0
  outer loop
    vertex -2.6491839990282324 2.287318110646787 5.0
    vertex -2.92507478604895 1.9219618872445652 0.0
    vertex -2.92507478604895 1.9219618872445652 5.0
  endloop
endfacet
facet normal -0.7980313299178086 0.6026159610146531 0.0
  outer loop
    vertex -2.92507478604895 1.9219618872445652 0.0
    vertex -2.6491839990282324 2.287318110646787 5.0
    vertex -2.6491839990282324 2.287318110646787 0.0
  endloop
endfacet
facet normal -0.7125468945000488 0.7016244886962943 0.0
  outer loop
    vertex -2.3279649392915753 2.613537687011453 5.0
    vertex -2.6491839990282324 2.287318110646787 0.0
    vertex -2.6491839990282324 2.287318110646787 5.0
  endloop
endfacet
facet normal -0.7125468945000488 0.7016244886962943 0.0
  outer loop
    vertex -2.6491839990282324 2.287318110646787 0.0
    vertex -2.3279649392915753 2.613537687011453 5.0
    vertex -2.3279649392915753 2.613537687011453 0.0
  endloop
endfacet
facet normal -0.6148705841620726 0.7886280268492818 0.0
  outer loop
    vertex -2.3279649392915753 2.613537687011453 5.0
    vertex -1.9669137540098207 2.8950389089418125 0.0
    vertex -2.3279649392915753 2.613537687011453 0.0
  endloop
endfacet
facet normal -0.6148705841620726 0.7886280268492818 0.0
  outer loop
    vertex -1.9669137540098207 2.8950389089418125 0.0
    vertex -2.3279649392915753 2.613537687011453 5.0
    vertex -1.9669137540098207 2.8950389089418125 5.0
  endloop
endfacet
facet normal -0.5066736676547494 0.8621379208138827 0.0
  outer loop
    vertex -1.9669137540098207 2.8950389089418125 5.0
    vertex -1.5722081290654402 3.1270052124837515 0.0
    vertex -1.9669137540098207 2.8950389089418125 0.0
  endloop
endfacet
facet normal -0.5066736676547494 0.8621379208138827 0.0
  outer loop
    vertex -1.5722081290654402 3.1270052124837515 0.0
    vertex -1.9669137540098207 2.8950389089418125 5.0
    vertex -1.5722081290654402 3.1270052124837515 5.0
  endloop
endfacet
facet normal -0.38980742421737663 0.9208963959235666 0.0
  outer loop
    vertex -1.5722081290654402 3.1270052124837515 5.0
    vertex -1.1506015871343063 3.3054675898704593 0.0
    vertex -1.5722081290654402 3.1270052124837515 0.0
  endloop
endfacet
facet normal -0.38980742421737663 0.9208963959235666 0.0
  outer loop
    vertex -1.1506015871343063 3.3054675898704593 0.0
    vertex -1.5722081290654402 3.1270052124837515 5.0
    vertex -1.1506015871343063 3.3054675898704593 5.0
  endloop
endfacet
facet normal -0.2662714676766036 0.9638980783782836 0.0
  outer loop
    vertex -1.1506015871343063 3.3054675898704593 5.0
    vertex -0.7093079330402762 3.427372500345729 0.0
    vertex -1.1506015871343063 3.3054675898704593 0.0
  endloop
endfacet
facet normal -0.2662714676766036 0.9638980783782836 0.0
  outer loop
    vertex -0.7093079330402762 3.427372500345729 0.0
    vertex -1.1506015871343063 3.3054675898704593 5.0
    vertex -0.7093079330402762 3.427372500345729 5.0
  endloop
endfacet
facet normal -0.13817953249949252 0.9904071974689106 0.0
  outer loop
    vertex -0.7093079330402762 3.427372500345729 5.0
    vertex -0.2558778235546153 3.4906341170929043 0.0
    vertex -0.7093079330402762 3.427372500345729 0.0
  endloop
endfacet
facet normal -0.13817953249949252 0.9904071974689106 0.0
  outer loop
    vertex -0.2558778235546153 3.4906341170929043 0.0
    vertex -0.7093079330402762 3.427372500345729 5.0
    vertex -0.2558778235546153 3.4906341170929043 5.0
  endloop
endfacet
facet normal -0.007723307210705082 0.9999701748180939 0.0
  outer loop
    vertex -0.2558778235546153 3.4906341170929043 5.0
    vertex 0.20193042643480025 3.4941700163100053 0.0
    vertex -0.2558778235546153 3.4906341170929043 0.0
  endloop
endfacet
facet normal -0.007723307210705082 0.9999701748180939 0.0
  outer loop
    vertex 0.20193042643480025 3.4941700163100053 0.0
    vertex -0.2558778235546153 3.4906341170929043 5.0
    vertex 0.20193042643480025 3.4941700163100053 5.0
  endloop
endfacet
facet normal 0.12286506600575842 0.9924233852320293 0.0
  outer loop
    vertex 0.20193042643480025 3.4941700163100053 5.0
    vertex 0.6562835908422261 3.4379196977810924 0.0
    vertex 0.20193042643480025 3.4941700163100053 0.0
  endloop
endfacet
facet normal 0.12286506600575842 0.9924233852320293 0.0
  outer loop
    vertex 0.6562835908422261 3.4379196977810924 0.0
    vertex 0.20193042643480025 3.4941700163100053 5.0
    vertex 0.6562835908422261 3.4379196977810924 5.0
  endloop
endfacet
facet normal 0.25135118387823463 0.9678959563728996 0.0
  outer loop
    vertex 0.6562835908422261 3.4379196977810924 5.0
    vertex 1.0994075610541536 3.322845620051729 0.0
    vertex 0.6562835908422261 3.4379196977810924 0.0
  endloop
endfacet
facet normal 0.25135118387823463 0.9678959563728996 0.0
  outer loop
    vertex 1.0994075610541536 3.322845620051729 0.0
    vertex 0.6562835908422261 3.4379196977810924 5.0
    vertex 1.0994075610541536 3.322845620051729 5.0
  endloop
endfacet
facet normal 0.375536613306838 0.9268075593487737 0.0
  outer loop
    vertex 1.0994075610541536 3.322845620051729 5.0
    vertex 1.523720363083083 3.150916732496427 0.0
    vertex 1.0994075610541536 3.322845620051729 0.0
  endloop
endfacet
facet normal 0.375536613306838 0.9268075593487737 0.0
  outer loop
    vertex 1.523720363083083 3.150916732496427 0.0
    vertex 1.0994075610541536 3.322845620051729 5.0
    vertex 1.523720363083083 3.150916732496427 5.0
  endloop
endfacet
facet normal 0.49329650716334456 0.8698612280245882 0.0
  outer loop
    vertex 1.523720363083083 3.150916732496427 5.0
    vertex 1.9219618872445645 2.9250747860489503 0.0
    vertex 1.523720363083083 3.150916732496427 0.0
  endloop
endfacet
facet normal 0.49329650716334456 0.8698612280245882 0.0
  outer loop
    vertex 1.9219618872445645 2.9250747860489503 0.0
    vertex 1.523720363083083 3.150916732496427 5.0
    vertex 1.9219618872445645 2.9250747860489503 5.0
  endloop
endfacet
facet normal 0.6026159610146531 0.7980313299178086 0.0
  outer loop
    vertex 1.9219618872445645 2.9250747860489503 5.0
    vertex 2.2873181106467864 2.649183999028233 0.0
    vertex 1.9219618872445645 2.9250747860489503 0.0
  endloop
endfacet
facet normal 0.6026159610146531 0.7980313299178086 0.0
  outer loop
    vertex 2.2873181106467864 2.649183999028233 0.0
    vertex 1.9219618872445645 2.9250747860489503 5.0
    vertex 2.2873181106467864 2.649183999028233 5.0
  endloop
endfacet
facet normal 0.7016244886962842 0.7125468945000587 0.0
  outer loop
    vertex 2.2873181106467864 2.649183999028233 5.0
    vertex 2.4388245032104043 2.5 0.0
    vertex 2.2873181106467864 2.649183999028233 0.0
  endloop
endfacet
facet normal 0.7016244886962842 0.7125468945000587 0.0
  outer loop
    vertex 2.4388245032104043 2.5 0.0
    vertex 2.2873181106467864 2.649183999028233 5.0
    vertex 2.4388245032104043 2.5 5.0
  endloop
endfacet
facet normal -0.0 1.0 -0.0
  outer loop
    vertex 2.4388245032104043 2.5 5.0
    vertex 57.499999999999986 2.5 0.0
    vertex 2.4388245032104043 2.5 0.0
  endloop
endfacet
facet normal -0.0 1.0 -0.0
  outer loop
    vertex 57.499999999999986 2.5 0.0
    vertex 2.4388245032104043 2.5 5.0
    vertex 57.499999999999986 2.5 5.0
  endloop
endfacet
facet normal 0.07845909572784514 0.9969173337331281 -0.0
  outer loop
    vertex 57.499999999999986 2.5 5.0
    vertex 57.89108616260056 2.469220851487844 0.0
    vertex 57.499999999999986 2.5 0.0
  endloop
endfacet
facet normal 0.07845909572784514 0.9969173337331281 -0.0
  outer loop
    vertex 57.89108616260056 2.469220851487844 0.0
    vertex 57.499999999999986 2.5 5.0
    vertex 57.89108616260056 2.469220851487844 5.0
  endloop
endfacet
facet normal 0.23344536385590425 0.972369920397677 -0.0
  outer loop
    vertex 57.89108616260056 2.469220851487844 5.0
    vertex 58.27254248593736 2.3776412907378837 0.0
    vertex 57.89108616260056 2.469220851487844 0.0
  endloop
endfacet
facet normal 0.23344536385590425 0.972369920397677 -0.0
  outer loop
    vertex 58.27254248593736 2.3776412907378837 0.0
    vertex 57.89108616260056 2.469220851487844 5.0
    vertex 58.27254248593736 2.3776412907378837 5.0
  endloop
endfacet
facet normal 0.38268343236508934 0.9238795325112871 -0.0
  outer loop
    vertex 58.27254248593736 2.3776412907378837 5.0
    vertex 58.63497624934885 2.2275163104709192 0.0
    vertex 58.27254248593736 2.3776412907378837 0.0
  endloop
endfacet
facet normal 0.38268343236508934 0.9238795325112871 -0.0
  outer loop
    vertex 58.63497624934885 2.2275163104709192 0.0
    vertex 58.27254248593736 2.3776412907378837 5.0
    vertex 58.63497624934885 2.2275163104709192 5.0
  endloop
endfacet
facet normal 0.5224985647159544 0.8526401643540888 -0.0
  outer loop
    vertex 58.63497624934885 2.2275163104709192 5.0
    vertex 58.969463130731164 2.0225424859373686 0.0
    vertex 58.63497624934885 2.2275163104709192 0.0
  endloop
endfacet
facet normal 0.5224985647159544 0.8526401643540888 -0.0
  outer loop
    vertex 58.969463130731164 2.0225424859373686 0.0
    vertex 58.63497624934885 2.2275163104709192 5.0
    vertex 58.969463130731164 2.0225424859373686 5.0
  endloop
endfacet
facet normal 0.6494480483301759 0.7604059656000378 -0.0
  outer loop
    vertex 58.969463130731164 2.0225424859373686 5.0
    vertex 59.267766952966355 1.7677669529663687 0.0
    vertex 58.969463130731164 2.0225424859373686 0.0
  endloop
endfacet
facet normal 0.6494480483301759 0.7604059656000378 -0.0
  outer loop
    vertex 59.267766952966355 1.7677669529663687 0.0
    vertex 58.969463130731164 2.0225424859373686 5.0
    vertex 59.267766952966355 1.7677669529663687 5.0
  endloop
endfacet
facet normal 0.7604059656000366 0.6494480483301773 -0.0
  outer loop
    vertex 59.267766952966355 1.7677669529663687 0.0
    vertex 59.52254248593735 1.4694631307311825 5.0
    vertex 59.52254248593735 1.4694631307311825 0.0
  endloop
endfacet
facet normal 0.7604059656000366 0.6494480483301773 -0.0
  outer loop
    vertex 59.52254248593735 1.4694631307311825 5.0
    vertex 59.267766952966355 1.7677669529663687 0.0
    vertex 59.267766952966355 1.7677669529663687 5.0
  endloop
endfacet
facet normal 0.8526401643540913 0.5224985647159508 -0.0
  outer loop
    vertex 59.52254248593735 1.4694631307311825 0.0
    vertex 59.727516310470904 1.1349762493488669 5.0
    vertex 59.727516310470904 1.1349762493488669 0.0
  endloop
endfacet
facet normal 0.8526401643540913 0.5224985647159508 -0.0
  outer loop
    vertex 59.727516310470904 1.1349762493488669 5.0
    vertex 59.52254248593735 1.4694631307311825 0.0
    vertex 59.52254248593735 1.4694631307311825 5.0
  endloop
endfacet
facet normal 0.9238795325112881 0.38268343236508684 -0.0
  outer loop
    vertex 59.727516310470904 1.1349762493488669 0.0
    vertex 59.87764129073787 0.7725424859373683 5.0
    vertex 59.87764129073787 0.7725424859373683 0.0
  endloop
endfacet
facet normal 0.9238795325112881 0.38268343236508684 -0.0
  outer loop
    vertex 59.87764129073787 0.7725424859373683 5.0
    vertex 59.727516310470904 1.1349762493488669 0.0
    vertex 59.727516310470904 1.1349762493488669 5.0
  endloop
endfacet
facet normal 0.9723699203976751 0.23344536385591183 -0.0
  outer loop
    vertex 59.87764129073787 0.7725424859373683 0.0
    vertex 59.96922085148783 0.39108616260057705 5.0
    vertex 59.96922085148783 0.39108616260057705 0.0
  endloop
endfacet
facet normal 0.9723699203976751 0.23344536385591183 -0.0
  outer loop
    vertex 59.96922085148783 0.39108616260057705 5.0
    vertex 59.87764129073787 0.7725424859373683 0.0
    vertex 59.87764129073787 0.7725424859373683 5.0
  endloop
endfacet
facet normal 0.9969173337331294 0.07845909572782722 -0.0
  outer loop
    vertex 59.96922085148783 0.39108616260057705 0.0
    vertex 59.99999999999998 -1.5308084989341916e-16 5.0
    vertex 59.99999999999998 -1.5308084989341916e-16 0.0
  endloop
endfacet
facet normal 0.9969173337331294 0.07845909572782722 -0.0
  outer loop
    vertex 59.99999999999998 -1.5308084989341916e-16 5.0
    vertex 59.96922085148783 0.39108616260057705 0.0
    vertex 59.96922085148783 0.39108616260057705 5.0
  endloop
endfacet
facet normal 0.9969173337331294 -0.07845909572782722 -0.0
  outer loop
    vertex 59.99999999999998 -1.5308084989341916e-16 0.0
    vertex 59.96922085148783 -0.3910861626005773 5.0
    vertex 59.96922085148783 -0.3910861626005773 0.0
  endloop
endfacet
facet normal 0.9969173337331294 -0.07845909572782722 -0.0
  outer loop
    vertex 59.96922085148783 -0.3910861626005773 5.0
    vertex 59.99999999999998 -1.5308084989341916e-16 0.0
    vertex 59.99999999999998 -1.5308084989341916e-16 5.0
  endloop
endfacet
facet normal 0.9723699203976751 -0.23344536385591183 -0.0
  outer loop
    vertex 59.96922085148783 -0.3910861626005773 0.0
    vertex 59.87764129073787 -0.7725424859373686 5.0
    vertex 59.87764129073787 -0.7725424859373686 0.0
  endloop
endfacet
facet normal 0.9723699203976751 -0.23344536385591183 -0.0
  outer loop
    vertex 59.87764129073787 -0.7725424859373686 5.0
    vertex 59.96922085148783 -0.3910861626005773 0.0
    vertex 59.96922085148783 -0.3910861626005773 5.0
  endloop
endfacet
facet normal 0.9238795325112881 -0.3826834323650872 -0.0
  outer loop
    vertex 59.87764129073787 -0.7725424859373686 0.0
    vertex 59.727516310470904 -1.1349762493488669 5.0
    vertex 59.727516310470904 -1.1349762493488669 0.0
  endloop
endfacet
facet normal 0.9238795325112881 -0.3826834323650872 -0.0
  outer loop
    vertex 59.727516310470904 -1.1349762493488669 5.0
    vertex 59.87764129073787 -0.7725424859373686 0.0
    vertex 59.87764129073787 -0.7725424859373686 5.0
  endloop
endfacet
facet normal 0.8526401643540914 -0.5224985647159504 -0.0
  outer loop
    vertex 59.727516310470904 -1.1349762493488669 0.0
    vertex 59.52254248593735 -1.469463130731183 5.0
    vertex 59.52254248593735 -1.469463130731183 0.0
  endloop
endfacet
facet normal 0.8526401643540914 -0.5224985647159504 -0.0
  outer loop
    vertex 59.52254248593735 -1.469463130731183 5.0
    vertex 59.727516310470904 -1.1349762493488669 0.0
    vertex 59.727516310470904 -1.1349762493488669 5.0
  endloop
endfacet
facet normal 0.7604059656000366 -0.6494480483301773 -0.0
  outer loop
    vertex 59.52254248593735 -1.469463130731183 0.0
    vertex 59.267766952966355 -1.767766952966369 5.0
    vertex 59.267766952966355 -1.767766952966369 0.0
  endloop
endfacet
facet normal 0.7604059656000366 -0.6494480483301773 -0.0
  outer loop
    vertex 59.267766952966355 -1.767766952966369 5.0
    vertex 59.52254248593735 -1.469463130731183 0.0
    vertex 59.52254248593735 -1.469463130731183 5.0
  endloop
endfacet
facet normal 0.6494480483301758 -0.7604059656000377 0.0
  outer loop
    vertex 59.267766952966355 -1.767766952966369 5.0
    vertex 58.969463130731164 -2.0225424859373686 0.0
    vertex 59.267766952966355 -1.767766952966369 0.0
  endloop
endfacet
facet normal 0.6494480483301758 -0.7604059656000377 0.0
  outer loop
    vertex 58.969463130731164 -2.0225424859373686 0.0
    vertex 59.267766952966355 -1.767766952966369 5.0
    vertex 58.969463130731164 -2.0225424859373686 5.0
  endloop
endfacet
facet normal 0.5224985647159544 -0.8526401643540888 0.0
  outer loop
    vertex 58.969463130731164 -2.0225424859373686 5.0
    vertex 58.63497624934885 -2.2275163104709197 0.0
    vertex 58.969463130731164 -2.0225424859373686 0.0
  endloop
endfacet
facet normal 0.5224985647159544 -0.8526401643540888 0.0
  outer loop
    vertex 58.63497624934885 -2.2275163104709197 0.0
    vertex 58.969463130731164 -2.0225424859373686 5.0
    vertex 58.63497624934885 -2.2275163104709197 5.0
  endloop
endfacet
facet normal 0.38268343236508856 -0.9238795325112873 0.0
  outer loop
    vertex 58.63497624934885 -2.2275163104709197 5.0
    vertex 58.27254248593736 -2.3776412907378837 0.0
    vertex 58.63497624934885 -2.2275163104709197 0.0
  endloop
endfacet
facet normal 0.38268343236508856 -0.9238795325112873 0.0
  outer loop
    vertex 58.27254248593736 -2.3776412907378837 0.0
    vertex 58.63497624934885 -2.2275163104709197 5.0
    vertex 58.27254248593736 -2.3776412907378837 5.0
  endloop
endfacet
facet normal 0.23344536385590425 -0.972369920397677 0.0
  outer loop
    vertex 58.27254248593736 -2.3776412907378837 5.0
    vertex 57.89108616260056 -2.469220851487844 0.0
    vertex 58.27254248593736 -2.3776412907378837 0.0
  endloop
endfacet
facet normal 0.23344536385590425 -0.972369920397677 0.0
  outer loop
    vertex 57.89108616260056 -2.469220851487844 0.0
    vertex 58.27254248593736 -2.3776412907378837 5.0
    vertex 57.89108616260056 -2.469220851487844 5.0
  endloop
endfacet
facet normal 0.07845909572784514 -0.9969173337331281 0.0
  outer loop
    vertex 57.89108616260056 -2.469220851487844 5.0
    vertex 57.499999999999986 -2.5 0.0
    vertex 57.89108616260056 -2.469220851487844 0.0
  endloop
endfacet
facet normal 0.07845909572784514 -0.9969173337331281 0.0
  outer loop
    vertex 57.499999999999986 -2.5 0.0
    vertex 57.89108616260056 -2.469220851487844 5.0
    vertex 57.499999999999986 -2.5 5.0
  endloop
endfacet
facet normal -0.13052619222005132 0.9914448613738105 0.0
  outer loop
    vertex 0.0 -1.7999999999999998 5.0
    vertex 0.46587428118453733 -1.738666487320323 0.0
    vertex 0.0 -1.7999999999999998 0.0
  endloop
endfacet
facet normal -0.13052619222005132 0.9914448613738105 0.0
  outer loop
    vertex 0.46587428118453733 -1.738666487320323 0.0
    vertex 0.0 -1.7999999999999998 5.0
    vertex 0.46587428118453733 -1.738666487320323 5.0
  endloop
endfacet
facet normal -0.3826834323650899 0.9238795325112867 0.0
  outer loop
    vertex 0.46587428118453733 -1.738666487320323 5.0
    vertex 0.8999999999999998 -1.5588457268119895 0.0
    vertex 0.46587428118453733 -1.738666487320323 0.0
  endloop
endfacet
facet normal -0.3826834323650899 0.9238795325112867 0.0
  outer loop
    vertex 0.8999999999999998 -1.5588457268119895 0.0
    vertex 0.46587428118453733 -1.738666487320323 5.0
    vertex 0.8999999999999998 -1.5588457268119895 5.0
  endloop
endfacet
facet normal -0.6087614290087203 0.7933533402912356 0.0
  outer loop
    vertex 0.8999999999999998 -1.5588457268119895 5.0
    vertex 1.2727922061357857 -1.2727922061357857 0.0
    vertex 0.8999999999999998 -1.5588457268119895 0.0
  endloop
endfacet
facet normal -0.6087614290087203 0.7933533402912356 0.0
  outer loop
    vertex 1.2727922061357857 -1.2727922061357857 0.0
    vertex 0.8999999999999998 -1.5588457268119895 5.0
    vertex 1.2727922061357857 -1.2727922061357857 5.0
  endloop
endfacet
facet normal -0.7933533402912354 0.6087614290087204 0.0
  outer loop
    vertex 1.5588457268119895 -0.9000000000000001 5.0
    vertex 1.2727922061357857 -1.2727922061357857 0.0
    vertex 1.2727922061357857 -1.2727922061357857 5.0
  endloop
endfacet
facet normal -0.7933533402912354 0.6087614290087204 0.0
  outer loop
    vertex 1.2727922061357857 -1.2727922061357857 0.0
    vertex 1.5588457268119895 -0.9000000000000001 5.0
    vertex 1.5588457268119895 -0.9000000000000001 0.0
  endloop
endfacet
facet normal -0.923879532511287 0.3826834323650896 0.0
  outer loop
    vertex 1.7386664873203226 -0.46587428118453766 5.0
    vertex 1.5588457268119895 -0.9000000000000001 0.0
    vertex 1.5588457268119895 -0.9000000000000001 5.0
  endloop
endfacet
facet normal -0.923879532511287 0.3826834323650896 0.0
  outer loop
    vertex 1.5588457268119895 -0.9000000000000001 0.0
    vertex 1.7386664873203226 -0.46587428118453766 5.0
    vertex 1.7386664873203226 -0.46587428118453766 0.0
  endloop
endfacet
facet normal -0.9914448613738104 0.13052619222005196 0.0
  outer loop
    vertex 1.7999999999999998 -1.1021821192326178e-16 5.0
    vertex 1.7386664873203226 -0.46587428118453766 0.0
    vertex 1.7386664873203226 -0.46587428118453766 5.0
  endloop
endfacet
facet normal -0.9914448613738104 0.13052619222005196 0.0
  outer loop
    vertex 1.7386664873203226 -0.46587428118453766 0.0
    vertex 1.7999999999999998 -1.1021821192326178e-16 5.0
    vertex 1.7999999999999998 -1.1021821192326178e-16 0.0
  endloop
endfacet
facet normal -0.9914448613738105 -0.13052619222005135 -0.0
  outer loop
    vertex 1.738666487320323 0.46587428118453716 5.0
    vertex 1.7999999999999998 -1.1021821192326178e-16 0.0
    vertex 1.7999999999999998 -1.1021821192326178e-16 5.0
  endloop
endfacet
facet normal -0.9914448613738105 -0.13052619222005135 -0.0
  outer loop
    vertex 1.7999999999999998 -1.1021821192326178e-16 0.0
    vertex 1.738666487320323 0.46587428118453716 5.0
    vertex 1.738666487320323 0.46587428118453716 0.0
  endloop
endfacet
facet normal -0.9238795325112867 -0.3826834323650899 -0.0
  outer loop
    vertex 1.5588457268119895 0.8999999999999996 5.0
    vertex 1.738666487320323 0.46587428118453716 0.0
    vertex 1.738666487320323 0.46587428118453716 5.0
  endloop
endfacet
facet normal -0.9238795325112867 -0.3826834323650899 -0.0
  outer loop
    vertex 1.738666487320323 0.46587428118453716 0.0
    vertex 1.5588457268119895 0.8999999999999996 5.0
    vertex 1.5588457268119895 0.8999999999999996 0.0
  endloop
endfacet
facet normal -0.7933533402912353 -0.6087614290087204 -0.0
  outer loop
    vertex 1.2727922061357857 1.2727922061357853 5.0
    vertex 1.5588457268119895 0.8999999999999996 0.0
    vertex 1.5588457268119895 0.8999999999999996 5.0
  endloop
endfacet
facet normal -0.7933533402912353 -0.6087614290087204 -0.0
  outer loop
    vertex 1.5588457268119895 0.8999999999999996 0.0
    vertex 1.2727922061357857 1.2727922061357853 5.0
    vertex 1.2727922061357857 1.2727922061357853 0.0
  endloop
endfacet
facet normal -0.608761429008721 -0.7933533402912349 -0.0
  outer loop
    vertex 1.2727922061357857 1.2727922061357853 5.0
    vertex 0.9000000000000005 1.5588457268119893 0.0
    vertex 1.2727922061357857 1.2727922061357853 0.0
  endloop
endfacet
facet normal -0.608761429008721 -0.7933533402912349 -0.0
  outer loop
    vertex 0.9000000000000005 1.5588457268119893 0.0
    vertex 1.2727922061357857 1.2727922061357853 5.0
    vertex 0.9000000000000005 1.5588457268119893 5.0
  endloop
endfacet
facet normal -0.38268343236508967 -0.9238795325112867 -0.0
  outer loop
    vertex 0.9000000000000005 1.5588457268119893 5.0
    vertex 0.4658742811845378 1.7386664873203226 0.0
    vertex 0.9000000000000005 1.5588457268119893 0.0
  endloop
endfacet
facet normal -0.38268343236508967 -0.9238795325112867 -0.0
  outer loop
    vertex 0.4658742811845378 1.7386664873203226 0.0
    vertex 0.9000000000000005 1.5588457268119893 5.0
    vertex 0.4658742811845378 1.7386664873203226 5.0
  endloop
endfacet
facet normal -0.130526192220052 -0.9914448613738104 -0.0
  outer loop
    vertex 0.4658742811845378 1.7386664873203226 5.0
    vertex 2.2043642384652356e-16 1.7999999999999998 0.0
    vertex 0.4658742811845378 1.7386664873203226 0.0
  endloop
endfacet
facet normal -0.130526192220052 -0.9914448613738104 -0.0
  outer loop
    vertex 2.2043642384652356e-16 1.7999999999999998 0.0
    vertex 0.4658742811845378 1.7386664873203226 5.0
    vertex 2.2043642384652356e-16 1.7999999999999998 5.0
  endloop
endfacet
facet normal 0.13052619222005143 -0.9914448613738105 0.0
  outer loop
    vertex 2.2043642384652356e-16 1.7999999999999998 5.0
    vertex -0.4658742811845366 1.738666487320323 0.0
    vertex 2.2043642384652356e-16 1.7999999999999998 0.0
  endloop
endfacet
facet normal 0.13052619222005143 -0.9914448613738105 0.0
  outer loop
    vertex -0.4658742811845366 1.738666487320323 0.0
    vertex 2.2043642384652356e-16 1.7999999999999998 5.0
    vertex -0.4658742811845366 1.738666487320323 5.0
  endloop
endfacet
facet normal 0.3826834323650893 -0.923879532511287 0.0
  outer loop
    vertex -0.4658742811845366 1.738666487320323 5.0
    vertex -0.8999999999999994 1.5588457268119897 0.0
    vertex -0.4658742811845366 1.738666487320323 0.0
  endloop
endfacet
facet normal 0.3826834323650893 -0.923879532511287 0.0
  outer loop
    vertex -0.8999999999999994 1.5588457268119897 0.0
    vertex -0.4658742811845366 1.738666487320323 5.0
    vertex -0.8999999999999994 1.5588457268119897 5.0
  endloop
endfacet
facet normal 0.6087614290087203 -0.7933533402912355 0.0
  outer loop
    vertex -0.8999999999999994 1.5588457268119897 5.0
    vertex -1.2727922061357848 1.2727922061357861 0.0
    vertex -0.8999999999999994 1.5588457268119897 0.0
  endloop
endfacet
facet normal 0.6087614290087203 -0.7933533402912355 0.0
  outer loop
    vertex -1.2727922061357848 1.2727922061357861 0.0
    vertex -0.8999999999999994 1.5588457268119897 5.0
    vertex -1.2727922061357848 1.2727922061357861 5.0
  endloop
endfacet
facet normal 0.7933533402912345 -0.6087614290087214 0.0
  outer loop
    vertex -1.2727922061357848 1.2727922061357861 0.0
    vertex -1.5588457268119893 0.9000000000000008 5.0
    vertex -1.5588457268119893 0.9000000000000008 0.0
  endloop
endfacet
facet normal 0.7933533402912345 -0.6087614290087214 0.0
  outer loop
    vertex -1.5588457268119893 0.9000000000000008 5.0
    vertex -1.2727922061357848 1.2727922061357861 0.0
    vertex -1.2727922061357848 1.2727922061357861 5.0
  endloop
endfacet
facet normal 0.9238795325112866 -0.38268343236509017 0.0
  outer loop
    vertex -1.5588457268119893 0.9000000000000008 0.0
    vertex -1.7386664873203226 0.4658742811845387 5.0
    vertex -1.7386664873203226 0.4658742811845387 0.0
  endloop
endfacet
facet normal 0.9238795325112866 -0.38268343236509017 0.0
  outer loop
    vertex -1.7386664873203226 0.4658742811845387 5.0
    vertex -1.5588457268119893 0.9000000000000008 0.0
    vertex -1.5588457268119893 0.9000000000000008 5.0
  endloop
endfacet
facet normal 0.9914448613738105 -0.13052619222005177 0.0
  outer loop
    vertex -1.7386664873203226 0.4658742811845387 0.0
    vertex -1.7999999999999998 3.306546357697853e-16 5.0
    vertex -1.7999999999999998 3.306546357697853e-16 0.0
  endloop
endfacet
facet normal 0.9914448613738105 -0.13052619222005177 0.0
  outer loop
    vertex -1.7999999999999998 3.306546357697853e-16 5.0
    vertex -1.7386664873203226 0.4658742811845387 0.0
    vertex -1.7386664873203226 0.4658742811845387 5.0
  endloop
endfacet
facet normal 0.9914448613738105 0.13052619222005143 0.0
  outer loop
    vertex -1.7999999999999998 3.306546357697853e-16 0.0
    vertex -1.738666487320323 -0.4658742811845365 5.0
    vertex -1.738666487320323 -0.4658742811845365 0.0
  endloop
endfacet
facet normal 0.9914448613738105 0.13052619222005143 0.0
  outer loop
    vertex -1.738666487320323 -0.4658742811845365 5.0
    vertex -1.7999999999999998 3.306546357697853e-16 0.0
    vertex -1.7999999999999998 3.306546357697853e-16 5.0
  endloop
endfacet
facet normal 0.923879532511287 0.3826834323650891 0.0
  outer loop
    vertex -1.738666487320323 -0.4658742811845365 0.0
    vertex -1.5588457268119902 -0.8999999999999987 5.0
    vertex -1.5588457268119902 -0.8999999999999987 0.0
  endloop
endfacet
facet normal 0.923879532511287 0.3826834323650891 0.0
  outer loop
    vertex -1.5588457268119902 -0.8999999999999987 5.0
    vertex -1.738666487320323 -0.4658742811845365 0.0
    vertex -1.738666487320323 -0.4658742811845365 5.0
  endloop
endfacet
facet normal 0.7933533402912355 0.6087614290087201 0.0
  outer loop
    vertex -1.5588457268119902 -0.8999999999999987 0.0
    vertex -1.2727922061357857 -1.272792206135785 5.0
    vertex -1.2727922061357857 -1.272792206135785 0.0
  endloop
endfacet
facet normal 0.7933533402912355 0.6087614290087201 0.0
  outer loop
    vertex -1.2727922061357857 -1.272792206135785 5.0
    vertex -1.5588457268119902 -0.8999999999999987 0.0
    vertex -1.5588457268119902 -0.8999999999999987 5.0
  endloop
endfacet
facet normal 0.608761429008721 0.7933533402912349 0.0
  outer loop
    vertex -1.2727922061357857 -1.272792206135785 5.0
    vertex -0.9000000000000008 -1.5588457268119889 0.0
    vertex -1.2727922061357857 -1.272792206135785 0.0
  endloop
endfacet
facet normal 0.608761429008721 0.7933533402912349 0.0
  outer loop
    vertex -0.9000000000000008 -1.5588457268119889 0.0
    vertex -1.2727922061357857 -1.272792206135785 5.0
    vertex -0.9000000000000008 -1.5588457268119889 5.0
  endloop
endfacet
facet normal 0.38268343236509084 0.9238795325112863 0.0
  outer loop
    vertex -0.9000000000000008 -1.5588457268119889 5.0
    vertex -0.46587428118453883 -1.7386664873203226 0.0
    vertex -0.9000000000000008 -1.5588457268119889 0.0
  endloop
endfacet
facet normal 0.38268343236509084 0.9238795325112863 0.0
  outer loop
    vertex -0.46587428118453883 -1.7386664873203226 0.0
    vertex -0.9000000000000008 -1.5588457268119889 5.0
    vertex -0.46587428118453883 -1.7386664873203226 5.0
  endloop
endfacet
facet normal 0.13052619222005163 0.9914448613738104 0.0
  outer loop
    vertex -0.46587428118453883 -1.7386664873203226 5.0
    vertex 0.0 -1.7999999999999998 0.0
    vertex -0.46587428118453883 -1.7386664873203226 0.0
  endloop
endfacet
facet normal 0.13052619222005163 0.9914448613738104 0.0
  outer loop
    vertex 0.0 -1.7999999999999998 0.0
    vertex -0.46587428118453883 -1.7386664873203226 5.0
    vertex 0.0 -1.7999999999999998 5.0
  endloop
endfacet
endsolid RotorHazard Leg 60mm
