solid RotorHazard Standoff M2.5 11.5mm
facet normal -0.0 -0.0 1.0
  outer loop
    vertex -1.2944192993334933 -2.7063774085505874 11.5
    vertex -1.4202271486148954 0.11653259774502489 11.5
    vertex -1.6365985006357606 -2.5142683523675 11.5
  endloop
endfacet
facet normal -0.0 -0.0 1.0
  outer loop
    vertex -1.4202271486148954 0.11653259774502489 11.5
    vertex -1.2944192993334933 -2.7063774085505874 11.5
    vertex -1.4019949377156937 -0.2550199886667086 11.5
  endloop
endfacet
facet normal -0.0 -0.0 1.0
  outer loop
    vertex -1.4019949377156937 -0.2550199886667086 11.5
    vertex -1.2944192993334933 -2.7063774085505874 11.5
    vertex -1.288219088717349 -0.6091933842912631 11.5
  endloop
endfacet
facet normal -0.0 -0.0 1.0
  outer loop
    vertex -1.288219088717349 -0.6091933842912631 11.5
    vertex -1.2944192993334933 -2.7063774085505874 11.5
    vertex -0.9300922249388014 -2.8521795969237975 11.5
  endloop
endfacet
facet normal -0.0 -0.0 1.0
  outer loop
    vertex -1.288219088717349 -0.6091933842912631 11.5
    vertex -0.9300922249388014 -2.8521795969237975 11.5
    vertex -1.0866532377056184 -0.9218512575160358 11.5
  endloop
endfacet
facet normal -0.0 -0.0 1.0
  outer loop
    vertex -1.0866532377056184 -0.9218512575160358 11.5
    vertex -0.9300922249388014 -2.8521795969237975 11.5
    vertex -0.8110337643236322 -1.1716864909723244 11.5
  endloop
endfacet
facet normal -0.0 -0.0 1.0
  outer loop
    vertex -0.8110337643236322 -1.1716864909723244 11.5
    vertex -0.9300922249388014 -2.8521795969237975 11.5
    vertex -0.5498510147051244 -2.9491802016200617 11.5
  endloop
endfacet
facet normal -0.0 -0.0 1.0
  outer loop
    vertex -0.8110337643236322 -1.1716864909723244 11.5
    vertex -0.5498510147051244 -2.9491802016200617 11.5
    vertex -0.4801436801996578 -1.3416732263723268 11.5
  endloop
endfacet
facet normal -0.0 -0.0 1.0
  outer loop
    vertex -0.4801436801996578 -1.3416732263723268 11.5
    vertex -0.5498510147051244 -2.9491802016200617 11.5
    vertex -0.1602017011623411 -2.99571951539938 11.5
  endloop
endfacet
facet normal -0.0 -0.0 1.0
  outer loop
    vertex -0.4801436801996578 -1.3416732263723268 11.5
    vertex -0.1602017011623411 -2.99571951539938 11.5
    vertex -0.11653259774502499 -1.4202271486148956 11.5
  endloop
endfacet
facet normal -0.0 -0.0 1.0
  outer loop
    vertex -0.11653259774502499 -1.4202271486148956 11.5
    vertex -0.1602017011623411 -2.99571951539938 11.5
    vertex 0.2321887079036331 -2.9910012376998516 11.5
  endloop
endfacet
facet normal -0.0 -0.0 1.0
  outer loop
    vertex -0.11653259774502499 -1.4202271486148956 11.5
    vertex 0.2321887079036331 -2.9910012376998516 11.5
    vertex 0.25501998866670833 -1.4019949377156937 11.5
  endloop
endfacet
facet normal -0.0 -0.0 1.0
  outer loop
    vertex 0.25501998866670833 -1.4019949377156937 11.5
    vertex 0.2321887079036331 -2.9910012376998516 11.5
    vertex 0.620606303802504 -2.9351060995610703 11.5
  endloop
endfacet
facet normal -0.0 -0.0 1.0
  outer loop
    vertex 0.25501998866670833 -1.4019949377156937 11.5
    vertex 0.620606303802504 -2.9351060995610703 11.5
    vertex 0.609193384291263 -1.2882190887173492 11.5
  endloop
endfacet
facet normal -0.0 -0.0 1.0
  outer loop
    vertex 0.609193384291263 -1.2882190887173492 11.5
    vertex 0.620606303802504 -2.9351060995610703 11.5
    vertex 0.9218512575160358 -1.0866532377056184 11.5
  endloop
endfacet
facet normal -0.0 -0.0 1.0
  outer loop
    vertex 0.9218512575160358 -1.0866532377056184 11.5
    vertex 0.620606303802504 -2.9351060995610703 11.5
    vertex 0.9984051537787427 -2.8289904822936482 11.5
  endloop
endfacet
facet normal -0.0 -0.0 1.0
  outer loop
    vertex 0.9218512575160358 -1.0866532377056184 11.5
    vertex 0.9984051537787427 -2.8289904822936482 11.5
    vertex 1.171686490972325 -0.8110337643236316 11.5
  endloop
endfacet
facet normal -0.0 -0.0 1.0
  outer loop
    vertex 1.171686490972325 -0.8110337643236316 11.5
    vertex 0.9984051537787427 -2.8289904822936482 11.5
    vertex 1.35912101476362 -2.674470053529841 11.5
  endloop
endfacet
facet normal -0.0 -0.0 1.0
  outer loop
    vertex 1.171686490972325 -0.8110337643236316 11.5
    vertex 1.35912101476362 -2.674470053529841 11.5
    vertex 1.341673226372327 -0.4801436801996572 11.5
  endloop
endfacet
facet normal -0.0 -0.0 1.0
  outer loop
    vertex 1.341673226372327 -0.4801436801996572 11.5
    vertex 1.35912101476362 -2.674470053529841 11.5
    vertex 1.4202271486148956 -0.11653259774502454 11.5
  endloop
endfacet
facet normal -0.0 -0.0 1.0
  outer loop
    vertex 1.4202271486148956 -0.11653259774502454 11.5
    vertex 1.35912101476362 -2.674470053529841 11.5
    vertex 1.6965819383663572 -2.4741887006469527 11.5
  endloop
endfacet
facet normal -0.0 -0.0 1.0
  outer loop
    vertex 1.4202271486148956 -0.11653259774502454 11.5
    vertex 1.6965819383663572 -2.4741887006469527 11.5
    vertex 1.6365985006357586 2.5142683523675013 11.5
  endloop
endfacet
facet normal -0.0 -0.0 1.0
  outer loop
    vertex 1.6365985006357586 2.5142683523675013 11.5
    vertex 1.6965819383663572 -2.4741887006469527 11.5
    vertex 1.9507750478413188 2.2791394675885246 11.5
  endloop
endfacet
facet normal -0.0 -0.0 1.0
  outer loop
    vertex 1.9507750478413188 2.2791394675885246 11.5
    vertex 1.6965819383663572 -2.4741887006469527 11.5
    vertex 2.005013874622267 -2.2315732931212913 11.5
  endloop
endfacet
facet normal -0.0 -0.0 1.0
  outer loop
    vertex 1.9507750478413188 2.2791394675885246 11.5
    vertex 2.005013874622267 -2.2315732931212913 11.5
    vertex 2.2315732931212904 2.0050138746222688 11.5
  endloop
endfacet
facet normal -0.0 -0.0 1.0
  outer loop
    vertex 2.2315732931212904 2.0050138746222688 11.5
    vertex 2.005013874622267 -2.2315732931212913 11.5
    vertex 2.279139467588523 -1.9507750478413204 11.5
  endloop
endfacet
facet normal -0.0 -0.0 1.0
  outer loop
    vertex 2.2315732931212904 2.0050138746222688 11.5
    vertex 2.279139467588523 -1.9507750478413204 11.5
    vertex 2.474188700646952 1.6965819383663587 11.5
  endloop
endfacet
facet normal -0.0 -0.0 1.0
  outer loop
    vertex 2.474188700646952 1.6965819383663587 11.5
    vertex 2.279139467588523 -1.9507750478413204 11.5
    vertex 2.5142683523674996 -1.6365985006357606 11.5
  endloop
endfacet
facet normal -0.0 -0.0 1.0
  outer loop
    vertex 2.474188700646952 1.6965819383663587 11.5
    vertex 2.5142683523674996 -1.6365985006357606 11.5
    vertex 2.6744700535298405 1.3591210147636217 11.5
  endloop
endfacet
facet normal -0.0 -0.0 1.0
  outer loop
    vertex 2.6744700535298405 1.3591210147636217 11.5
    vertex 2.5142683523674996 -1.6365985006357606 11.5
    vertex 2.706377408550587 -1.2944192993334924 11.5
  endloop
endfacet
facet normal -0.0 -0.0 1.0
  outer loop
    vertex 2.6744700535298405 1.3591210147636217 11.5
    vertex 2.706377408550587 -1.2944192993334924 11.5
    vertex 2.8289904822936482 0.9984051537787442 11.5
  endloop
endfacet
facet normal -0.0 -0.0 1.0
  outer loop
    vertex 2.8289904822936482 0.9984051537787442 11.5
    vertex 2.706377408550587 -1.2944192993334924 11.5
    vertex 2.8521795969237966 -0.9300922249387998 11.5
  endloop
endfacet
facet normal -0.0 -0.0 1.0
  outer loop
    vertex 2.8289904822936482 0.9984051537787442 11.5
    vertex 2.8521795969237966 -0.9300922249387998 11.5
    vertex 2.9351060995610694 0.620606303802507 11.5
  endloop
endfacet
facet normal -0.0 -0.0 1.0
  outer loop
    vertex 2.9351060995610694 0.620606303802507 11.5
    vertex 2.8521795969237966 -0.9300922249387998 11.5
    vertex 2.9491802016200617 -0.5498510147051229 11.5
  endloop
endfacet
facet normal -0.0 -0.0 1.0
  outer loop
    vertex 2.9351060995610694 0.620606303802507 11.5
    vertex 2.9491802016200617 -0.5498510147051229 11.5
    vertex 2.991001237699851 0.23218870790363574 11.5
  endloop
endfacet
facet normal -0.0 -0.0 1.0
  outer loop
    vertex 2.991001237699851 0.23218870790363574 11.5
    vertex 2.9491802016200617 -0.5498510147051229 11.5
    vertex 2.9957195153993794 -0.16020170116233842 11.5
  endloop
endfacet
facet normal -0.0 -0.0 1.0
  outer loop
    vertex -2.9910012376998507 -0.23218870790363486 11.5
    vertex -2.9491802016200612 0.549851014705124 11.5
    vertex -2.995719515399379 0.16020170116234037 11.5
  endloop
endfacet
facet normal -0.0 -0.0 1.0
  outer loop
    vertex -2.9491802016200612 0.549851014705124 11.5
    vertex -2.9910012376998507 -0.23218870790363486 11.5
    vertex -2.9351060995610694 -0.6206063038025061 11.5
  endloop
endfacet
facet normal -0.0 -0.0 1.0
  outer loop
    vertex -2.9491802016200612 0.549851014705124 11.5
    vertex -2.9351060995610694 -0.6206063038025061 11.5
    vertex -2.8521795969237966 0.9300922249388008 11.5
  endloop
endfacet
facet normal -0.0 -0.0 1.0
  outer loop
    vertex -2.8521795969237966 0.9300922249388008 11.5
    vertex -2.9351060995610694 -0.6206063038025061 11.5
    vertex -2.8289904822936482 -0.9984051537787422 11.5
  endloop
endfacet
facet normal -0.0 -0.0 1.0
  outer loop
    vertex -2.8521795969237966 0.9300922249388008 11.5
    vertex -2.8289904822936482 -0.9984051537787422 11.5
    vertex -2.706377408550587 1.2944192993334929 11.5
  endloop
endfacet
facet normal -0.0 -0.0 1.0
  outer loop
    vertex -2.706377408550587 1.2944192993334929 11.5
    vertex -2.8289904822936482 -0.9984051537787422 11.5
    vertex -2.6744700535298405 -1.3591210147636208 11.5
  endloop
endfacet
facet normal -0.0 -0.0 1.0
  outer loop
    vertex -2.706377408550587 1.2944192993334929 11.5
    vertex -2.6744700535298405 -1.3591210147636208 11.5
    vertex -2.5142683523675005 1.6365985006357593 11.5
  endloop
endfacet
facet normal -0.0 -0.0 1.0
  outer loop
    vertex -2.5142683523675005 1.6365985006357593 11.5
    vertex -2.6744700535298405 -1.3591210147636208 11.5
    vertex -2.4741887006469527 -1.6965819383663583 11.5
  endloop
endfacet
facet normal -0.0 -0.0 1.0
  outer loop
    vertex -2.5142683523675005 1.6365985006357593 11.5
    vertex -2.4741887006469527 -1.6965819383663583 11.5
    vertex -2.279139467588524 1.9507750478413188 11.5
  endloop
endfacet
facet normal -0.0 -0.0 1.0
  outer loop
    vertex -2.279139467588524 1.9507750478413188 11.5
    vertex -2.4741887006469527 -1.6965819383663583 11.5
    vertex -2.2315732931212913 -2.0050138746222683 11.5
  endloop
endfacet
facet normal -0.0 -0.0 1.0
  outer loop
    vertex -2.279139467588524 1.9507750478413188 11.5
    vertex -2.2315732931212913 -2.0050138746222683 11.5
    vertex -2.0050138746222683 2.2315732931212904 11.5
  endloop
endfacet
facet normal -0.0 -0.0 1.0
  outer loop
    vertex -2.0050138746222683 2.2315732931212904 11.5
    vertex -2.2315732931212913 -2.0050138746222683 11.5
    vertex -1.9507750478413204 -2.2791394675885237 11.5
  endloop
endfacet
facet normal -0.0 -0.0 1.0
  outer loop
    vertex -2.0050138746222683 2.2315732931212904 11.5
    vertex -1.9507750478413204 -2.2791394675885237 11.5
    vertex -1.6965819383663576 2.4741887006469527 11.5
  endloop
endfacet
facet normal -0.0 -0.0 1.0
  outer loop
    vertex -1.6965819383663576 2.4741887006469527 11.5
    vertex -1.9507750478413204 -2.2791394675885237 11.5
    vertex -1.6365985006357606 -2.5142683523675 11.5
  endloop
endfacet
facet normal -0.0 -0.0 1.0
  outer loop
    vertex -1.6965819383663576 2.4741887006469527 11.5
    vertex -1.6365985006357606 -2.5142683523675 11.5
    vertex -1.3591210147636206 2.6744700535298405 11.5
  endloop
endfacet
facet normal -0.0 -0.0 1.0
  outer loop
    vertex -1.3591210147636206 2.6744700535298405 11.5
    vertex -1.6365985006357606 -2.5142683523675 11.5
    vertex -1.4202271486148954 0.11653259774502489 11.5
  endloop
endfacet
facet normal -0.0 -0.0 1.0
  outer loop
    vertex -1.3591210147636206 2.6744700535298405 11.5
    vertex -1.4202271486148954 0.11653259774502489 11.5
    vertex -1.341673226372327 0.4801436801996575 11.5
  endloop
endfacet
facet normal -0.0 -0.0 1.0
  outer loop
    vertex -1.3591210147636206 2.6744700535298405 11.5
    vertex -1.341673226372327 0.4801436801996575 11.5
    vertex -0.9984051537787431 2.828990482293648 11.5
  endloop
endfacet
facet normal -0.0 -0.0 1.0
  outer loop
    vertex -0.9984051537787431 2.828990482293648 11.5
    vertex -1.341673226372327 0.4801436801996575 11.5
    vertex -1.1716864909723246 0.8110337643236322 11.5
  endloop
endfacet
facet normal -0.0 -0.0 1.0
  outer loop
    vertex -0.9984051537787431 2.828990482293648 11.5
    vertex -1.1716864909723246 0.8110337643236322 11.5
    vertex -0.921851257516036 1.0866532377056184 11.5
  endloop
endfacet
facet normal -0.0 -0.0 1.0
  outer loop
    vertex -0.9984051537787431 2.828990482293648 11.5
    vertex -0.921851257516036 1.0866532377056184 11.5
    vertex -0.6206063038025056 2.9351060995610694 11.5
  endloop
endfacet
facet normal -0.0 -0.0 1.0
  outer loop
    vertex -0.6206063038025056 2.9351060995610694 11.5
    vertex -0.921851257516036 1.0866532377056184 11.5
    vertex -0.6091933842912634 1.288219088717349 11.5
  endloop
endfacet
facet normal -0.0 -0.0 1.0
  outer loop
    vertex -0.6206063038025056 2.9351060995610694 11.5
    vertex -0.6091933842912634 1.288219088717349 11.5
    vertex -0.2321887079036347 2.991001237699851 11.5
  endloop
endfacet
facet normal -0.0 -0.0 1.0
  outer loop
    vertex -0.2321887079036347 2.991001237699851 11.5
    vertex -0.6091933842912634 1.288219088717349 11.5
    vertex -0.2550199886667088 1.4019949377156937 11.5
  endloop
endfacet
facet normal -0.0 -0.0 1.0
  outer loop
    vertex -0.2321887079036347 2.991001237699851 11.5
    vertex -0.2550199886667088 1.4019949377156937 11.5
    vertex 0.11653259774502428 1.4202271486148956 11.5
  endloop
endfacet
facet normal -0.0 -0.0 1.0
  outer loop
    vertex -0.2321887079036347 2.991001237699851 11.5
    vertex 0.11653259774502428 1.4202271486148956 11.5
    vertex 0.16020170116234003 2.99571951539938 11.5
  endloop
endfacet
facet normal -0.0 -0.0 1.0
  outer loop
    vertex 0.16020170116234003 2.99571951539938 11.5
    vertex 0.11653259774502428 1.4202271486148956 11.5
    vertex 0.48014368019965736 1.341673226372327 11.5
  endloop
endfacet
facet normal -0.0 -0.0 1.0
  outer loop
    vertex 0.16020170116234003 2.99571951539938 11.5
    vertex 0.48014368019965736 1.341673226372327 11.5
    vertex 0.5498510147051235 2.949180201620062 11.5
  endloop
endfacet
facet normal -0.0 -0.0 1.0
  outer loop
    vertex 0.5498510147051235 2.949180201620062 11.5
    vertex 0.48014368019965736 1.341673226372327 11.5
    vertex 0.8110337643236316 1.171686490972325 11.5
  endloop
endfacet
facet normal -0.0 -0.0 1.0
  outer loop
    vertex 0.5498510147051235 2.949180201620062 11.5
    vertex 0.8110337643236316 1.171686490972325 11.5
    vertex 0.9300922249388011 2.8521795969237975 11.5
  endloop
endfacet
facet normal -0.0 -0.0 1.0
  outer loop
    vertex 0.9300922249388011 2.8521795969237975 11.5
    vertex 0.8110337643236316 1.171686490972325 11.5
    vertex 1.0866532377056184 0.921851257516036 11.5
  endloop
endfacet
facet normal -0.0 -0.0 1.0
  outer loop
    vertex 0.9300922249388011 2.8521795969237975 11.5
    vertex 1.0866532377056184 0.921851257516036 11.5
    vertex 1.2944192993334929 2.706377408550588 11.5
  endloop
endfacet
facet normal -0.0 -0.0 1.0
  outer loop
    vertex 1.2944192993334929 2.706377408550588 11.5
    vertex 1.0866532377056184 0.921851257516036 11.5
    vertex 1.2882190887173488 0.6091933842912636 11.5
  endloop
endfacet
facet normal -0.0 -0.0 1.0
  outer loop
    vertex 1.2944192993334929 2.706377408550588 11.5
    vertex 1.2882190887173488 0.6091933842912636 11.5
    vertex 1.4019949377156937 0.2550199886667092 11.5
  endloop
endfacet
facet normal -0.0 -0.0 1.0
  outer loop
    vertex 1.2944192993334929 2.706377408550588 11.5
    vertex 1.4019949377156937 0.2550199886667092 11.5
    vertex 1.6365985006357586 2.5142683523675013 11.5
  endloop
endfacet
facet normal -0.0 -0.0 1.0
  outer loop
    vertex 1.6365985006357586 2.5142683523675013 11.5
    vertex 1.4019949377156937 0.2550199886667092 11.5
    vertex 1.4202271486148956 -0.11653259774502454 11.5
  endloop
endfacet
facet normal 0.4895511332163876 0.8719745913537567 0.0
  outer loop
    vertex 1.2944192993334929 2.706377408550588 11.5
    vertex 1.6365985006357586 2.5142683523675013 0.0
    vertex 1.2944192993334929 2.706377408550588 0.0
  endloop
endfacet
facet normal 0.4895511332163876 0.8719745913537567 0.0
  outer loop
    vertex 1.6365985006357586 2.5142683523675013 0.0
    vertex 1.2944192993334929 2.706377408550588 11.5
    vertex 1.6365985006357586 2.5142683523675013 11.5
  endloop
endfacet
facet normal 0.5991784785291535 0.8006154825304646 0.0
  outer loop
    vertex 1.6365985006357586 2.5142683523675013 11.5
    vertex 1.9507750478413188 2.2791394675885246 0.0
    vertex 1.6365985006357586 2.5142683523675013 0.0
  endloop
endfacet
facet normal 0.5991784785291535 0.8006154825304646 0.0
  outer loop
    vertex 1.9507750478413188 2.2791394675885246 0.0
    vertex 1.6365985006357586 2.5142683523675013 11.5
    vertex 1.9507750478413188 2.2791394675885246 11.5
  endloop
endfacet
facet normal 0.6985537139506287 0.715557620828528 0.0
  outer loop
    vertex 1.9507750478413188 2.2791394675885246 11.5
    vertex 2.2315732931212904 2.0050138746222688 0.0
    vertex 1.9507750478413188 2.2791394675885246 0.0
  endloop
endfacet
facet normal 0.6985537139506287 0.715557620828528 0.0
  outer loop
    vertex 2.2315732931212904 2.0050138746222688 0.0
    vertex 1.9507750478413188 2.2791394675885246 11.5
    vertex 2.2315732931212904 2.0050138746222688 11.5
  endloop
endfacet
facet normal 0.7859765016507285 0.6182563698441631 0.0
  outer loop
    vertex 2.2315732931212904 2.0050138746222688 0.0
    vertex 2.474188700646952 1.6965819383663587 11.5
    vertex 2.474188700646952 1.6965819383663587 0.0
  endloop
endfacet
facet normal 0.7859765016507285 0.6182563698441631 0.0
  outer loop
    vertex 2.474188700646952 1.6965819383663587 11.5
    vertex 2.2315732931212904 2.0050138746222688 0.0
    vertex 2.2315732931212904 2.0050138746222688 11.5
  endloop
endfacet
facet normal 0.8599510134937292 0.5103765809587154 0.0
  outer loop
    vertex 2.474188700646952 1.6965819383663587 0.0
    vertex 2.6744700535298405 1.3591210147636217 11.5
    vertex 2.6744700535298405 1.3591210147636217 0.0
  endloop
endfacet
facet normal 0.8599510134937292 0.5103765809587154 0.0
  outer loop
    vertex 2.6744700535298405 1.3591210147636217 11.5
    vertex 2.474188700646952 1.6965819383663587 0.0
    vertex 2.474188700646952 1.6965819383663587 11.5
  endloop
endfacet
facet normal 0.9192115250723879 0.3937641072699428 0.0
  outer loop
    vertex 2.6744700535298405 1.3591210147636217 0.0
    vertex 2.8289904822936482 0.9984051537787442 11.5
    vertex 2.8289904822936482 0.9984051537787442 0.0
  endloop
endfacet
facet normal 0.9192115250723879 0.3937641072699428 0.0
  outer loop
    vertex 2.8289904822936482 0.9984051537787442 11.5
    vertex 2.6744700535298405 1.3591210147636217 0.0
    vertex 2.6744700535298405 1.3591210147636217 11.5
  endloop
endfacet
facet normal 0.9627440726034765 0.27041422053374353 0.0
  outer loop
    vertex 2.8289904822936482 0.9984051537787442 0.0
    vertex 2.9351060995610694 0.620606303802507 11.5
    vertex 2.9351060995610694 0.620606303802507 0.0
  endloop
endfacet
facet normal 0.9627440726034765 0.27041422053374353 0.0
  outer loop
    vertex 2.9351060995610694 0.620606303802507 11.5
    vertex 2.8289904822936482 0.9984051537787442 0.0
    vertex 2.8289904822936482 0.9984051537787442 11.5
  endloop
endfacet
facet normal 0.9898038021292342 0.14243747151122785 0.0
  outer loop
    vertex 2.9351060995610694 0.620606303802507 0.0
    vertex 2.991001237699851 0.23218870790363574 11.5
    vertex 2.991001237699851 0.23218870790363574 0.0
  endloop
endfacet
facet normal 0.9898038021292342 0.14243747151122785 0.0
  outer loop
    vertex 2.991001237699851 0.23218870790363574 11.5
    vertex 2.9351060995610694 0.620606303802507 0.0
    vertex 2.9351060995610694 0.620606303802507 11.5
  endloop
endfacet
facet normal 0.9999277141751018 0.012023577860026868 0.0
  outer loop
    vertex 2.991001237699851 0.23218870790363574 0.0
    vertex 2.9957195153993794 -0.16020170116233842 11.5
    vertex 2.9957195153993794 -0.16020170116233842 0.0
  endloop
endfacet
facet normal 0.9999277141751018 0.012023577860026868 0.0
  outer loop
    vertex 2.9957195153993794 -0.16020170116233842 11.5
    vertex 2.991001237699851 0.23218870790363574 0.0
    vertex 2.991001237699851 0.23218870790363574 11.5
  endloop
endfacet
facet normal 0.9929425857990957 -0.11859604254192335 0.0
  outer loop
    vertex 2.9957195153993794 -0.16020170116233842 0.0
    vertex 2.9491802016200617 -0.5498510147051229 11.5
    vertex 2.9491802016200617 -0.5498510147051229 0.0
  endloop
endfacet
facet normal 0.9929425857990957 -0.11859604254192335 0.0
  outer loop
    vertex 2.9491802016200617 -0.5498510147051229 11.5
    vertex 2.9957195153993794 -0.16020170116233842 0.0
    vertex 2.9957195153993794 -0.16020170116233842 11.5
  endloop
endfacet
facet normal 0.9689679344843726 -0.2471864517749485 0.0
  outer loop
    vertex 2.9491802016200617 -0.5498510147051229 0.0
    vertex 2.8521795969237966 -0.9300922249387998 11.5
    vertex 2.8521795969237966 -0.9300922249387998 0.0
  endloop
endfacet
facet normal 0.9689679344843726 -0.2471864517749485 0.0
  outer loop
    vertex 2.8521795969237966 -0.9300922249387998 11.5
    vertex 2.9491802016200617 -0.5498510147051229 0.0
    vertex 2.9491802016200617 -0.5498510147051229 11.5
  endloop
endfacet
facet normal 0.9284139731619571 -0.37154743228507014 0.0
  outer loop
    vertex 2.8521795969237966 -0.9300922249387998 0.0
    vertex 2.706377408550587 -1.2944192993334924 11.5
    vertex 2.706377408550587 -1.2944192993334924 0.0
  endloop
endfacet
facet normal 0.9284139731619571 -0.37154743228507014 0.0
  outer loop
    vertex 2.706377408550587 -1.2944192993334924 11.5
    vertex 2.8521795969237966 -0.9300922249387998 0.0
    vertex 2.8521795969237966 -0.9300922249387998 11.5
  endloop
endfacet
facet normal 0.8719745913537567 -0.48955113321638744 0.0
  outer loop
    vertex 2.706377408550587 -1.2944192993334924 0.0
    vertex 2.5142683523674996 -1.6365985006357606 11.5
    vertex 2.5142683523674996 -1.6365985006357606 0.0
  endloop
endfacet
facet normal 0.8719745913537567 -0.48955113321638744 0.0
  outer loop
    vertex 2.5142683523674996 -1.6365985006357606 11.5
    vertex 2.706377408550587 -1.2944192993334924 0.0
    vertex 2.706377408550587 -1.2944192993334924 11.5
  endloop
endfacet
facet normal 0.800615482530464 -0.5991784785291544 0.0
  outer loop
    vertex 2.5142683523674996 -1.6365985006357606 0.0
    vertex 2.279139467588523 -1.9507750478413204 11.5
    vertex 2.279139467588523 -1.9507750478413204 0.0
  endloop
endfacet
facet normal 0.800615482530464 -0.5991784785291544 0.0
  outer loop
    vertex 2.279139467588523 -1.9507750478413204 11.5
    vertex 2.5142683523674996 -1.6365985006357606 0.0
    vertex 2.5142683523674996 -1.6365985006357606 11.5
  endloop
endfacet
facet normal 0.715557620828528 -0.6985537139506286 0.0
  outer loop
    vertex 2.279139467588523 -1.9507750478413204 0.0
    vertex 2.005013874622267 -2.2315732931212913 11.5
    vertex 2.005013874622267 -2.2315732931212913 0.0
  endloop
endfacet
facet normal 0.715557620828528 -0.6985537139506286 0.0
  outer loop
    vertex 2.005013874622267 -2.2315732931212913 11.5
    vertex 2.279139467588523 -1.9507750478413204 0.0
    vertex 2.279139467588523 -1.9507750478413204 11.5
  endloop
endfacet
facet normal 0.6182563698441629 -0.7859765016507285 0.0
  outer loop
    vertex 2.005013874622267 -2.2315732931212913 11.5
    vertex 1.6965819383663572 -2.4741887006469527 0.0
    vertex 2.005013874622267 -2.2315732931212913 0.0
  endloop
endfacet
facet normal 0.6182563698441629 -0.7859765016507285 0.0
  outer loop
    vertex 1.6965819383663572 -2.4741887006469527 0.0
    vertex 2.005013874622267 -2.2315732931212913 11.5
    vertex 1.6965819383663572 -2.4741887006469527 11.5
  endloop
endfacet
facet normal 0.510376580958715 -0.8599510134937294 0.0
  outer loop
    vertex 1.6965819383663572 -2.4741887006469527 11.5
    vertex 1.35912101476362 -2.674470053529841 0.0
    vertex 1.6965819383663572 -2.4741887006469527 0.0
  endloop
endfacet
facet normal 0.510376580958715 -0.8599510134937294 0.0
  outer loop
    vertex 1.35912101476362 -2.674470053529841 0.0
    vertex 1.6965819383663572 -2.4741887006469527 11.5
    vertex 1.35912101476362 -2.674470053529841 11.5
  endloop
endfacet
facet normal 0.39376410726994154 -0.9192115250723882 0.0
  outer loop
    vertex 1.35912101476362 -2.674470053529841 11.5
    vertex 0.9984051537787427 -2.8289904822936482 0.0
    vertex 1.35912101476362 -2.674470053529841 0.0
  endloop
endfacet
facet normal 0.39376410726994154 -0.9192115250723882 0.0
  outer loop
    vertex 0.9984051537787427 -2.8289904822936482 0.0
    vertex 1.35912101476362 -2.674470053529841 11.5
    vertex 0.9984051537787427 -2.8289904822936482 11.5
  endloop
endfacet
facet normal 0.27041422053374414 -0.9627440726034763 0.0
  outer loop
    vertex 0.9984051537787427 -2.8289904822936482 11.5
    vertex 0.620606303802504 -2.9351060995610703 0.0
    vertex 0.9984051537787427 -2.8289904822936482 0.0
  endloop
endfacet
facet normal 0.27041422053374414 -0.9627440726034763 0.0
  outer loop
    vertex 0.620606303802504 -2.9351060995610703 0.0
    vertex 0.9984051537787427 -2.8289904822936482 11.5
    vertex 0.620606303802504 -2.9351060995610703 11.5
  endloop
endfacet
facet normal 0.14243747151122707 -0.9898038021292342 0.0
  outer loop
    vertex 0.620606303802504 -2.9351060995610703 11.5
    vertex 0.2321887079036331 -2.9910012376998516 0.0
    vertex 0.620606303802504 -2.9351060995610703 0.0
  endloop
endfacet
facet normal 0.14243747151122707 -0.9898038021292342 0.0
  outer loop
    vertex 0.2321887079036331 -2.9910012376998516 0.0
    vertex 0.620606303802504 -2.9351060995610703 11.5
    vertex 0.2321887079036331 -2.9910012376998516 11.5
  endloop
endfacet
facet normal 0.012023577860026868 -0.9999277141751018 0.0
  outer loop
    vertex 0.2321887079036331 -2.9910012376998516 11.5
    vertex -0.1602017011623411 -2.99571951539938 0.0
    vertex 0.2321887079036331 -2.9910012376998516 0.0
  endloop
endfacet
facet normal 0.012023577860026868 -0.9999277141751018 0.0
  outer loop
    vertex -0.1602017011623411 -2.99571951539938 0.0
    vertex 0.2321887079036331 -2.9910012376998516 11.5
    vertex -0.1602017011623411 -2.99571951539938 11.5
  endloop
endfacet
facet normal -0.11859604254192455 -0.9929425857990954 -0.0
  outer loop
    vertex -0.1602017011623411 -2.99571951539938 11.5
    vertex -0.5498510147051244 -2.9491802016200617 0.0
    vertex -0.1602017011623411 -2.99571951539938 0.0
  endloop
endfacet
facet normal -0.11859604254192455 -0.9929425857990954 -0.0
  outer loop
    vertex -0.5498510147051244 -2.9491802016200617 0.0
    vertex -0.1602017011623411 -2.99571951539938 11.5
    vertex -0.5498510147051244 -2.9491802016200617 11.5
  endloop
endfacet
facet normal -0.24718645177494683 -0.968967934484373 -0.0
  outer loop
    vertex -0.5498510147051244 -2.9491802016200617 11.5
    vertex -0.9300922249388014 -2.8521795969237975 0.0
    vertex -0.5498510147051244 -2.9491802016200617 0.0
  endloop
endfacet
facet normal -0.24718645177494683 -0.968967934484373 -0.0
  outer loop
    vertex -0.9300922249388014 -2.8521795969237975 0.0
    vertex -0.5498510147051244 -2.9491802016200617 11.5
    vertex -0.9300922249388014 -2.8521795969237975 11.5
  endloop
endfacet
facet normal -0.3715474322850716 -0.9284139731619566 -0.0
  outer loop
    vertex -0.9300922249388014 -2.8521795969237975 11.5
    vertex -1.2944192993334933 -2.7063774085505874 0.0
    vertex -0.9300922249388014 -2.8521795969237975 0.0
  endloop
endfacet
facet normal -0.3715474322850716 -0.9284139731619566 -0.0
  outer loop
    vertex -1.2944192993334933 -2.7063774085505874 0.0
    vertex -0.9300922249388014 -2.8521795969237975 11.5
    vertex -1.2944192993334933 -2.7063774085505874 11.5
  endloop
endfacet
facet normal -0.4895511332163877 -0.8719745913537565 -0.0
  outer loop
    vertex -1.2944192993334933 -2.7063774085505874 11.5
    vertex -1.6365985006357606 -2.5142683523675 0.0
    vertex -1.2944192993334933 -2.7063774085505874 0.0
  endloop
endfacet
facet normal -0.4895511332163877 -0.8719745913537565 -0.0
  outer loop
    vertex -1.6365985006357606 -2.5142683523675 0.0
    vertex -1.2944192993334933 -2.7063774085505874 11.5
    vertex -1.6365985006357606 -2.5142683523675 11.5
  endloop
endfacet
facet normal -0.599178478529154 -0.8006154825304644 -0.0
  outer loop
    vertex -1.6365985006357606 -2.5142683523675 11.5
    vertex -1.9507750478413204 -2.2791394675885237 0.0
    vertex -1.6365985006357606 -2.5142683523675 0.0
  endloop
endfacet
facet normal -0.599178478529154 -0.8006154825304644 -0.0
  outer loop
    vertex -1.9507750478413204 -2.2791394675885237 0.0
    vertex -1.6365985006357606 -2.5142683523675 11.5
    vertex -1.9507750478413204 -2.2791394675885237 11.5
  endloop
endfacet
facet normal -0.6985537139506286 -0.715557620828528 -0.0
  outer loop
    vertex -1.9507750478413204 -2.2791394675885237 11.5
    vertex -2.2315732931212913 -2.0050138746222683 0.0
    vertex -1.9507750478413204 -2.2791394675885237 0.0
  endloop
endfacet
facet normal -0.6985537139506286 -0.715557620828528 -0.0
  outer loop
    vertex -2.2315732931212913 -2.0050138746222683 0.0
    vertex -1.9507750478413204 -2.2791394675885237 11.5
    vertex -2.2315732931212913 -2.0050138746222683 11.5
  endloop
endfacet
facet normal -0.7859765016507285 -0.6182563698441629 -0.0
  outer loop
    vertex -2.4741887006469527 -1.6965819383663583 11.5
    vertex -2.2315732931212913 -2.0050138746222683 0.0
    vertex -2.2315732931212913 -2.0050138746222683 11.5
  endloop
endfacet
facet normal -0.7859765016507285 -0.6182563698441629 -0.0
  outer loop
    vertex -2.2315732931212913 -2.0050138746222683 0.0
    vertex -2.4741887006469527 -1.6965819383663583 11.5
    vertex -2.4741887006469527 -1.6965819383663583 0.0
  endloop
endfacet
facet normal -0.85995101349373 -0.510376580958714 -0.0
  outer loop
    vertex -2.6744700535298405 -1.3591210147636208 11.5
    vertex -2.4741887006469527 -1.6965819383663583 0.0
    vertex -2.4741887006469527 -1.6965819383663583 11.5
  endloop
endfacet
facet normal -0.85995101349373 -0.510376580958714 -0.0
  outer loop
    vertex -2.4741887006469527 -1.6965819383663583 0.0
    vertex -2.6744700535298405 -1.3591210147636208 11.5
    vertex -2.6744700535298405 -1.3591210147636208 0.0
  endloop
endfacet
facet normal -0.9192115250723886 -0.39376410726994127 -0.0
  outer loop
    vertex -2.8289904822936482 -0.9984051537787422 11.5
    vertex -2.6744700535298405 -1.3591210147636208 0.0
    vertex -2.6744700535298405 -1.3591210147636208 11.5
  endloop
endfacet
facet normal -0.9192115250723886 -0.39376410726994127 -0.0
  outer loop
    vertex -2.6744700535298405 -1.3591210147636208 0.0
    vertex -2.8289904822936482 -0.9984051537787422 11.5
    vertex -2.8289904822936482 -0.9984051537787422 0.0
  endloop
endfacet
facet normal -0.9627440726034763 -0.2704142205337442 -0.0
  outer loop
    vertex -2.9351060995610694 -0.6206063038025061 11.5
    vertex -2.8289904822936482 -0.9984051537787422 0.0
    vertex -2.8289904822936482 -0.9984051537787422 11.5
  endloop
endfacet
facet normal -0.9627440726034763 -0.2704142205337442 -0.0
  outer loop
    vertex -2.8289904822936482 -0.9984051537787422 0.0
    vertex -2.9351060995610694 -0.6206063038025061 11.5
    vertex -2.9351060995610694 -0.6206063038025061 0.0
  endloop
endfacet
facet normal -0.9898038021292342 -0.14243747151122696 -0.0
  outer loop
    vertex -2.9910012376998507 -0.23218870790363486 11.5
    vertex -2.9351060995610694 -0.6206063038025061 0.0
    vertex -2.9351060995610694 -0.6206063038025061 11.5
  endloop
endfacet
facet normal -0.9898038021292342 -0.14243747151122696 -0.0
  outer loop
    vertex -2.9351060995610694 -0.6206063038025061 0.0
    vertex -2.9910012376998507 -0.23218870790363486 11.5
    vertex -2.9910012376998507 -0.23218870790363486 0.0
  endloop
endfacet
facet normal -0.9999277141751017 -0.012023577860026833 -0.0
  outer loop
    vertex -2.995719515399379 0.16020170116234037 11.5
    vertex -2.9910012376998507 -0.23218870790363486 0.0
    vertex -2.9910012376998507 -0.23218870790363486 11.5
  endloop
endfacet
facet normal -0.9999277141751017 -0.012023577860026833 -0.0
  outer loop
    vertex -2.9910012376998507 -0.23218870790363486 0.0
    vertex -2.995719515399379 0.16020170116234037 11.5
    vertex -2.995719515399379 0.16020170116234037 0.0
  endloop
endfacet
facet normal -0.9929425857990957 0.11859604254192362 0.0
  outer loop
    vertex -2.9491802016200612 0.549851014705124 11.5
    vertex -2.995719515399379 0.16020170116234037 0.0
    vertex -2.995719515399379 0.16020170116234037 11.5
  endloop
endfacet
facet normal -0.9929425857990957 0.11859604254192362 0.0
  outer loop
    vertex -2.995719515399379 0.16020170116234037 0.0
    vertex -2.9491802016200612 0.549851014705124 11.5
    vertex -2.9491802016200612 0.549851014705124 0.0
  endloop
endfacet
facet normal -0.9689679344843726 0.2471864517749476 0.0
  outer loop
    vertex -2.8521795969237966 0.9300922249388008 11.5
    vertex -2.9491802016200612 0.549851014705124 0.0
    vertex -2.9491802016200612 0.549851014705124 11.5
  endloop
endfacet
facet normal -0.9689679344843726 0.2471864517749476 0.0
  outer loop
    vertex -2.9491802016200612 0.549851014705124 0.0
    vertex -2.8521795969237966 0.9300922249388008 11.5
    vertex -2.8521795969237966 0.9300922249388008 0.0
  endloop
endfacet
facet normal -0.9284139731619568 0.37154743228507076 0.0
  outer loop
    vertex -2.706377408550587 1.2944192993334929 11.5
    vertex -2.8521795969237966 0.9300922249388008 0.0
    vertex -2.8521795969237966 0.9300922249388008 11.5
  endloop
endfacet
facet normal -0.9284139731619568 0.37154743228507076 0.0
  outer loop
    vertex -2.8521795969237966 0.9300922249388008 0.0
    vertex -2.706377408550587 1.2944192993334929 11.5
    vertex -2.706377408550587 1.2944192993334929 0.0
  endloop
endfacet
facet normal -0.8719745913537568 0.4895511332163873 0.0
  outer loop
    vertex -2.5142683523675005 1.6365985006357593 11.5
    vertex -2.706377408550587 1.2944192993334929 0.0
    vertex -2.706377408550587 1.2944192993334929 11.5
  endloop
endfacet
facet normal -0.8719745913537568 0.4895511332163873 0.0
  outer loop
    vertex -2.706377408550587 1.2944192993334929 0.0
    vertex -2.5142683523675005 1.6365985006357593 11.5
    vertex -2.5142683523675005 1.6365985006357593 0.0
  endloop
endfacet
facet normal -0.8006154825304644 0.599178478529154 0.0
  outer loop
    vertex -2.279139467588524 1.9507750478413188 11.5
    vertex -2.5142683523675005 1.6365985006357593 0.0
    vertex -2.5142683523675005 1.6365985006357593 11.5
  endloop
endfacet
facet normal -0.8006154825304644 0.599178478529154 0.0
  outer loop
    vertex -2.5142683523675005 1.6365985006357593 0.0
    vertex -2.279139467588524 1.9507750478413188 11.5
    vertex -2.279139467588524 1.9507750478413188 0.0
  endloop
endfacet
facet normal -0.7155576208285285 0.6985537139506282 0.0
  outer loop
    vertex -2.0050138746222683 2.2315732931212904 11.5
    vertex -2.279139467588524 1.9507750478413188 0.0
    vertex -2.279139467588524 1.9507750478413188 11.5
  endloop
endfacet
facet normal -0.7155576208285285 0.6985537139506282 0.0
  outer loop
    vertex -2.279139467588524 1.9507750478413188 0.0
    vertex -2.0050138746222683 2.2315732931212904 11.5
    vertex -2.0050138746222683 2.2315732931212904 0.0
  endloop
endfacet
facet normal -0.6182563698441632 0.7859765016507283 0.0
  outer loop
    vertex -2.0050138746222683 2.2315732931212904 11.5
    vertex -1.6965819383663576 2.4741887006469527 0.0
    vertex -2.0050138746222683 2.2315732931212904 0.0
  endloop
endfacet
facet normal -0.6182563698441632 0.7859765016507283 0.0
  outer loop
    vertex -1.6965819383663576 2.4741887006469527 0.0
    vertex -2.0050138746222683 2.2315732931212904 11.5
    vertex -1.6965819383663576 2.4741887006469527 11.5
  endloop
endfacet
facet normal -0.5103765809587145 0.8599510134937296 0.0
  outer loop
    vertex -1.6965819383663576 2.4741887006469527 11.5
    vertex -1.3591210147636206 2.6744700535298405 0.0
    vertex -1.6965819383663576 2.4741887006469527 0.0
  endloop
endfacet
facet normal -0.5103765809587145 0.8599510134937296 0.0
  outer loop
    vertex -1.3591210147636206 2.6744700535298405 0.0
    vertex -1.6965819383663576 2.4741887006469527 11.5
    vertex -1.3591210147636206 2.6744700535298405 11.5
  endloop
endfacet
facet normal -0.39376410726994143 0.9192115250723885 0.0
  outer loop
    vertex -1.3591210147636206 2.6744700535298405 11.5
    vertex -0.9984051537787431 2.828990482293648 0.0
    vertex -1.3591210147636206 2.6744700535298405 0.0
  endloop
endfacet
facet normal -0.39376410726994143 0.9192115250723885 0.0
  outer loop
    vertex -0.9984051537787431 2.828990482293648 0.0
    vertex -1.3591210147636206 2.6744700535298405 11.5
    vertex -0.9984051537787431 2.828990482293648 11.5
  endloop
endfacet
facet normal -0.2704142205337441 0.9627440726034763 0.0
  outer loop
    vertex -0.9984051537787431 2.828990482293648 11.5
    vertex -0.6206063038025056 2.9351060995610694 0.0
    vertex -0.9984051537787431 2.828990482293648 0.0
  endloop
endfacet
facet normal -0.2704142205337441 0.9627440726034763 0.0
  outer loop
    vertex -0.6206063038025056 2.9351060995610694 0.0
    vertex -0.9984051537787431 2.828990482293648 11.5
    vertex -0.6206063038025056 2.9351060995610694 11.5
  endloop
endfacet
facet normal -0.142437471511228 0.9898038021292342 0.0
  outer loop
    vertex -0.6206063038025056 2.9351060995610694 11.5
    vertex -0.2321887079036347 2.991001237699851 0.0
    vertex -0.6206063038025056 2.9351060995610694 0.0
  endloop
endfacet
facet normal -0.142437471511228 0.9898038021292342 0.0
  outer loop
    vertex -0.2321887079036347 2.991001237699851 0.0
    vertex -0.6206063038025056 2.9351060995610694 11.5
    vertex -0.2321887079036347 2.991001237699851 11.5
  endloop
endfacet
facet normal -0.012023577860027751 0.9999277141751018 0.0
  outer loop
    vertex -0.2321887079036347 2.991001237699851 11.5
    vertex 0.16020170116234003 2.99571951539938 0.0
    vertex -0.2321887079036347 2.991001237699851 0.0
  endloop
endfacet
facet normal -0.012023577860027751 0.9999277141751018 0.0
  outer loop
    vertex 0.16020170116234003 2.99571951539938 0.0
    vertex -0.2321887079036347 2.991001237699851 11.5
    vertex 0.16020170116234003 2.99571951539938 11.5
  endloop
endfacet
facet normal 0.11859604254192274 0.9929425857990957 0.0
  outer loop
    vertex 0.16020170116234003 2.99571951539938 11.5
    vertex 0.5498510147051235 2.949180201620062 0.0
    vertex 0.16020170116234003 2.99571951539938 0.0
  endloop
endfacet
facet normal 0.11859604254192274 0.9929425857990957 0.0
  outer loop
    vertex 0.5498510147051235 2.949180201620062 0.0
    vertex 0.16020170116234003 2.99571951539938 11.5
    vertex 0.5498510147051235 2.949180201620062 11.5
  endloop
endfacet
facet normal 0.24718645177494808 0.9689679344843725 0.0
  outer loop
    vertex 0.5498510147051235 2.949180201620062 11.5
    vertex 0.9300922249388011 2.8521795969237975 0.0
    vertex 0.5498510147051235 2.949180201620062 0.0
  endloop
endfacet
facet normal 0.24718645177494808 0.9689679344843725 0.0
  outer loop
    vertex 0.9300922249388011 2.8521795969237975 0.0
    vertex 0.5498510147051235 2.949180201620062 11.5
    vertex 0.9300922249388011 2.8521795969237975 11.5
  endloop
endfacet
facet normal 0.37154743228507076 0.9284139731619568 0.0
  outer loop
    vertex 0.9300922249388011 2.8521795969237975 11.5
    vertex 1.2944192993334929 2.706377408550588 0.0
    vertex 0.9300922249388011 2.8521795969237975 0.0
  endloop
endfacet
facet normal 0.37154743228507076 0.9284139731619568 0.0
  outer loop
    vertex 1.2944192993334929 2.706377408550588 0.0
    vertex 0.9300922249388011 2.8521795969237975 11.5
    vertex 1.2944192993334929 2.706377408550588 11.5
  endloop
endfacet
facet normal 0.0 0.0 -1.0
  outer loop
    vertex -2.9491802016200612 0.549851014705124 0.0
    vertex -2.9910012376998507 -0.23218870790363486 0.0
    vertex -2.995719515399379 0.16020170116234037 0.0
  endloop
endfacet
facet normal 0.0 0.0 -1.0
  outer loop
    vertex -2.9910012376998507 -0.23218870790363486 0.0
    vertex -2.9491802016200612 0.549851014705124 0.0
    vertex -2.9351060995610694 -0.6206063038025061 0.0
  endloop
endfacet
facet normal 0.0 0.0 -1.0
  outer loop
    vertex -2.9351060995610694 -0.6206063038025061 0.0
    vertex -2.9491802016200612 0.549851014705124 0.0
    vertex -2.8521795969237966 0.9300922249388008 0.0
  endloop
endfacet
facet normal 0.0 0.0 -1.0
  outer loop
    vertex -2.9351060995610694 -0.6206063038025061 0.0
    vertex -2.8521795969237966 0.9300922249388008 0.0
    vertex -2.8289904822936482 -0.9984051537787422 0.0
  endloop
endfacet
facet normal 0.0 0.0 -1.0
  outer loop
    vertex -2.8289904822936482 -0.9984051537787422 0.0
    vertex -2.8521795969237966 0.9300922249388008 0.0
    vertex -2.706377408550587 1.2944192993334929 0.0
  endloop
endfacet
facet normal 0.0 0.0 -1.0
  outer loop
    vertex -2.8289904822936482 -0.9984051537787422 0.0
    vertex -2.706377408550587 1.2944192993334929 0.0
    vertex -2.6744700535298405 -1.3591210147636208 0.0
  endloop
endfacet
facet normal 0.0 0.0 -1.0
  outer loop
    vertex -2.6744700535298405 -1.3591210147636208 0.0
    vertex -2.706377408550587 1.2944192993334929 0.0
    vertex -2.5142683523675005 1.6365985006357593 0.0
  endloop
endfacet
facet normal 0.0 0.0 -1.0
  outer loop
    vertex -2.6744700535298405 -1.3591210147636208 0.0
    vertex -2.5142683523675005 1.6365985006357593 0.0
    vertex -2.4741887006469527 -1.6965819383663583 0.0
  endloop
endfacet
facet normal 0.0 0.0 -1.0
  outer loop
    vertex -2.4741887006469527 -1.6965819383663583 0.0
    vertex -2.5142683523675005 1.6365985006357593 0.0
    vertex -2.279139467588524 1.9507750478413188 0.0
  endloop
endfacet
facet normal 0.0 0.0 -1.0
  outer loop
    vertex -2.4741887006469527 -1.6965819383663583 0.0
    vertex -2.279139467588524 1.9507750478413188 0.0
    vertex -2.2315732931212913 -2.0050138746222683 0.0
  endloop
endfacet
facet normal 0.0 0.0 -1.0
  outer loop
    vertex -2.2315732931212913 -2.0050138746222683 0.0
    vertex -2.279139467588524 1.9507750478413188 0.0
    vertex -2.0050138746222683 2.2315732931212904 0.0
  endloop
endfacet
facet normal 0.0 0.0 -1.0
  outer loop
    vertex -2.2315732931212913 -2.0050138746222683 0.0
    vertex -2.0050138746222683 2.2315732931212904 0.0
    vertex -1.9507750478413204 -2.2791394675885237 0.0
  endloop
endfacet
facet normal 0.0 0.0 -1.0
  outer loop
    vertex -1.9507750478413204 -2.2791394675885237 0.0
    vertex -2.0050138746222683 2.2315732931212904 0.0
    vertex -1.6965819383663576 2.4741887006469527 0.0
  endloop
endfacet
facet normal 0.0 0.0 -1.0
  outer loop
    vertex -1.9507750478413204 -2.2791394675885237 0.0
    vertex -1.6965819383663576 2.4741887006469527 0.0
    vertex -1.6365985006357606 -2.5142683523675 0.0
  endloop
endfacet
facet normal 0.0 0.0 -1.0
  outer loop
    vertex -1.6365985006357606 -2.5142683523675 0.0
    vertex -1.6965819383663576 2.4741887006469527 0.0
    vertex -1.3591210147636206 2.6744700535298405 0.0
  endloop
endfacet
facet normal 0.0 0.0 -1.0
  outer loop
    vertex -1.6365985006357606 -2.5142683523675 0.0
    vertex -1.3591210147636206 2.6744700535298405 0.0
    vertex -1.2944192993334933 -2.7063774085505874 0.0
  endloop
endfacet
facet normal 0.0 0.0 -1.0
  outer loop
    vertex -1.2944192993334933 -2.7063774085505874 0.0
    vertex -1.3591210147636206 2.6744700535298405 0.0
    vertex -1.1749999999999998 0.0 0.0
  endloop
endfacet
facet normal 0.0 0.0 -1.0
  outer loop
    vertex -1.1749999999999998 0.0 0.0
    vertex -1.3591210147636206 2.6744700535298405 0.0
    vertex -0.9984051537787431 2.828990482293648 0.0
  endloop
endfacet
facet normal 0.0 0.0 -1.0
  outer loop
    vertex -1.1749999999999998 0.0 0.0
    vertex -0.9984051537787431 2.828990482293648 0.0
    vertex -1.1349628458896548 0.3041123779954628 0.0
  endloop
endfacet
facet normal 0.0 0.0 -1.0
  outer loop
    vertex -1.1349628458896548 0.3041123779954628 0.0
    vertex -0.9984051537787431 2.828990482293648 0.0
    vertex -1.017579849446715 0.5875000000000005 0.0
  endloop
endfacet
facet normal 0.0 0.0 -1.0
  outer loop
    vertex -1.017579849446715 0.5875000000000005 0.0
    vertex -0.9984051537787431 2.828990482293648 0.0
    vertex -0.830850467894193 0.8308504678941934 0.0
  endloop
endfacet
facet normal 0.0 0.0 -1.0
  outer loop
    vertex -0.830850467894193 0.8308504678941934 0.0
    vertex -0.9984051537787431 2.828990482293648 0.0
    vertex -0.6206063038025056 2.9351060995610694 0.0
  endloop
endfacet
facet normal 0.0 0.0 -1.0
  outer loop
    vertex -0.830850467894193 0.8308504678941934 0.0
    vertex -0.6206063038025056 2.9351060995610694 0.0
    vertex -0.5874999999999991 1.0175798494467156 0.0
  endloop
endfacet
facet normal 0.0 0.0 -1.0
  outer loop
    vertex -0.5874999999999991 1.0175798494467156 0.0
    vertex -0.6206063038025056 2.9351060995610694 0.0
    vertex -0.2321887079036347 2.991001237699851 0.0
  endloop
endfacet
facet normal 0.0 0.0 -1.0
  outer loop
    vertex -0.5874999999999991 1.0175798494467156 0.0
    vertex -0.2321887079036347 2.991001237699851 0.0
    vertex -0.3041123779954613 1.1349628458896552 0.0
  endloop
endfacet
facet normal 0.0 0.0 -1.0
  outer loop
    vertex -0.3041123779954613 1.1349628458896552 0.0
    vertex -0.2321887079036347 2.991001237699851 0.0
    vertex 2.1584399834972093e-16 1.1749999999999998 0.0
  endloop
endfacet
facet normal 0.0 0.0 -1.0
  outer loop
    vertex 2.1584399834972093e-16 1.1749999999999998 0.0
    vertex -0.2321887079036347 2.991001237699851 0.0
    vertex 0.16020170116234003 2.99571951539938 0.0
  endloop
endfacet
facet normal 0.0 0.0 -1.0
  outer loop
    vertex 2.1584399834972093e-16 1.1749999999999998 0.0
    vertex 0.16020170116234003 2.99571951539938 0.0
    vertex 0.30411237799546276 1.1349628458896548 0.0
  endloop
endfacet
facet normal 0.0 0.0 -1.0
  outer loop
    vertex 0.30411237799546276 1.1349628458896548 0.0
    vertex 0.16020170116234003 2.99571951539938 0.0
    vertex 0.5498510147051235 2.949180201620062 0.0
  endloop
endfacet
facet normal 0.0 0.0 -1.0
  outer loop
    vertex 0.30411237799546276 1.1349628458896548 0.0
    vertex 0.5498510147051235 2.949180201620062 0.0
    vertex 0.5875000000000005 1.0175798494467152 0.0
  endloop
endfacet
facet normal 0.0 0.0 -1.0
  outer loop
    vertex 0.5875000000000005 1.0175798494467152 0.0
    vertex 0.5498510147051235 2.949180201620062 0.0
    vertex 0.9300922249388011 2.8521795969237975 0.0
  endloop
endfacet
facet normal 0.0 0.0 -1.0
  outer loop
    vertex 0.5875000000000005 1.0175798494467152 0.0
    vertex 0.9300922249388011 2.8521795969237975 0.0
    vertex 0.8308504678941937 0.8308504678941927 0.0
  endloop
endfacet
facet normal 0.0 0.0 -1.0
  outer loop
    vertex 0.8308504678941937 0.8308504678941927 0.0
    vertex 0.9300922249388011 2.8521795969237975 0.0
    vertex 1.0175798494467154 0.5874999999999996 0.0
  endloop
endfacet
facet normal 0.0 0.0 -1.0
  outer loop
    vertex 1.0175798494467154 0.5874999999999996 0.0
    vertex 0.9300922249388011 2.8521795969237975 0.0
    vertex 1.2944192993334929 2.706377408550588 0.0
  endloop
endfacet
facet normal 0.0 0.0 -1.0
  outer loop
    vertex 1.0175798494467154 0.5874999999999996 0.0
    vertex 1.2944192993334929 2.706377408550588 0.0
    vertex 1.1349628458896552 0.3041123779954613 0.0
  endloop
endfacet
facet normal 0.0 0.0 -1.0
  outer loop
    vertex 1.1349628458896552 0.3041123779954613 0.0
    vertex 1.2944192993334929 2.706377408550588 0.0
    vertex 1.1749999999999998 -1.4389599889981397e-16 0.0
  endloop
endfacet
facet normal 0.0 0.0 -1.0
  outer loop
    vertex -1.1749999999999998 0.0 0.0
    vertex -0.9300922249388014 -2.8521795969237975 0.0
    vertex -1.2944192993334933 -2.7063774085505874 0.0
  endloop
endfacet
facet normal 0.0 0.0 -1.0
  outer loop
    vertex -0.9300922249388014 -2.8521795969237975 0.0
    vertex -1.1749999999999998 0.0 0.0
    vertex -1.134962845889655 -0.3041123779954618 0.0
  endloop
endfacet
facet normal 0.0 0.0 -1.0
  outer loop
    vertex -0.9300922249388014 -2.8521795969237975 0.0
    vertex -1.134962845889655 -0.3041123779954618 0.0
    vertex -1.0175798494467152 -0.5874999999999998 0.0
  endloop
endfacet
facet normal 0.0 0.0 -1.0
  outer loop
    vertex -0.9300922249388014 -2.8521795969237975 0.0
    vertex -1.0175798494467152 -0.5874999999999998 0.0
    vertex -0.8308504678941931 -0.8308504678941931 0.0
  endloop
endfacet
facet normal 0.0 0.0 -1.0
  outer loop
    vertex -0.9300922249388014 -2.8521795969237975 0.0
    vertex -0.8308504678941931 -0.8308504678941931 0.0
    vertex -0.5498510147051244 -2.9491802016200617 0.0
  endloop
endfacet
facet normal 0.0 0.0 -1.0
  outer loop
    vertex -0.5498510147051244 -2.9491802016200617 0.0
    vertex -0.8308504678941931 -0.8308504678941931 0.0
    vertex -0.5875 -1.0175798494467152 0.0
  endloop
endfacet
facet normal 0.0 0.0 -1.0
  outer loop
    vertex -0.5498510147051244 -2.9491802016200617 0.0
    vertex -0.5875 -1.0175798494467152 0.0
    vertex -0.3041123779954621 -1.134962845889655 0.0
  endloop
endfacet
facet normal 0.0 0.0 -1.0
  outer loop
    vertex -0.5498510147051244 -2.9491802016200617 0.0
    vertex -0.3041123779954621 -1.134962845889655 0.0
    vertex -0.1602017011623411 -2.99571951539938 0.0
  endloop
endfacet
facet normal 0.0 0.0 -1.0
  outer loop
    vertex -0.1602017011623411 -2.99571951539938 0.0
    vertex -0.3041123779954621 -1.134962845889655 0.0
    vertex -7.194799944990698e-17 -1.1749999999999998 0.0
  endloop
endfacet
facet normal 0.0 0.0 -1.0
  outer loop
    vertex -0.1602017011623411 -2.99571951539938 0.0
    vertex -7.194799944990698e-17 -1.1749999999999998 0.0
    vertex 0.2321887079036331 -2.9910012376998516 0.0
  endloop
endfacet
facet normal 0.0 0.0 -1.0
  outer loop
    vertex 0.2321887079036331 -2.9910012376998516 0.0
    vertex -7.194799944990698e-17 -1.1749999999999998 0.0
    vertex 0.3041123779954617 -1.134962845889655 0.0
  endloop
endfacet
facet normal 0.0 0.0 -1.0
  outer loop
    vertex 0.2321887079036331 -2.9910012376998516 0.0
    vertex 0.3041123779954617 -1.134962845889655 0.0
    vertex 0.620606303802504 -2.9351060995610703 0.0
  endloop
endfacet
facet normal 0.0 0.0 -1.0
  outer loop
    vertex 0.620606303802504 -2.9351060995610703 0.0
    vertex 0.3041123779954617 -1.134962845889655 0.0
    vertex 0.5874999999999996 -1.0175798494467152 0.0
  endloop
endfacet
facet normal 0.0 0.0 -1.0
  outer loop
    vertex 0.620606303802504 -2.9351060995610703 0.0
    vertex 0.5874999999999996 -1.0175798494467152 0.0
    vertex 0.8308504678941931 -0.8308504678941931 0.0
  endloop
endfacet
facet normal 0.0 0.0 -1.0
  outer loop
    vertex 0.620606303802504 -2.9351060995610703 0.0
    vertex 0.8308504678941931 -0.8308504678941931 0.0
    vertex 0.9984051537787427 -2.8289904822936482 0.0
  endloop
endfacet
facet normal 0.0 0.0 -1.0
  outer loop
    vertex 0.9984051537787427 -2.8289904822936482 0.0
    vertex 0.8308504678941931 -0.8308504678941931 0.0
    vertex 1.0175798494467152 -0.5875000000000002 0.0
  endloop
endfacet
facet normal 0.0 0.0 -1.0
  outer loop
    vertex 0.9984051537787427 -2.8289904822936482 0.0
    vertex 1.0175798494467152 -0.5875000000000002 0.0
    vertex 1.35912101476362 -2.674470053529841 0.0
  endloop
endfacet
facet normal 0.0 0.0 -1.0
  outer loop
    vertex 1.35912101476362 -2.674470053529841 0.0
    vertex 1.0175798494467152 -0.5875000000000002 0.0
    vertex 1.134962845889655 -0.30411237799546215 0.0
  endloop
endfacet
facet normal 0.0 0.0 -1.0
  outer loop
    vertex 1.35912101476362 -2.674470053529841 0.0
    vertex 1.134962845889655 -0.30411237799546215 0.0
    vertex 1.1749999999999998 -1.4389599889981397e-16 0.0
  endloop
endfacet
facet normal 0.0 0.0 -1.0
  outer loop
    vertex 1.35912101476362 -2.674470053529841 0.0
    vertex 1.1749999999999998 -1.4389599889981397e-16 0.0
    vertex 1.2944192993334929 2.706377408550588 0.0
  endloop
endfacet
facet normal 0.0 0.0 -1.0
  outer loop
    vertex 1.35912101476362 -2.674470053529841 0.0
    vertex 1.2944192993334929 2.706377408550588 0.0
    vertex 1.6365985006357586 2.5142683523675013 0.0
  endloop
endfacet
facet normal 0.0 0.0 -1.0
  outer loop
    vertex 1.35912101476362 -2.674470053529841 0.0
    vertex 1.6365985006357586 2.5142683523675013 0.0
    vertex 1.6965819383663572 -2.4741887006469527 0.0
  endloop
endfacet
facet normal 0.0 0.0 -1.0
  outer loop
    vertex 1.6965819383663572 -2.4741887006469527 0.0
    vertex 1.6365985006357586 2.5142683523675013 0.0
    vertex 1.9507750478413188 2.2791394675885246 0.0
  endloop
endfacet
facet normal 0.0 0.0 -1.0
  outer loop
    vertex 1.6965819383663572 -2.4741887006469527 0.0
    vertex 1.9507750478413188 2.2791394675885246 0.0
    vertex 2.005013874622267 -2.2315732931212913 0.0
  endloop
endfacet
facet normal 0.0 0.0 -1.0
  outer loop
    vertex 2.005013874622267 -2.2315732931212913 0.0
    vertex 1.9507750478413188 2.2791394675885246 0.0
    vertex 2.2315732931212904 2.0050138746222688 0.0
  endloop
endfacet
facet normal 0.0 0.0 -1.0
  outer loop
    vertex 2.005013874622267 -2.2315732931212913 0.0
    vertex 2.2315732931212904 2.0050138746222688 0.0
    vertex 2.279139467588523 -1.9507750478413204 0.0
  endloop
endfacet
facet normal 0.0 0.0 -1.0
  outer loop
    vertex 2.279139467588523 -1.9507750478413204 0.0
    vertex 2.2315732931212904 2.0050138746222688 0.0
    vertex 2.474188700646952 1.6965819383663587 0.0
  endloop
endfacet
facet normal 0.0 0.0 -1.0
  outer loop
    vertex 2.279139467588523 -1.9507750478413204 0.0
    vertex 2.474188700646952 1.6965819383663587 0.0
    vertex 2.5142683523674996 -1.6365985006357606 0.0
  endloop
endfacet
facet normal 0.0 0.0 -1.0
  outer loop
    vertex 2.5142683523674996 -1.6365985006357606 0.0
    vertex 2.474188700646952 1.6965819383663587 0.0
    vertex 2.6744700535298405 1.3591210147636217 0.0
  endloop
endfacet
facet normal 0.0 0.0 -1.0
  outer loop
    vertex 2.5142683523674996 -1.6365985006357606 0.0
    vertex 2.6744700535298405 1.3591210147636217 0.0
    vertex 2.706377408550587 -1.2944192993334924 0.0
  endloop
endfacet
facet normal 0.0 0.0 -1.0
  outer loop
    vertex 2.706377408550587 -1.2944192993334924 0.0
    vertex 2.6744700535298405 1.3591210147636217 0.0
    vertex 2.8289904822936482 0.9984051537787442 0.0
  endloop
endfacet
facet normal 0.0 0.0 -1.0
  outer loop
    vertex 2.706377408550587 -1.2944192993334924 0.0
    vertex 2.8289904822936482 0.9984051537787442 0.0
    vertex 2.8521795969237966 -0.9300922249387998 0.0
  endloop
endfacet
facet normal 0.0 0.0 -1.0
  outer loop
    vertex 2.8521795969237966 -0.9300922249387998 0.0
    vertex 2.8289904822936482 0.9984051537787442 0.0
    vertex 2.9351060995610694 0.620606303802507 0.0
  endloop
endfacet
facet normal 0.0 0.0 -1.0
  outer loop
    vertex 2.8521795969237966 -0.9300922249387998 0.0
    vertex 2.9351060995610694 0.620606303802507 0.0
    vertex 2.9491802016200617 -0.5498510147051229 0.0
  endloop
endfacet
facet normal 0.0 0.0 -1.0
  outer loop
    vertex 2.9491802016200617 -0.5498510147051229 0.0
    vertex 2.9351060995610694 0.620606303802507 0.0
    vertex 2.991001237699851 0.23218870790363574 0.0
  endloop
endfacet
facet normal 0.0 0.0 -1.0
  outer loop
    vertex 2.9491802016200617 -0.5498510147051229 0.0
    vertex 2.991001237699851 0.23218870790363574 0.0
    vertex 2.9957195153993794 -0.16020170116233842 0.0
  endloop
endfacet
facet normal 0.7933533402912353 0.6087614290087207 0.0
  outer loop
    vertex -1.0175798494467152 -0.5874999999999998 0.0
    vertex -0.8308504678941931 -0.8308504678941931 5.75
    vertex -0.8308504678941931 -0.8308504678941931 0.0
  endloop
endfacet
facet normal 0.7933533402912353 0.6087614290087207 0.0
  outer loop
    vertex -0.8308504678941931 -0.8308504678941931 5.75
    vertex -1.0175798494467152 -0.5874999999999998 0.0
    vertex -1.0175798494467152 -0.5874999999999998 5.75
  endloop
endfacet
facet normal 0.9238795325112867 0.38268343236508956 0.0
  outer loop
    vertex -1.134962845889655 -0.3041123779954618 0.0
    vertex -1.0175798494467152 -0.5874999999999998 5.75
    vertex -1.0175798494467152 -0.5874999999999998 0.0
  endloop
endfacet
facet normal 0.9238795325112867 0.38268343236508956 0.0
  outer loop
    vertex -1.0175798494467152 -0.5874999999999998 5.75
    vertex -1.134962845889655 -0.3041123779954618 0.0
    vertex -1.134962845889655 -0.3041123779954618 5.75
  endloop
endfacet
facet normal 0.9914448613738105 0.13052619222005166 0.0
  outer loop
    vertex -1.1749999999999998 0.0 0.0
    vertex -1.134962845889655 -0.3041123779954618 5.75
    vertex -1.134962845889655 -0.3041123779954618 0.0
  endloop
endfacet
facet normal 0.9914448613738105 0.13052619222005166 0.0
  outer loop
    vertex -1.134962845889655 -0.3041123779954618 5.75
    vertex -1.1749999999999998 0.0 0.0
    vertex -1.1749999999999998 0.0 5.75
  endloop
endfacet
facet normal 0.9914448613738104 -0.13052619222005182 -0.0
  outer loop
    vertex -1.1349628458896548 0.3041123779954628 0.0
    vertex -1.1749999999999998 0.0 5.75
    vertex -1.1749999999999998 0.0 0.0
  endloop
endfacet
facet normal 0.9914448613738104 -0.13052619222005182 -0.0
  outer loop
    vertex -1.1749999999999998 0.0 5.75
    vertex -1.1349628458896548 0.3041123779954628 0.0
    vertex -1.1349628458896548 0.3041123779954628 5.75
  endloop
endfacet
facet normal 0.9238795325112866 -0.3826834323650906 -0.0
  outer loop
    vertex -1.017579849446715 0.5875000000000005 0.0
    vertex -1.1349628458896548 0.3041123779954628 5.75
    vertex -1.1349628458896548 0.3041123779954628 0.0
  endloop
endfacet
facet normal 0.9238795325112866 -0.3826834323650906 -0.0
  outer loop
    vertex -1.1349628458896548 0.3041123779954628 5.75
    vertex -1.017579849446715 0.5875000000000005 0.0
    vertex -1.017579849446715 0.5875000000000005 5.75
  endloop
endfacet
facet normal 0.7933533402912349 -0.608761429008721 -0.0
  outer loop
    vertex -0.830850467894193 0.8308504678941934 0.0
    vertex -1.017579849446715 0.5875000000000005 5.75
    vertex -1.017579849446715 0.5875000000000005 0.0
  endloop
endfacet
facet normal 0.7933533402912349 -0.608761429008721 -0.0
  outer loop
    vertex -1.017579849446715 0.5875000000000005 5.75
    vertex -0.830850467894193 0.8308504678941934 0.0
    vertex -0.830850467894193 0.8308504678941934 5.75
  endloop
endfacet
facet normal 0.6087614290087202 -0.7933533402912356 -0.0
  outer loop
    vertex -0.5874999999999991 1.0175798494467156 5.75
    vertex -0.830850467894193 0.8308504678941934 0.0
    vertex -0.5874999999999991 1.0175798494467156 0.0
  endloop
endfacet
facet normal 0.6087614290087202 -0.7933533402912356 -0.0
  outer loop
    vertex -0.830850467894193 0.8308504678941934 0.0
    vertex -0.5874999999999991 1.0175798494467156 5.75
    vertex -0.830850467894193 0.8308504678941934 5.75
  endloop
endfacet
facet normal 0.38268343236508945 -0.9238795325112871 -0.0
  outer loop
    vertex -0.3041123779954613 1.1349628458896552 5.75
    vertex -0.5874999999999991 1.0175798494467156 0.0
    vertex -0.3041123779954613 1.1349628458896552 0.0
  endloop
endfacet
facet normal 0.38268343236508945 -0.9238795325112871 -0.0
  outer loop
    vertex -0.5874999999999991 1.0175798494467156 0.0
    vertex -0.3041123779954613 1.1349628458896552 5.75
    vertex -0.5874999999999991 1.0175798494467156 5.75
  endloop
endfacet
facet normal 0.1305261922200512 -0.9914448613738105 -0.0
  outer loop
    vertex 2.1584399834972093e-16 1.1749999999999998 5.75
    vertex -0.3041123779954613 1.1349628458896552 0.0
    vertex 2.1584399834972093e-16 1.1749999999999998 0.0
  endloop
endfacet
facet normal 0.1305261922200512 -0.9914448613738105 -0.0
  outer loop
    vertex -0.3041123779954613 1.1349628458896552 0.0
    vertex 2.1584399834972093e-16 1.1749999999999998 5.75
    vertex -0.3041123779954613 1.1349628458896552 5.75
  endloop
endfacet
facet normal -0.13052619222005193 -0.9914448613738104 -0.0
  outer loop
    vertex 0.30411237799546276 1.1349628458896548 5.75
    vertex 2.1584399834972093e-16 1.1749999999999998 0.0
    vertex 0.30411237799546276 1.1349628458896548 0.0
  endloop
endfacet
facet normal -0.13052619222005193 -0.9914448613738104 -0.0
  outer loop
    vertex 2.1584399834972093e-16 1.1749999999999998 0.0
    vertex 0.30411237799546276 1.1349628458896548 5.75
    vertex 2.1584399834972093e-16 1.1749999999999998 5.75
  endloop
endfacet
facet normal -0.38268343236509 -0.9238795325112867 -0.0
  outer loop
    vertex 0.5875000000000005 1.0175798494467152 5.75
    vertex 0.30411237799546276 1.1349628458896548 0.0
    vertex 0.5875000000000005 1.0175798494467152 0.0
  endloop
endfacet
facet normal -0.38268343236509 -0.9238795325112867 -0.0
  outer loop
    vertex 0.30411237799546276 1.1349628458896548 0.0
    vertex 0.5875000000000005 1.0175798494467152 5.75
    vertex 0.30411237799546276 1.1349628458896548 5.75
  endloop
endfacet
facet normal -0.6087614290087215 -0.7933533402912346 -0.0
  outer loop
    vertex 0.8308504678941937 0.8308504678941927 5.75
    vertex 0.5875000000000005 1.0175798494467152 0.0
    vertex 0.8308504678941937 0.8308504678941927 0.0
  endloop
endfacet
facet normal -0.6087614290087215 -0.7933533402912346 -0.0
  outer loop
    vertex 0.5875000000000005 1.0175798494467152 0.0
    vertex 0.8308504678941937 0.8308504678941927 5.75
    vertex 0.5875000000000005 1.0175798494467152 5.75
  endloop
endfacet
facet normal -0.7933533402912356 -0.6087614290087203 -0.0
  outer loop
    vertex 0.8308504678941937 0.8308504678941927 5.75
    vertex 1.0175798494467154 0.5874999999999996 0.0
    vertex 1.0175798494467154 0.5874999999999996 5.75
  endloop
endfacet
facet normal -0.7933533402912356 -0.6087614290087203 -0.0
  outer loop
    vertex 1.0175798494467154 0.5874999999999996 0.0
    vertex 0.8308504678941937 0.8308504678941927 5.75
    vertex 0.8308504678941937 0.8308504678941927 0.0
  endloop
endfacet
facet normal -0.9238795325112868 -0.38268343236508934 -0.0
  outer loop
    vertex 1.0175798494467154 0.5874999999999996 5.75
    vertex 1.1349628458896552 0.3041123779954613 0.0
    vertex 1.1349628458896552 0.3041123779954613 5.75
  endloop
endfacet
facet normal -0.9238795325112868 -0.38268343236508934 -0.0
  outer loop
    vertex 1.1349628458896552 0.3041123779954613 0.0
    vertex 1.0175798494467154 0.5874999999999996 5.75
    vertex 1.0175798494467154 0.5874999999999996 0.0
  endloop
endfacet
facet normal -0.9914448613738105 -0.13052619222005124 -0.0
  outer loop
    vertex 1.1349628458896552 0.3041123779954613 5.75
    vertex 1.1749999999999998 -1.4389599889981397e-16 0.0
    vertex 1.1749999999999998 -1.4389599889981397e-16 5.75
  endloop
endfacet
facet normal -0.9914448613738105 -0.13052619222005124 -0.0
  outer loop
    vertex 1.1749999999999998 -1.4389599889981397e-16 0.0
    vertex 1.1349628458896552 0.3041123779954613 5.75
    vertex 1.1349628458896552 0.3041123779954613 0.0
  endloop
endfacet
facet normal -0.9914448613738104 0.13052619222005157 -0.0
  outer loop
    vertex 1.1749999999999998 -1.4389599889981397e-16 5.75
    vertex 1.134962845889655 -0.30411237799546215 0.0
    vertex 1.134962845889655 -0.30411237799546215 5.75
  endloop
endfacet
facet normal -0.9914448613738104 0.13052619222005157 -0.0
  outer loop
    vertex 1.134962845889655 -0.30411237799546215 0.0
    vertex 1.1749999999999998 -1.4389599889981397e-16 5.75
    vertex 1.1749999999999998 -1.4389599889981397e-16 0.0
  endloop
endfacet
facet normal -0.9238795325112867 0.38268343236509 -0.0
  outer loop
    vertex 1.134962845889655 -0.30411237799546215 5.75
    vertex 1.0175798494467152 -0.5875000000000002 0.0
    vertex 1.0175798494467152 -0.5875000000000002 5.75
  endloop
endfacet
facet normal -0.9238795325112867 0.38268343236509 -0.0
  outer loop
    vertex 1.0175798494467152 -0.5875000000000002 0.0
    vertex 1.134962845889655 -0.30411237799546215 5.75
    vertex 1.134962845889655 -0.30411237799546215 0.0
  endloop
endfacet
facet normal -0.7933533402912349 0.608761429008721 -0.0
  outer loop
    vertex 1.0175798494467152 -0.5875000000000002 5.75
    vertex 0.8308504678941931 -0.8308504678941931 0.0
    vertex 0.8308504678941931 -0.8308504678941931 5.75
  endloop
endfacet
facet normal -0.7933533402912349 0.608761429008721 -0.0
  outer loop
    vertex 0.8308504678941931 -0.8308504678941931 0.0
    vertex 1.0175798494467152 -0.5875000000000002 5.75
    vertex 1.0175798494467152 -0.5875000000000002 0.0
  endloop
endfacet
facet normal -0.6087614290087203 0.7933533402912355 -0.0
  outer loop
    vertex 0.5874999999999996 -1.0175798494467152 5.75
    vertex 0.8308504678941931 -0.8308504678941931 0.0
    vertex 0.5874999999999996 -1.0175798494467152 0.0
  endloop
endfacet
facet normal -0.6087614290087203 0.7933533402912355 -0.0
  outer loop
    vertex 0.8308504678941931 -0.8308504678941931 0.0
    vertex 0.5874999999999996 -1.0175798494467152 5.75
    vertex 0.8308504678941931 -0.8308504678941931 5.75
  endloop
endfacet
facet normal -0.38268343236508967 0.9238795325112868 -0.0
  outer loop
    vertex 0.3041123779954617 -1.134962845889655 5.75
    vertex 0.5874999999999996 -1.0175798494467152 0.0
    vertex 0.3041123779954617 -1.134962845889655 0.0
  endloop
endfacet
facet normal -0.38268343236508967 0.9238795325112868 -0.0
  outer loop
    vertex 0.5874999999999996 -1.0175798494467152 0.0
    vertex 0.3041123779954617 -1.134962845889655 5.75
    vertex 0.5874999999999996 -1.0175798494467152 5.75
  endloop
endfacet
facet normal -0.13052619222005168 0.9914448613738105 -0.0
  outer loop
    vertex -7.194799944990698e-17 -1.1749999999999998 5.75
    vertex 0.3041123779954617 -1.134962845889655 0.0
    vertex -7.194799944990698e-17 -1.1749999999999998 0.0
  endloop
endfacet
facet normal -0.13052619222005168 0.9914448613738105 -0.0
  outer loop
    vertex 0.3041123779954617 -1.134962845889655 0.0
    vertex -7.194799944990698e-17 -1.1749999999999998 5.75
    vertex 0.3041123779954617 -1.134962845889655 5.75
  endloop
endfacet
facet normal 0.13052619222005157 0.9914448613738104 0.0
  outer loop
    vertex -0.3041123779954621 -1.134962845889655 5.75
    vertex -7.194799944990698e-17 -1.1749999999999998 0.0
    vertex -0.3041123779954621 -1.134962845889655 0.0
  endloop
endfacet
facet normal 0.13052619222005157 0.9914448613738104 0.0
  outer loop
    vertex -7.194799944990698e-17 -1.1749999999999998 0.0
    vertex -0.3041123779954621 -1.134962845889655 5.75
    vertex -7.194799944990698e-17 -1.1749999999999998 5.75
  endloop
endfacet
facet normal 0.3826834323650903 0.9238795325112867 0.0
  outer loop
    vertex -0.5875 -1.0175798494467152 5.75
    vertex -0.3041123779954621 -1.134962845889655 0.0
    vertex -0.5875 -1.0175798494467152 0.0
  endloop
endfacet
facet normal 0.3826834323650903 0.9238795325112867 0.0
  outer loop
    vertex -0.3041123779954621 -1.134962845889655 0.0
    vertex -0.5875 -1.0175798494467152 5.75
    vertex -0.3041123779954621 -1.134962845889655 5.75
  endloop
endfacet
facet normal 0.6087614290087205 0.7933533402912353 0.0
  outer loop
    vertex -0.8308504678941931 -0.8308504678941931 5.75
    vertex -0.5875 -1.0175798494467152 0.0
    vertex -0.8308504678941931 -0.8308504678941931 0.0
  endloop
endfacet
facet normal 0.6087614290087205 0.7933533402912353 0.0
  outer loop
    vertex -0.5875 -1.0175798494467152 0.0
    vertex -0.8308504678941931 -0.8308504678941931 5.75
    vertex -0.5875 -1.0175798494467152 5.75
  endloop
endfacet
facet normal 0.0 0.0 1.0
  outer loop
    vertex -1.0866532377056184 -0.9218512575160358 5.75
    vertex -1.1749999999999998 0.0 5.75
    vertex -1.288219088717349 -0.6091933842912631 5.75
  endloop
endfacet
facet normal 0.0 0.0 1.0
  outer loop
    vertex -1.1749999999999998 0.0 5.75
    vertex -1.0866532377056184 -0.9218512575160358 5.75
    vertex -1.134962845889655 -0.3041123779954618 5.75
  endloop
endfacet
facet normal 0.0 0.0 1.0
  outer loop
    vertex -1.134962845889655 -0.3041123779954618 5.75
    vertex -1.0866532377056184 -0.9218512575160358 5.75
    vertex -1.0175798494467152 -0.5874999999999998 5.75
  endloop
endfacet
facet normal 0.0 0.0 1.0
  outer loop
    vertex -1.0175798494467152 -0.5874999999999998 5.75
    vertex -1.0866532377056184 -0.9218512575160358 5.75
    vertex -0.8110337643236322 -1.1716864909723244 5.75
  endloop
endfacet
facet normal 0.0 0.0 1.0
  outer loop
    vertex -1.0175798494467152 -0.5874999999999998 5.75
    vertex -0.8110337643236322 -1.1716864909723244 5.75
    vertex -0.8308504678941931 -0.8308504678941931 5.75
  endloop
endfacet
facet normal 0.0 0.0 1.0
  outer loop
    vertex -0.8308504678941931 -0.8308504678941931 5.75
    vertex -0.8110337643236322 -1.1716864909723244 5.75
    vertex -0.5875 -1.0175798494467152 5.75
  endloop
endfacet
facet normal 0.0 0.0 1.0
  outer loop
    vertex -0.5875 -1.0175798494467152 5.75
    vertex -0.8110337643236322 -1.1716864909723244 5.75
    vertex -0.4801436801996578 -1.3416732263723268 5.75
  endloop
endfacet
facet normal 0.0 0.0 1.0
  outer loop
    vertex -0.5875 -1.0175798494467152 5.75
    vertex -0.4801436801996578 -1.3416732263723268 5.75
    vertex -0.3041123779954621 -1.134962845889655 5.75
  endloop
endfacet
facet normal 0.0 0.0 1.0
  outer loop
    vertex -0.3041123779954621 -1.134962845889655 5.75
    vertex -0.4801436801996578 -1.3416732263723268 5.75
    vertex -0.11653259774502499 -1.4202271486148956 5.75
  endloop
endfacet
facet normal 0.0 0.0 1.0
  outer loop
    vertex -0.3041123779954621 -1.134962845889655 5.75
    vertex -0.11653259774502499 -1.4202271486148956 5.75
    vertex -7.194799944990698e-17 -1.1749999999999998 5.75
  endloop
endfacet
facet normal 0.0 0.0 1.0
  outer loop
    vertex -7.194799944990698e-17 -1.1749999999999998 5.75
    vertex -0.11653259774502499 -1.4202271486148956 5.75
    vertex 0.25501998866670833 -1.4019949377156937 5.75
  endloop
endfacet
facet normal 0.0 0.0 1.0
  outer loop
    vertex -7.194799944990698e-17 -1.1749999999999998 5.75
    vertex 0.25501998866670833 -1.4019949377156937 5.75
    vertex 0.3041123779954617 -1.134962845889655 5.75
  endloop
endfacet
facet normal 0.0 0.0 1.0
  outer loop
    vertex 0.3041123779954617 -1.134962845889655 5.75
    vertex 0.25501998866670833 -1.4019949377156937 5.75
    vertex 0.609193384291263 -1.2882190887173492 5.75
  endloop
endfacet
facet normal 0.0 0.0 1.0
  outer loop
    vertex 0.3041123779954617 -1.134962845889655 5.75
    vertex 0.609193384291263 -1.2882190887173492 5.75
    vertex 0.5874999999999996 -1.0175798494467152 5.75
  endloop
endfacet
facet normal 0.0 0.0 1.0
  outer loop
    vertex 0.5874999999999996 -1.0175798494467152 5.75
    vertex 0.609193384291263 -1.2882190887173492 5.75
    vertex 0.8308504678941931 -0.8308504678941931 5.75
  endloop
endfacet
facet normal 0.0 0.0 1.0
  outer loop
    vertex 0.8308504678941931 -0.8308504678941931 5.75
    vertex 0.609193384291263 -1.2882190887173492 5.75
    vertex 0.9218512575160358 -1.0866532377056184 5.75
  endloop
endfacet
facet normal 0.0 0.0 1.0
  outer loop
    vertex 0.8308504678941931 -0.8308504678941931 5.75
    vertex 0.9218512575160358 -1.0866532377056184 5.75
    vertex 1.0175798494467152 -0.5875000000000002 5.75
  endloop
endfacet
facet normal 0.0 0.0 1.0
  outer loop
    vertex 1.0175798494467152 -0.5875000000000002 5.75
    vertex 0.9218512575160358 -1.0866532377056184 5.75
    vertex 1.171686490972325 -0.8110337643236316 5.75
  endloop
endfacet
facet normal 0.0 0.0 1.0
  outer loop
    vertex 1.0175798494467152 -0.5875000000000002 5.75
    vertex 1.171686490972325 -0.8110337643236316 5.75
    vertex 1.134962845889655 -0.30411237799546215 5.75
  endloop
endfacet
facet normal 0.0 0.0 1.0
  outer loop
    vertex 1.134962845889655 -0.30411237799546215 5.75
    vertex 1.171686490972325 -0.8110337643236316 5.75
    vertex 1.1749999999999998 -1.4389599889981397e-16 5.75
  endloop
endfacet
facet normal 0.0 0.0 1.0
  outer loop
    vertex 1.1749999999999998 -1.4389599889981397e-16 5.75
    vertex 1.171686490972325 -0.8110337643236316 5.75
    vertex 1.341673226372327 -0.4801436801996572 5.75
  endloop
endfacet
facet normal 0.0 0.0 1.0
  outer loop
    vertex 1.1749999999999998 -1.4389599889981397e-16 5.75
    vertex 1.341673226372327 -0.4801436801996572 5.75
    vertex 1.2882190887173488 0.6091933842912636 5.75
  endloop
endfacet
facet normal 0.0 0.0 1.0
  outer loop
    vertex 1.2882190887173488 0.6091933842912636 5.75
    vertex 1.341673226372327 -0.4801436801996572 5.75
    vertex 1.4019949377156937 0.2550199886667092 5.75
  endloop
endfacet
facet normal 0.0 0.0 1.0
  outer loop
    vertex 1.4019949377156937 0.2550199886667092 5.75
    vertex 1.341673226372327 -0.4801436801996572 5.75
    vertex 1.4202271486148956 -0.11653259774502454 5.75
  endloop
endfacet
facet normal 0.0 0.0 1.0
  outer loop
    vertex -1.4019949377156937 -0.2550199886667086 5.75
    vertex -1.341673226372327 0.4801436801996575 5.75
    vertex -1.4202271486148954 0.11653259774502489 5.75
  endloop
endfacet
facet normal 0.0 0.0 1.0
  outer loop
    vertex -1.341673226372327 0.4801436801996575 5.75
    vertex -1.4019949377156937 -0.2550199886667086 5.75
    vertex -1.288219088717349 -0.6091933842912631 5.75
  endloop
endfacet
facet normal 0.0 0.0 1.0
  outer loop
    vertex -1.341673226372327 0.4801436801996575 5.75
    vertex -1.288219088717349 -0.6091933842912631 5.75
    vertex -1.1716864909723246 0.8110337643236322 5.75
  endloop
endfacet
facet normal 0.0 0.0 1.0
  outer loop
    vertex -1.1716864909723246 0.8110337643236322 5.75
    vertex -1.288219088717349 -0.6091933842912631 5.75
    vertex -1.1749999999999998 0.0 5.75
  endloop
endfacet
facet normal 0.0 0.0 1.0
  outer loop
    vertex -1.1716864909723246 0.8110337643236322 5.75
    vertex -1.1749999999999998 0.0 5.75
    vertex -1.1349628458896548 0.3041123779954628 5.75
  endloop
endfacet
facet normal 0.0 0.0 1.0
  outer loop
    vertex -1.1716864909723246 0.8110337643236322 5.75
    vertex -1.1349628458896548 0.3041123779954628 5.75
    vertex -0.921851257516036 1.0866532377056184 5.75
  endloop
endfacet
facet normal 0.0 0.0 1.0
  outer loop
    vertex -0.921851257516036 1.0866532377056184 5.75
    vertex -1.1349628458896548 0.3041123779954628 5.75
    vertex -1.017579849446715 0.5875000000000005 5.75
  endloop
endfacet
facet normal 0.0 0.0 1.0
  outer loop
    vertex -0.921851257516036 1.0866532377056184 5.75
    vertex -1.017579849446715 0.5875000000000005 5.75
    vertex -0.830850467894193 0.8308504678941934 5.75
  endloop
endfacet
facet normal 0.0 0.0 1.0
  outer loop
    vertex -0.921851257516036 1.0866532377056184 5.75
    vertex -0.830850467894193 0.8308504678941934 5.75
    vertex -0.6091933842912634 1.288219088717349 5.75
  endloop
endfacet
facet normal 0.0 0.0 1.0
  outer loop
    vertex -0.6091933842912634 1.288219088717349 5.75
    vertex -0.830850467894193 0.8308504678941934 5.75
    vertex -0.5874999999999991 1.0175798494467156 5.75
  endloop
endfacet
facet normal 0.0 0.0 1.0
  outer loop
    vertex -0.6091933842912634 1.288219088717349 5.75
    vertex -0.5874999999999991 1.0175798494467156 5.75
    vertex -0.2550199886667088 1.4019949377156937 5.75
  endloop
endfacet
facet normal 0.0 0.0 1.0
  outer loop
    vertex -0.2550199886667088 1.4019949377156937 5.75
    vertex -0.5874999999999991 1.0175798494467156 5.75
    vertex -0.3041123779954613 1.1349628458896552 5.75
  endloop
endfacet
facet normal 0.0 0.0 1.0
  outer loop
    vertex -0.2550199886667088 1.4019949377156937 5.75
    vertex -0.3041123779954613 1.1349628458896552 5.75
    vertex 2.1584399834972093e-16 1.1749999999999998 5.75
  endloop
endfacet
facet normal 0.0 0.0 1.0
  outer loop
    vertex -0.2550199886667088 1.4019949377156937 5.75
    vertex 2.1584399834972093e-16 1.1749999999999998 5.75
    vertex 0.11653259774502428 1.4202271486148956 5.75
  endloop
endfacet
facet normal 0.0 0.0 1.0
  outer loop
    vertex 0.11653259774502428 1.4202271486148956 5.75
    vertex 2.1584399834972093e-16 1.1749999999999998 5.75
    vertex 0.30411237799546276 1.1349628458896548 5.75
  endloop
endfacet
facet normal 0.0 0.0 1.0
  outer loop
    vertex 0.11653259774502428 1.4202271486148956 5.75
    vertex 0.30411237799546276 1.1349628458896548 5.75
    vertex 0.48014368019965736 1.341673226372327 5.75
  endloop
endfacet
facet normal 0.0 0.0 1.0
  outer loop
    vertex 0.48014368019965736 1.341673226372327 5.75
    vertex 0.30411237799546276 1.1349628458896548 5.75
    vertex 0.5875000000000005 1.0175798494467152 5.75
  endloop
endfacet
facet normal 0.0 0.0 1.0
  outer loop
    vertex 0.48014368019965736 1.341673226372327 5.75
    vertex 0.5875000000000005 1.0175798494467152 5.75
    vertex 0.8110337643236316 1.171686490972325 5.75
  endloop
endfacet
facet normal 0.0 0.0 1.0
  outer loop
    vertex 0.8110337643236316 1.171686490972325 5.75
    vertex 0.5875000000000005 1.0175798494467152 5.75
    vertex 0.8308504678941937 0.8308504678941927 5.75
  endloop
endfacet
facet normal 0.0 0.0 1.0
  outer loop
    vertex 0.8110337643236316 1.171686490972325 5.75
    vertex 0.8308504678941937 0.8308504678941927 5.75
    vertex 1.0866532377056184 0.921851257516036 5.75
  endloop
endfacet
facet normal 0.0 0.0 1.0
  outer loop
    vertex 1.0866532377056184 0.921851257516036 5.75
    vertex 0.8308504678941937 0.8308504678941927 5.75
    vertex 1.0175798494467154 0.5874999999999996 5.75
  endloop
endfacet
facet normal 0.0 0.0 1.0
  outer loop
    vertex 1.0866532377056184 0.921851257516036 5.75
    vertex 1.0175798494467154 0.5874999999999996 5.75
    vertex 1.1349628458896552 0.3041123779954613 5.75
  endloop
endfacet
facet normal 0.0 0.0 1.0
  outer loop
    vertex 1.0866532377056184 0.921851257516036 5.75
    vertex 1.1349628458896552 0.3041123779954613 5.75
    vertex 1.2882190887173488 0.6091933842912636 5.75
  endloop
endfacet
facet normal 0.0 0.0 1.0
  outer loop
    vertex 1.2882190887173488 0.6091933842912636 5.75
    vertex 1.1349628458896552 0.3041123779954613 5.75
    vertex 1.1749999999999998 -1.4389599889981397e-16 5.75
  endloop
endfacet
facet normal 0.2111666575530459 0.9774500717365949 0.0
  outer loop
    vertex -0.4801436801996578 -1.3416732263723268 11.5
    vertex -0.11653259774502499 -1.4202271486148956 5.75
    vertex -0.4801436801996578 -1.3416732263723268 5.75
  endloop
endfacet
facet normal 0.2111666575530459 0.9774500717365949 0.0
  outer loop
    vertex -0.11653259774502499 -1.4202271486148956 5.75
    vertex -0.4801436801996578 -1.3416732263723268 11.5
    vertex -0.11653259774502499 -1.4202271486148956 11.5
  endloop
endfacet
facet normal -0.04901136602062992 0.99879822086385 -0.0
  outer loop
    vertex -0.11653259774502499 -1.4202271486148956 11.5
    vertex 0.25501998866670833 -1.4019949377156937 5.75
    vertex -0.11653259774502499 -1.4202271486148956 5.75
  endloop
endfacet
facet normal -0.04901136602062992 0.99879822086385 -0.0
  outer loop
    vertex 0.25501998866670833 -1.4019949377156937 5.75
    vertex -0.11653259774502499 -1.4202271486148956 11.5
    vertex 0.25501998866670833 -1.4019949377156937 11.5
  endloop
endfacet
facet normal -0.3058493459951111 0.952079921831336 -0.0
  outer loop
    vertex 0.25501998866670833 -1.4019949377156937 11.5
    vertex 0.609193384291263 -1.2882190887173492 5.75
    vertex 0.25501998866670833 -1.4019949377156937 5.75
  endloop
endfacet
facet normal -0.3058493459951111 0.952079921831336 -0.0
  outer loop
    vertex 0.609193384291263 -1.2882190887173492 5.75
    vertex 0.25501998866670833 -1.4019949377156937 11.5
    vertex 0.609193384291263 -1.2882190887173492 11.5
  endloop
endfacet
facet normal -0.5418441984799679 0.8404789495124796 -0.0
  outer loop
    vertex 0.609193384291263 -1.2882190887173492 11.5
    vertex 0.9218512575160358 -1.0866532377056184 5.75
    vertex 0.609193384291263 -1.2882190887173492 5.75
  endloop
endfacet
facet normal -0.5418441984799679 0.8404789495124796 -0.0
  outer loop
    vertex 0.9218512575160358 -1.0866532377056184 5.75
    vertex 0.609193384291263 -1.2882190887173492 11.5
    vertex 0.9218512575160358 -1.0866532377056184 11.5
  endloop
endfacet
facet normal -0.7409132642782904 0.6716007257414841 -0.0
  outer loop
    vertex 1.171686490972325 -0.8110337643236316 11.5
    vertex 0.9218512575160358 -1.0866532377056184 5.75
    vertex 0.9218512575160358 -1.0866532377056184 11.5
  endloop
endfacet
facet normal -0.7409132642782904 0.6716007257414841 -0.0
  outer loop
    vertex 0.9218512575160358 -1.0866532377056184 5.75
    vertex 1.171686490972325 -0.8110337643236316 11.5
    vertex 1.171686490972325 -0.8110337643236316 5.75
  endloop
endfacet
facet normal -0.8894903155331099 0.45695402238388155 -0.0
  outer loop
    vertex 1.341673226372327 -0.4801436801996572 11.5
    vertex 1.171686490972325 -0.8110337643236316 5.75
    vertex 1.171686490972325 -0.8110337643236316 11.5
  endloop
endfacet
facet normal -0.8894903155331099 0.45695402238388155 -0.0
  outer loop
    vertex 1.171686490972325 -0.8110337643236316 5.75
    vertex 1.341673226372327 -0.4801436801996572 11.5
    vertex 1.341673226372327 -0.4801436801996572 5.75
  endloop
endfacet
facet normal -0.9774500717365953 0.21116665755304512 -0.0
  outer loop
    vertex 1.4202271486148956 -0.11653259774502454 11.5
    vertex 1.341673226372327 -0.4801436801996572 5.75
    vertex 1.341673226372327 -0.4801436801996572 11.5
  endloop
endfacet
facet normal -0.9774500717365953 0.21116665755304512 -0.0
  outer loop
    vertex 1.341673226372327 -0.4801436801996572 5.75
    vertex 1.4202271486148956 -0.11653259774502454 11.5
    vertex 1.4202271486148956 -0.11653259774502454 5.75
  endloop
endfacet
facet normal -0.99879822086385 -0.04901136602063033 -0.0
  outer loop
    vertex 1.4019949377156937 0.2550199886667092 11.5
    vertex 1.4202271486148956 -0.11653259774502454 5.75
    vertex 1.4202271486148956 -0.11653259774502454 11.5
  endloop
endfacet
facet normal -0.99879822086385 -0.04901136602063033 -0.0
  outer loop
    vertex 1.4202271486148956 -0.11653259774502454 5.75
    vertex 1.4019949377156937 0.2550199886667092 11.5
    vertex 1.4019949377156937 0.2550199886667092 5.75
  endloop
endfacet
facet normal -0.9520799218313358 -0.3058493459951118 -0.0
  outer loop
    vertex 1.2882190887173488 0.6091933842912636 11.5
    vertex 1.4019949377156937 0.2550199886667092 5.75
    vertex 1.4019949377156937 0.2550199886667092 11.5
  endloop
endfacet
facet normal -0.9520799218313358 -0.3058493459951118 -0.0
  outer loop
    vertex 1.4019949377156937 0.2550199886667092 5.75
    vertex 1.2882190887173488 0.6091933842912636 11.5
    vertex 1.2882190887173488 0.6091933842912636 5.75
  endloop
endfacet
facet normal -0.8404789495124795 -0.541844198479968 -0.0
  outer loop
    vertex 1.0866532377056184 0.921851257516036 11.5
    vertex 1.2882190887173488 0.6091933842912636 5.75
    vertex 1.2882190887173488 0.6091933842912636 11.5
  endloop
endfacet
facet normal -0.8404789495124795 -0.541844198479968 -0.0
  outer loop
    vertex 1.2882190887173488 0.6091933842912636 5.75
    vertex 1.0866532377056184 0.921851257516036 11.5
    vertex 1.0866532377056184 0.921851257516036 5.75
  endloop
endfacet
facet normal -0.6716007257414841 -0.7409132642782906 -0.0
  outer loop
    vertex 1.0866532377056184 0.921851257516036 11.5
    vertex 0.8110337643236316 1.171686490972325 5.75
    vertex 1.0866532377056184 0.921851257516036 5.75
  endloop
endfacet
facet normal -0.6716007257414841 -0.7409132642782906 -0.0
  outer loop
    vertex 0.8110337643236316 1.171686490972325 5.75
    vertex 1.0866532377056184 0.921851257516036 11.5
    vertex 0.8110337643236316 1.171686490972325 11.5
  endloop
endfacet
facet normal -0.4569540223838818 -0.8894903155331098 -0.0
  outer loop
    vertex 0.8110337643236316 1.171686490972325 11.5
    vertex 0.48014368019965736 1.341673226372327 5.75
    vertex 0.8110337643236316 1.171686490972325 5.75
  endloop
endfacet
facet normal -0.4569540223838818 -0.8894903155331098 -0.0
  outer loop
    vertex 0.48014368019965736 1.341673226372327 5.75
    vertex 0.8110337643236316 1.171686490972325 11.5
    vertex 0.48014368019965736 1.341673226372327 11.5
  endloop
endfacet
facet normal -0.21116665755304492 -0.9774500717365954 -0.0
  outer loop
    vertex 0.48014368019965736 1.341673226372327 11.5
    vertex 0.11653259774502428 1.4202271486148956 5.75
    vertex 0.48014368019965736 1.341673226372327 5.75
  endloop
endfacet
facet normal -0.21116665755304492 -0.9774500717365954 -0.0
  outer loop
    vertex 0.11653259774502428 1.4202271486148956 5.75
    vertex 0.48014368019965736 1.341673226372327 11.5
    vertex 0.11653259774502428 1.4202271486148956 11.5
  endloop
endfacet
facet normal 0.04901136602062994 -0.99879822086385 -0.0
  outer loop
    vertex 0.11653259774502428 1.4202271486148956 11.5
    vertex -0.2550199886667088 1.4019949377156937 5.75
    vertex 0.11653259774502428 1.4202271486148956 5.75
  endloop
endfacet
facet normal 0.04901136602062994 -0.99879822086385 -0.0
  outer loop
    vertex -0.2550199886667088 1.4019949377156937 5.75
    vertex 0.11653259774502428 1.4202271486148956 11.5
    vertex -0.2550199886667088 1.4019949377156937 11.5
  endloop
endfacet
facet normal 0.30584934599511165 -0.9520799218313359 -0.0
  outer loop
    vertex -0.2550199886667088 1.4019949377156937 11.5
    vertex -0.6091933842912634 1.288219088717349 5.75
    vertex -0.2550199886667088 1.4019949377156937 5.75
  endloop
endfacet
facet normal 0.30584934599511165 -0.9520799218313359 -0.0
  outer loop
    vertex -0.6091933842912634 1.288219088717349 5.75
    vertex -0.2550199886667088 1.4019949377156937 11.5
    vertex -0.6091933842912634 1.288219088717349 11.5
  endloop
endfacet
facet normal 0.5418441984799681 -0.8404789495124794 -0.0
  outer loop
    vertex -0.6091933842912634 1.288219088717349 11.5
    vertex -0.921851257516036 1.0866532377056184 5.75
    vertex -0.6091933842912634 1.288219088717349 5.75
  endloop
endfacet
facet normal 0.5418441984799681 -0.8404789495124794 -0.0
  outer loop
    vertex -0.921851257516036 1.0866532377056184 5.75
    vertex -0.6091933842912634 1.288219088717349 11.5
    vertex -0.921851257516036 1.0866532377056184 11.5
  endloop
endfacet
facet normal 0.7409132642782905 -0.671600725741484 -0.0
  outer loop
    vertex -0.921851257516036 1.0866532377056184 5.75
    vertex -1.1716864909723246 0.8110337643236322 11.5
    vertex -1.1716864909723246 0.8110337643236322 5.75
  endloop
endfacet
facet normal 0.7409132642782905 -0.671600725741484 -0.0
  outer loop
    vertex -1.1716864909723246 0.8110337643236322 11.5
    vertex -0.921851257516036 1.0866532377056184 5.75
    vertex -0.921851257516036 1.0866532377056184 11.5
  endloop
endfacet
facet normal 0.8894903155331094 -0.45695402238388244 -0.0
  outer loop
    vertex -1.1716864909723246 0.8110337643236322 5.75
    vertex -1.341673226372327 0.4801436801996575 11.5
    vertex -1.341673226372327 0.4801436801996575 5.75
  endloop
endfacet
facet normal 0.8894903155331094 -0.45695402238388244 -0.0
  outer loop
    vertex -1.341673226372327 0.4801436801996575 11.5
    vertex -1.1716864909723246 0.8110337643236322 5.75
    vertex -1.1716864909723246 0.8110337643236322 11.5
  endloop
endfacet
facet normal 0.9774500717365954 -0.21116665755304476 -0.0
  outer loop
    vertex -1.341673226372327 0.4801436801996575 5.75
    vertex -1.4202271486148954 0.11653259774502489 11.5
    vertex -1.4202271486148954 0.11653259774502489 5.75
  endloop
endfacet
facet normal 0.9774500717365954 -0.21116665755304476 -0.0
  outer loop
    vertex -1.4202271486148954 0.11653259774502489 11.5
    vertex -1.341673226372327 0.4801436801996575 5.75
    vertex -1.341673226372327 0.4801436801996575 11.5
  endloop
endfacet
facet normal 0.9987982208638498 0.04901136602062989 0.0
  outer loop
    vertex -1.4202271486148954 0.11653259774502489 5.75
    vertex -1.4019949377156937 -0.2550199886667086 11.5
    vertex -1.4019949377156937 -0.2550199886667086 5.75
  endloop
endfacet
facet normal 0.9987982208638498 0.04901136602062989 0.0
  outer loop
    vertex -1.4019949377156937 -0.2550199886667086 11.5
    vertex -1.4202271486148954 0.11653259774502489 5.75
    vertex -1.4202271486148954 0.11653259774502489 11.5
  endloop
endfacet
facet normal 0.9520799218313359 0.30584934599511127 0.0
  outer loop
    vertex -1.4019949377156937 -0.2550199886667086 5.75
    vertex -1.288219088717349 -0.6091933842912631 11.5
    vertex -1.288219088717349 -0.6091933842912631 5.75
  endloop
endfacet
facet normal 0.9520799218313359 0.30584934599511127 0.0
  outer loop
    vertex -1.288219088717349 -0.6091933842912631 11.5
    vertex -1.4019949377156937 -0.2550199886667086 5.75
    vertex -1.4019949377156937 -0.2550199886667086 11.5
  endloop
endfacet
facet normal 0.8404789495124797 0.5418441984799677 0.0
  outer loop
    vertex -1.288219088717349 -0.6091933842912631 5.75
    vertex -1.0866532377056184 -0.9218512575160358 11.5
    vertex -1.0866532377056184 -0.9218512575160358 5.75
  endloop
endfacet
facet normal 0.8404789495124797 0.5418441984799677 0.0
  outer loop
    vertex -1.0866532377056184 -0.9218512575160358 11.5
    vertex -1.288219088717349 -0.6091933842912631 5.75
    vertex -1.288219088717349 -0.6091933842912631 11.5
  endloop
endfacet
facet normal 0.6716007257414838 0.7409132642782909 0.0
  outer loop
    vertex -1.0866532377056184 -0.9218512575160358 11.5
    vertex -0.8110337643236322 -1.1716864909723244 5.75
    vertex -1.0866532377056184 -0.9218512575160358 5.75
  endloop
endfacet
facet normal 0.6716007257414838 0.7409132642782909 0.0
  outer loop
    vertex -0.8110337643236322 -1.1716864909723244 5.75
    vertex -1.0866532377056184 -0.9218512575160358 11.5
    vertex -0.8110337643236322 -1.1716864909723244 11.5
  endloop
endfacet
facet normal 0.45695402238388233 0.8894903155331092 0.0
  outer loop
    vertex -0.8110337643236322 -1.1716864909723244 11.5
    vertex -0.4801436801996578 -1.3416732263723268 5.75
    vertex -0.8110337643236322 -1.1716864909723244 5.75
  endloop
endfacet
facet normal 0.45695402238388233 0.8894903155331092 0.0
  outer loop
    vertex -0.4801436801996578 -1.3416732263723268 5.75
    vertex -0.8110337643236322 -1.1716864909723244 11.5
    vertex -0.4801436801996578 -1.3416732263723268 11.5
  endloop
endfacet
endsolid RotorHazard Standoff M2.5 11.5mm
